<svg id="Vrstva_6" xmlns="http://www.w3.org/2000/svg" viewBox="0 0 336.93 336.68"><defs><style>.cls-1{fill:#937052;}.cls-2{fill:#a68562;}.cls-3,.cls-7{fill:#ead2b0;}.cls-4{fill:#4f70b7;}.cls-5{fill:#fff;}.cls-6{fill:#9b7a5c;}.cls-7{opacity:0.33;}.cls-8{fill:none;stroke:#937052;stroke-linecap:round;stroke-miterlimit:10;}</style></defs><path class="cls-1" d="M244.23,4.81a27,27,0,0,1,6,3.25c3.36,2.42,7.64,6.5,6.78,8.13-.68,1.29-4-.09-4.88,1.36-1.22,2,4.11,6.07,3,8.13-.84,1.52-5.14,1.76-7.32-.27s-1.12-4.9-1.62-10.85A45.57,45.57,0,0,0,244.23,4.81Z"></path><path class="cls-2" d="M278.65,189.93c-.78-36.85.56-46.83-2.25-72.69-1.14-10.54-2.33-17.81-4.25-29.49C265,44,259.91,31.37,255.62,23A122.76,122.76,0,0,0,244.23,4.81L144.76,126Q182,229.64,219.3,333.31c12.1-5,24.8-10.75,37.94-17.34,9.45-4.74,18.39-9.56,26.83-14.37-.84-13.22-1.92-31.2-3-52.58C279.7,220.85,279,206.76,278.65,189.93Z"></path><path class="cls-3" d="M219.3,333.31,46.91,323.55C45,242.12,43.26,189,41.49,163.64a164.17,164.17,0,0,1,0-25.48c1-13.16,3.22-20.35,10.84-48.79C62.54,51.3,62.32,50.21,66,41A217.45,217.45,0,0,1,83.77,5.62c31-2.24,55.7-2.38,72.66-2.08,11.58.21,21.52.66,42.81,1,19.13.3,34.76.31,45,.27-4,11.53-9.2,28.05-14.09,48.24-11.74,48.4-13.67,85.51-14.1,95.41-.89,20.84.05,33.37,1.09,55.29C218.55,233.9,219.94,277.79,219.3,333.31Z"></path><ellipse class="cls-4" cx="126.74" cy="171.66" rx="73.12" ry="69.44" transform="translate(-68.17 258.48) rotate(-77.57)"></ellipse><path class="cls-5" d="M146.57,172.45l-.34.35a15.62,15.62,0,0,1-1.95,1.95,9.24,9.24,0,0,1-5.64,2.08,8.41,8.41,0,0,1-4.76-1.24,6.49,6.49,0,0,1-2.6-3.34,10.64,10.64,0,0,1-.66-2.61,5.58,5.58,0,0,1,0-1l.82-15.58c0-.28,0-.28.3-.28l1.51,0c.19,0,.23.06.22.24l-.72,13.56a12.87,12.87,0,0,0,.47,4.33,5.39,5.39,0,0,0,2,2.94,5.62,5.62,0,0,0,2.66,1,7.7,7.7,0,0,0,3.3-.23,7.85,7.85,0,0,0,5.4-5.24,9.12,9.12,0,0,0,.3-2.32q.39-6.9.75-13.79c0-.27,0-.27.27-.26l2,0c.16,0,.2,0,.19.21l-1.2,22.88c0,.15-.06.2-.22.2l-2,0c-.18,0-.24-.06-.23-.25l.18-3.31v-.26Z"></path><path class="cls-5" d="M119.44,172c-.16.17-.32.33-.47.51a13,13,0,0,1-2.43,2.25,9.26,9.26,0,0,1-9.13.76,6.34,6.34,0,0,1-3.14-3.42,10.42,10.42,0,0,1-.78-2.92,6.35,6.35,0,0,1,0-1.07l.81-15.49,0-.26h.18l1.59,0c.2,0,.26.07.23.27a1.93,1.93,0,0,0,0,.24l-.71,13.35a12.37,12.37,0,0,0,.51,4.37,5.05,5.05,0,0,0,3.25,3.51,8,8,0,0,0,8-1.86,6.81,6.81,0,0,0,2.22-4.17c.14-1.12.18-2.24.24-3.35l.62-11.84c0-.3,0-.3.33-.29l1.87,0c.19,0,.27.05.26.25l-1.2,22.79c0,.2-.08.24-.26.24l-1.85,0c-.29,0-.29,0-.28-.28l.19-3.58Z"></path><path class="cls-5" d="M78.58,175.21l-2,0c-.47,0-.47,0-.45-.49l.5-9.44q.35-6.52.66-13l0-.29,2.38,0-.2,3.86.17-.15c.52-.56,1-1.14,1.57-1.66a9.18,9.18,0,0,1,5.47-2.55,8.55,8.55,0,0,1,5.56,1.21,6.29,6.29,0,0,1,2.3,2.68,10.52,10.52,0,0,1,1,3.39,5.67,5.67,0,0,1,0,.82q-.39,7.24-.75,14.49l-.07,1.22c0,.15-.06.2-.2.2l-1.57,0c-.2,0-.27-.06-.25-.27.23-4.51.49-9,.71-13.52a12.64,12.64,0,0,0-.46-4.29,5.21,5.21,0,0,0-4.56-4A7.81,7.81,0,0,0,83,154.54,7.43,7.43,0,0,0,79.59,159a9.89,9.89,0,0,0-.25,1.87c-.16,2.61-.3,5.21-.44,7.81l-.27,5.27c0,.41,0,.83,0,1.28"></path><path class="cls-5" d="M75,190l-.5-.49c.15-.15.28-.31.42-.43a14.86,14.86,0,0,1,1.73-1.46,7.5,7.5,0,0,1,7.55-.52,9.17,9.17,0,0,1,2.32,1.56A29,29,0,0,0,90,191.45a6.42,6.42,0,0,0,2.54,1.06,5.51,5.51,0,0,0,3.19-.49,12.42,12.42,0,0,0,2.42-1.64,29.62,29.62,0,0,1,3-2.2,9,9,0,0,1,3.29-1.28,6.37,6.37,0,0,1,4.14.73,14.22,14.22,0,0,1,2.55,1.88,25.91,25.91,0,0,0,4.15,2.86,4.68,4.68,0,0,0,4.89-.13c.92-.53,1.78-1.18,2.67-1.77,1.17-.77,2.33-1.54,3.52-2.27a6.11,6.11,0,0,1,7,.28c.92.67,1.8,1.4,2.69,2.11a19.9,19.9,0,0,0,3,2.07,5.08,5.08,0,0,0,5.4,0,25.77,25.77,0,0,0,3.65-2.48,12.85,12.85,0,0,1,3.33-2,6.49,6.49,0,0,1,6.4.76,17.12,17.12,0,0,1,1.72,1.45,15.62,15.62,0,0,0,4.09,3,6.52,6.52,0,0,0,6.26-.51c.3-.17.59-.36.9-.56l.2.39a8.13,8.13,0,0,1-1.57,1,8.84,8.84,0,0,1-3.41.82,5.89,5.89,0,0,1-3.2-.9,25.36,25.36,0,0,1-4.15-3.13,9.5,9.5,0,0,0-2.49-1.66,5.8,5.8,0,0,0-4.9.11,17,17,0,0,0-3,1.84,41.79,41.79,0,0,1-3.62,2.45,5.66,5.66,0,0,1-6,0,40.64,40.64,0,0,1-4.94-3.62,8,8,0,0,0-2.32-1.36,5.29,5.29,0,0,0-3.91.12,13.78,13.78,0,0,0-2.67,1.51c-.9.62-1.79,1.26-2.67,1.9a12.83,12.83,0,0,1-2.31,1.38,5.52,5.52,0,0,1-4.11.19,14,14,0,0,1-4-2.19c-.65-.5-1.21-1.11-1.82-1.67a7.62,7.62,0,0,0-2.88-1.76,6,6,0,0,0-4.3.34,14.4,14.4,0,0,0-2.87,1.83c-.9.7-1.79,1.43-2.73,2.08a6.92,6.92,0,0,1-3,1.19,6.38,6.38,0,0,1-3.51-.53,13.19,13.19,0,0,1-3.39-2.28c-.65-.56-1.26-1.16-1.93-1.7A7.34,7.34,0,0,0,82.12,187a6.22,6.22,0,0,0-4.09.68,10.77,10.77,0,0,0-2.38,1.68c-.21.19-.4.4-.61.61"></path><path class="cls-5" d="M158.29,153.23l2.31,0v.21l-1.2,22.76c0,.19-.08.24-.27.23l-1.77,0c-.29,0-.29,0-.28-.29l1.21-22.92Z"></path><path class="cls-5" d="M168.32,165.05l.59-11.25c0-.29,0-.29.3-.28l1.69,0c.19,0,.26,0,.25.25l-.23,4.34-1,18.22c0,.26,0,.26-.28.26l-1.69,0c-.26,0-.26,0-.25-.27Z"></path><path class="cls-5" d="M170.47,143.17a3.59,3.59,0,0,1,3.57,3.35,3.55,3.55,0,0,1-2,3.43,3.88,3.88,0,0,1-5.18-1.4A3.55,3.55,0,0,1,167.9,144a4,4,0,0,1,2.57-.84"></path><path class="cls-5" d="M159.75,148.41a1.92,1.92,0,0,1-1.88-2.06A2.08,2.08,0,0,1,160,144.4a1.92,1.92,0,0,1,1.88,2,2.07,2.07,0,0,1-2.06,2h-.07"></path><path class="cls-6" d="M284.07,301.6c-.84-13.22-1.92-31.2-3-52.58-1.39-28.17-2.08-42.26-2.44-59.09-.78-36.85.56-46.83-2.25-72.69-1.14-10.54-2.33-17.81-4.25-29.49C264.86,43.33,258.51,29,255.62,23a139.44,139.44,0,0,0-9.8-17.17c.13,30-.25,41.52-.7,45.69-.05.39-.49,4.41-1,9.9-.25,2.58-.45,4.68-.57,6q-.63,16-1.27,31.94,1.32,56.19,4.39,114.91,2,37.78,4.65,74.46l2.89,16.62,1.44,8.5Z"></path><path class="cls-2" d="M284.07,301.6v-.07l-32.94-15L220,333c11.89-4.94,24.33-10.58,37.2-17C266.69,311.23,275.63,306.41,284.07,301.6Z"></path><path class="cls-7" d="M284.07,301.6v-.07l-32.94-15L220,333c11.89-4.94,24.33-10.58,37.2-17C266.69,311.23,275.63,306.41,284.07,301.6Z"></path><path class="cls-8" d="M251.13,286.56c-2.46-37.82-4.74-75.78-7.17-118,0,0-4.11-71.66.27-108.42.15-1.29.66-5.4,1.09-11.11a247.25,247.25,0,0,0-.55-43.28"></path></svg>