<svg xmlns="http://www.w3.org/2000/svg" xmlns:xlink="http://www.w3.org/1999/xlink" viewBox="0 0 336.93 336.68" xmlns:v="https://vecta.io/nano"><path d="M244.23 4.81a27 27 0 0 1 6 3.25c3.36 2.42 7.64 6.5 6.78 8.13-.68 1.29-4-.09-4.88 1.36-1.22 2 4.11 6.07 3 8.13-.84 1.52-5.14 1.76-7.32-.27s-1.12-4.9-1.62-10.85a45.57 45.57 0 0 0-1.96-9.75z" fill="#937052"/><path d="M278.65 189.93c-.78-36.85.56-46.83-2.25-72.69-1.14-10.54-2.33-17.81-4.25-29.49C265 44 259.91 31.37 255.62 23a122.76 122.76 0 0 0-11.39-18.19L144.76 126Q182 229.64 219.3 333.31a571.85 571.85 0 0 0 37.94-17.34c9.45-4.74 18.39-9.56 26.83-14.37l-3-52.58-2.42-59.09z" fill="#a68562"/><path d="M219.3 333.31l-172.39-9.76-5.42-159.91a164.17 164.17 0 0 1 0-25.48c1-13.16 3.22-20.35 10.84-48.79C62.54 51.3 62.32 50.21 66 41A217.45 217.45 0 0 1 83.77 5.62c31-2.24 55.7-2.38 72.66-2.08l42.81 1 45 .27c-4 11.53-9.2 28.05-14.09 48.24-11.74 48.4-13.67 85.51-14.1 95.41-.89 20.84.05 33.37 1.09 55.29 1.41 30.15 2.8 74.04 2.16 129.56z" fill="#ead2b0"/><ellipse cx="126.74" cy="171.66" rx="73.12" ry="69.44" transform="matrix(.215247 -.97656 .97656 .215247 -68.17 258.48)" fill="#4f70b7"/><path d="M146.57 172.45l-.34.35a15.62 15.62 0 0 1-1.95 1.95 9.24 9.24 0 0 1-5.64 2.08 8.41 8.41 0 0 1-4.76-1.24 6.49 6.49 0 0 1-2.6-3.34 10.64 10.64 0 0 1-.66-2.61 5.58 5.58 0 0 1 0-1l.82-15.58c0-.28 0-.28.3-.28h1.51c.19 0 .23.06.22.24l-.72 13.56a12.87 12.87 0 0 0 .47 4.33 5.39 5.39 0 0 0 2 2.94 5.62 5.62 0 0 0 2.66 1 7.7 7.7 0 0 0 3.3-.23 7.85 7.85 0 0 0 5.4-5.24 9.12 9.12 0 0 0 .3-2.32q.39-6.9.75-13.79c0-.27 0-.27.27-.26h2c.16 0 .2 0 .19.21l-1.2 22.88c0 .15-.06.2-.22.2h-2c-.18 0-.24-.06-.23-.25l.18-3.31v-.26zm-27.13-.45l-.47.51a13 13 0 0 1-2.43 2.25 9.26 9.26 0 0 1-9.13.76 6.34 6.34 0 0 1-3.14-3.42 10.42 10.42 0 0 1-.78-2.92 6.35 6.35 0 0 1 0-1.07l.81-15.75h1.77c.2 0 .26.07.23.27a1.93 1.93 0 0 0 0 .24l-.71 13.35a12.37 12.37 0 0 0 .51 4.37 5.05 5.05 0 0 0 3.25 3.51 8 8 0 0 0 8-1.86 6.81 6.81 0 0 0 2.22-4.17c.14-1.12.18-2.24.24-3.35l.62-11.84c0-.3 0-.3.33-.29h1.87c.19 0 .27.05.26.25l-1.2 22.79c0 .2-.08.24-.26.24h-1.85c-.29 0-.29 0-.28-.28l.19-3.58zm-40.86 3.21h-2c-.47 0-.47 0-.45-.49l.5-9.44q.35-6.52.66-13v-.29h2.38l-.2 3.86.17-.15 1.57-1.66a9.18 9.18 0 0 1 5.47-2.55 8.55 8.55 0 0 1 5.56 1.21 6.29 6.29 0 0 1 2.3 2.68 10.52 10.52 0 0 1 1 3.39 5.67 5.67 0 0 1 0 .82q-.39 7.24-.75 14.49l-.07 1.22c0 .15-.06.2-.2.2h-1.57c-.2 0-.27-.06-.25-.27l.71-13.52a12.64 12.64 0 0 0-.46-4.29 5.21 5.21 0 0 0-4.56-4 7.81 7.81 0 0 0-5.39 1.12 7.43 7.43 0 0 0-3.41 4.46 9.89 9.89 0 0 0-.25 1.87l-.44 7.81-.27 5.27v1.28M75 190l-.5-.49.42-.43a14.86 14.86 0 0 1 1.73-1.46 7.5 7.5 0 0 1 7.55-.52 9.17 9.17 0 0 1 2.32 1.56 29 29 0 0 0 3.48 2.79 6.42 6.42 0 0 0 2.54 1.06 5.51 5.51 0 0 0 3.19-.49 12.42 12.42 0 0 0 2.42-1.64 29.62 29.62 0 0 1 3-2.2 9 9 0 0 1 3.29-1.28 6.37 6.37 0 0 1 4.14.73 14.22 14.22 0 0 1 2.55 1.88 25.91 25.91 0 0 0 4.15 2.86 4.68 4.68 0 0 0 4.89-.13c.92-.53 1.78-1.18 2.67-1.77l3.52-2.27a6.11 6.11 0 0 1 7 .28l2.69 2.11a19.9 19.9 0 0 0 3 2.07 5.08 5.08 0 0 0 5.4 0 25.77 25.77 0 0 0 3.65-2.48 12.85 12.85 0 0 1 3.33-2 6.49 6.49 0 0 1 6.4.76 17.12 17.12 0 0 1 1.72 1.45 15.62 15.62 0 0 0 4.09 3 6.52 6.52 0 0 0 6.26-.51l.9-.56.2.39a8.13 8.13 0 0 1-1.57 1 8.84 8.84 0 0 1-3.41.82 5.89 5.89 0 0 1-3.2-.9 25.36 25.36 0 0 1-4.15-3.13 9.5 9.5 0 0 0-2.49-1.66 5.8 5.8 0 0 0-4.9.11 17 17 0 0 0-3 1.84 41.79 41.79 0 0 1-3.62 2.45 5.66 5.66 0 0 1-6 0 40.64 40.64 0 0 1-4.94-3.62 8 8 0 0 0-2.32-1.36 5.29 5.29 0 0 0-3.91.12 13.78 13.78 0 0 0-2.67 1.51l-2.67 1.9a12.83 12.83 0 0 1-2.31 1.38 5.52 5.52 0 0 1-4.11.19 14 14 0 0 1-4-2.19c-.65-.5-1.21-1.11-1.82-1.67a7.62 7.62 0 0 0-2.88-1.76 6 6 0 0 0-4.3.34 14.4 14.4 0 0 0-2.87 1.83l-2.73 2.08a6.92 6.92 0 0 1-3 1.19 6.38 6.38 0 0 1-3.51-.53 13.19 13.19 0 0 1-3.39-2.28l-1.93-1.7a7.34 7.34 0 0 0-3.18-1.67 6.22 6.22 0 0 0-4.09.68 10.77 10.77 0 0 0-2.38 1.68c-.21.19-.4.4-.61.61m83.25-36.74h2.31v.21l-1.2 22.76c0 .19-.08.24-.27.23h-1.77c-.29 0-.29 0-.28-.29l1.21-22.92zm10.03 11.82l.59-11.25c0-.29 0-.29.3-.28h1.69c.19 0 .26 0 .25.25l-.23 4.34-1 18.22c0 .26 0 .26-.28.26h-1.69c-.26 0-.26 0-.25-.27zm2.15-21.88a3.59 3.59 0 0 1 3.57 3.35 3.55 3.55 0 0 1-2 3.43 3.88 3.88 0 0 1-5.18-1.4 3.55 3.55 0 0 1 1.04-4.55 4 4 0 0 1 2.57-.84m-10.72 5.25a1.92 1.92 0 0 1-1.88-2.06 2.08 2.08 0 0 1 2.13-1.95 1.92 1.92 0 0 1 1.88 2 2.07 2.07 0 0 1-2.06 2h-.07" fill="#fff"/><path d="M284.07 301.6l-3-52.58-2.44-59.09c-.78-36.85.56-46.83-2.25-72.69-1.14-10.54-2.33-17.81-4.25-29.49C264.86 43.33 258.51 29 255.62 23a139.44 139.44 0 0 0-9.8-17.17c.13 30-.25 41.52-.7 45.69-.05.39-.49 4.41-1 9.9l-.57 6q-.63 16-1.27 31.94 1.32 56.19 4.39 114.91 2 37.78 4.65 74.46l2.89 16.62 1.44 8.5z" fill="#9b7a5c"/><use xlink:href="#B" fill="#a68562"/><use xlink:href="#B" fill="#ead2b0" opacity=".33"/><path d="M251.13 286.56l-7.17-118s-4.11-71.66.27-108.42c.15-1.29.66-5.4 1.09-11.11a247.25 247.25 0 0 0-.55-43.28" fill="none" stroke="#937052" stroke-linecap="round" stroke-miterlimit="10"/><defs ><path id="B" d="M284.07 301.6v-.07l-32.94-15L220 333c11.89-4.94 24.33-10.58 37.2-17 9.49-4.77 18.43-9.59 26.87-14.4z"/></defs></svg>