<svg xmlns="http://www.w3.org/2000/svg" xmlns:xlink="http://www.w3.org/1999/xlink" viewBox="0 0 336.93 343.01" xmlns:v="https://vecta.io/nano"><path d="M215.67 289.2c-1.56-10.49-1.18-42.21-.44-105.65 0-2.3-.13-7.12-.45-16.76-.49-15.12-.89-19.57-3.35-25a31.47 31.47 0 0 0-7.59-10.94c-3.37-3.05-4.74-2.79-8.94-6.26-2.43-2-6.56-5.42-9.16-10.72-1.58-3.24-1.76-5.38-2.68-15.64l-1.56-17h-28.17l-1.56 17c-.92 10.26-1.1 12.4-2.68 15.64-2.6 5.3-6.73 8.72-9.16 10.72-4.2 3.47-5.57 3.21-8.93 6.26a31.52 31.52 0 0 0-7.6 10.94c-2.46 5.45-2.85 9.9-3.35 25l-.45 16.76c.75 63.44 1.12 95.16-.44 105.65 0 0-1.26 8.47.89 30.38a15.38 15.38 0 0 0 1.56 5.59 32.3 32.3 0 0 0 7.87 7.46c9.05 6 16.07 3.63 37.94 3.63s28.88 2.35 37.93-3.63a32.11 32.11 0 0 0 7.87-7.46 15.38 15.38 0 0 0 1.56-5.59c2.15-21.91.89-30.38.89-30.38z" fill="#afcdcf"/><path d="M104.05 88.72l2.06 4.47A65 65 0 0 0 120 78.38a51.76 51.76 0 0 0 8.82-20 47.31 47.31 0 0 0 .85-8.47l25.43-.17-33.91-19.5a14 14 0 0 0-1.34 9.52c.82 4.25.23 9.57-.36 14.89-.79 7.21-3.19 12.4-5.93 18.31a85.23 85.23 0 0 1-9.51 15.76z" fill="#dbdbdb"/><path d="M144.7 49.8h2.23a40.72 40.72 0 0 0-4.28-7.21l-21.47-12.36a14.75 14.75 0 0 0-.68 1.53 96.95 96.95 0 0 1 24.2 18z" fill="#aaa" opacity=".09"/><path d="M96.31,10.35l.2,16.88,21.64,2.18,2-19.77-6.87-1Z" fill="#dbdbdb"/><path d="M112.62 8.65q.09 10.22.17 20.42a55.72 55.72 0 0 1 38.82 30.11l32.55.89a7.59 7.59 0 0 1 .34-5.2 7.9 7.9 0 0 1 2-2.51c3.26-2.64 9.17-2.09 13.06-2 5 .11 15.22.32 17.43-3.85 1.27-2.41-.51-5.56-3.52-10.72a57 57 0 0 0-14.24-16.92A59.31 59.31 0 0 0 180 8.64q-18-.35-36.67-.32-15.6.03-30.71.33z" fill="#e8e8e8"/><path d="M189.47 24.66a74 74 0 0 0-13.87-6.43c-19.9-6.2-46-7-46-7.42 0-.18 6.49 0 8 0 6.55.16 11.51.45 12.83.52 20.46 1.22 25.32 2.32 29.14 3.43a41.19 41.19 0 0 1 4 1.28c12.33 4.76 24.51 14.54 22.79 20.27-.28 1-1.09 2.26-3.59 3.39a23.91 23.91 0 0 0-3.16-6.52c-1.61-2.29-4.02-4.9-10.14-8.52z" fill="#fff"/><g fill="#d7dbe0"><use xlink:href="#B"/><use xlink:href="#B"/></g><path d="M182 86.65l-.52-5.41h-28.15l-.54 5.7a116.56 116.56 0 0 0 13.61.77 118.2 118.2 0 0 0 15.6-1.06z" fill="#9cbcbc" opacity=".46"/><path d="M209.47,242.24a337.91,337.91,0,0,1-40.88,2.62,338.6,338.6,0,0,1-43.23-2.62V169.48q21-.34,42.56-.35,21.06,0,41.55.35Z" fill="#fff" opacity=".28"/><path d="M187 57l-.65-.57a13.24 13.24 0 0 0 .31 1.78l-36.38-1-.93-1.46-1.48 1.25-.45 27.9a162 162 0 0 0 19.65 1.23 162.57 162.57 0 0 0 20.34-1.23z" fill="#e8e8e8"/><path d="M181.66 209l-.2.22a9.41 9.41 0 0 1-1.18 1.26 5.64 5.64 0 0 1-3.5 1.38 5.46 5.46 0 0 1-3.05-.73 4.39 4.39 0 0 1-1.76-2.09 7.31 7.31 0 0 1-.5-1.65 3.36 3.36 0 0 1-.06-.63v-9.89c0-.18 0-.18.18-.18h1c.12 0 .14 0 .14.16v8.6a8.23 8.23 0 0 0 .44 2.74 3.58 3.58 0 0 0 1.36 1.84 3.69 3.69 0 0 0 1.72.59 4.88 4.88 0 0 0 2.08-.18 4.75 4.75 0 0 0 3.25-3.39 5.55 5.55 0 0 0 .11-1.47v-8.75c0-.17 0-.17.17-.17h1.26c.1 0 .13 0 .13.13v14.52c0 .1 0 .13-.13.13h-1.25c-.11 0-.15 0-.15-.15V209zm-17.19.05l-.28.33a8 8 0 0 1-1.46 1.45 5.79 5.79 0 0 1-5.75.59 4.19 4.19 0 0 1-2.1-2.13 6.79 6.79 0 0 1-.6-1.85 3.82 3.82 0 0 1-.06-.68v-10h1.13c.12 0 .16.05.15.17v8.63a8.08 8.08 0 0 0 .46 2.76 3.39 3.39 0 0 0 2.18 2.2 5 5 0 0 0 2 .19 4.68 4.68 0 0 0 3.07-1.47 4.21 4.21 0 0 0 1.27-2.67v-9.63c0-.2 0-.2.19-.2h1.19c.12 0 .17 0 .17.16v14.47c0 .12 0 .15-.16.15h-1.17c-.18 0-.18 0-.18-.18v-2.27zm-25.75 2.47h-1.24c-.3 0-.3 0-.3-.3v-6q0-4.12 0-8.27v-.19h1.51v2.45l.11-.09.94-1.08a5.6 5.6 0 0 1 3.37-1.67 5.52 5.52 0 0 1 3.56.7 4.25 4.25 0 0 1 1.55 1.68 7 7 0 0 1 .71 2.14 3 3 0 0 1 0 .52v9.97c0 .09 0 .12-.12.12h-1c-.12 0-.16 0-.16-.17v-8.58a8.06 8.06 0 0 0-.44-2.71 3.44 3.44 0 0 0-3-2.46 4.82 4.82 0 0 0-3.44.79 4.45 4.45 0 0 0-2 2.84 6.94 6.94 0 0 0-.1 1.2v9.16m-1.67 9.37l-.33-.3.25-.28a9.38 9.38 0 0 1 1.05-1 4.73 4.73 0 0 1 4.76-.41 6 6 0 0 1 1.52 1 20.13 20.13 0 0 0 2.29 1.72 4.12 4.12 0 0 0 1.65.64 3.38 3.38 0 0 0 2-.35 7.33 7.33 0 0 0 1.47-1.06 18 18 0 0 1 1.83-1.43 5.47 5.47 0 0 1 2-.85 4.13 4.13 0 0 1 2.65.42 9.07 9.07 0 0 1 1.67 1.16 17.37 17.37 0 0 0 2.72 1.77 2.94 2.94 0 0 0 3.09-.14c.57-.34 1.09-.77 1.64-1.15l2.15-1.48a3.76 3.76 0 0 1 2.3-.65 3.91 3.91 0 0 1 2.16.75l1.77 1.31a14.14 14.14 0 0 0 2 1.28 3.67 3.67 0 0 0 1.62.44 3.57 3.57 0 0 0 1.79-.54 15.41 15.41 0 0 0 2.23-1.61 7.87 7.87 0 0 1 2-1.28 4.14 4.14 0 0 1 4.08.41 12.53 12.53 0 0 1 1.14.9 10.32 10.32 0 0 0 2.68 1.82 4.07 4.07 0 0 0 4-.39l.55-.36.14.24a5.33 5.33 0 0 1-1 .67 5.51 5.51 0 0 1-2.14.55 3.88 3.88 0 0 1-2.05-.53 18 18 0 0 1-2.73-1.94 6.32 6.32 0 0 0-1.63-1 3.69 3.69 0 0 0-3.1.13 10.33 10.33 0 0 0-1.81 1.2c-.71.57-1.45 1.1-2.21 1.6a3.59 3.59 0 0 1-3.81.06 28.84 28.84 0 0 1-3.25-2.24 4.87 4.87 0 0 0-1.51-.84 3.3 3.3 0 0 0-2.47.12 7.62 7.62 0 0 0-1.64 1l-1.63 1.23a7.75 7.75 0 0 1-1.42.9 3.47 3.47 0 0 1-2.59.17 9.2 9.2 0 0 1-2.6-1.35c-.43-.31-.81-.69-1.21-1a5.07 5.07 0 0 0-1.88-1.09 3.7 3.7 0 0 0-2.71.26 9.12 9.12 0 0 0-1.76 1.2l-1.66 1.35a4.1 4.1 0 0 1-1.86.78 4.05 4.05 0 0 1-2.23-.29 9 9 0 0 1-2.23-1.41l-1.27-1.05a4.93 4.93 0 0 0-2.13-1 3.94 3.94 0 0 0-2.56.47 6.52 6.52 0 0 0-1.45 1.1c-.13.12-.24.26-.37.39m51.48-24.27h1.46v14.57c0 .13 0 .16-.16.16h-1.12c-.19 0-.19 0-.19-.19v-14.54zm6.73 7.38v-7.14c0-.18 0-.18.18-.18h1.07c.12 0 .17 0 .17.15v14.32c0 .17 0 .17-.17.17h-1.07c-.16 0-.16 0-.16-.17zm.64-13.9a2.39 2.39 0 0 1 2.37 2.09 2.19 2.19 0 0 1-1.16 2.2 2.52 2.52 0 0 1-3.33-.84 2.22 2.22 0 0 1 .52-2.89 2.44 2.44 0 0 1 1.6-.56m-6.61 3.44a1.27 1.27 0 1 1 1.28-1.27 1.26 1.26 0 0 1-1.28 1.27h0" fill="#448c8c"/><path d="M178.64 322.06a225.55 225.55 0 0 0-25.9.06 209.23 209.23 0 0 0-19.73 2.17 144.93 144.93 0 0 1 17.4-3.08c1.88-.22 18.9-2.09 35.12.06 5.29.71 11.4 1.91 15 2.7 1.94.42 3.54.81 4.66 1.09a227.35 227.35 0 0 0-26.55-3z" fill="#a7c8c9"/><defs ><path id="B" d="M132.78 320.82l-1.45-4.59a164.22 164.22 0 0 0 10.54-14.89c18.22-29 22.82-56.4 25.85-78.09 4.26-30.4 2.46-55.56.88-77.76l-.18-2.51-2.72-39.73q-.58-9.07-1.12-18.1l3.93-.24q.54 9 1.12 18.09l2.9 42.2c1.52 21.29 3.4 47.78-.91 78.6-2.51 18-6.71 48-26.41 79.62a170.67 170.67 0 0 1-12.43 17.4z"/></defs></svg>