<svg xmlns="http://www.w3.org/2000/svg" viewBox="0 0 232.09 235.15"  xmlns:v="https://vecta.io/nano"><g fill="#8db9ba"><path d="M222.38 68.17c-7.29-12.76-22.57-22.63-37.85-24.17-30.19-3.13-44.5 27.72-70.22 21.6C98.34 61.76 100 48 81.76 40.82 60.23 32.34 29 39.65 14.68 58.43c-7.47 9.82-9.37 21.67-8.2 33.85C15 80.49 31.76 74.8 43.67 73.86 70.38 71.75 90.32 91.7 96.9 98.28c17 17 11.63 25.13 27.83 44.43 24.12 28.75 49.57 26.9 50.9 40.64h0l7.69-8.41c6.27-6.94 61.34-67.82 39.06-106.77z"/><circle cx="122.04" cy="34.62" r="20.26"/></g><circle cx="71.11" cy="48.75" r="20.26" transform="matrix(.98708 -.160226 .160226 .98708 -6.89 12.02)" fill="#448a8a"/><g fill="#aecdcf"><circle cx="155" cy="86.62" r="17.61"/><path d="M183.32 174.94c1.83-2 7.79-8.63 14.78-17.92 2.39-11.5 1.18-23.53-5-32.38-5.64-8-16.61-15.22-27.83-14.64-11.67.59-14.16 9.07-34.18 19.53-18.65 9.74-25.93 7.32-27.84 12.69-4.84 13.64 32.75 54.78 63.23 50.52 6.08-5.93 11.72-12.13 16.84-17.8z"/></g><path d="M124.73 142.71c-16.2-19.3-10.83-27.42-27.83-44.43-6.58-6.58-26.52-26.53-53.23-24.42C31.76 74.8 15 80.49 6.48 92.28c2.74 28.56 22.7 59 29.71 69.64 11.45 14.77 41.62 53.7 74.22 57.29a45.76 45.76 0 0 0 5.21.25c.56 0 1.12-.06 1.67-.08 1.16 0 2.31-.12 3.45-.25.64-.08 1.28-.19 1.92-.29 1-.17 2.08-.35 3.11-.59.65-.14 1.3-.31 2-.48a56.91 56.91 0 0 0 3-.9l1.89-.65a63.13 63.13 0 0 0 3-1.23c.57-.24 1.14-.47 1.7-.74 1.17-.54 2.32-1.14 3.46-1.75l1.14-.59c1.5-.84 3-1.74 4.45-2.68l1.3-.88 3.06-2.12 1.76-1.32 2.48-1.92 1.86-1.52 2.24-1.9 1.9-1.67c.63-.56 1.39-1.27 2.08-1.91l1.91-1.78 1.9-1.85 1.94-1.91 1.29-1.32a264.54 264.54 0 0 0 5.49-5.74h0c-1.32-13.78-26.77-11.93-50.89-40.68z" fill="#448a8a"/></svg>