<svg id="Vrstva_5" xmlns="http://www.w3.org/2000/svg" viewBox="0 0 232.09 235.15"><defs><style>.cls-1{fill:#8db9ba;}.cls-2{fill:#448a8a;}.cls-3{fill:#aecdcf;}</style></defs><path class="cls-1" d="M222.38,68.17C215.09,55.41,199.81,45.54,184.53,44c-30.19-3.13-44.5,27.72-70.22,21.6C98.34,61.76,100,48,81.76,40.82,60.23,32.34,29,39.65,14.68,58.43,7.21,68.25,5.31,80.1,6.48,92.28,15,80.49,31.76,74.8,43.67,73.86,70.38,71.75,90.32,91.7,96.9,98.28c17,17,11.63,25.13,27.83,44.43,24.12,28.75,49.57,26.9,50.9,40.64h0c2.67-2.87,5.24-5.7,7.69-8.41C189.59,168,244.66,107.12,222.38,68.17Z"></path><circle class="cls-1" cx="122.04" cy="34.62" r="20.26"></circle><circle class="cls-2" cx="71.11" cy="48.75" r="20.26" transform="translate(-6.89 12.02) rotate(-9.22)"></circle><circle class="cls-3" cx="155" cy="86.62" r="17.61"></circle><path class="cls-3" d="M183.32,174.94c1.83-2,7.79-8.63,14.78-17.92,2.39-11.5,1.18-23.53-5-32.38-5.64-8-16.61-15.22-27.83-14.64-11.67.59-14.16,9.07-34.18,19.53-18.65,9.74-25.93,7.32-27.84,12.69C98.41,155.86,136,197,166.48,192.74,172.56,186.81,178.2,180.61,183.32,174.94Z"></path><path class="cls-2" d="M124.73,142.71c-16.2-19.3-10.83-27.42-27.83-44.43C90.32,91.7,70.38,71.75,43.67,73.86,31.76,74.8,15,80.49,6.48,92.28c2.74,28.56,22.7,59,29.71,69.64,11.45,14.77,41.62,53.7,74.22,57.29a45.76,45.76,0,0,0,5.21.25c.56,0,1.12-.06,1.67-.08,1.16,0,2.31-.12,3.45-.25.64-.08,1.28-.19,1.92-.29,1-.17,2.08-.35,3.11-.59.65-.14,1.3-.31,2-.48,1-.27,2-.57,3-.9.63-.21,1.26-.42,1.89-.65,1-.38,2-.79,3-1.23.57-.24,1.14-.47,1.7-.74,1.17-.54,2.32-1.14,3.46-1.75.38-.2.76-.38,1.14-.59,1.5-.84,3-1.74,4.45-2.68l1.3-.88c1-.69,2-1.39,3.06-2.12.59-.43,1.17-.88,1.76-1.32.83-.63,1.66-1.26,2.48-1.92l1.86-1.52c.75-.63,1.5-1.26,2.24-1.9s1.27-1.11,1.9-1.67,1.39-1.27,2.08-1.91,1.28-1.18,1.91-1.78,1.27-1.23,1.9-1.85l1.94-1.91,1.29-1.32c1.88-1.91,3.72-3.83,5.49-5.74l0,0h0C174.3,169.61,148.85,171.46,124.73,142.71Z"></path></svg>