<svg id="Layer_1" data-name="Layer 1" xmlns="http://www.w3.org/2000/svg" viewBox="0 0 367.25 194.47"><defs><style>.cls-1{fill:#448c8c;}</style></defs><path class="cls-1" d="M338.92,180.79c-.4.45-.8.89-1.19,1.35a61.24,61.24,0,0,1-7,7.51,33.72,33.72,0,0,1-20.88,8.22,32.54,32.54,0,0,1-18.22-4.35,26,26,0,0,1-10.49-12.47,42.37,42.37,0,0,1-3-9.85,22.7,22.7,0,0,1-.36-3.77q0-29.51,0-59c0-1.06,0-1.06,1.08-1.06,1.9,0,3.8,0,5.7,0,.72,0,.88.22.88.91q0,25.66,0,51.34a48.32,48.32,0,0,0,2.63,16.34,21.4,21.4,0,0,0,8.12,11,21.9,21.9,0,0,0,10.25,3.51,28.9,28.9,0,0,0,12.4-1.07c9.9-3.41,16.6-10,19.36-20.21a33.54,33.54,0,0,0,.68-8.77q.08-26.13.07-52.25c0-1,0-1,1-1,2.51,0,5,0,7.53,0,.6,0,.77.17.77.77q0,43.32,0,86.63c0,.59-.16.79-.76.79-2.49,0-5,0-7.45,0-.7,0-.92-.21-.91-.9,0-4.19,0-8.37,0-12.55v-1Z" transform="translate(-70.34 -68.4)"/><path class="cls-1" d="M236.38,181.05c-.56.65-1.14,1.28-1.67,1.94a45.79,45.79,0,0,1-8.7,8.67,34.62,34.62,0,0,1-34.34,3.52,25.41,25.41,0,0,1-12.54-12.73,40.71,40.71,0,0,1-3.53-11,25.24,25.24,0,0,1-.37-4.07q0-29.31,0-58.64v-1c.27,0,.49,0,.71,0,2,0,4,0,6,0,.75,0,1,.25.92,1a6.91,6.91,0,0,0,0,.91c0,16.86,0,33.72,0,50.58a47,47,0,0,0,2.76,16.47c2.36,6.32,6.45,11,13,13.09a29.57,29.57,0,0,0,11.64,1.17,28.19,28.19,0,0,0,18.3-8.76,24.88,24.88,0,0,0,7.55-15.94c.3-4.22.23-8.46.24-12.69q0-22.41,0-44.8c0-1.15,0-1.15,1.18-1.15,2.36,0,4.72,0,7.08,0,.7,0,1,.17,1,.93q0,43.16,0,86.32c0,.72-.22.9-.91.89-2.33,0-4.66,0-7,0-1.09,0-1.1,0-1.1-1.06V181.15Z" transform="translate(-70.34 -68.4)"/><path class="cls-1" d="M82.75,195.78H75.32c-1.79,0-1.79,0-1.79-1.82l0-35.76q0-24.67-.08-49.36v-1.1h9v14.61c.32-.3.48-.43.62-.58,1.86-2.14,3.63-4.38,5.62-6.4a33.35,33.35,0,0,1,20.15-10,32.92,32.92,0,0,1,21.23,4.21,24.76,24.76,0,0,1,9.21,10,41.06,41.06,0,0,1,4.27,12.76,20,20,0,0,1,.25,3.09q0,27.42.06,54.85c0,1.54,0,3.09,0,4.64,0,.56-.19.75-.75.75-2,0-3.95,0-5.93,0-.76,0-1-.19-1-1,0-17.07.06-34.13,0-51.2a48.29,48.29,0,0,0-2.58-16.2c-3-8.51-8.9-13.56-18-14.66-7.4-.9-14.29.43-20.49,4.68s-10.25,9.71-11.79,17a37.43,37.43,0,0,0-.57,7.11c-.08,9.86-.09,19.72-.1,29.58,0,6.65,0,13.29,0,19.93C82.76,192.47,82.75,194.07,82.75,195.78Z" transform="translate(-70.34 -68.4)"/><path class="cls-1" d="M72.32,252l-2-1.83c.53-.59,1-1.17,1.51-1.67,2.05-1.91,3.94-4.08,6.24-5.64,9-6.11,18.51-6.65,28.4-2.45a35.37,35.37,0,0,1,9.08,5.76,115.54,115.54,0,0,0,13.67,10.26,25,25,0,0,0,9.83,3.85A20.25,20.25,0,0,0,151,258.2a44.93,44.93,0,0,0,8.78-6.35,107.78,107.78,0,0,1,10.9-8.51,33.29,33.29,0,0,1,12.19-5.1,24.73,24.73,0,0,1,15.77,2.5,56.2,56.2,0,0,1,10,6.94,102.64,102.64,0,0,0,16.23,10.56c6.25,3.34,12.52,2.79,18.45-.82,3.38-2.06,6.48-4.6,9.74-6.88,4.26-3,8.48-6,12.83-8.83a22.89,22.89,0,0,1,13.75-3.9,24.31,24.31,0,0,1,12.9,4.48c3.6,2.49,7.06,5.2,10.57,7.82a79.72,79.72,0,0,0,11.71,7.63,21.8,21.8,0,0,0,9.66,2.65,21.24,21.24,0,0,0,10.72-3.2,92.24,92.24,0,0,0,13.27-9.64,46.82,46.82,0,0,1,12.2-7.62A24.75,24.75,0,0,1,385,242.36a72.73,72.73,0,0,1,6.78,5.38c4.95,4.22,10,8.37,16,10.87,8.22,3.38,16.1,2.42,23.56-2.32,1.09-.69,2.14-1.43,3.28-2.19l.85,1.44a29.54,29.54,0,0,1-5.74,4A32.38,32.38,0,0,1,417,262.84a23,23,0,0,1-12.26-3.17,105,105,0,0,1-16.28-11.56,36.78,36.78,0,0,0-9.75-6.13c-6.27-2.61-12.41-2.11-18.46.76a60.41,60.41,0,0,0-10.83,7.15,147,147,0,0,1-13.18,9.52,21.32,21.32,0,0,1-22.71.36,168.17,168.17,0,0,1-19.4-13.36,30.9,30.9,0,0,0-9-5,19.94,19.94,0,0,0-14.74.7,49.61,49.61,0,0,0-9.81,5.92c-3.28,2.38-6.49,4.87-9.7,7.34a44.6,44.6,0,0,1-8.45,5.37,20.39,20.39,0,0,1-15.46,1,55.1,55.1,0,0,1-15.56-8c-2.54-1.87-4.79-4.14-7.19-6.2A30.65,30.65,0,0,0,193,241.08a22,22,0,0,0-16.17,1.56,50.83,50.83,0,0,0-10.48,7.12c-3.28,2.71-6.5,5.51-9.91,8.05a25.31,25.31,0,0,1-11.1,4.7A24.23,24.23,0,0,1,132,260.73a52.68,52.68,0,0,1-13.26-8.37c-2.55-2.09-5-4.31-7.61-6.3a28.81,28.81,0,0,0-12.68-5.76,23.15,23.15,0,0,0-15.32,2.82,38.79,38.79,0,0,0-8.64,6.54C73.73,250.39,73.07,251.19,72.32,252Z" transform="translate(-70.34 -68.4)"/><path class="cls-1" d="M379.38,107.27h8.7c0,.28,0,.55,0,.81q0,43.08,0,86.16c0,.75-.23.93-.95.92-2.23,0-4.46,0-6.69,0-1.12,0-1.12,0-1.12-1.09V107.27Z" transform="translate(-70.34 -68.4)"/><path class="cls-1" d="M419.57,151.32V108.73c0-1.09,0-1.09,1.07-1.09,2.13,0,4.26,0,6.39,0,.72,0,1,.19,1,.93,0,5.48,0,11,0,16.43V194c0,1,0,1-1,1h-6.39c-1,0-1,0-1-1Z" transform="translate(-70.34 -68.4)"/><path class="cls-1" d="M423.35,68.4A14.21,14.21,0,0,1,437.5,80.84c.6,5.8-2,10.18-6.93,13.12A15,15,0,0,1,410.7,89a13.28,13.28,0,0,1,3.11-17.25A14.76,14.76,0,0,1,423.35,68.4Z" transform="translate(-70.34 -68.4)"/><path class="cls-1" d="M383.91,88.94a7.59,7.59,0,1,1,7.66-7.6A7.49,7.49,0,0,1,383.91,88.94Z" transform="translate(-70.34 -68.4)"/></svg>
