<svg id="Vrstva_9" xmlns="http://www.w3.org/2000/svg" viewBox="0 0 340.09 343.01"><defs><style>.cls-1{fill:#e3db7a;}.cls-2{fill:#e8df8b;}.cls-3{fill:#b49a04;}.cls-4{opacity:0.82;}.cls-5{fill:#e9fffd;}.cls-6{fill:#fff;}</style></defs><rect class="cls-1" x="23.2" y="106.76" width="298.9" height="152.43" rx="22.59"></rect><path class="cls-2" d="M293,250.11H52.28a17.92,17.92,0,0,1-17.91-17.9V133.75a17.92,17.92,0,0,1,17.91-17.9H293a17.92,17.92,0,0,1,17.91,17.9v98.46A17.92,17.92,0,0,1,293,250.11ZM52.28,122.34a11.43,11.43,0,0,0-11.42,11.41v98.46a11.43,11.43,0,0,0,11.42,11.41H293a11.43,11.43,0,0,0,11.42-11.41V133.75A11.43,11.43,0,0,0,293,122.34Z"></path><path class="cls-3" d="M198.82,187.9l-.37.41a18.88,18.88,0,0,1-2.15,2.32,10.43,10.43,0,0,1-6.43,2.53,10,10,0,0,1-5.61-1.34A8,8,0,0,1,181,188a12.86,12.86,0,0,1-.92-3,6.42,6.42,0,0,1-.11-1.16V165.61c0-.32,0-.32.33-.32h1.76c.22,0,.27.06.27.28v15.81a14.85,14.85,0,0,0,.81,5,6.63,6.63,0,0,0,2.5,3.39,6.71,6.71,0,0,0,3.16,1.08,8.83,8.83,0,0,0,3.82-.33,8.74,8.74,0,0,0,6-6.23,10.16,10.16,0,0,0,.21-2.7q0-8,0-16.09c0-.31,0-.31.31-.31h2.32c.18,0,.23.06.23.24v26.68c0,.18-.05.24-.23.24h-2.3c-.21,0-.28-.06-.28-.27v-4.18Z"></path><path class="cls-3" d="M167.24,188l-.52.59a14.12,14.12,0,0,1-2.67,2.68,10.68,10.68,0,0,1-10.58,1.08,7.84,7.84,0,0,1-3.86-3.92,12.56,12.56,0,0,1-1.09-3.39,7.45,7.45,0,0,1-.11-1.25V165.4h2.06c.23,0,.31.08.29.31a1.31,1.31,0,0,0,0,.28v15.58a14.18,14.18,0,0,0,.85,5.07,6.19,6.19,0,0,0,4,4,9.05,9.05,0,0,0,3.58.36,8.69,8.69,0,0,0,5.64-2.7,7.66,7.66,0,0,0,2.33-4.91c.09-1.3.07-2.6.07-3.91V165.72c0-.36,0-.36.36-.36h2.18c.22,0,.31,0,.31.29v26.58c0,.23-.07.28-.28.28h-2.15c-.34,0-.34,0-.34-.33V188Z"></path><path class="cls-3" d="M119.92,192.51h-2.29c-.55,0-.55,0-.55-.56v-11q0-7.6,0-15.2v-.34h2.77v4.5a1.79,1.79,0,0,0,.19-.18c.57-.66,1.12-1.35,1.73-2a10.28,10.28,0,0,1,6.21-3.08,10.11,10.11,0,0,1,6.54,1.3,7.58,7.58,0,0,1,2.83,3.08,12.33,12.33,0,0,1,1.32,3.93,7.45,7.45,0,0,1,.08,1q0,8.44,0,16.89v1.43c0,.17-.05.23-.23.23h-1.82c-.24,0-.31-.06-.31-.31,0-5.25,0-10.51,0-15.77a14.9,14.9,0,0,0-.8-5A6.31,6.31,0,0,0,130,166.9a8.86,8.86,0,0,0-6.31,1.44,8.2,8.2,0,0,0-3.63,5.24,11.43,11.43,0,0,0-.18,2.19c0,3,0,6.07,0,9.11V191c0,.48,0,1,0,1.5"></path><path class="cls-3" d="M116.71,209.83l-.61-.56c.16-.19.3-.36.46-.52a16.57,16.57,0,0,1,1.92-1.74,8.68,8.68,0,0,1,8.75-.75A10.78,10.78,0,0,1,130,208a34,34,0,0,0,4.21,3.16,7.68,7.68,0,0,0,3,1.19,6.24,6.24,0,0,0,3.68-.64,13.76,13.76,0,0,0,2.71-2,33.9,33.9,0,0,1,3.35-2.62,10.38,10.38,0,0,1,3.76-1.57,7.59,7.59,0,0,1,4.86.77,17.66,17.66,0,0,1,3.08,2.14,31.4,31.4,0,0,0,5,3.25,5.45,5.45,0,0,0,5.69-.25c1-.64,2-1.42,3-2.12,1.31-.92,2.61-1.85,4-2.72a7.07,7.07,0,0,1,4.23-1.2,7.51,7.51,0,0,1,4,1.38c1.1.77,2.17,1.6,3.25,2.41a25.39,25.39,0,0,0,3.61,2.35,6.57,6.57,0,0,0,3,.81,6.42,6.42,0,0,0,3.3-1,28.45,28.45,0,0,0,4.09-3,14.67,14.67,0,0,1,3.76-2.35,7.62,7.62,0,0,1,7.49.75,20.85,20.85,0,0,1,2.09,1.66,19.06,19.06,0,0,0,4.93,3.34,7.49,7.49,0,0,0,7.25-.71c.34-.21.66-.44,1-.67l.27.44a9.34,9.34,0,0,1-1.77,1.23,10.12,10.12,0,0,1-3.92,1,7.14,7.14,0,0,1-3.78-1,32,32,0,0,1-5-3.56,11.48,11.48,0,0,0-3-1.89,6.69,6.69,0,0,0-5.68.24,18.54,18.54,0,0,0-3.34,2.2,43.59,43.59,0,0,1-4.06,2.93,6.56,6.56,0,0,1-7,.11,51,51,0,0,1-6-4.11,9.36,9.36,0,0,0-2.78-1.54,6.15,6.15,0,0,0-4.54.21,15.3,15.3,0,0,0-3,1.83c-1,.73-2,1.5-3,2.26a13.78,13.78,0,0,1-2.6,1.65,6.24,6.24,0,0,1-4.76.31,16.63,16.63,0,0,1-4.79-2.47c-.78-.57-1.48-1.27-2.22-1.9a9.26,9.26,0,0,0-3.45-2,6.78,6.78,0,0,0-5,.48,15.7,15.7,0,0,0-3.23,2.19c-1,.83-2,1.7-3,2.48a7.83,7.83,0,0,1-3.42,1.45,7.62,7.62,0,0,1-4.11-.55,16.09,16.09,0,0,1-4.08-2.58c-.79-.64-1.54-1.33-2.35-1.94a8.78,8.78,0,0,0-3.9-1.77,7.13,7.13,0,0,0-4.72.86,12.21,12.21,0,0,0-2.66,2c-.23.22-.44.47-.67.72"></path><path class="cls-3" d="M211.28,165.25H214V192c0,.23-.07.29-.29.28h-2.06c-.35,0-.35,0-.35-.33V165.25Z"></path><path class="cls-3" d="M223.66,178.82V165.7c0-.33,0-.33.33-.33h2c.22,0,.3.06.3.28V192c0,.3,0,.3-.3.3h-2c-.31,0-.31,0-.31-.3Z"></path><path class="cls-3" d="M224.82,153.28a4.38,4.38,0,0,1,4.36,3.83,4,4,0,0,1-2.13,4,4.63,4.63,0,0,1-6.12-1.53,4.11,4.11,0,0,1,.95-5.32,4.62,4.62,0,0,1,2.94-1"></path><path class="cls-3" d="M212.68,159.61a2.34,2.34,0,1,1,2.36-2.34,2.32,2.32,0,0,1-2.28,2.34h-.08"></path><g class="cls-4"><circle class="cls-5" cx="322.1" cy="153.28" r="11.93"></circle></g><path class="cls-6" d="M330.86,152.38a.71.71,0,0,1-.7-.65,7,7,0,0,0-2.73-5,7.18,7.18,0,0,0-6-1.14.71.71,0,0,1-.87-.49.7.7,0,0,1,.5-.86,8.3,8.3,0,0,1,10.51,7.39.71.71,0,0,1-.64.76Z"></path><g class="cls-4"><circle class="cls-5" cx="303.79" cy="115.91" r="24.61"></circle></g><path class="cls-6" d="M321.86,114a1.45,1.45,0,0,1-1.44-1.33,14.25,14.25,0,0,0-18-12.69,1.45,1.45,0,1,1-.76-2.79,17.79,17.79,0,0,1,14.91,2.83,17.59,17.59,0,0,1,6.77,12.42A1.45,1.45,0,0,1,322,114Z"></path><g class="cls-4"><circle class="cls-5" cx="37.95" cy="253.74" r="10.04"></circle></g><path class="cls-6" d="M45.32,253a.6.6,0,0,1-.59-.54,5.92,5.92,0,0,0-2.29-4.22,6,6,0,0,0-5.07-1,.58.58,0,0,1-.72-.41.59.59,0,0,1,.41-.73,7.3,7.3,0,0,1,6.09,1.15,7.21,7.21,0,0,1,2.76,5.07.59.59,0,0,1-.54.64Z"></path><g class="cls-4"><circle class="cls-5" cx="81.6" cy="237.07" r="15.91"></circle></g><path class="cls-6" d="M93.29,235.86a.94.94,0,0,1-.94-.86,9.42,9.42,0,0,0-3.64-6.69,9.52,9.52,0,0,0-8-1.51.94.94,0,0,1-.5-1.81,11.51,11.51,0,0,1,9.65,1.83,11.37,11.37,0,0,1,4.38,8,.94.94,0,0,1-.86,1Z"></path><g class="cls-4"><circle class="cls-5" cx="20.55" cy="228.5" r="17.39"></circle></g><path class="cls-6" d="M33.33,227.18a1,1,0,0,1-1-1,10.33,10.33,0,0,0-4-7.3,10.47,10.47,0,0,0-8.77-1.66,1,1,0,0,1-.54-2,12.61,12.61,0,0,1,10.54,2,12.48,12.48,0,0,1,4.79,8.79,1,1,0,0,1-.94,1.09Z"></path></svg>