<svg id="Vrstva_3" xmlns="http://www.w3.org/2000/svg" viewBox="0 0 232.09 235.15"><defs><style>.cls-1{fill:#aecdcf;}</style></defs><path class="cls-1" d="M78.59,93.05c6.47-2.25,8.56-3.88,12.72-7.13,4.43-3.45,11.1-8.67,27.33-17.57a162.44,162.44,0,0,1,28.14-11.79c-3.59-5.57-7.22-11-10.78-16.06a47.86,47.86,0,0,0-5.15.22c-1.56.15-3.21.39-4.78.7-15.69,3-26,13.91-36,24.44C82.29,74.08,74.81,81.94,65.21,86q-3,5.49-5.79,11.07A79.33,79.33,0,0,0,78.59,93.05Z"></path><path class="cls-1" d="M49.9,118.79q-1.53,4-2.83,8.09c26.12-.16,53.7-10,72-16.55,3.84-1.37,7.18-2.65,10.13-3.78,11.71-4.48,18.16-7,27.46-4.46,4.75,1.27,11.85,4.32,18.88,7.65a302.66,302.66,0,0,0-15.15-30.66c-4.81.6-10.79,2.26-18.22,5.67-1.84.85-8.21,3.91-15.57,7.9l-5.06,2.78a116.17,116.17,0,0,1-69.24,23.41C51.49,118.84,50.7,118.81,49.9,118.79Z"></path><path class="cls-1" d="M154.67,161c-7.78-8.74-15.13-17-26.67-17h-.13c-5,.05-7.29,1.54-11.1,4-4.65,3-11,7.14-25.19,10.36a113.54,113.54,0,0,1-37.7,2.37,68.59,68.59,0,0,1-10-1.81,72.18,72.18,0,0,0,1.93,9.6c.25.92.56,1.81.84,2.71a34.86,34.86,0,0,1,5.2-1.46,50.52,50.52,0,0,1,19.51.16l1.33.22c14,2.22,24.61-1.69,33.93-5.14,10.4-3.84,19.37-7.17,30.26-2.05,5.28,2.48,10.46,6.76,16,11.28,6.76,5.58,13.74,11.34,20.33,12.93.54.13,1.09.25,1.58.35a71.35,71.35,0,0,0,4.07-7.38C168.56,176.61,161.52,168.74,154.67,161Z"></path><path class="cls-1" d="M131.27,112c-3,1.15-6.36,2.44-10.25,3.83-18.82,6.73-47.26,16.9-74.57,16.9H46.2l-.89,0a61.35,61.35,0,0,0-1.7,10C54.8,140.67,66,137,77,133.4c12-4,24.41-8,36.66-9.93,2.55-.34,4.61-.58,6.49-.77,28.52-3,47.89,7.77,59.21,32.82a22.25,22.25,0,0,0,5.36,6.17,71.43,71.43,0,0,0,1-12.05,66.52,66.52,0,0,0-2.17-17.48c-1.36-4.77-3-9.58-4.8-14.4-8.63-4.27-18.09-8.58-23.59-10.05C147.67,105.71,142.53,107.67,131.27,112Z"></path><path class="cls-1" d="M108.14,176.16c6.9,1.32,10.09,4.11,13.78,7.34a55.89,55.89,0,0,0,11.13,8c10.23,5.59,21,7.8,31.8,8.5a71.8,71.8,0,0,0,6.34-7.26c-7.67-2.07-15-8.09-22.05-13.92-5.2-4.29-10.11-8.34-14.73-10.52-8.67-4.07-15.84-1.42-25.76,2.25S87.35,178.4,71.79,176l-1.39-.23a45.33,45.33,0,0,0-17.4-.19,28,28,0,0,0-4.36,1.23A71.55,71.55,0,0,0,53,185.58a43,43,0,0,0,2.21,4.74c4.13-1.38,8.65-3,13.62-4.7l5.48-1.92C96,176.13,100.9,174.76,108.14,176.16Z"></path><path class="cls-1" d="M118.19,90.66l.25-.17c1.85-1,3.62-2,5.38-2.95,7.53-4.09,14-7.22,15.91-8.08a72.3,72.3,0,0,1,17.58-5.76c-2.37-4.06-4.8-8.06-7.25-12a164.12,164.12,0,0,0-28.61,11.73c-15.83,8.69-22,13.52-26.56,17.06-4.37,3.41-7,5.47-14.39,8a84.92,84.92,0,0,1-24,4.58c-1.56,3.34-3,6.7-4.4,10A112,112,0,0,0,118.19,90.66Z"></path><path class="cls-1" d="M114.55,17c.76-.81,1.54-1.62,2.31-2.43L115.64,13c-3.41,4.19-7.19,8.92-11.17,14.09C107.89,24,111.19,20.52,114.55,17Z"></path><path class="cls-1" d="M71,75.89C76.21,72,81,67,85.85,61.86,96.47,50.66,107.44,39.08,125,35.7c1.74-.33,3.58-.6,5.31-.77.58-.06,1.13-.09,1.69-.13-4-5.6-7.89-10.82-11.52-15.59L118.77,21C111,29.17,103.54,37,94,41.12,86.31,51.73,78.36,63.51,71,75.89Z"></path><path class="cls-1" d="M134.81,213.85c-.46-.09-1.52-.34-2.8-.65a197.51,197.51,0,0,1-27.16-8.55,74.18,74.18,0,0,0-9.8-3.29c-6-1.39-8.6-.34-14.27,1.95-2.58,1.05-5.6,2.27-9.55,3.52,12.92,8,29.41,11,43.26,14a70.21,70.21,0,0,0,26.56-5.13Q137.9,214.83,134.81,213.85Z"></path><path class="cls-1" d="M43.36,152.83l.92.23A65.12,65.12,0,0,0,54.53,155a107.3,107.3,0,0,0,35.76-2.25c13.17-3,18.79-6.64,23.31-9.58,4-2.62,7.53-4.89,14.22-4.95h.29c14,0,22.61,9.64,30.91,19,6.37,7.16,12.92,14.5,22.1,17.62a71.77,71.77,0,0,0,2.23-7,26.52,26.52,0,0,1-9.11-9.43l-.12-.23c-10.33-23-27.28-32.38-53.42-29.66-1.81.18-3.8.42-6.25.74-11.72,1.83-23.9,5.83-35.67,9.7s-23.54,7.73-35.48,9.77c0,.32,0,.62,0,.94C43.28,150.71,43.31,151.77,43.36,152.83Z"></path><path class="cls-1" d="M96.36,195.69a76.55,76.55,0,0,1,10.57,3.53,190.08,190.08,0,0,0,26.45,8.32l3,.7q6.39,2.06,12.86,3.58a71.9,71.9,0,0,0,9.71-6.52,76.81,76.81,0,0,1-28.66-8.72,61.86,61.86,0,0,1-12.16-8.69c-3.44-3-5.7-5-11-6-5.84-1.11-10.36.19-30.82,7.33l-5.48,1.91c-4.46,1.57-8.52,3-12.29,4.26a42.57,42.57,0,0,0,6.78,7.14,105.86,105.86,0,0,0,13.35-4.59C84.6,195.49,88.56,193.88,96.36,195.69Z"></path></svg>