<svg xmlns="http://www.w3.org/2000/svg" viewBox="0 0 232.09 235.15"><defs><style>.cls-1{fill:#378c33;}.cls-2{fill:#aecdcf;}.cls-3{fill:none;}.cls-4{fill:#49382a;}.cls-5{fill:#8db9ba;}.cls-6{fill:#448a8a;}</style></defs><g id="Vrstva_4"><path class="cls-1" d="M114.16,103.25a1.26,1.26,0,0,1-.88-.35,46.6,46.6,0,0,1-7.56-9,47.07,47.07,0,0,1-3.15-5.8A1.29,1.29,0,0,1,104.92,87a43.16,43.16,0,0,0,3,5.47,43.83,43.83,0,0,0,7.15,8.55,1.29,1.29,0,0,1-.89,2.24Z"></path><path class="cls-1" d="M87.29,78.85a11.39,11.39,0,0,1,9.48-1,11.13,11.13,0,0,1,7,9.93c-.88-.32-2.27-.8-4-1.28-3.91-1.07-5.22-1-6.92-1.7S89.1,82.62,87.29,78.85Z"></path><path class="cls-1" d="M112.17,72.7a9.86,9.86,0,0,0-7.47,3.52A9.67,9.67,0,0,0,104,86.73c.52-.63,1.33-1.61,2.41-2.75,2.41-2.56,3.44-3.06,4.37-4.37S112.53,76.31,112.17,72.7Z"></path><rect class="cls-2" x="95.69" y="206.74" width="42.23" height="20.24" rx="4.18"></rect><path class="cls-1" d="M119.11,134.09a1.94,1.94,0,0,1-1.82-1.26,76.79,76.79,0,0,1-4.84-30.07,2,2,0,0,1,.58-1.31,40.39,40.39,0,0,0,6.79-8.74A40.85,40.85,0,0,0,125,77.09a1.94,1.94,0,0,1,3.85.46,44.53,44.53,0,0,1-12.55,26.12,72.54,72.54,0,0,0,.37,9.79,74.09,74.09,0,0,0,4.25,18,1.93,1.93,0,0,1-1.13,2.49A2.08,2.08,0,0,1,119.11,134.09Z"></path><path class="cls-3" d="M100.29,138.8a340.3,340.3,0,0,0,37,.88c12.48-.5,18.17-1.77,21.29-1.44.05-.76.12-1.51.12-2.27V124l.85-.76a63.85,63.85,0,1,0-85.39,0L75,124v12c0,.43.05.85.06,1.28C78.36,136.39,84.71,137.78,100.29,138.8Z"></path><path class="cls-4" d="M112.14,173.15h9.33a37.19,37.19,0,0,0,37.06-34.91c-3.12-.33-8.81.94-21.29,1.44a340.3,340.3,0,0,1-36.95-.88c-15.58-1-21.93-2.41-25.27-1.55A37.2,37.2,0,0,0,112.14,173.15Z"></path><path class="cls-2" d="M116.8,6.84a68.94,68.94,0,0,0-47,119.42V136a42,42,0,0,0,1.38,10.52c-.44-3.15-.06-5.87,1.41-7.69A4.33,4.33,0,0,1,75,137.25c0-.43-.06-.85-.06-1.28V124l-.85-.76a63.85,63.85,0,1,1,85.39,0l-.85.76v12c0,.76-.07,1.51-.12,2.27a3.9,3.9,0,0,1,2.91,1.44,8,8,0,0,1,1.39,5.29,42.35,42.35,0,0,0,1-9v-9.71a68.93,68.93,0,0,0-47-119.42Z"></path><path class="cls-2" d="M158.53,138.24a37.19,37.19,0,0,1-37.06,34.91h-9.33A37.2,37.2,0,0,1,75,137.25a4.33,4.33,0,0,0-2.44,1.55c-1.47,1.82-1.85,4.54-1.41,7.69a42.38,42.38,0,0,0,41,31.83h9.33A42.4,42.4,0,0,0,162.83,145a8,8,0,0,0-1.39-5.29A3.9,3.9,0,0,0,158.53,138.24Z"></path><path class="cls-4" d="M84.35,143.59C83.9,141,89.79,137,94,135.23c4.9-2,7-.59,12.32-3.08,4.73-2.2,4.62-4,8.19-4.94,3.85-1,7.55.58,12,2.3,2.11.81,1.51.77,6.6,3.08,6.1,2.77,7.09,2.89,9.68,4.4,3.61,2.1,7.21,4.18,7,5.72C149.12,149.64,85.75,151.54,84.35,143.59Z"></path><path class="cls-1" d="M125.31,79.71c-.23-1.1-1.87-9.57,3.87-16.45a19.76,19.76,0,0,1,20.72-5.91c-1,1.29-2.66,3.35-4.48,6-4.08,5.92-4.66,8.19-6.88,10.61C136.46,76.21,132.69,78.88,125.31,79.71Z"></path><path class="cls-5" d="M152.51,203.84q1.35-5.94,2.71-11.87a261.8,261.8,0,0,1-31.64,1.95c-2,0-4,0-5.94-.07a259.28,259.28,0,0,1-39.8-4.06q1.41,6.17,2.81,12.31a200,200,0,0,0,37.07,4.19A205.29,205.29,0,0,0,152.51,203.84Z"></path><path class="cls-5" d="M156.15,187.91h0V175.65c-10.49.95-21,1.55-31.55,1.55q-3.16,0-6.31-.06a348,348,0,0,1-40.88-3.22v11.86a258.48,258.48,0,0,0,40.32,4.2A260.23,260.23,0,0,0,156.15,187.91Z"></path><path class="cls-5" d="M156,171.85a13.3,13.3,0,0,0-13.13-11.54H90.72A13.31,13.31,0,0,0,78,170.09a344.28,344.28,0,0,0,40.41,3.17A342.93,342.93,0,0,0,156,171.85Z"></path><path class="cls-5" d="M117.65,210.17a205.12,205.12,0,0,1-36.06-3.93,13.34,13.34,0,0,0,13.3,13.26h43.77a13.31,13.31,0,0,0,13.14-11.63,204.82,204.82,0,0,1-30.46,2.33Q119.5,210.2,117.65,210.17Z"></path><path class="cls-6" d="M124.6,177.2c10.51,0,21.06-.6,31.55-1.55v-2a12.8,12.8,0,0,0-.18-1.76,342.93,342.93,0,0,1-37.61,1.41A344.28,344.28,0,0,1,78,170.09a12.87,12.87,0,0,0-.54,3.52v.31a348,348,0,0,0,40.88,3.22Q121.44,177.2,124.6,177.2Z"></path><path class="cls-6" d="M123.58,193.92A261.8,261.8,0,0,0,155.22,192l.93-4.06A260.23,260.23,0,0,1,117.73,190a258.48,258.48,0,0,1-40.32-4.2v2.13c.14.63.29,1.25.43,1.88a259.28,259.28,0,0,0,39.8,4.06C119.62,193.9,121.59,193.92,123.58,193.92Z"></path><path class="cls-6" d="M152.51,203.84a205.29,205.29,0,0,1-34.79,2.45,200,200,0,0,1-37.07-4.19c.31,1.37.63,2.73.94,4.09v.05a205.12,205.12,0,0,0,36.06,3.93q1.84,0,3.69,0a204.82,204.82,0,0,0,30.46-2.33,13.28,13.28,0,0,0,.17-1.68Z"></path></g></svg>