<svg xmlns="http://www.w3.org/2000/svg" xmlns:xlink="http://www.w3.org/1999/xlink" viewBox="0 0 453 361.2" xmlns:v="https://vecta.io/nano"><defs><path id="A" d="M221.4 92.3c.4 1.1.2 2.5 1.4 4 2 2.5 4.8 1.6 6.9 3.5s2 5.4 1.7 8.4c-.7 9.5-1 14.2-1.7 19.3-.8 9.1 1.1 18.3 5.5 26.3 1.9 3.4 2.3 2.9 6.7 8.9 4.4 6.3 8.4 12.8 11.8 19.6 4.8 9.6 6.9 22.1 8.9 47.1 4 52.1 1.3 81.1.1 92l-.9 7.8c-1.4 2.8-3.4 5.4-5.8 7.5-7.2 6.4-14.4 5.1-42.1 6.1-9.6.4-19.3 0-28.9-1.4-4.7-.7-10.3-1.9-13.9-6.4-1.9-2.5-3-5.5-3.2-8.7-3-30.5-1.7-64.3-1.7-64.3l1.5-27.6 1.1-14.1c1.6-16.6 4.1-38.9 8.7-62.4 6.7-33.9 12.2-44.7 12.5-52.3.3-2.9 1.1-5.7 2.3-8.4 1.4-3.2 3.3-6.1 5.7-8.6 17.4-1 22.4 1.1 23.4 3.7z"/><path id="B" d="M220 87.4a1.58 1.58 0 0 0 1.6-1.6V76c-.1-.9-.8-1.5-1.7-1.5a1.7 1.7 0 0 0-1.5 1.5v9.8a1.58 1.58 0 0 0 1.6 1.6h0z"/><path id="C" d="M202.7 87.4a1.58 1.58 0 0 0 1.6-1.6V76c-.1-.9-.8-1.5-1.7-1.5a1.7 1.7 0 0 0-1.5 1.5v9.8a1.58 1.58 0 0 0 1.6 1.6z"/><path id="D" d="M302.1 146.3v1.2h-4v2.4c.3-.4 1-.8 1.8-.8 2.1 0 2.8 1.6 2.8 2.9 0 1.7-1 3.1-3 3.1-1.8 0-2.8-1-3-2.4h1.3c.2.7.8 1.2 1.7 1.2 1.2 0 1.7-.8 1.7-1.9s-.6-1.8-1.7-1.8c-.8 0-1.3.4-1.6 1.1h-1.3v-5h5.3z"/><path id="E" d="M351.4 149.6h-.8v-1.1h.8v-1.6h1.4v1.6h1.6v1.1h-1.6v3.7c0 .5.2.7.8.7h.8v1.1h-1.1c-1.2 0-1.9-.5-1.9-1.8v-3.7z"/><path id="F" d="M355.5 146.7c0-.5.4-.9.9-.9s.9.4.9.9-.4.9-.9.9c-.6 0-.9-.4-.9-.9zm.1 1.8h1.4v6.6h-1.4v-6.6z"/><path id="G" d="M9.1 255.9c.2.8.7 1.2 1.6 1.2 1.1 0 1.6-.7 1.6-3-.4.6-1.2.9-1.9.9-1.5 0-2.8-.9-2.8-2.8 0-1.7 1.1-2.9 2.9-2.9 2.3 0 3 1.5 3 4.4 0 3-.6 4.5-2.9 4.5-1.8 0-2.7-1.1-2.8-2.4h1.3zm3.1-3.6c0-1.1-.6-1.8-1.6-1.8s-1.6.7-1.6 1.7c0 .9.5 1.7 1.7 1.7.9 0 1.5-.7 1.5-1.6z"/></defs><clipPath id="H"><use xlink:href="#A"/></clipPath><g clip-path="url(#H)"><path d="M221.4 92.3c.4 1.1.2 2.5 1.4 4 2 2.5 4.8 1.6 6.9 3.5s2 5.4 1.7 8.4c-.7 9.5-1 14.2-1.7 19.3-.8 9.1 1.1 18.3 5.5 26.3 1.9 3.4 2.3 2.9 6.7 8.9 4.4 6.3 8.4 12.8 11.8 19.6 4.8 9.6 6.9 22.1 8.9 47.1 4 52.1 1.3 81.1.1 92l-.9 7.8c-1.4 2.8-3.4 5.4-5.8 7.5-7.2 6.4-14.4 5.1-42.1 6.1-9.6.4-19.3 0-28.9-1.4-4.7-.7-10.3-1.9-13.9-6.4-1.9-2.5-3-5.5-3.2-8.7-3.8-38.7-1.7-64.3-1.7-64.3 2.1-26.3.5-20.1 2.6-41.7 1.6-16.6 4.1-38.9 8.7-62.4 6.7-33.9 12.2-44.7 12.5-52.3.3-2.9 1.1-5.7 2.3-8.4 1.4-3.2 3.3-6.1 5.7-8.6 17.4-1 22.4 1.1 23.4 3.7z" fill="#f0f3f7"/><path d="M197.2 145.6c11.1.4 13.1-1.8 26.6-1.5 2.5 0 5.1.2 7.6.4h.1c1 2.2 2.2 4.2 3.8 6.1 1.9 2.3 2.3 1.9 6.7 6 0 0 1 1 2.6 2.5-8.1.9-16.2 1.3-24.3 1.3-2.4 0-10.8 0-30.7-.9l-13.6-.7 1.6-5.3c.9-3 1.8-5.9 2.8-8.8l2 .1c8.2.3 11 .7 14.8.8z" fill="#f8b133"/><path d="M265.3 222.7c2 32.4 2.3 64.8 1 97.2-.1 3-.7 5.9-1.9 8.6-1.4 3.1-3.5 5.8-6.1 8-7.7 6.1-22 5.7-44.4 6.4-10.2.5-20.3 0-30.4-1.5-4.9-.8-10.9-2-14.6-6.7-2-2.7-3.1-5.9-3.3-9.2-4-41-1.8-68.1-1.8-68.1 1.6-19 1.2-22 1.6-29.2 0 0 .3-6.8 1.1-14.9.9-8.9 3.5-29.9 7.5-57.7 5.2-.2 10.5-.1 15.7.2 2.2.1 5.9.6 8.6.9 5.5.6 5.5.7 8 .9 3.7.4 7.4.4 11.1.2 4.2-.2 5.3-1.1 11.5-1.6 1.6-.1 4.8-.4 9-.4 3.6 0 6.5.1 8.4.3 3.6 5.4 6.8 11 9.8 16.8 7.5 15.2 7.6 27.6 9.2 49.8z" fill="#a6c6ff"/><path d="M204.3 103.4c-1.4-.4-7 11.1-10 17.8a192.36 192.36 0 0 0-11.9 35.5c-1 4.2-1.8 8.7-2.9 15.5-4.1 26.3-5.6 53.8-4.3 53.9 1.7.2 5.2-45.8 16.6-77.1 3.3-9 4.6-13.4 7.2-22.3s6.8-22.9 5.3-23.3z" opacity=".23" fill="#fff" enable-background="new"/><path d="M235.7 93.1c-8.4.6-17.4 1-27 .9-7.7-.1-15.1-.4-22-.9v-6.3h49v6.3z" fill="#d8d8d8"/></g><path d="M258.4 321.1c-.7-.6-4.7 4.7-10.3 8.8-9.9 7.2-23.2 6.7-49.4 6.1-5.2-.1-9.7-.4-14.9-2.4-6.9-2.6-11-6.6-11.7-5.8s1.6 4.3 5 6.9c4.2 3.3 8.9 3.6 14.7 4.1 7 .7 14 .9 21 .9 31.3-1.1 35.7-4.2 37.7-5.8 5.8-4.9 8.7-12.1 7.9-12.8z" opacity=".47" fill="#9abef4" enable-background="new"/><path d="M262.2 95.8l-1.8 3.8c-4.6-3.6-8.6-7.8-11.8-12.6-3.7-5.1-6.2-10.9-7.5-17-.5-2.4-.7-4.8-.7-7.2l-21.6-.1L247.6 46c.7 1.2 1.1 2.6 1.3 4s.2 2.8-.1 4.2c-.7 3.6-.2 8.1.3 12.7.7 6.1 2.7 10.6 5 15.6 2.2 4.7 4.9 9.2 8.1 13.3z" fill="#e00028"/><path d="M227.6 62.7h-1.9c1-2.2 2.2-4.2 3.6-6.1L247.6 46l.6 1.3c-3.9 2.1-7.7 4.5-11.2 7.2-3.3 2.5-6.5 5.2-9.4 8.2z" fill="#b7042b" opacity=".43"/><path d="M264.6 29.2l-.4 12.8-17.6 2.6-1.2-17.1 19.2 1.7z" fill="#e00028"/><path d="M262.2 33.6c0-.4-.5-.8-1.2-.8l-7.5-.5c-.7 0-1.2.2-1.3.6s.5.8 1.2.8l7.5.5c.7.1 1.3-.2 1.3-.6zm0 2.4c0-.4-.5-.7-1.2-.7h-7.5c-.7 0-1.2.3-1.2.7s.6.7 1.2.7h7.5c.7 0 1.2-.3 1.2-.7zm0 2.1c0-.4-.6-.7-1.3-.6l-7.5.7c-.7.1-1.2.4-1.1.8s.6.7 1.3.6l7.5-.7c.6 0 1.2-.4 1.1-.8zm0 2.5c0-.4-.6-.6-1.3-.6l-7.4.9c-.7.1-1.2.5-1.1.8s.6.6 1.3.6l7.4-.9c.7-.1 1.1-.4 1.1-.8zm-9.6-10.5c.1-.4.6-.6 1.3-.6l7.4.9c.7.1 1.2.5 1.1.9s-.6.6-1.3.6l-7.4-.8c-.6-.2-1.1-.6-1.1-1z" fill="#b7042b"/><path d="M254.9 27.6l-.6 16.8a51.19 51.19 0 0 0-32.6 26.3l-26.3.9c.5-2 .3-4.2-.3-6.2-1.5-4.3-5.5-6.3-7.2-7.1-8.4-3.8-14.5.4-16.4-2.3-2.4-3.3 3.6-12.4 9.8-17.9 4.9-4.3 10.8-7.2 17.2-8.6 9.4-1 19.5-1.8 30.3-2 9.2-.4 18-.2 26.1.1z" fill="#e8e8e8"/><path d="M221.7 70.7l-26.3.9c.2-1.1.3-2.2.2-3.3l27.4-.1-1.3 2.5z" fill="#c5c5c4"/><path d="M223.5 92.9h-30.1c-1.1 0-2-.9-2-2V71c0-1.1.9-2 2-2h30.1c1.1 0 2 .9 2 2v20c0 1-.9 1.9-2 1.9z" fill="#e00028"/><path d="M189.5 41.3c3.7-2.2 7.7-4.1 11.8-5.5 16.9-5.3 39.2-6 39.2-6.3 0-.1-5.5 0-6.8 0-5.6.1-9.8.4-10.9.4-17.4 1-21.6 2-24.8 2.9-1.2.3-2.3.7-3.4 1.1-10.5 4-20.9 12.4-19.4 17.3.2.8.9 1.9 3.1 2.9.6-2 1.5-3.8 2.7-5.5 1.3-2 3.3-4.2 8.5-7.3z" fill="#fff"/><g fill="#b7042b"><use xlink:href="#B"/><use xlink:href="#B" x="-5.8"/><use xlink:href="#B" x="-11.6"/><use xlink:href="#C"/><use xlink:href="#C" x="-5.8"/></g><path d="M244.9 151.7l40.9-.3m-176.2 102l40.8-.4" fill="none" stroke="#448a8a" stroke-width="2" stroke-linecap="round" stroke-linejoin="round"/><g enable-background="new" fill="#448a8a"><use xlink:href="#D"/><path d="M304.4 150.2h4.9v1.2h-4.9v-1.2zm7.7-2.6H311v-1.2h2.5v8.7h-1.4v-7.5zm6.3-1.4c2.4 0 3.1 1.9 3.1 4.4s-.7 4.5-3.1 4.5-3.1-1.9-3.1-4.5c0-2.5.7-4.4 3.1-4.4zm0 1.2c-1.6 0-1.8 1.5-1.8 3.2s.2 3.2 1.8 3.2 1.8-1.5 1.8-3.2c0-1.6-.2-3.2-1.8-3.2zm6.2-.8c1 0 1.8.7 1.8 1.9s-.8 1.9-1.8 1.9-1.8-.7-1.8-1.9.8-1.9 1.8-1.9zm-.7 1.9c0 .7.3 1.1.8 1.1s.8-.3.8-1.1c0-.7-.3-1-.8-1-.6-.1-.8.2-.8 1zm4.9-1.7h1.3l-4.8 8.3H324l4.8-8.3zm.7 4.7c1 0 1.8.7 1.8 1.9s-.8 1.9-1.8 1.9-1.8-.7-1.8-1.9.8-1.9 1.8-1.9zm-.8 1.9c0 .7.3 1 .8 1s.8-.3.8-1-.3-1-.8-1-.8.2-.8 1zm9.8-5c1.1 0 1.9.5 2.3 1.1v-1h1.4v6.6h-1.4v-1c-.4.6-1.2 1.1-2.3 1.1-1.7 0-3.1-1.4-3.1-3.4s1.4-3.4 3.1-3.4zm.3 1.2c-1 0-2 .8-2 2.2s1 2.3 2 2.3 2-.8 2-2.2c0-1.5-1-2.3-2-2.3zm8-1.2c1.6 0 2.7.8 3 2.2h-1.5c-.2-.6-.8-1-1.6-1-1.1 0-1.8.8-1.8 2.3s.7 2.3 1.8 2.3c.8 0 1.3-.4 1.6-1h1.5c-.4 1.3-1.4 2.2-3 2.2-1.9 0-3.2-1.3-3.2-3.4-.1-2.3 1.3-3.6 3.2-3.6z"/><use xlink:href="#E"/><use xlink:href="#F"/><path d="M359.5 148.5l1.9 5.4 1.9-5.4h1.5l-2.5 6.6h-1.6l-2.5-6.6h1.3zm9.1 6.7c-1.9 0-3.3-1.3-3.3-3.4s1.3-3.4 3.3-3.4c1.9 0 3.2 1.3 3.2 3.3v.7h-5c.1 1.1.9 1.8 1.9 1.8.8 0 1.3-.4 1.6-.9h1.5c-.6 1-1.6 1.9-3.2 1.9zm-1.9-4h3.7c0-1-.8-1.7-1.8-1.7a1.86 1.86 0 0 0-1.9 1.7z"/><use xlink:href="#F" x="20.6"/><path d="M384.1 151.4c0-1.2-.7-1.8-1.7-1.8s-1.7.6-1.7 1.8v3.7h-1.4v-6.6h1.4v.8c.4-.5 1.2-.9 2-.9 1.5 0 2.7 1 2.7 2.8v3.9H384v-3.7zm5.8-3c1.1 0 1.9.5 2.3 1.1v-1h1.4v6.7c0 1.8-1.2 3.2-3.2 3.2-1.8 0-3.1-.9-3.2-2.3h1.4c.2.7.9 1.2 1.9 1.2 1.1 0 1.8-.6 1.8-2v-1.1c-.4.6-1.2 1.1-2.3 1.1-1.7 0-3.1-1.4-3.1-3.4s1.2-3.5 3-3.5zm.2 1.2c-1 0-2 .8-2 2.2s1 2.3 2 2.3 2-.8 2-2.2c0-1.5-.9-2.3-2-2.3zm6.6 5.5h-1.4v-6.6h1.4v1c.4-.7 1-1.1 2-1.1v1.4h-.3c-1 0-1.6.4-1.6 1.8v3.5zm6.1.1c-1.9 0-3.3-1.3-3.3-3.4s1.3-3.4 3.3-3.4c1.9 0 3.2 1.3 3.2 3.3v.7h-5c.1 1.1.9 1.8 1.9 1.8.8 0 1.3-.4 1.6-.9h1.5c-.6 1-1.6 1.9-3.2 1.9zm-1.9-4h3.7c0-1-.8-1.7-1.8-1.7s-1.7.7-1.9 1.7zm9.1-2.8c.9 0 1.8.4 2.3 1v-3.2h1.4v8.9h-1.4v-1c-.4.6-1.2 1.1-2.3 1.1-1.7 0-3.1-1.4-3.1-3.4s1.4-3.4 3.1-3.4zm.3 1.2c-1 0-2 .8-2 2.2s1 2.3 2 2.3 2-.8 2-2.2c0-1.5-1-2.3-2-2.3zm5-2.9c0-.5.4-.9.9-.9s.9.4.9.9-.4.9-.9.9-.9-.4-.9-.9zm.2 1.8h1.4v6.6h-1.4v-6.6zm6 6.7c-1.9 0-3.3-1.3-3.3-3.4s1.3-3.4 3.3-3.4c1.9 0 3.2 1.3 3.2 3.3v.7h-5c.1 1.1.9 1.8 1.9 1.8.8 0 1.3-.4 1.6-.9h1.5c-.5 1-1.6 1.9-3.2 1.9zm-1.9-4h3.7c0-1-.8-1.7-1.8-1.7s-1.7.7-1.9 1.7zm11.1.2c0-1.2-.7-1.8-1.7-1.8s-1.7.6-1.7 1.8v3.7h-1.4v-6.6h1.4v.8c.4-.5 1.2-.9 2-.9 1.5 0 2.7 1 2.7 2.8v3.9h-1.4v-3.7zm3.4-1.8h-.8v-1.1h.8v-1.6h1.4v1.6h1.6v1.1h-1.6v3.7c0 .5.2.7.8.7h.8v1.1H436c-1.2 0-1.9-.5-1.9-1.8v-3.7zm6.6 5.6c-1.6 0-2.7-.9-2.8-2.1h1.4c0 .5.6 1 1.3 1 .8 0 1.2-.3 1.2-.8 0-1.3-3.8-.6-3.8-3 0-1.1 1-1.9 2.5-1.9s2.5.8 2.6 2.1h-1.4c0-.6-.5-1-1.2-1s-1.1.3-1.1.7c0 1.3 3.7.6 3.8 3 0 1.2-.9 2-2.5 2z"/></g><g enable-background="new" fill="#448a8a"><use xlink:href="#G"/><use xlink:href="#D" x="-281.4" y="103.3"/><path d="M26.2 253.4h4.9v1.2h-4.9v-1.2z"/><use xlink:href="#G" x="28.6"/><path d="M46.7 249.4c2.4 0 3.1 1.9 3.1 4.4s-.7 4.5-3.1 4.5-3.1-1.9-3.1-4.5c0-2.5.7-4.4 3.1-4.4zm0 1.3c-1.6 0-1.8 1.5-1.8 3.2s.2 3.2 1.8 3.2 1.8-1.5 1.8-3.2-.2-3.2-1.8-3.2zm6.2-.9c1 0 1.8.7 1.8 1.9s-.8 1.9-1.8 1.9-1.8-.7-1.8-1.9.8-1.9 1.8-1.9zm-.7 1.9c0 .7.3 1.1.8 1.1s.8-.3.8-1.1c0-.7-.3-1-.8-1-.6-.1-.8.2-.8 1zm4.9-1.7h1.3l-4.8 8.3h-1.3l4.8-8.3zm.7 4.7c1 0 1.8.7 1.8 1.9s-.8 1.9-1.8 1.9-1.8-.7-1.8-1.9.7-1.9 1.8-1.9zm-.8 1.9c0 .7.3 1 .8 1s.8-.3.8-1-.3-1-.8-1-.8.2-.8 1zm6.3-4.9h1.4l1.4 5.3 1.4-5.3h1.4l1.3 5.3 1.4-5.3H73l-2.1 6.6h-1.4l-1.3-4.9-1.3 4.9h-1.4l-2.2-6.6zm13.4-.1c1.1 0 1.9.5 2.3 1.1v-1h1.4v6.6H79v-1c-.4.6-1.2 1.1-2.3 1.1-1.7 0-3.1-1.4-3.1-3.4s1.4-3.4 3.1-3.4zm.3 1.2c-1 0-2 .8-2 2.2s1 2.3 2 2.3 2-.8 2-2.2c0-1.5-1-2.3-2-2.3z"/><use xlink:href="#E" x="-269" y="103.2"/><path d="M89.5 258.4c-1.9 0-3.3-1.3-3.3-3.4s1.3-3.4 3.3-3.4c1.9 0 3.2 1.3 3.2 3.3v.7h-5c.1 1.1.9 1.8 1.9 1.8.8 0 1.3-.4 1.6-.9h1.5c-.6 1-1.6 1.9-3.2 1.9zm-1.9-4h3.7c0-1-.8-1.7-1.8-1.7-1 .1-1.8.7-1.9 1.7zm7.8 3.9H94v-6.6h1.4v1c.4-.7 1-1.1 2-1.1v1.4H97c-1 0-1.6.4-1.6 1.8v3.5z"/></g></svg>