<svg id="Symbols" xmlns="http://www.w3.org/2000/svg" width="365.026" height="638.796" viewBox="0 0 365.026 638.796">
  <g id="Scene_Home" data-name="Scene/Home" transform="translate(0 0)">
    <g id="Big-Leaf-Plant" transform="translate(0 0)">
      <g id="Big-Ass-Leaf" transform="translate(61.732 0)">
        <path id="leaf" d="M66.109,1.465C73.8.525,82,.857,89.154,3.892c15.2,6.454,19.526,24.416,19.317,39.015-.225,15.714-3.561,32.877,8.385,45.538,5.492,5.821,12.323,10.275,17.715,16.2A76.589,76.589,0,0,1,148.2,126.013c6.147,14.3,9.163,31.108,3.543,46.1-4.949,13.2-17.4,25.121-14.709,40.135,2.806,15.662,18.6,27.636,28.469,39.3,11.173,13.2,21.46,30.076,23.15,47.388,1.621,16.593-5.6,33.373-16.686,45.915-22.146,25.063-55.435,37.348-89,37.273-14.251-.032-30.386-.676-42.684-8.334-3.8-2.367-5.806-5.024-8.066-8.715-2.026-3.312-4.7-5.465-7.8-7.808a46.3,46.3,0,0,1-14.857-19.84c-12.18-30.15-2.445-67.447,14.6-94.22,4.04-6.343,7.347-12.447,5.385-20.007-2.048-7.892-7.081-15.01-11.534-21.794-4.4-6.7-9.422-13.1-12.86-20.35-3.6-7.594-4.615-15.546-3.979-23.858,1.2-15.612,7.935-30.019,17.477-42.574,9.19-12.094,19.981-23.665,20.005-39.512.027-16.795-11.2-31.735-6.418-48.81,1.981-7.071,5.959-14.325,12.37-18.564C50.76,3.678,58.878,2.348,66.109,1.465Z" transform="translate(-1 -1)" fill="#dde3e9" fill-rule="evenodd"/>
        <path id="middle-thing" d="M25.721,13.157c.144-2.256,2.82-3.608,4.926-3.02,2.773.775,2.719,3.366,2.646,5.674A76.248,76.248,0,0,0,35.8,36.683c3.544,14.311,10.095,27.5,15.284,41.244s7.619,27.917,4.577,42.451c-2.868,13.7-7.372,27.052-10.307,40.773-2.587,12.093-5.339,24.846-1.4,36.909,3.79,11.611,12.17,21.067,18.2,31.56,12.491,21.721,18.033,45.818,18.774,70.616.344,11.514.034,23.136-2.637,34.431-1.538,6.5-3.6,15.291-9.177,19.781-2.57,2.072-6.965,2.786-9.128-.279-2.03-2.875-.249-7.327.4-10.393a157.541,157.541,0,0,0,2.685-40.3c-.647-13.05-2.189-26.078-6.3-38.542-3.812-11.565-9.6-21.955-16.419-32.073C33.413,222.55,26.192,212.217,23.323,200c-2.916-12.408-.547-25.034,2.62-37.206,3.35-12.874,7.737-25.379,12.273-37.9,4.42-12.2,5.987-23.753,3.547-36.526C36.942,63.126,24.039,39.439,25.721,13.157Z" transform="translate(34.364 14.156)" fill="#c5cfd6" fill-rule="evenodd"/>
      </g>
      <g id="Big-Ass-Leaf-2" data-name="Big-Ass-Leaf" transform="translate(85.888 26.84)">
        <path id="leaf-2" data-name="leaf" d="M243.956,4.247c9.515,2.889,18.964,7.55,25.747,14.859,14.421,15.542,10,39.033,2.034,56.19-8.569,18.467-21.554,37.028-14.234,58.216,3.365,9.741,9.023,18.562,12.213,28.378a98.916,98.916,0,0,1,4.694,32.358c-.346,20.1-5.693,41.556-20.213,56.367-12.783,13.041-33.686,20.659-38.466,39.812-4.987,19.983,7.2,42.359,12.618,61.289,6.127,21.426,9.274,46.734,2.1,68.088-6.869,20.466-24.21,36.554-43.84,45.62-39.222,18.117-84.76,15.328-124.088-2.222-16.7-7.454-35.282-16.606-45.659-32.061-3.207-4.778-4.155-8.962-4.854-14.5-.626-4.971-2.627-8.908-5.022-13.291A59.69,59.69,0,0,1,.053,372.155c1.65-41.991,32.782-81.036,66.93-103.829,8.091-5.4,15.2-10.9,16.891-20.86,1.769-10.4-.372-21.436-2.008-31.775-1.616-10.218-4.126-20.4-4.328-30.757-.21-10.854,2.8-20.787,7.943-30.285,9.655-17.841,25.174-31.373,43-41.258,17.172-9.521,35.944-17.593,44.349-36.32,8.908-19.848,3.636-43.358,18.271-61.063,6.06-7.331,14.561-13.841,24.321-15.519C224.783-1.12,235.008,1.53,243.956,4.247Z" transform="translate(0 0)" fill="#dde3e9" fill-rule="evenodd"/>
        <path id="middle-thing-2" data-name="middle-thing" d="M170.633,15.176c1.35-2.6,5.187-2.8,7.342-.994,2.836,2.371,1.417,5.411.122,8.106a99.9,99.9,0,0,0-8,26.032c-3.351,18.806-2.6,37.853-3.728,56.853-1.131,18.984-5.712,37.054-16.881,52.671-10.53,14.726-22.788,28.172-33.406,42.883-9.358,12.966-19.255,26.626-20.967,42.975-1.649,15.736,3.2,31.328,4.758,46.916,3.231,32.27-2.909,63.711-15.03,93.466C79.215,397.9,72.767,411.5,63.728,423.475c-5.2,6.9-12.222,16.222-21.09,18.616-4.089,1.106-9.6-.349-10.526-5.113-.868-4.472,3.546-8.809,5.905-12.1,10.213-14.249,17.972-30.013,24.246-46.318,6.078-15.793,11.1-32.028,12.823-48.943,1.6-15.693.269-31.033-2.4-46.586-2.721-15.849-5.752-31.873-2.71-47.844,3.089-16.223,12.472-29.934,22.55-42.687,10.659-13.49,22.339-26,34.2-38.455,11.561-12.137,19.441-24.991,23.277-41.4C157.585,80.233,154.9,45.418,170.633,15.176Z" transform="translate(53.888 21.892)" fill="#c5cfd6" fill-rule="evenodd"/>
      </g>
      <g id="Big-Ass-Leaf-3" data-name="Big-Ass-Leaf" transform="translate(0 150.305)">
        <path id="leaf-3" data-name="leaf" d="M35.714,0c15.82,0,29.729,8.386,39.313,20.286,11.219,13.93,13.485,30.942,18.04,47.545,2.267,8.262,6.166,16.465,13,22.078,6.214,5.105,14.1,6.127,21.542,8.621a50.272,50.272,0,0,1,31.611,31.644c5.784,17.872-.342,35.9.712,54.008.968,16.634,17.369,27.011,30.564,34.985,13.011,7.863,24.733,15.223,28.652,30.541,4.155,16.246,5.55,34.38-.206,50.428-9.583,26.722-37.628,38.489-64.727,40.311C129.62,342.1,98.7,339.5,80.227,321.652,69.175,310.97,65.173,296.028,65.67,281.164a123.243,123.243,0,0,1,4.507-27.333c1.678-6.331,3.945-12.635,4.59-19.177,1.717-17.4-14.369-20.747-28.062-25.526C29.3,203.055,17.124,191.584,8.653,175.6c-7.888-14.88-11.2-31.584-6.469-47.967a56,56,0,0,1,12.737-22.41c2.615-2.841,6.3-5.211,8.661-8.2,2.2-2.788,1.724-6.4.964-9.665C21.035,72.282,10.1,59.793,6.185,44.739,2.654,31.149,4.741,14.237,17.165,5.47A32.448,32.448,0,0,1,35.714,0Z" transform="translate(0 0)" fill="#c5cfd6" fill-rule="evenodd"/>
        <path id="middle-thing-3" data-name="middle-thing" d="M26.958,15.722C43.726,33.583,48.284,57.817,49.622,81.3c.749,13.171-.031,27.063,3.839,39.839,3.311,10.934,11.073,19.293,19.074,27.193,16.105,15.9,34.067,32.069,38.778,55.084,2.764,13.507.9,27.457,4.718,40.815a112.26,112.26,0,0,0,17.024,34.322c5.988,8.259,13.79,14.58,20.335,22.275,2,2.351,4.858,5.808,4.034,9.126-.964,3.884-5.912,5.113-9.422,4.5-8.184-1.423-15.074-9.238-20.425-14.92A128.439,128.439,0,0,1,107.7,272.275c-6-11.131-10.831-22.943-12.9-35.432-2.142-12.956-1.076-26.459-5.967-38.893C80.6,177.027,60.638,164.68,46.2,148.373c-17.984-20.319-15.3-45.609-13.46-70.6,1.012-13.736,2.018-29.248-4.923-41.789-2.649-4.787-8.557-9.251-9.7-14.692C17.082,16.3,22.777,11.265,26.958,15.722Z" transform="translate(30.312 23.576)" fill="#afb9c5" fill-rule="evenodd"/>
      </g>
      <path id="Base" d="M28,181c0,102.148,16.671,155.673,104.677,155.673S237.353,283.148,237.353,181Z" transform="translate(47.152 302.123)" fill="#89c5cc" fill-rule="evenodd"/>
    </g>
  </g>
</svg>
