<svg xmlns="http://www.w3.org/2000/svg" width="535.476" height="697.042" viewBox="0 0 535.476 697.042">
  <g id="Symbols" transform="translate(12.002 1.002)">
    <g id="Scene_Plants" data-name="Scene/Plants" transform="translate(-12.002 -1.002)">
      <path id="Leaf-Bottom" d="M282.87,383.626c7.75,3.35,17.592-1.523,12.873-11.2-5.056-10.366-21.7-9.626-31.084-8.923.943,0,4.481,9.565,5.595,10.979A31.9,31.9,0,0,0,282.87,383.626ZM185.877,198.082C183.886,196.553,185.714,197.938,185.877,198.082Zm101.757,137.2c4.242-3.611,4.141-9.588.319-13.436-4.552-4.582-12.393-4-18.229-3.221-2.64.351-16.735,2.227-13.259,4.367a11.442,11.442,0,0,1-1.408-.583q-.556-1.678-1.154-3.339c.08-.052.149-.109.235-.162-.094.046-.16.1-.242.143a130.073,130.073,0,0,0-16.271-31.208,30.675,30.675,0,0,0,7.429,1.573c7.434.548,22.667-6.006,13.892-15.406-8.414-9.011-20.214,1.748-29.131,3.614a420.778,420.778,0,0,0-30.245-33.613,2.4,2.4,0,0,0,1.4-1.3c4.15,1.839,8.515,4.552,12.3,5.15,5.458.862,16.563.976,20.388-4.07,4.707-6.2-.925-10.746-6.912-11.576-8.683-1.2-19.714,3.587-27.837,6.858a2.736,2.736,0,0,0-2.551,1l-.534.2c-10.79-10.683-21.951-20.974-33.035-31.033l.342,0a28.66,28.66,0,0,0,9.1,3.588c7.48,1.413,16.17.966,21.885-4.693,5.692-5.633,7.32-15.052.829-20.7-12.991-11.313-29.779,16.914-35.955,18.378-11.259-10.106-23.093-19.482-35.1-28.645a20.537,20.537,0,0,0,4.07.609c11.323.488,37.048-14.712,22.507-27.578C137.8,139,125.047,162.522,115.753,171c-11.3-8.535-22.665-17-33.739-25.843a30.836,30.836,0,0,0,17.529-1.029c6.3-2.273,16.377-7.649,11.877-16.08-4.578-8.574-16.772-3.924-23.085-.794-3.445,1.706-10.24,7.213-16.33,9.7C54.284,121.9,38.739,105.113,26.583,85.01A186.187,186.187,0,0,1,8.591,44.948C5.759,36.02.319,21.062.631,9.232c-3.194,23.813,6.3,51.715,16.037,72.34,8.952,18.965,21.719,35.357,36.432,49.944-2.94,10.682-31.528,27.366-13.453,36.2,9.6,4.668,18.7-4.39,20.268-13.561,1.074-6.3-1.469-14.016-4.051-19.943q6.931,6.659,14.324,12.842c6.794,5.7,13.735,11.213,20.736,16.65-10.493,10.946-19.383,41.131-4.333,45.2,22.224,5.993,9.585-33.884,7.663-41.381a1.194,1.194,0,0,0-1,.439c.088-.7.191-1.449.325-2.207,13.394,10.349,26.969,20.473,40.139,31.1-1.089.9-2.724,4.193-4.05,5.97a64.709,64.709,0,0,0-7.84,12.79c-3.159,7.286-5.969,18.789,3.607,22.475,10.414,4.018,14.578-9.045,14.249-16.69-.228-5.287-1.931-10.231-2.951-15.372-.319-1.6.2-8.932-1.836-5.684a15.433,15.433,0,0,0-.068-2.588q3.548,2.876,7.049,5.815a2.743,2.743,0,0,0-.151.888,2.644,2.644,0,0,0,3.911,2.29q4.628,3.958,9.151,8.048c6.376,5.792,12.851,11.753,19.289,17.851-1.265,1.206-.655,2.754-1.83,4.027s-3.573,2.063-4.969,3.257a35.211,35.211,0,0,0-8.306,11.423c-3.27,6.861-7.214,21.1,3.527,23.727,11.071,2.713,15.9-11.05,16.158-19.509A215.126,215.126,0,0,0,175.5,234c11.916,11.336,23.67,23.127,34.39,35.189-3.048.188-11.37,6.892-13.03,8.688-4.047,4.384-10.348,13.932-2.613,18.4,6.877,3.965,14.746-2.713,17.271-8.934a85.34,85.34,0,0,0,1.486-14.6c4.444,5.119,8.7,10.282,12.674,15.475q3.979,5.179,7.5,10.649a5,5,0,0,0-1.391,1.522c-10.993,2.464-24.227,20.51-10.883,25.849,6.353,2.537,12.77-3.725,15.555-8.723.571-1.022,1.317-6.052,1.933-10.02a207.868,207.868,0,0,1,16.592,38.343,2.425,2.425,0,0,0-1.773,2.347c-5.224,3.351-9.343,6.13-12.793,12.231-2.144,3.788-5.909,12.387,1.059,14.062,9.069,2.18,13.964-11.753,14.342-18.509.045-.785-.078-3.053-.217-5.13a3,3,0,0,0,.931-.065c2.488,8.252,4.57,16.634,6.317,25.047-4.793,1.825-4.295,27.466-.857,30.941,7.681,7.78,12.181-4.276,11.466-10.486-.842-7.323-4.522-13.832-8.8-19.556-.457-.6-.336-.582-.4.3a1.773,1.773,0,0,0-.472-.962,111.529,111.529,0,0,0-.177-11.27,261.33,261.33,0,0,0-4.885-29.154q-.789-3.5-1.749-6.927a56.8,56.8,0,0,0,11.645,6.64C274.116,337.475,282.519,339.638,287.634,335.285ZM0,9.232A27.629,27.629,0,0,1,1.539,0,72.031,72.031,0,0,0,0,9.232Z" transform="matrix(-0.999, -0.052, 0.052, -0.999, 296.566, 424.281)" fill="#f2f2f2" fill-rule="evenodd"/>
      <g id="Plant-Right" transform="translate(139.828 80.612)" opacity="0.7">
        <path id="Leaf-Me-Alone_" data-name="Leaf-Me-Alone!" d="M102.947,364.614c-21.006-1.113-45.562-16.023-45.4-38.966.115-16.67,2.346-33.072,1.572-49.811a134.135,134.135,0,0,0-8.048-39.065c-4.345-12.119-14.841-23.148-16.545-35.784C33.437,192.935,35.668,182,39.11,174.6c4.186-9,2.405-8.441-3.157-16.947-10.9-16.669-20.513-33.6-26.554-52.773C.7,77.261-3.583,45.6,3.716,17.131,4.644,13.516,6.671.408,11.823.019c5.755-.435,2.323,6.823,1.765,9.225C10.035,24.572,6.9,37.968,7.561,53.986c2.545,61.8,41.991,106.488,64.991,161.13,1.283,2.828,3.915,9.517,5.77,13.942,2.927,6.987,5.247,19.942,9.635,25.355,8.264,10.2,1.725-9.246.3-12.976-1.8-4.719-3.806-9.745-5.725-13.916-8.753-19.319-18.571-40.433-27.615-60.35,48.784-5.847,76.317,54.955,85.144,93.955,7.273,32.131,12.253,105.991-37.111,103.488" transform="matrix(-0.995, 0.105, -0.105, -0.995, 181.967, 529.396)" fill="#69a1ac" fill-rule="evenodd"/>
        <path id="Leaf-Me-Alone_2" data-name="Leaf-Me-Alone!" d="M265.649,78.186c-35.117,2.786-57.662,25.959-68.156,58.371-5.656,17.466-6.306,35.409-9.449,53.36-4.727,27-14.9,47.471-34.784,66.711a67.112,67.112,0,0,0-13.922,18.622,79.327,79.327,0,0,0-16.075,22.971c-5.232,11.547-6.712,25.4-.672,36.912,1.625,3.1,5.676,9.308,9.876,12.13-15.721,33.482-24.366,70.153-23.392,106.778.589,22.107,1.668,44.224,2.928,66.3.339,5.929,2.27,15.72,5.169,5.776,2.654-9.1-.674-23.373-.982-32.873-1.5-46.286-2.779-88.372,16.273-131.616,2-4.533,4.118-9.029,6.323-13.488a4.4,4.4,0,0,0,.372-.254c.083.065.16.134.245.2.14-.252.334-.551.559-.885a12.035,12.035,0,0,0,1.711-2.4c1.689-2.342,3.6-5.095,3.613-6.6,0-.011-.006-.029-.006-.042,11.794-19.254,25.3-37.446,39.1-55.285-.1.131,14.969-20.391,12.639-9.043-1.123,5.47-12.21,15.884-16.687,21.677a539.778,539.778,0,0,0-31.2,45.007c-1.3.748-3.137,4.416-4.467,7.15-.734,1.385-1.419,2.78-2.091,4,34.247,11.314,60.887-11.477,79.053-37.986.022-.032.042-.065.062-.1,5.529-7.324,11.191-14.6,18.266-20.388,11.8-9.663,24.442-11.368,38.359-16.123,37.951-12.967,54.086-62.15,59.21-98.644,5.782-41.171-22.5-104.305-71.875-100.246" transform="translate(57.38 41.425)" fill="#89c5cc" fill-rule="evenodd"/>
        <path id="Leaf-Me-Alone_3" data-name="Leaf-Me-Alone!" d="M150.928,3.511c-40.913,32.131-65.4,81.231-85.859,127.75C42.218,183.217,24.424,236.736,16.132,292.929,10.685,329.847,4.454,366.892,1.423,404.107A396.638,396.638,0,0,0,.063,443.9c.021,1.089.6,30.7,6,24.576,3.069-3.482-.543-30.707-.482-35.149.354-25.015,3.113-49.876,6.744-74.611C18.3,317.99,22.8,277.269,32.635,237.239c1.468-5.978,2.851-12.277,5.124-18.006,2.416-6.092.082-3.613,5.413-5.409,5.181-1.748,11.114-.56,16.563-2.9,21.617-9.28,36.168-38.873,46.959-58.116,12.344-22,21.345-46.054,29.191-69.933a517.387,517.387,0,0,0,14.459-53.158c1.219-5.688,2.088-11.693,4.011-17.184.519-1.481,2.423-3.963,2.557-5.32.285-2.873-1.2-4.8-1.006-7.215q-2.525,1.7-4.978,3.511" transform="translate(103.712 21.843) rotate(-8)" fill="#89c5cc" fill-rule="evenodd"/>
        <path id="Base" d="M38,328a112.326,112.326,0,1,0,224.653,0" transform="translate(19.131 176.104)" fill="#89c5cc" fill-rule="evenodd"/>
        <path id="Leaf-Me-Alone_4" data-name="Leaf-Me-Alone!" d="M118.935,362.835H113a199.267,199.267,0,0,1,2.2-22.244c4.762-28.163,19.649-69.527,52.3-74.1a84.353,84.353,0,0,1,11,.117,19.823,19.823,0,0,1,8.4-2.479c27.8-2.05,58.845,20.377,72.255,43.718,10.811,18.817,8.989,43.527,2.313,63.52-4.472,13.384-14.23,32.467-30.5,32.653-20.36.232-21.342-24.932-21.736-39.642-.523-19.559-2.994-36.6-18.406-49.927-3.591-3.105-7.517-5.838-11.145-8.9-5.681-4.793-11.959-9.7-12.691-17.632-1.009-10.94,5.165-12.91,14.595-10.877,1.608.346,17.8,7.612,15.4,1.87-.732-1.754-3.405-3.145-6.78-4.187-8.731-.949-19.145-2.051-22.139-1.393-32.305,7.087-44.884,51.838-48.225,80.27C119.481,356.672,119.19,359.751,118.935,362.835Z" transform="translate(59.535 141.626)" fill="#69a1ac" fill-rule="evenodd"/>
      </g>
    </g>
  </g>
</svg>
