<svg xmlns="http://www.w3.org/2000/svg" xmlns:xlink="http://www.w3.org/1999/xlink" viewBox="0 0 858.4 776.7" xmlns:v="https://vecta.io/nano"><style><![CDATA[.S{fill:#d0d6ff}.T{fill:#fff}.U{opacity:.66}.V{fill:#b7042b}.W{fill:#e00028}.X{enable-background:new}.Y{fill:#a6c6ff}.Z{opacity:.72}.a{fill:#aa0b35}.b{fill:#3d4444}.c{fill:#448a8a}.d{stroke-miterlimit:10}]]></style><path d="M303.8 651.2h8v2.2h-8zm-59.9 0h8v2.2h-8z"/><path d="M302.2 619c-.1-1.4-1.3-2.4-2.6-2.3H256c-1.4-.1-2.5.9-2.6 2.3l-3.3 13.8c.1 1.4 1.3 2.4 2.6 2.3h50.1c1.4.1 2.5-.9 2.6-2.3l-3.2-13.8z" fill="#e8e8e9"/><path d="M273.8 603h7.9v4.9h-7.9z" fill="#1d1d1b"/><path d="M311.7 611.6c0-2-1.6-3.7-3.7-3.7h-60.6c-2 0-3.7 1.6-3.7 3.7l-6.9 35.9c0 2 1.6 3.7 3.7 3.7h74.4c2 0 3.7-1.6 3.7-3.7l-6.9-35.9z" fill="#aecdcf"/><path d="M301.5 619.1c-.1-1.3-1.3-2.3-2.6-2.2h-42.5c-1.3-.1-2.4.9-2.6 2.2l-3.2 13.2c.1 1.3 1.3 2.3 2.6 2.2H302c1.3.1 2.5-.9 2.6-2.2l-3.1-13.2z" stroke="#000" class="T d"/><path d="M264 627.6l1.8-1.7a7.55 7.55 0 0 0 1.1-1.4c.3-.4.4-.9.4-1.4 0-.4-.1-.8-.3-1.1-.3-.3-.7-.4-1.1-.4s-.8.2-1.1.5-.4.8-.4 1.2h-1.3c-.1-1.5 1.1-2.8 2.6-2.9h.2c.7-.1 1.5.2 2 .7s.8 1.2.7 1.9c0 .6-.2 1.2-.4 1.7l-1 1.5-2 2h3.8v1.2h-5.8v-1l.8-.8zm6.9-6c.5-.8 1.5-1.3 2.4-1.2 1-.1 1.9.4 2.4 1.2.5 1 .8 2.2.7 3.3.1 1.2-.2 2.3-.7 3.3-1 1.3-2.9 1.6-4.2.6-.2-.2-.5-.4-.6-.6-.5-1-.8-2.2-.7-3.3-.1-1.2.1-2.3.7-3.3zm4 1.6c-.1-.4-.2-.8-.5-1.1s-.7-.5-1.1-.4c-.4 0-.8.1-1.1.4s-.5.7-.5 1.1c-.1.6-.1 1.1-.1 1.7s0 1.2.1 1.7c.1.4.2.8.5 1.1a1.69 1.69 0 0 0 2.3 0c.3-.3.5-.7.5-1.1.1-.6.1-1.1.1-1.7s-.1-1.1-.2-1.7h0zm3.6-1.6c.5-.8 1.5-1.3 2.4-1.2 1-.1 1.9.4 2.4 1.2.9 2.1.9 4.5 0 6.6-.5.8-1.5 1.3-2.4 1.2-1 .1-1.9-.4-2.4-1.2-.5-1-.8-2.2-.7-3.3 0-1.2.2-2.3.7-3.3zm4.1 1.6c-.1-.4-.2-.8-.5-1.1s-.7-.5-1.1-.4c-.4 0-.8.1-1.1.4s-.4.7-.5 1.1c-.1.6-.1 1.1-.1 1.7s0 1.2.1 1.7c.1.4.2.8.5 1.1s.7.5 1.1.4c.4 0 .8-.1 1.1-.4s.5-.7.5-1.1c.1-.6.1-1.1.1-1.7.1-.6 0-1.1-.1-1.7zm7.2-.2a2.36 2.36 0 0 1 .9.8v-1h1.4v6.7c0 .6-.1 1.1-.4 1.6s-.6.9-1.1 1.1c-.5.3-1.1.4-1.7.4-.8 0-1.6-.2-2.2-.6s-.9-1-1-1.7h1.4c.1.4.3.7.7.8.4.2.8.3 1.2.3.5 0 1-.2 1.3-.5.4-.4.5-.9.5-1.5v-1.1c-.3.3-.6.6-.9.8-.4.2-.9.3-1.4.3-.6 0-1.1-.2-1.6-.5s-.9-.7-1.1-1.2c-.3-.6-.4-1.2-.4-1.8s.1-1.2.4-1.8c.3-.5.7-.9 1.1-1.2.5-.3 1-.4 1.6-.4.4.1.9.3 1.3.5zm.6 1.9c-.2-.3-.4-.6-.7-.8-.6-.4-1.4-.4-2 0-.3.2-.6.4-.7.8-.2.4-.3.8-.3 1.2s.1.8.3 1.2c.2.3.4.6.8.8a1.69 1.69 0 0 0 1 .3c.4 0 .7-.1 1-.2.3-.2.6-.5.7-.8.3-.8.3-1.7-.1-2.5h0z"/><g class="S"><use xlink:href="#B"/><use xlink:href="#B"/></g><defs><path id="A" d="M296.6 579.3c-.5-2.5-.7-5-.7-7.5-.4-12-.1-24 .9-36 0-.3 0-.6.1-.9.4-2 .4-4.1 0-6.1-.4-2.4-1.4-4.6-2.7-6.6-3.9-6.5-8.6-12.9-10.4-15.3l.1-4.4H276l.1 4.4c-1.8 2.4-6.5 8.8-10.4 15.3-1.3 2-2.2 4.3-2.6 6.6-.4 2-.4 4.1 0 6.1 0 .3 0 .6.1.9 1 12 1.4 24 .9 36 0 2.5-.3 5-.7 7.5-.5 2.6-1.1 4-1 6.6 0 1.5.2 1.1.5 4.4.3 3.5.2 4.3.7 6.1.4 1.4.8 2.7 2 3.4 1.5.8 3.4.3 5.6-.3s2.2-1 3.2-.9c2.4.3 2.7 3.1 4.6 3.2h2.2c1.9-.1 2.2-3 4.6-3.2.9-.1 1 .3 3.2.9s4.2 1.2 5.7.3c1.2-.7 1.6-2 2-3.4.5-1.8.4-2.6.7-6.1.3-3.3.5-2.9.5-4.4-.3-2.7-.8-4-1.3-6.6z"/><path id="B" d="M279.9 602.5h-1.1a3.71 3.71 0 0 1-2.6-1.8c-.6-.8-1.1-1.4-2-1.5-.3 0-.6 0-.9.2-.7.3-1.3.5-2 .7-2.3.6-4.5 1.2-6.2.2-1.4-.8-1.9-2.3-2.3-3.8-.4-1.2-.5-2.5-.6-3.8 0-.7-.1-1.4-.2-2.4l-.3-2.9c-.1-.5-.1-1.1-.1-1.6 0-1.6.2-3.3.6-4.8l.4-1.9c.4-2.4.7-4.9.7-7.4.4-12 .1-24-.9-36l-.1-.9c-.4-2.1-.4-4.2 0-6.3.5-2.5 1.4-4.8 2.8-6.9 3.6-6 7.9-12 10.3-15.2l-.1-4.9h9.3l-.1 4.9c2.4 3.2 6.7 9.2 10.3 15.2 1.4 2.1 2.3 4.4 2.8 6.9.4 2.1.4 4.2 0 6.3l-.1.9c-1 12-1.4 24-.9 36 0 2.5.3 5 .7 7.4h0c.1.7.3 1.3.4 1.9.4 1.6.6 3.2.6 4.8 0 .5 0 1.1-.1 1.6s-.2 1.2-.3 2.9c-.1 1-.1 1.8-.2 2.4 0 1.3-.2 2.6-.6 3.8-.4 1.5-.9 3-2.3 3.8-1.7 1-3.9.4-6.2-.2-.7-.2-1.4-.4-2-.7-.3-.2-.6-.2-.9-.2-.9.1-1.5.8-2.1 1.5-.6.9-1.5 1.6-2.6 1.8h-1.1zm-5.9-4.7h.3c1.3.2 2.4 1 3 2 .6.7.9 1.2 1.5 1.2h2.2c.5 0 .9-.5 1.5-1.2.7-1.1 1.8-1.8 3-2 .6-.1 1.1.1 1.6.3.6.3 1.2.5 1.8.6 2.1.6 3.9 1.1 5.1.4.9-.5 1.3-1.7 1.6-3 .3-1.1.5-2.3.5-3.5 0-.7.1-1.5.2-2.5.1-1.7.3-2.5.3-3 .1-.5.1-.9.1-1.4a17.4 17.4 0 0 0-.6-4.5c-.1-.6-.3-1.2-.4-1.9h0c-.5-2.5-.7-5.1-.8-7.6-.4-12.1-.1-24.1.9-36.1l.1-1c.4-1.9.4-3.9 0-5.9-.4-2.3-1.3-4.5-2.6-6.4-3.6-6-8.1-12.2-10.4-15.3l-.1-.2v-3.9h-6.3v3.9l-.1.2c-2.3 3.1-6.7 9.2-10.4 15.3-1.3 1.9-2.1 4.1-2.6 6.4-.4 1.9-.4 3.9 0 5.9v.1l.1.9c1.1 12 1.4 24.1.9 36.1 0 2.6-.3 5.1-.8 7.6-.1.7-.3 1.3-.4 1.9a17.4 17.4 0 0 0-.6 4.5c0 .5 0 .9.1 1.4s.2 1.2.4 3c.1 1 .1 1.8.2 2.5 0 1.2.2 2.4.5 3.5.4 1.3.7 2.4 1.7 3 1.2.7 3 .2 5.1-.4l1.8-.6c.7-.2 1.1-.3 1.6-.3z"/><path id="C" d="M694.3 428.1l-6.5-.7h-4l-6.6 1-2.7 6.1c-9.7 1.8-18.8 6.2-26.2 12.7.8-.2 1.6-.3 2.4-.3h0c6.9-5.6 15.2-9.4 24-11l.7-.1 2.7-6.1 5.7-.8h3.9l5.6.6 2.8 6.3.7.1c6.8 1.3 13.3 3.8 19.1 7.5 1.3.3 2.6.6 3.9 1.1-6.7-5-14.5-8.4-22.8-9.9l-2.7-6.5z"/><path id="D" d="M734.8 465.8h1.8c-.5-.2-1-.4-1.5-.5 0-.1 0-.2-.1-.2h-98.5l-.1.2c-.4.1-.8.2-1.2.4l3.9.2 95.7-.1z"/><path id="E" d="M637.9 570.2l-3.1.1v.7h102v-.7c-1-.1-2-.1-3.1-.1h-95.8z"/><path id="F" d="M637.9 598h-4.3c1.2.9 2.7 1.4 4.3 1.4h95.8c1.5 0 3-.5 4.2-1.4h-100z"/><path id="G" d="M612.4 588.8a3.8 3.8 0 0 1 0-7.6 3.8 3.8 0 0 1 3.8 3.8c.1 2.1-1.7 3.8-3.8 3.8zm0-6.3c-1.3 0-2.4 1.1-2.4 2.4s1.1 2.4 2.4 2.4 2.4-1.1 2.4-2.4h0c.1-1.3-1-2.4-2.4-2.4z"/><path id="H" d="M529.6 529.8a3.8 3.8 0 0 1 0-7.6 3.8 3.8 0 0 1 3.8 3.8c0 2-1.7 3.8-3.8 3.8zm0-6.3c-1.3 0-2.4 1.1-2.4 2.4s1.1 2.4 2.4 2.4 2.4-1.1 2.4-2.4h0c0-1.3-1-2.4-2.4-2.4z"/><path id="I" d="M528.3 478.5a3.8 3.8 0 1 1 0-7.6 3.8 3.8 0 1 1 0 7.6zm0-6.3c-1.3 0-2.4 1.1-2.4 2.4s1.1 2.4 2.4 2.4 2.4-1.1 2.4-2.4h0c0-1.3-1-2.4-2.4-2.4z"/><path id="J" d="M579.8 430.1h-22.3c-1.1 0-2-.9-2-2v-8.8c0-1.1.9-2 2-2h22.3c1.1 0 2 .9 2 2v8.8c0 1.1-.9 2-2 2z"/><path id="K" d="M568.4 428.3c.5-.1.8-.5.8-1v-6c0-.5-.3-1-.8-1-.5.1-.8.5-.8 1v6c0 .5.3 1 .8 1z"/><path id="L" d="M563 428.3c.5-.1.8-.5.8-1v-6c.1-.4-.1-.8-.5-1-.4-.1-.8.1-1 .5v6.4c-.1.6.2 1.1.7 1.1z"/><path id="M" d="M557.6 428.3c.5-.1.8-.5.8-1v-6c.1-.5-.3-.9-.8-1-.4 0-.8.4-.8 1v6c0 .5.3 1 .8 1z"/><path id="N" d="M579.8 417.3h-22.3c-1.1 0-2 .9-2 2v2.5h26.3v-2.5c0-1.1-.9-2-2-2z"/><path id="O" d="M685.4 428.3c.4 0 .8-.4.8-1v-6c.1-.4-.1-.8-.5-1-.4-.1-.8.1-1 .5v6.4c-.1.6.2 1 .7 1.1z"/><path id="P" d="M674.6 428.3c.5-.1.8-.5.8-1v-6c.1-.4-.1-.8-.5-1-.4-.1-.8.1-1 .5v6.4c-.1.6.2 1 .7 1.1z"/><path id="Q" d="M693.6 428.3c.5-.1.8-.5.8-1v-6c.1-.4-.1-.8-.5-1-.4-.1-.8.1-1 .5v6.4c-.1.7.3 1.1.7 1.1z"/><path id="R" d="M696.5 428.3c.4 0 .8-.4.8-1v-6c.1-.4-.1-.8-.5-1-.4-.1-.8.1-1 .5v6.4c-.1.6.3 1 .7 1.1z"/><path id="S" d="M680.8 246.8c.5-.1.8-.5.8-1v-6c0-.6-.3-1-.8-1-.5.1-.8.5-.8 1v6c0 .5.4.9.8 1z"/><path id="T" d="M678.1 246.8c.5-.1.8-.5.8-1v-6c0-.6-.3-1-.8-1-.5.1-.8.5-.8 1v6c0 .5.3.9.8 1z"/><path id="U" d="M686.3 246.8c.5-.1.8-.5.8-1v-6c.1-.5-.3-.9-.8-1-.4 0-.8.4-.8 1v6c0 .5.3.9.8 1z"/><path id="V" d="M684.7 247.3c.5-.1.8-.5.8-1v-6c.1-.4-.1-.8-.5-1-.4-.1-.8.1-1 .5v6.4c0 .7.3 1.1.7 1.1z"/><path id="W" d="M231.2,688.5h1.1v11.8h-1.1V688.5z"/><path id="X" d="M253.9 700.5c-2.5 0-4.3-1.7-4.3-4.5s1.9-4.5 4.4-4.5 4.4 1.7 4.4 4.5c-.1 2.8-2.1 4.5-4.5 4.5zm0-1c1.6 0 3.2-1.1 3.2-3.5s-1.6-3.5-3.2-3.5c-1.7 0-3.2 1.1-3.2 3.5s1.5 3.5 3.2 3.5z"/><path id="Y" d="M266.3 692.6h-1.2v-.9h1.2v-2.2h1.1v2.2h2.4v.9h-2.4v5.4c0 1.1.4 1.4 1.4 1.4h1v1h-1.2c-1.5 0-2.3-.6-2.3-2.4v-5.4z"/><path id="Z" d="M289 691.5c1.6 0 2.9.9 3.4 2v-5h1.1v11.8h-1.1v-2c-.5 1.2-1.7 2.1-3.5 2.1-2.4 0-4.2-1.8-4.2-4.5s1.9-4.4 4.3-4.4zm.2 1c-1.8 0-3.2 1.3-3.2 3.5s1.4 3.5 3.2 3.5 3.2-1.3 3.2-3.5-1.4-3.5-3.2-3.5z"/><path id="a" d="M317.2 691.5c1.8 0 3 .9 3.5 2v-1.9h1.1v8.7h-1.1v-1.9c-.5 1.1-1.7 2.1-3.5 2.1-2.4 0-4.2-1.8-4.2-4.5s1.8-4.5 4.2-4.5zm.2 1c-1.8 0-3.2 1.3-3.2 3.5s1.4 3.5 3.2 3.5 3.2-1.3 3.2-3.5-1.4-3.5-3.2-3.5z"/><path id="b" d="M333.8 700.5c-2.5 0-4.3-1.7-4.3-4.5s1.8-4.5 4.3-4.5c2.6 0 4.1 1.8 4.1 4v.9h-7.3c.1 2 1.5 3.1 3.2 3.1 1.5 0 2.5-.8 2.8-2h1.2c-.4 1.7-1.8 3-4 3zm-3.1-5h6.1c0-2-1.4-3.1-3-3.1-1.6.1-3 1.1-3.1 3.1z"/><path id="c" d="M462.9 691.6h1.2l-5.2 12.9h-1.2l1.7-4.2-3.6-8.7h1.2l3 7.5 2.9-7.5z"/><path id="d" d="M487.4 700.4h-1.1v-8.7h1.1v1.6c.5-1.1 1.5-1.7 3-1.7v1.2h-.3c-1.5 0-2.7.7-2.7 2.8v4.8z"/><path id="e" d="M583.9 700.5c-2.5 0-4.3-1.7-4.3-4.5s1.9-4.5 4.4-4.5 4.4 1.7 4.4 4.5c-.1 2.8-2 4.5-4.5 4.5zm0-1c1.6 0 3.2-1.1 3.2-3.5s-1.6-3.5-3.2-3.5c-1.7 0-3.2 1.1-3.2 3.5s1.5 3.5 3.2 3.5z"/><path id="f" d="M590.6 692.6h-1.2v-.9h1.2v-.7c0-1.9.9-2.8 3.1-2.8v1c-1.5 0-2 .5-2 1.8v.6h2v.9h-2v7.8h-1.1v-7.7z"/><path id="g" d="M683.1 700.5c-2 0-3.4-1-3.5-2.6h1.2c.1 1 .9 1.6 2.4 1.6 1.2 0 2-.7 2-1.5 0-2.2-5.2-.9-5.2-4.2 0-1.3 1.2-2.4 3.1-2.4s3.1 1 3.2 2.7h-1.1c-.1-1-.8-1.7-2.1-1.7-1.2 0-1.9.6-1.9 1.4 0 2.4 5.2 1.1 5.2 4.2-.3 1.5-1.5 2.5-3.3 2.5z"/><path id="h" d="M190.6 716.1c3.7 0 4.7 2.9 4.7 6.6 0 3.8-1 6.7-4.7 6.7s-4.7-2.9-4.7-6.7c0-3.7 1-6.6 4.7-6.6zm0 1.9c-2.4 0-2.7 2.3-2.7 4.8 0 2.6.3 4.8 2.7 4.8s2.7-2.3 2.7-4.8-.3-4.8-2.7-4.8z"/><path id="i" d="M230.5 729.6c-2.8 0-5-2-5-5.1s2.2-5.1 5.1-5.1c2.8 0 5.1 2 5.1 5.1-.1 3.1-2.4 5.1-5.2 5.1zm0-1.8c1.5 0 3-1.1 3-3.3s-1.5-3.3-3-3.3-2.9 1.1-2.9 3.3 1.3 3.3 2.9 3.3z"/><path id="j" d="M273.3 729.4h-2.1v-9.9h2.1v1.4c.6-1 1.6-1.6 3-1.6v2.1h-.5c-1.5 0-2.4.6-2.4 2.7v5.3z"/><path id="k" d="M308.9 723.9c0-1.8-1-2.8-2.5-2.8s-2.5.9-2.5 2.8v5.5h-2.1v-9.9h2.1v1.1c.7-.8 1.8-1.3 3-1.3 2.3 0 4.1 1.5 4.1 4.2v5.9h-2v-5.5z"/><path id="l" d="M330.2 716.9c0-.7.6-1.3 1.3-1.3s1.3.6 1.3 1.3-.6 1.3-1.3 1.3-1.3-.6-1.3-1.3zm.3 2.6h2.1v9.9h-2.1v-9.9z"/><path id="m" d="M349.7 726.1l-2 3.4h-2.1l3.2-4.9-3.2-5h2.3l2.1 3.4 2-3.4h2.1l-3.2 4.9 3.2 5h-2.3l-2.1-3.4z"/><path id="n" d="M563.9 246.8c.5-.1.8-.5.8-1v-6c0-.6-.3-1-.8-1-.5.1-.8.5-.8 1v6c-.1.5.3.9.8 1z"/><path id="o" d="M565.4 65.1c.5-.1.8-.5.8-1v-6c.1-.4-.1-.8-.5-1-.4-.1-.8.1-1 .5V64c-.1.6.2 1 .7 1.1z"/><path id="p" d="M573.6 65.1c.5-.1.8-.5.8-1v-6c0-.5-.3-1-.8-1-.5.1-.8.5-.8 1v6c0 .5.3.9.8 1z"/><path id="q" d="M538 140.2a3.8 3.8 0 0 1 7.6 0 3.8 3.8 0 0 1-7.6 0zm1.4 0c0 1.3 1.1 2.4 2.4 2.4s2.4-1.1 2.4-2.4-1.1-2.4-2.4-2.4h0c-1.3 0-2.4 1-2.4 2.4h0z"/><path id="r" d="M564.4 224.9a3.8 3.8 0 0 1 7.6 0 3.8 3.8 0 0 1-7.6 0zm1.4 0c0 1.3 1.1 2.4 2.4 2.4s2.4-1.1 2.4-2.4-1.1-2.4-2.4-2.4h0c-1.3 0-2.4 1.1-2.4 2.4z"/><path id="s" d="M672 181.2a3.8 3.8 0 0 1 7.6 0 3.8 3.8 0 0 1-7.6 0zm1.4 0c0 1.3 1.1 2.4 2.4 2.4s2.4-1.1 2.4-2.4-1.1-2.4-2.4-2.4c-1.3-.1-2.4 1-2.4 2.4h0z"/><path id="t" d="M558.5 65.6c.5-.1.8-.5.8-1v-6c.1-.4-.1-.8-.5-1-.4-.1-.8.1-1 .5v6.4c-.1.7.2 1.1.7 1.1z"/><path id="u" d="M677 65.8c.4 0 .8-.4.8-1v-6c.1-.4-.1-.8-.5-1-.4-.1-.8.1-1 .5v6.4c-.1.5.2 1 .7 1.1z"/><path id="v" d="M685.2 65.8c.5-.1.8-.5.8-1v-6c.1-.4-.1-.8-.5-1-.4-.1-.8.1-1 .5v6.4c0 .6.3 1.1.7 1.1z"/></defs><clipPath id="w"><use xlink:href="#A"/></clipPath><g clip-path="url(#w)" class="Y"><path d="M273.5 506.7l4.8-.3h3.6l4.5.5c10.5 1.8 16.4 32.4 16.4 32.4 5.1 26.9 9.5 50.2-3.8 61.7-7.4 6.4-17 6.3-17.9 6.3-11.9-.3-19.9-9-21.8-11.1-25.4-27.6 8.7-88.9 14.2-89.5z"/></g><g class="T"><path d="M271.5 559.1h-.2c-1.3-.1-2.3-1.2-2.3-2.5.1-1.3 1.2-2.3 2.5-2.3 1.3.1 2.3 1.2 2.3 2.5-.1 1.3-1.1 2.3-2.3 2.3zm0-4c-.9 0-1.6.8-1.5 1.7 0 .9.8 1.6 1.7 1.5.9 0 1.6-.8 1.5-1.7a1.54 1.54 0 0 0-1.5-1.5h-.2z"/><path d="M267.4 534.2h-.1c-.9-.1-1.6-.8-1.5-1.7h0c.1-.9.9-1.6 1.8-1.5h0c.9 0 1.6.8 1.6 1.7-.1.9-.9 1.6-1.8 1.5h0zm0-2.8c-.6 0-1.1.5-1.2 1.1 0 .6.4 1.2 1.1 1.2.6 0 1.2-.5 1.2-1.1s-.4-1.1-1.1-1.2h0z" class="U"/><path d="M269.8 528.5h-.2c-1.3-.1-2.3-1.2-2.3-2.5.1-1.3 1.2-2.3 2.5-2.3 1.3.1 2.3 1.2 2.3 2.5-.1 1.3-1.1 2.2-2.3 2.3zm0-4.1c-.9 0-1.6.8-1.5 1.7 0 .9.8 1.6 1.7 1.5.9 0 1.6-.8 1.5-1.7a1.54 1.54 0 0 0-1.5-1.5h-.2zm13-7.1h-.2c-1.3 0-2.3-1.1-2.3-2.4s1.1-2.3 2.4-2.3 2.3 1.1 2.3 2.4c0 1.2-1 2.2-2.2 2.3zm0-4.1c-1 0-1.7.8-1.7 1.8s.8 1.7 1.8 1.7 1.7-.8 1.7-1.8c0-.9-.8-1.6-1.8-1.7h0z"/><path d="M286.8 560.3h-.1a1.86 1.86 0 0 1-1.7-1.9c0-.5.3-.9.6-1.2.4-.3.8-.5 1.3-.4h0c.5 0 .9.3 1.2.6.3.4.5.8.4 1.3 0 .9-.8 1.6-1.7 1.6zm0-2.8c-.3 0-.5.1-.7.3s-.4.4-.4.7.1.6.2.8c.4.4 1.1.5 1.5.1.2-.2.3-.4.4-.7 0-.3-.1-.6-.2-.8-.2-.3-.5-.4-.8-.4h0zm3.6-32.4h-.1c-.5 0-.9-.3-1.2-.6-.3-.4-.5-.8-.4-1.3 0-.5.3-.9.6-1.2.4-.3.8-.5 1.3-.4a1.86 1.86 0 0 1 1.7 1.9c-.2.9-1 1.6-1.9 1.6h0zm0-2.8c-.3 0-.5.1-.7.2-.2.2-.3.4-.4.7 0 .3.1.6.2.8.2.2.4.4.7.4s.6-.1.8-.3.4-.4.4-.7-.1-.6-.2-.8c-.2-.2-.5-.3-.8-.3h0z" class="U"/><path d="M269.1 586.9h-.3c-2.2-.2-3.8-2.1-3.7-4.3.2-2.2 2.1-3.8 4.3-3.7h0c1.1.1 2 .6 2.7 1.4s1 1.8 1 2.9c-.2 2.1-2 3.7-4 3.7zm0-7.3a3.4 3.4 0 0 0-3.2 3.4 3.4 3.4 0 0 0 3.4 3.2c1.8 0 3.2-1.6 3.2-3.4-.1-1.7-1.4-3.1-3.2-3.2h-.2zm16.2-.7h-.3c-2.2-.2-3.9-2.1-3.7-4.3s2.1-3.9 4.3-3.7a3.94 3.94 0 0 1 3.6 4.3c-.1 1-.6 2-1.4 2.7-.6.6-1.5 1-2.5 1zm0-7.3c-1.8.1-3.2 1.6-3.1 3.4s1.6 3.2 3.4 3.1 3.2-1.6 3.1-3.4c-.1-1.7-1.4-3.1-3.1-3.1h-.3zm-.1-31h-.3c-2-.2-3.5-1.9-3.3-3.9s1.9-3.5 3.9-3.3h0c2 .2 3.5 1.9 3.3 3.9-.2 1.9-1.7 3.3-3.6 3.3zm0-6.5c-1.7.1-2.9 1.5-2.9 3.1.1 1.7 1.5 2.9 3.1 2.9 1.7-.1 2.9-1.5 2.9-3.1-.1-1.6-1.3-2.8-2.9-2.9h-.2z"/><path d="M277 593.3h-.2a2.42 2.42 0 0 1-2.4-2.6c.1-1.4 1.2-2.5 2.6-2.4s2.5 1.2 2.4 2.6c0 1.3-1.1 2.4-2.4 2.4zm0-4c-1 0-1.7.8-1.7 1.8s.8 1.7 1.8 1.7 1.7-.8 1.7-1.8c0-.9-.8-1.6-1.8-1.7h0z" class="U"/><path d="M292.6 593.3h-.2c-1.3-.2-2.2-1.4-2.1-2.7.2-1.2 1.2-2.1 2.4-2.1h0c1.3.1 2.3 1.2 2.2 2.5h0c0 1.4-1 2.3-2.3 2.3zm0-4a1.73 1.73 0 0 0-1.7 1.5c0 .4.1.9.4 1.2a1.73 1.73 0 0 0 2.4.2c.3-.3.5-.7.6-1.1 0-.4-.1-.9-.4-1.2s-.7-.5-1.1-.6h-.2z"/></g><use xlink:href="#B" class="S"/><path d="M283.3 504.7h-6.7c-1.1 0-2-.9-2-2v-1.8c0-1.1.9-2 2-2h6.7c1.1 0 2 .9 2 2v1.8c0 1.1-.9 2-2 2z" class="W"/><path d="M282.1 503.4c.2 0 .4-.2.4-.4h0v-2.4c0-.2-.2-.4-.5-.3-.2 0-.3.2-.3.3v2.3c0 .3.1.5.4.5h0zm-1.5 0c.2 0 .4-.2.4-.4v-2.4c0-.2-.2-.4-.4-.4s-.4.2-.4.4v2.4c0 .2.2.4.4.4h0zm-1.4 0c.2 0 .4-.2.4-.4v-2.4c0-.2-.2-.4-.5-.3-.2 0-.3.2-.3.3v2.3c0 .3.2.5.4.5h0zm-1.4 0c.2 0 .4-.2.4-.4h0v-2.4c0-.2-.2-.4-.4-.4h0c-.2 0-.4.2-.4.4v2.3c0 .3.2.5.4.5h0zm-1.4 0c.2 0 .4-.2.4-.4v-2.4c0-.2-.2-.4-.4-.4s-.4.2-.4.4h0v2.3c0 .3.2.5.4.5h0zm7.1 0c.2 0 .4-.2.4-.4h0v-2.4c0-.2-.2-.4-.4-.4s-.4.2-.4.4h0v2.3c0 .3.1.5.4.5h0z" class="V"/><path d="M246.4 595.3c.4 4.3 4.1 7.7 8.4 7.7h45.5c4.4 0 8-3.3 8.4-7.7h-62.3z" class="b"/><path d="M246.4 595.4c0 .3.1.6.1.9h62.1c.1-.3.1-.6.1-.9h-62.3z" fill="#313838"/><path d="M309 592.9h-62.6c-.7 0-1.2.5-1.2 1.2s.5 1.2 1.2 1.2H309c.7.1 1.3-.4 1.3-1.1.1-.7-.4-1.3-1.1-1.3-.1-.1-.1-.1-.2 0h0z" fill="#9c9b9b"/><path d="M254.8 603h45.5c4 0 7.5-2.8 8.3-6.8h-62.1c.8 4 4.3 6.8 8.3 6.8zm54-7.7h-62.4 62.4z" class="b"/><path d="M674.5 434.4l2.7-6.1 6.6-1h4l6.5.7 2.8 6.4c8.3 1.5 16.1 4.9 22.8 9.9h0c1.7.5 3.2 1.3 4.8 2.1-7.5-6.8-16.7-11.4-26.6-13.3l-2.8-6.4-7.3-.8h-4.2l-7.5 1-2.7 6.2c-10.7 2-20.5 7.2-28.2 14.9 1-.4 2-.7 3-.9 7.3-6.5 16.3-10.9 26.1-12.7z" class="S"/><path d="M740.9 486.9v-14.5a7.27 7.27 0 0 0-5.8-7.1c-4.8-15.4-19.5-27.4-38-30.9l-2.8-6.4-6.5-.7h-4l-6.6 1-2.7 6.1c-18.5 3.5-33.2 15.5-38 30.9a7.27 7.27 0 0 0-5.8 7.1v14.5c0 2.8 1.6 5.3 4.1 6.5V571c-2.5 1.2-4.1 3.7-4.1 6.5V592a7.17 7.17 0 0 0 7.2 7.2h95.8a7.17 7.17 0 0 0 7.2-7.2v-14.5c0-2.8-1.6-5.3-4.1-6.5l-.1-77.6c2.6-1.1 4.2-3.7 4.2-6.5zm-25.7 34.6c.1-1.2.6-2.3 1.3-3.2a3.47 3.47 0 0 1 1.9-1.2l11-4.5v40.6l-10.9-4.4c-.9-.5-1.6-1.2-2.2-2-.5-.8-.9-1.6-1.1-2.5v-22.8z" class="T"/><path d="M733.6 600.8h-95.8c-4.8 0-8.6-3.9-8.6-8.6v-14.5c0-3 1.6-5.8 4.1-7.3v-76c-2.5-1.6-4.1-4.4-4.1-7.3v-14.5c0-3.8 2.5-7.1 6.1-8.3 5.2-15.4 19.7-27.2 38.2-31l2.7-6.2 7.5-1.1h4.2l7.3.8 2.8 6.5c18.5 3.7 33 15.5 38.1 31 3.6 1.1 6.1 4.5 6.1 8.3v14.5c0 3-1.6 5.8-4.2 7.4l.1 75.9c2.5 1.6 4.1 4.3 4.1 7.3v14.5c0 4.7-3.8 8.5-8.6 8.6zm-55.5-171.2l-2.7 6.1-.7.1c-18.1 3.4-32.3 14.9-37 29.9l-.2.8-.8.2c-2.7.6-4.7 3-4.7 5.7v14.5c0 2.2 1.3 4.3 3.3 5.3l.8.4V572l-.8.4c-2 1-3.3 3-3.3 5.2v14.5c0 3.2 2.6 5.8 5.8 5.8h95.8c3.2 0 5.8-2.6 5.8-5.8v-14.6c0-2.2-1.3-4.3-3.3-5.2l-.8-.4v-.9l-.1-78.5.8-.4c2.1-1 3.4-3 3.4-5.3v-14.5c0-2.8-2-5.2-4.7-5.7l-.8-.2-.2-.8c-4.7-15-18.9-26.5-37-29.9l-.7-.1-2.8-6.3-5.6-.6h-3.9l-5.6.9zm52.7 125.6l-13-5.2c-1.1-.6-2-1.4-2.7-2.5-.6-.9-1-1.9-1.3-3v-23.3c.2-1.5.7-2.8 1.7-4 .6-.8 1.5-1.3 2.5-1.6l12.8-5.2v44.8zm-11.8-7.7l9 3.6v-36.5l-9.2 3.8c-.5.1-.9.4-1.2.8-.5.7-.9 1.5-1 2.4v22.6c.2.7.5 1.3.8 1.9.5.6 1 1.1 1.6 1.4z" class="S"/><path d="M678.7 447.5c9-1.9 13-5.2 22.8-5.7 4.8-.1 9.7.4 14.4 1.4-5.8-3.7-12.3-6.2-19.1-7.5l-.7-.1-2.8-6.3-5.6-.6h-3.9l-5.7.8-2.7 6.1-.7.1c-8.8 1.6-17.1 5.4-24 11 6.1-.1 14.1 3.9 28 .8z" class="T"/><use xlink:href="#C" class="S"/><path d="M637.8 465.7l-.2.8-.8.2c-2.7.6-4.7 3-4.7 5.7v14.5c0 2.2 1.3 4.3 3.3 5.3l.8.4V572l-.8.4c-2 1-3.3 3-3.3 5.2v14.5c0 3.2 2.6 5.8 5.8 5.8h95.8c3.2 0 5.8-2.6 5.8-5.8v-14.6c0-2.2-1.3-4.3-3.3-5.2l-.8-.4v-.9l-.1-78.5.8-.4c2.1-1 3.4-3 3.4-5.3v-14.5c0-2.8-2-5.2-4.7-5.7l-.8-.2-.2-.8c-2.7-8.2-7.8-15.3-14.8-20.3-5.1.5-10.2.7-15.4.6-10.7-.2-13.4-1.6-21.1-.6-6.5.8-7.2 2.1-13.4 2.8s-12.4.3-18.4-1.3c-.3.2-.7.6-1.2 1-2.6 2.3-5 5-7 7.9-1.9 3.1-3.6 6.5-4.7 10zm76 55.6c.2-1.5.7-2.8 1.7-4 .6-.8 1.5-1.3 2.5-1.6l12.8-5.2v44.7l-13-5.2c-1.1-.6-2-1.4-2.7-2.5-.6-.9-1-1.9-1.3-3v-23.2z" class="Y"/><path d="M673.1 547.2c-.5 0-1.1-.1-1.6-.2-1.6-.4-2.9-1.4-3.7-2.8a6.17 6.17 0 0 1 2.1-8.4 6.17 6.17 0 0 1 8.4 2.1c0 .1.1.1.1.2h0c1.7 2.9.7 6.7-2.2 8.3-.9.5-2 .8-3.1.8zm0-10.9c-.8 0-1.6.2-2.3.6-2.3 1.3-3 4.2-1.7 6.5.6 1.1 1.7 1.9 2.9 2.2s2.5.2 3.6-.5c2.3-1.3 3-4.2 1.7-6.5-.9-1.4-2.5-2.3-4.2-2.3h0z" class="T"/><g class="S"><path d="M734.1 495.8c.9 0 1.7-.1 2.6-.2v-1.9H634.8v1.7c1.2.2 2.4.4 3.6.4h95.7z"/><use xlink:href="#D"/><use xlink:href="#E"/><use xlink:href="#F"/></g><g class="T"><path d="M681.5 584.3a3.8 3.8 0 0 1 0-7.6 3.8 3.8 0 0 1 0 7.6zm0-6.2c-1.3 0-2.4 1.1-2.4 2.4s1.1 2.4 2.4 2.4 2.4-1.1 2.4-2.4h0c0-1.4-1-2.4-2.4-2.4zm-33.8-19a3.8 3.8 0 1 1 3.8-3.8c0 2-1.7 3.8-3.8 3.8zm0-6.3c-1.3 0-2.4 1.1-2.4 2.4s1.1 2.4 2.4 2.4 2.4-1.1 2.4-2.4c.1-1.3-1-2.4-2.4-2.4h0zm70.7-92.6a3.8 3.8 0 1 1 0-7.6 3.8 3.8 0 1 1 0 7.6zm0-6.2c-1.3 0-2.4 1.1-2.4 2.4s1.1 2.4 2.4 2.4 2.4-1.1 2.4-2.4-1.1-2.4-2.4-2.4h0zm-5.6 111.4a3.8 3.8 0 0 1 0-7.6 3.8 3.8 0 1 1 0 7.6zm0-6.2c-1.3 0-2.4 1.1-2.4 2.4s1.1 2.4 2.4 2.4 2.4-1.1 2.4-2.4h0c0-1.3-1.1-2.4-2.4-2.4zm-52-67.7a3.8 3.8 0 1 1 0-7.6 3.8 3.8 0 1 1 0 7.6zm0-6.2c-1.3 0-2.4 1.1-2.4 2.4s1.1 2.4 2.4 2.4 2.4-1.1 2.4-2.4h0c0-1.3-1.1-2.4-2.4-2.4h0z"/><path d="M653.8 518.7c-.5 0-1.1-.1-1.6-.2-1.6-.4-2.9-1.4-3.7-2.8-1.6-3-.6-6.7 2.4-8.3 2.9-1.6 6.5-.6 8.2 2.2 1.7 2.9.7 6.7-2.2 8.3-.9.5-2 .8-3.1.8zm0-10.8c-2.6 0-4.7 2.1-4.7 4.7 0 .8.2 1.6.6 2.4 1.3 2.3 4.2 3 6.4 1.7h0c2.3-1.3 3-4.2 1.7-6.5-.7-1.4-2.3-2.3-4-2.3h0zm67.7 81.9c-4.1 0-7.4-3.2-7.4-7.3s3.2-7.4 7.3-7.4 7.4 3.2 7.4 7.3c0 2.6-1.4 5.1-3.6 6.4-1.1.7-2.4 1-3.7 1zm0-13c-3.1 0-5.6 2.5-5.6 5.7s2.5 5.6 5.7 5.6c1 0 2-.3 2.8-.8 1.3-.7 2.2-2 2.6-3.4.8-3-1-6.1-4-6.9-.5 0-1-.1-1.5-.2h0zM709 484.6c-.5 0-1.1-.1-1.6-.2-3.3-.9-5.2-4.2-4.3-7.5s4.2-5.2 7.5-4.3c1.5.4 2.8 1.4 3.7 2.8h0a6.19 6.19 0 0 1 .6 4.6c-.7 2.7-3.1 4.6-5.9 4.6h0zm0-10.8c-2.6 0-4.7 2.1-4.7 4.7 0 .8.2 1.6.6 2.4 1.3 2.3 4.2 3 6.4 1.7s3-4.2 1.7-6.4c-.8-1.5-2.3-2.4-4-2.4z" class="U"/><path d="M645.3 596.4c-.5 0-1.1-.1-1.6-.2-3.3-.9-5.2-4.2-4.3-7.5s4.2-5.2 7.5-4.3 5.2 4.2 4.3 7.5c-.7 2.7-3.1 4.5-5.9 4.5zm0-10.8c-2.6 0-4.7 2.1-4.7 4.7s2.1 4.7 4.7 4.7c2.1 0 4-1.4 4.6-3.5.3-1.2.2-2.5-.5-3.6h0c-.9-1.4-2.4-2.3-4.1-2.3z"/><path d="M645.3 478.5a3.8 3.8 0 1 1 0-7.6 3.8 3.8 0 1 1 0 7.6zm0-6.3c-1.3 0-2.4 1.1-2.4 2.4s1.1 2.4 2.4 2.4 2.4-1.1 2.4-2.4h0c0-1.3-1.1-2.4-2.4-2.4z" class="U"/><path d="M722.3 503.3c-.6 0-1.1-.2-1.5-.6-.9-.9-.9-2.2 0-3.1s2.2-.9 3.1 0h0c.9.9.9 2.2 0 3.1-.4.3-1 .6-1.6.6h0zm0-3c-.2 0-.4.1-.6.2-.3.3-.3.8 0 1.1h0c.3.3.8.3 1.1 0s.3-.8 0-1.1h0c-.1-.1-.3-.2-.5-.2h0z"/><path d="M667 460.8a2.22 2.22 0 0 1-2.2-2.2 2.22 2.22 0 0 1 2.2-2.2c.6 0 1.2.2 1.6.6h0c.9.9.8 2.2 0 3.1-.5.4-1 .7-1.6.7zm0-3c-.2 0-.4.1-.6.2-.3.3-.3.8 0 1.1s.8.3 1.1 0h0c.3-.3.3-.8 0-1.1-.1-.1-.3-.2-.5-.2h0zm33.7 71.7c-.6 0-1.1-.2-1.5-.6-.9-.9-.9-2.2 0-3.1s2.2-.9 3.1 0h0c.9.9.9 2.2 0 3.1-.5.4-1.1.6-1.6.6zm0-3c-.2 0-.4.1-.6.2-.3.3-.3.8 0 1.1s.8.3 1.1 0 .3-.8 0-1.1c-.1-.1-.3-.2-.5-.2z" class="U"/></g><path d="M557.5 434.5l2.7-6.1 6.6-1h4l6.5.7 2.8 6.4c8.3 1.5 16.1 4.9 22.8 9.9h0c1.7.5 3.2 1.3 4.8 2.1-7.5-6.8-16.7-11.4-26.6-13.3l-2.8-6.4-7.3-.8h-4.2l-7.5 1.1-2.7 6.2c-10.7 2-20.5 7.2-28.2 14.9 1-.4 2-.7 3-.9 7.3-6.7 16.4-11.1 26.1-12.8z" class="S"/><path d="M623.9 487v-14.6a7.27 7.27 0 0 0-5.8-7.1c-4.8-15.4-19.5-27.4-38-30.9l-2.8-6.4-6.5-.7h-4l-6.6 1-2.7 6.1c-18.6 3.5-33.3 15.5-38.1 30.9a7.27 7.27 0 0 0-5.8 7.1V487c0 2.8 1.6 5.3 4.1 6.5v77.7c-2.5 1.2-4.1 3.7-4.1 6.5v14.5a7.17 7.17 0 0 0 7.2 7.2h95.8a7.17 7.17 0 0 0 7.2-7.2v-14.6c0-2.8-1.6-5.3-4.1-6.5l-.1-77.6c2.6-1.1 4.3-3.7 4.3-6.5zm-25.7 34.5c.1-1.2.6-2.3 1.3-3.2a3.47 3.47 0 0 1 1.9-1.2l11-4.5v40.6l-10.9-4.4c-.9-.5-1.6-1.1-2.2-2-.5-.8-.9-1.6-1.1-2.5v-22.8z" class="T"/><path d="M616.7 600.8h-95.8c-4.8 0-8.6-3.9-8.6-8.6v-14.5c0-3 1.6-5.8 4.1-7.3v-76c-2.5-1.6-4.1-4.3-4.1-7.3v-14.5c0-3.8 2.5-7.1 6.1-8.2 5.2-15.5 19.7-27.2 38.2-31l2.7-6.2 7.5-1.1h4.2l7.3.8 2.8 6.4c18.5 3.7 33 15.5 38.1 31 3.6 1.1 6.1 4.5 6.1 8.2V487c0 3-1.6 5.8-4.2 7.4l.1 75.9c2.5 1.6 4.1 4.3 4.1 7.3v14.5c0 4.9-3.9 8.7-8.6 8.7zm-55.6-171.2l-2.7 6.1-.7.1c-18.1 3.4-32.3 14.9-37 29.9l-.2.8-.8.2c-2.7.6-4.7 3-4.7 5.7V487c0 2.2 1.3 4.3 3.3 5.2l.8.4V572l-.8.4c-2 1-3.3 3-3.3 5.2v14.5c0 3.2 2.6 5.8 5.8 5.8h95.8c3.2 0 5.8-2.6 5.8-5.8v-14.5c0-2.2-1.3-4.3-3.3-5.2l-.8-.4v-.9l-.1-78.5.8-.4c2.1-1 3.4-3 3.4-5.3v-14.5c0-2.8-2-5.2-4.7-5.7l-.8-.2-.2-.8c-4.7-15-18.9-26.5-37-29.9l-.7-.1-2.7-6.3-5.6-.6h-3.9l-5.7.8zm52.7 125.7l-12.9-5.2c-1.1-.6-2-1.4-2.7-2.5-.6-.9-1-1.9-1.3-3v-23.3c.2-1.4.8-2.8 1.7-4 .7-.8 1.5-1.3 2.5-1.6l12.8-5.2-.1 44.8zm-11.7-7.7l9 3.6v-36.5l-9.2 3.8c-.5.1-.9.4-1.2.8-.5.7-.9 1.5-1 2.4v22.6c.2.7.5 1.3.8 1.9.4.5.9 1 1.6 1.4h0z" class="S"/><path d="M561.7 447.6c9-2 13-5.2 22.8-5.7 4.8-.1 9.7.4 14.4 1.4-5.8-3.7-12.3-6.2-19.1-7.5l-.7-.1-2.8-6.3-5.6-.6h-3.9l-5.7.8-2.7 6.1-.7.1c-8.8 1.6-17.1 5.4-24 11 6.1-.2 14.1 3.8 28 .8z" class="T"/><use xlink:href="#C" x="-117" class="S"/><path d="M520.8 465.8l-.2.8-.8.2c-2.7.6-4.7 3-4.7 5.7V487c0 2.2 1.3 4.3 3.3 5.2l.8.4V572l-.8.4c-2 1-3.3 3-3.3 5.2v14.5c0 3.2 2.6 5.8 5.8 5.8h95.8c3.2 0 5.8-2.6 5.8-5.8v-14.5c0-2.2-1.3-4.3-3.3-5.2l-.8-.4v-.9l-.1-78.5.8-.4c2.1-1 3.4-3 3.4-5.3v-14.5c0-2.8-2-5.2-4.7-5.7l-.8-.2-.2-.8c-2.9-9.1-9.2-17-17.8-22.5-4.7 1.2-9.4 2.1-14.3 2.5-14.3 1.2-16.7-3.5-27.8-1.3-3.3.6-7.7 2-14.2 1.5-2.2-.2-4.3-.5-6.4-1-7.3 5.1-12.8 12.5-15.5 20.9h0zm76.1 55.5c.2-1.4.8-2.8 1.7-4 .7-.8 1.5-1.3 2.5-1.6l12.8-5.2v44.7L601 550c-1.1-.6-2-1.4-2.7-2.5-.6-.9-1-1.9-1.3-3v-.3l-.1-22.9z" class="Y"/><g class="S"><path d="M617.1 495.8c.9 0 1.7-.1 2.6-.2v-1.9H517.8v1.7c1.2.2 2.4.4 3.6.4h95.7zm.7-29.9h1.8c-.5-.2-1-.4-1.5-.5 0-.1-.1-.2-.1-.3h-98.5l-.1.3c-.4.1-.8.2-1.2.4l3.9.2 95.7-.1z"/><use xlink:href="#E" x="-117"/><use xlink:href="#F" x="-117"/></g><g class="T"><path d="M530.7 586.3a3.8 3.8 0 0 1 0-7.6 3.8 3.8 0 0 1 3.8 3.8c.1 2.1-1.6 3.8-3.8 3.8zm0-6.2c-1.3 0-2.4 1.1-2.4 2.4s1.1 2.4 2.4 2.4 2.4-1.1 2.4-2.4h0c.1-1.3-1-2.4-2.4-2.4z"/><use xlink:href="#G"/><use xlink:href="#H"/><use xlink:href="#H" x="66.2" y="35.7"/><path d="M591.5 513.3c-.5 0-1.1-.1-1.6-.2-1.6-.4-2.9-1.4-3.7-2.9-1.7-2.9-.7-6.7 2.2-8.3 2.9-1.7 6.7-.7 8.3 2.2 1.7 2.9.7 6.7-2.2 8.3a5.53 5.53 0 0 1-3 .9h0zm0-10.8c-2.6 0-4.7 2.1-4.7 4.7 0 .8.2 1.6.6 2.4a4.36 4.36 0 0 0 2.9 2.2c2.5.7 5.1-.9 5.7-3.4s-.9-5.1-3.4-5.7c-.4-.2-.8-.2-1.1-.2h0z" class="U"/><path d="M574.7 544.4c-.5 0-1.1-.1-1.6-.2-3.3-.9-5.2-4.3-4.3-7.5.9-3.3 4.3-5.2 7.5-4.3 1.5.4 2.8 1.4 3.6 2.8h0a6.19 6.19 0 0 1 .6 4.6c-.6 2.7-3 4.6-5.8 4.6h0zm0-10.8c-.8 0-1.6.2-2.3.6-2.3 1.3-3 4.2-1.7 6.4 1.4 2.2 4.3 2.9 6.5 1.5 2.1-1.3 2.8-4 1.7-6.2-1-1.4-2.5-2.3-4.2-2.3h0z"/><path d="M558.3 597.2c-.5 0-1.1-.1-1.6-.2-3.3-.9-5.2-4.2-4.3-7.5s4.2-5.2 7.5-4.3 5.2 4.2 4.3 7.5c-.8 2.6-3.2 4.5-5.9 4.5zm0-10.9c-2.6 0-4.7 2.1-4.7 4.7s2.1 4.7 4.7 4.7c2.1 0 4-1.4 4.5-3.5.3-1.2.2-2.5-.5-3.6h0a4.58 4.58 0 0 0-4-2.3h0z" class="U"/><use xlink:href="#I"/><path d="M545.7 553.4c-.6 0-1.1-.2-1.5-.6-.9-.9-.9-2.2 0-3.1s2.2-.9 3.1 0h0c.9.8.9 2.2 0 3.1h0c-.5.4-1.1.6-1.6.6zm0-3c-.2 0-.4.1-.6.2-.3.3-.3.8 0 1.1s.8.3 1.1 0 .3-.8 0-1.1c-.1-.1-.3-.2-.5-.2z" class="U"/><path d="M568.6 486.6c-.6 0-1.2-.2-1.6-.6-.9-.9-.9-2.2 0-3.1s2.2-.9 3.1 0h0c.9.9.8 2.2 0 3.1-.4.4-1 .6-1.5.6h0zm0-3c-.2 0-.4.1-.6.2-.3.3-.3.8 0 1.1s.8.3 1.1 0 .3-.8 0-1.1h0c-.1-.1-.3-.1-.5-.2h0z"/><path d="M591.4 456.4a2.22 2.22 0 0 1-2.2-2.2c0-.6.2-1.1.6-1.6.8-.9 2.2-.9 3.1 0h0c.9.9.9 2.2 0 3.1-.3.5-.9.7-1.5.7zm0-3c-.2 0-.4.1-.6.2-.3.3-.3.8 0 1.1s.8.3 1.1 0 .3-.8 0-1.1c0-.1-.2-.2-.5-.2h0z" class="U"/></g><use xlink:href="#J" class="W"/><g class="V"><use xlink:href="#K"/><use xlink:href="#K" x="-2.7"/><use xlink:href="#L"/><use xlink:href="#L" x="-2.7"/><use xlink:href="#M"/><use xlink:href="#K" x="2.7"/><use xlink:href="#M" x="19"/><use xlink:href="#M" x="16.3"/></g><use xlink:href="#N" class="X Z a"/><use xlink:href="#K" x="11.2" class="V"/><g class="W"><use xlink:href="#J" x="117"/><use xlink:href="#J" x="117"/></g><g class="V"><use xlink:href="#O"/><use xlink:href="#O" x="-2.7"/><use xlink:href="#O" x="-5.4"/><use xlink:href="#O" x="-8.1"/><use xlink:href="#P"/><use xlink:href="#O" x="2.7"/><use xlink:href="#Q"/><use xlink:href="#Q" x="-2.7"/></g><use xlink:href="#N" x="117" class="X Z a"/><use xlink:href="#R" class="V"/><path d="M671.1 253.4l2.7-6.1 6.6-.9h4l6.5.7 2.8 6.4c8.3 1.5 16.1 4.9 22.8 9.9h0a20.57 20.57 0 0 1 4.8 2.1c-7.5-6.8-16.7-11.4-26.6-13.3l-2.8-6.4-7.3-.8h-4.2l-7.5 1.1-2.7 6.2c-10.7 2-20.5 7.2-28.2 14.9 1-.4 2-.7 3-.9 7.3-6.7 16.4-11.1 26.1-12.9z" class="S"/><path d="M737.5 305.9v-14.5a7.27 7.27 0 0 0-5.8-7.1c-4.8-15.4-19.5-27.4-38-30.9l-2.8-6.4-6.5-.7h-4l-6.6.9-2.7 6.1c-18.5 3.5-33.2 15.5-38 30.9a7.27 7.27 0 0 0-5.8 7.1v14.5c0 2.8 1.6 5.3 4.1 6.5V390c-2.5 1.2-4.1 3.7-4.1 6.5V411a7.17 7.17 0 0 0 7.2 7.2h95.8a7.17 7.17 0 0 0 7.2-7.2v-14.5c0-2.8-1.6-5.3-4.1-6.5l-.1-77.6c2.6-1.1 4.2-3.7 4.2-6.5zm-25.7 34.5c.1-1.2.6-2.3 1.3-3.2a3.47 3.47 0 0 1 1.9-1.2l11-4.5v40.6l-10.9-4.4c-.9-.5-1.6-1.1-2.2-2-.5-.8-.9-1.6-1.1-2.5v-22.8z" class="T"/><path d="M730.3 419.8h-95.8c-4.8 0-8.6-3.9-8.6-8.6v-14.5c0-3 1.6-5.8 4.1-7.3v-76c-2.5-1.6-4.1-4.4-4.1-7.3v-14.5c0-3.8 2.5-7.1 6.1-8.2 5.2-15.4 19.7-27.2 38.2-30.9l2.7-6.2 7.5-1.1h4.2l7.3.8 2.8 6.4c18.5 3.7 33 15.5 38.2 30.9 3.6 1.1 6.1 4.5 6.1 8.2V306c0 3-1.6 5.8-4.2 7.4l.1 75.9c2.5 1.6 4.1 4.4 4.1 7.3v14.5c-.1 4.8-4 8.7-8.7 8.7zm-55.5-171.2l-2.7 6.1-.7.1c-18.1 3.4-32.3 14.9-37 29.9l-.2.8-.8.2c-2.7.6-4.7 3-4.7 5.7v14.5c0 2.2 1.3 4.3 3.3 5.3l.8.4V391l-.8.4c-2 1-3.3 3-3.3 5.3v14.5c0 3.2 2.6 5.8 5.8 5.8h95.8c3.2 0 5.8-2.6 5.8-5.8v-14.6c0-2.2-1.3-4.3-3.3-5.3l-.8-.3v-.9l-.1-78.5.8-.4c2.1-1 3.4-3 3.4-5.3v-14.6c0-2.8-2-5.2-4.7-5.7l-.8-.2-.2-.8c-4.7-15-18.9-26.5-37-29.9l-.7-.1-2.8-6.3-5.6-.6h-3.9l-5.6.9zm52.6 125.6l-13-5.2c-1.1-.6-2-1.4-2.7-2.5-.6-.9-1-1.9-1.3-3v-23.3c.2-1.5.7-2.9 1.7-4 .6-.8 1.5-1.3 2.5-1.6l12.8-5.2v44.8zm-11.7-7.7l9 3.6v-36.5l-9.2 3.8c-.5.1-.9.4-1.2.8-.5.7-.9 1.5-1 2.4v22.6c.2.7.5 1.3.8 1.9.4.6.9 1.1 1.6 1.4h0z" class="S"/><path d="M675.3 266.5c9-1.9 13-5.2 22.8-5.7 4.8-.1 9.7.3 14.4 1.4-5.8-3.7-12.3-6.2-19.1-7.5l-.7-.1-2.8-6.3-5.6-.6h-3.9l-5.7.8-2.7 6.1-.7.1c-8.8 1.6-17.1 5.4-24 11 6.1-.1 14.2 3.8 28 .8z" class="T"/><path d="M690.9 247.1l-6.5-.7h-4l-6.6.9-2.7 6.1c-9.7 1.8-18.8 6.2-26.2 12.7.8-.2 1.6-.3 2.4-.3h0c6.9-5.6 15.2-9.4 24-11l.7-.1 2.7-6.1 5.7-.8h3.9l5.6.6 2.8 6.3.7.1c6.8 1.3 13.3 3.8 19.1 7.5 1.3.3 2.6.6 3.9 1.1-6.7-5-14.5-8.4-22.8-9.9-.8-2.2-1.8-4.3-2.7-6.4z" class="S"/><path d="M634.4 284.7l-.2.8-.8.2c-2.7.6-4.7 3-4.7 5.7v14.5c0 2.2 1.3 4.3 3.3 5.3l.8.4V391l-.8.4c-2 1-3.3 3-3.3 5.3v14.5c0 3.2 2.6 5.8 5.8 5.8h95.8c3.2 0 5.8-2.6 5.8-5.8v-14.6c0-2.2-1.3-4.3-3.3-5.3l-.8-.3v-.9l-.1-78.5.8-.4c2.1-1 3.4-3 3.4-5.3v-14.6c0-2.8-2-5.2-4.7-5.7l-.8-.2-.2-.8c-2.7-8.2-7.9-15.3-14.8-20.4-5.1.5-10.2.7-15.4.6-10.7-.2-13.4-1.6-21.1-.6-6.5.8-7.2 2.1-13.4 2.8s-12.4.3-18.4-1.3c-.3.2-.7.6-1.2 1-2.6 2.3-5 5-7 7.9-1.9 3.2-3.6 6.6-4.7 10.1zm76.1 55.6c.2-1.5.7-2.9 1.7-4 .6-.8 1.5-1.3 2.5-1.6l12.8-5.2v44.7l-13-5.2c-1.1-.6-2-1.4-2.7-2.5-.6-.9-1-1.9-1.3-3v-23.2z" class="Y"/><path d="M669.8 366.2c-2.2 0-4.2-1.2-5.3-3.1-1.5-3-.2-6.7 2.8-8.2 2.7-1.3 6-.4 7.7 2.1h0c1.7 2.9.7 6.6-2.2 8.3h0c-1 .6-2 .9-3 .9zm0-10.9c-.8 0-1.6.2-2.3.6-2.3 1.3-3 4.2-1.7 6.4 1.3 2.3 4.2 3 6.4 1.7 2.3-1.3 3-4.2 1.7-6.4-.9-1.4-2.5-2.3-4.1-2.3z" class="T"/><g class="S"><path d="M730.7 314.8c.9 0 1.7-.1 2.6-.2v-1.9H631.4v1.7c1.2.2 2.4.4 3.6.4h95.7z"/><use xlink:href="#D" x="-3.3" y="-181"/><use xlink:href="#E" x="-3.4" y="-181"/><use xlink:href="#F" x="-3.4" y="-181"/></g><use xlink:href="#J" x="113.6" y="-181" class="W"/><g class="V"><path d="M683.6 246.8c.4 0 .7-.4.7-1v-6c0-.6-.3-1-.7-1-.5.1-.8.5-.8 1v6c-.1.5.3.9.8 1z"/><use xlink:href="#S"/><use xlink:href="#T"/><use xlink:href="#T" x="-2.7"/><use xlink:href="#T" x="-5.4"/><use xlink:href="#U"/><use xlink:href="#S" x="10.9"/><use xlink:href="#U" x="2.7"/></g><g class="T"><path d="M678.1 403.3a3.8 3.8 0 1 1 0-7.6 3.8 3.8 0 0 1 3.8 3.8c.1 2.1-1.7 3.8-3.8 3.8zm0-6.3c-1.3 0-2.4 1.1-2.4 2.4s1.1 2.4 2.4 2.4 2.4-1.1 2.4-2.4c.1-1.3-1-2.4-2.4-2.4h0z"/><path d="M644.3 378a3.8 3.8 0 1 1 0-7.6 3.8 3.8 0 0 1 3.8 3.8c.1 2.1-1.6 3.8-3.8 3.8h0zm0-6.3c-1.3 0-2.4 1.1-2.4 2.4s1.1 2.4 2.4 2.4 2.4-1.1 2.4-2.4h0c.1-1.3-1-2.3-2.4-2.4h0z" class="U"/><path d="M715 279.2a3.8 3.8 0 1 1 3.8-3.8h0a3.8 3.8 0 0 1-3.8 3.8zm0-6.3c-1.3 0-2.4 1.1-2.4 2.4s1.1 2.4 2.4 2.4 2.4-1.1 2.4-2.4h0c0-1.2-1.1-2.3-2.4-2.4h0zm-5.6 111.5a3.8 3.8 0 1 1 0-7.6 3.8 3.8 0 1 1 0 7.6h0zm0-6.3c-1.3 0-2.4 1.1-2.4 2.4s1.1 2.4 2.4 2.4 2.4-1.1 2.4-2.4h0c0-1.3-1-2.4-2.4-2.4h0z"/><use xlink:href="#I" x="129.1" y="-168"/><path d="M650.5 337.7c-2.2 0-4.2-1.2-5.3-3.1-1.7-2.9-.7-6.7 2.2-8.3 2.9-1.7 6.7-.7 8.3 2.2 1.7 2.9.7 6.7-2.2 8.3a5.53 5.53 0 0 1-3 .9zm0-10.8c-.8 0-1.6.2-2.3.6-2.3 1.3-3 4.2-1.7 6.4 1.3 2.3 4.2 3 6.4 1.7 2.3-1.3 3-4.2 1.7-6.4-.9-1.4-2.4-2.3-4.1-2.3zm67.7 81.9c-4 0-7.3-3.2-7.4-7.3s3.2-7.3 7.3-7.4c4 0 7.3 3.2 7.4 7.3 0 2.6-1.4 5-3.6 6.4-1.2.7-2.5 1-3.7 1zm0-13c-3.1 0-5.7 2.6-5.6 5.7 0 1 .3 1.9.8 2.8 1.6 2.7 5 3.6 7.7 2.1 1.3-.8 2.2-2 2.6-3.4s.2-3-.6-4.3c-1.1-1.8-2.9-2.9-4.9-2.9h0z" class="U"/><path d="M705.6 303.6c-.5 0-1.1-.1-1.6-.2-3.3-.9-5.2-4.2-4.3-7.5s4.2-5.2 7.5-4.3c1.6.4 2.9 1.4 3.7 2.9h0c1.7 2.9.7 6.7-2.3 8.4-.9.4-1.9.7-3 .7h0zm0-10.8c-.8 0-1.6.2-2.3.6-2.3 1.3-3 4.2-1.7 6.4s4.2 3 6.4 1.7c2.3-1.3 3-4.2 1.7-6.4-.8-1.4-2.4-2.3-4.1-2.3zm-63.7 122.6c-.5 0-1.1-.1-1.6-.2-3.3-.9-5.2-4.2-4.3-7.5s4.2-5.2 7.5-4.3 5.2 4.2 4.3 7.5c-.7 2.7-3.1 4.5-5.9 4.5zm0-10.8c-.8 0-1.6.2-2.3.6-2.3 1.3-3 4.2-1.7 6.4 1.3 2.3 4.2 3 6.4 1.7s3-4.2 1.7-6.4h0a4.36 4.36 0 0 0-2.9-2.2c-.4 0-.8-.1-1.2-.1h0z"/><path d="M641.9 297.5a3.8 3.8 0 1 1 3.8-3.8c0 2-1.7 3.8-3.8 3.8h0zm0-6.3c-1.3 0-2.4 1.1-2.4 2.4s1.1 2.4 2.4 2.4 2.4-1.1 2.4-2.4h0c0-1.3-1-2.4-2.4-2.4zm54 37.9c-.6 0-1.1-.2-1.5-.6-.9-.9-.9-2.2 0-3.1s2.2-.9 3.1 0h0c.9.9.9 2.2 0 3.1-.5.3-1 .6-1.6.6h0zm0-3c-.2 0-.4.1-.6.2-.3.3-.3.8 0 1.1h0c.3.3.8.3 1.1 0s.3-.8 0-1.1h0c-.1-.1-.3-.2-.5-.2h0z" class="U"/><path d="M663.6 279.8c-.6 0-1.1-.2-1.5-.6-.8-.9-.8-2.3.1-3.1.8-.8 2.1-.8 3 0h0c.9.8.9 2.2 0 3.1h0c-.4.3-1 .6-1.6.6zm0-3c-.2 0-.4.1-.6.2-.3.3-.3.8 0 1.1h0c.4.3.9.2 1.1-.1a.91.91 0 0 0 0-1c-.1-.1-.3-.2-.5-.2h0zm33.7 71.7a2.22 2.22 0 0 1-2.2-2.2 2.22 2.22 0 0 1 2.2-2.2c.6 0 1.1.2 1.5.6h0c.9.9.9 2.2 0 3.1-.4.5-.9.7-1.5.7zm0-3c-.2 0-.4.1-.6.2-.3.3-.3.8 0 1.1h0c.3.3.8.3 1.1 0s.3-.8 0-1.1c-.1-.1-.3-.2-.5-.2z"/></g><use xlink:href="#J" x="113.6" y="-181" class="W"/><g class="V"><path d="M682 247.3c.4 0 .7-.4.7-1v-6c0-.5-.3-1-.7-1-.5.1-.8.5-.8 1v6c0 .5.3.9.8 1z"/><use xlink:href="#O" x="-6.1" y="-181"/><use xlink:href="#O" x="-8.8" y="-181"/><use xlink:href="#O" x="-11.5" y="-181"/><use xlink:href="#O" x="-14.2" y="-181"/><use xlink:href="#V"/><use xlink:href="#O" x="4.8" y="-181"/><use xlink:href="#P" x="12.9" y="-181"/></g><use xlink:href="#N" x="113.6" y="-181.1" class="X Z a"/><use xlink:href="#O" x="7.8" y="-181" class="V"/><path d="M517.5 53.5h-4.2c1.2.9 2.7 1.4 4.2 1.4h95.8c1.5 0 3-.5 4.2-1.4h-100zm113.1.1h-4.2c1.2.9 2.7 1.4 4.2 1.4h95.8c1.5 0 3-.5 4.3-1.4H630.6z" class="S"/><path d="M623.3 603.2h7.9v4.9h-7.9z" fill="#1d1d1b"/><path d="M653.3 651.3h8v2.2h-8zm-59.9 0h8v2.2h-8z"/><path d="M651.7 619.1c-.1-1.4-1.3-2.4-2.6-2.3h-43.6c-1.4-.1-2.5.9-2.6 2.3l-3.3 13.8c.1 1.4 1.3 2.4 2.6 2.3h50.1c1.4.1 2.5-.9 2.6-2.3l-3.2-13.8z" fill="#e8e8e9"/><path d="M661.2 611.8c0-2-1.6-3.7-3.7-3.7H597c-2 0-3.7 1.6-3.7 3.7l-6.9 35.9c0 2 1.6 3.7 3.7 3.7h74.4c2 0 3.7-1.6 3.7-3.7l-7-35.9z" fill="#aecdcf"/><path d="M651.1 619.3c-.1-1.3-1.3-2.3-2.6-2.2H606c-1.3-.1-2.4.9-2.6 2.2l-3.2 13.2c.1 1.3 1.3 2.3 2.6 2.2h48.8c1.3.1 2.4-.9 2.6-2.2l-3.1-13.2z" stroke="#000" class="T d"/><path d="M610.6 622.2V621l2.5-.1v8.8h-1.4v-7.5h-1.1zm8.6-.3a1.69 1.69 0 0 0-1-.3c-.6 0-1.1.3-1.4.8-.4.8-.5 1.6-.5 2.4.2-.4.5-.7.9-.8.4-.2.8-.3 1.3-.3s1 .1 1.4.3.7.6 1 1c.2.5.4 1 .3 1.6 0 .5-.1 1.1-.3 1.5s-.6.8-1 1.1c-.5.3-1 .4-1.6.4-.7 0-1.4-.2-1.9-.5-.5-.4-.8-.9-1-1.5a10.68 10.68 0 0 1-.3-2.5c0-3 1-4.5 3.1-4.5.7 0 1.4.2 1.9.6s.7 1 .8 1.6h-1.3c0-.3-.1-.6-.4-.9zm-2.2 3.5c-.4.3-.5.8-.5 1.3s.2 1 .5 1.4c.4.3.8.5 1.3.5s.9-.2 1.2-.5c.3-.4.5-.8.4-1.3 0-.5-.1-.9-.4-1.3-.3-.3-.8-.5-1.3-.5-.4-.1-.8.1-1.2.4zm6.4-3.7c.5-.8 1.5-1.3 2.4-1.2 1-.1 1.9.4 2.4 1.2a7.64 7.64 0 0 1 .8 3.3c.1 1.2-.2 2.3-.7 3.3-1 1.3-2.9 1.6-4.2.6-.2-.2-.5-.4-.6-.6-1-2.1-1-4.5-.1-6.6h0zm4.1 1.6c-.1-.4-.2-.8-.5-1.1s-.7-.5-1.1-.4c-.4 0-.8.1-1.1.4s-.5.7-.5 1.1c-.1.6-.1 1.1-.1 1.7s0 1.2.1 1.7c.1.4.2.8.5 1.1a1.69 1.69 0 0 0 2.3 0c.3-.3.5-.7.5-1.1.1-.6.1-1.2.1-1.7-.1-.5-.1-1.1-.2-1.7zm5.7 2.9l3 3.4h-1.8l-2.4-2.9v2.9h-1.4v-9.1h1.5v5.3l2.4-2.9h1.9l-3.2 3.3zm8-3c.4.2.7.4.9.8v-1h1.4v6.7c0 .6-.1 1.1-.4 1.6s-.6.9-1.1 1.1c-.5.3-1.1.4-1.7.4-.8 0-1.6-.2-2.2-.6s-.9-1-1-1.7h1.4c.1.4.3.7.7.8.4.2.8.3 1.2.3.5 0 1-.2 1.3-.5.4-.4.5-.9.5-1.5v-1.1c-.2.3-.6.6-.9.8a3.08 3.08 0 0 1-1.3.3c-.6 0-1.1-.2-1.6-.5s-.9-.7-1.1-1.2c-.3-.6-.4-1.2-.4-1.8s.1-1.2.4-1.8c.5-1 1.6-1.6 2.7-1.6.4.1.8.3 1.2.5zm.7 1.9c-.2-.3-.4-.6-.7-.8a1.69 1.69 0 0 0-1-.3c-.3 0-.7.1-1 .2-.3.2-.6.4-.7.8-.2.4-.3.8-.3 1.2s.1.8.3 1.2c.2.3.4.6.7.8a1.69 1.69 0 0 0 1 .3c.4 0 .7-.1 1-.2.3-.2.6-.5.7-.8.4-.7.4-1.6 0-2.4h0z"/><path d="M502.8 595.4c1.6 4.5 16.6 8.1 34.8 8.1h187.7c18.1 0 33.1-3.6 34.8-8.1H502.8z" class="b"/><path d="M502.8 595.4c.1.4.3.7.6 1h256c.3-.3.5-.6.6-1H502.8z" fill="#313838"/><path d="M760 592.8H502.6c-.7.1-1.3.7-1.3 1.4.2.7.8 1.1 1.4 1.2H760c1.1.1 2.1-.5 2.1-1.3s-.9-1.4-2.1-1.3z" fill="#9c9b9b"/><path d="M760 595.4H502.8 760zm-222.5 8.1h187.7c16.8 0 30.8-3.1 34.1-7.1h-256c3.4 4 17.4 7.1 34.2 7.1z" class="b"/><g class="X c"><path d="M214.6 689.9H213v-1h2.7v11.5h-1.1v-10.5zm4 10.6c-.5 0-.8-.4-.8-.8 0-.5.4-.8.8-.8s.8.4.8.8-.3.8-.8.8zm9.7-11.6v1h-5.9v4.1c.5-.7 1.6-1.3 2.8-1.3 2.8 0 3.7 2 3.7 3.8 0 2.2-1.2 4-3.9 4-2.2 0-3.6-1.3-3.9-3.2h1.1c.3 1.4 1.4 2.2 2.8 2.2 1.9 0 2.8-1.3 2.8-3s-1-2.8-2.8-2.8c-1.3 0-2.2.6-2.7 1.6h-1.1v-6.4h7.1z"/><use xlink:href="#W"/><path d="M243.8 691.5c2.4 0 4.2 1.7 4.2 4.5s-1.8 4.5-4.2 4.5c-1.7 0-2.9-.9-3.5-2v1.9h-1.1v-11.8h1.1v5c.6-1.2 1.8-2.1 3.5-2.1zm-.2 1c-1.8 0-3.2 1.3-3.2 3.5s1.5 3.5 3.2 3.5c1.8 0 3.2-1.3 3.2-3.5.1-2.2-1.4-3.5-3.2-3.5z"/><use xlink:href="#X"/><path d="M260.6 692.6h-1.2v-.9h1.2v-2.2h1.1v2.2h2.4v.9h-2.4v5.4c0 1.1.4 1.4 1.4 1.4h1v1H263c-1.5 0-2.3-.6-2.3-2.4v-5.4z"/><use xlink:href="#Y"/><use xlink:href="#W" x="40.5"/><path d="M279.2 700.5c-2.5 0-4.3-1.7-4.3-4.5s1.8-4.5 4.3-4.5c2.6 0 4.1 1.8 4.1 4v.9H276c.1 2 1.5 3.1 3.2 3.1 1.5 0 2.5-.8 2.8-2h1.2c-.4 1.7-1.8 3-4 3zm-3.2-5h6.1c0-2-1.4-3.1-3-3.1-1.6.1-3 1.1-3.1 3.1z"/><use xlink:href="#Z"/><path d="M299.5 691.6h1.1l2.2 7.6 2.4-7.6h1.1l2.4 7.6 2.2-7.6h1.1l-2.7 8.7h-1.1l-2.4-7.3-2.4 7.3h-1.1l-2.8-8.7z"/><use xlink:href="#a"/><path d="M324.7 692.6h-1.2v-.9h1.2v-2.2h1.1v2.2h2.4v.9h-2.4v5.4c0 1.1.4 1.4 1.4 1.4h1v1H327c-1.5 0-2.3-.6-2.3-2.4v-5.4z"/><use xlink:href="#b"/><path d="M341.1 700.4H340v-8.7h1.1v1.6c.5-1.1 1.5-1.7 3-1.7v1.2h-.3c-1.5 0-2.7.7-2.7 2.8v4.8z"/></g><g class="X c"><use xlink:href="#c"/><use xlink:href="#b" x="135.5"/><path d="M479.1 691.5c1.8 0 3 .9 3.5 2v-1.9h1.1v8.7h-1.1v-1.9c-.5 1.1-1.7 2.1-3.5 2.1-2.4 0-4.2-1.8-4.2-4.5s1.8-4.5 4.2-4.5zm.3 1c-1.8 0-3.2 1.3-3.2 3.5s1.4 3.5 3.2 3.5 3.2-1.3 3.2-3.5-1.5-3.5-3.2-3.5z"/><use xlink:href="#d"/><use xlink:href="#W" x="260.9"/><use xlink:href="#c" x="38.9"/><path d="M512.5 691.5c1.8 0 3 .9 3.5 2v-1.9h1.1v8.7H516v-1.9c-.5 1.1-1.7 2.1-3.5 2.1-2.4 0-4.2-1.8-4.2-4.5s1.8-4.5 4.2-4.5zm.2 1c-1.8 0-3.2 1.3-3.2 3.5s1.4 3.5 3.2 3.5 3.2-1.3 3.2-3.5-1.4-3.5-3.2-3.5zm7.1-.9l2.9 7.7 2.9-7.7h1.2l-3.5 8.7H522l-3.5-8.7h1.3zm12.4 8.9c-2.5 0-4.3-1.7-4.3-4.5s1.8-4.5 4.3-4.5c2.6 0 4.1 1.8 4.1 4v.9H529c.1 2 1.5 3.1 3.2 3.1 1.5 0 2.5-.8 2.8-2h1.2c-.4 1.7-1.8 3-4 3zm-3.2-5h6.1c0-2-1.4-3.1-3-3.1-1.6.1-3 1.1-3.1 3.1z"/><use xlink:href="#d" x="52.1"/><use xlink:href="#a" x="230.6"/><path d="M558.6 691.5c1.7 0 3 .9 3.5 2v-1.9h1.1v9c0 2.4-1.7 4.1-4.1 4.1-2.3 0-3.8-1.2-4.2-3h1.1c.4 1.2 1.5 2 3.1 2 1.7 0 3-1.1 3-3.1v-2.2c-.5 1.1-1.7 2.1-3.5 2.1-2.4 0-4.2-1.8-4.2-4.5s1.8-4.5 4.2-4.5zm.2 1c-1.8 0-3.2 1.3-3.2 3.5s1.4 3.5 3.2 3.5 3.2-1.3 3.2-3.5-1.4-3.5-3.2-3.5z"/><use xlink:href="#b" x="235.7"/><use xlink:href="#e"/><use xlink:href="#f"/><path d="M599.9 691.7c0-1.7 1.3-3 3.8-3 2.4 0 3.8 1.3 3.8 3 0 1.3-.7 2.3-2 2.7 1.4.4 2.3 1.4 2.3 2.9 0 2.1-1.6 3.4-4.1 3.4s-4.1-1.3-4.1-3.4c0-1.5.9-2.5 2.3-2.9-1.3-.4-2-1.4-2-2.7zm.8 5.6c0 1.5 1.2 2.5 3 2.5s3-.9 3-2.5-1.3-2.4-3-2.4-3 .7-3 2.4zm5.6-5.4c0-1.4-1.1-2.2-2.7-2.2s-2.7.8-2.7 2.2c0 1.3 1.1 2.2 2.7 2.2s2.7-.9 2.7-2.2zm7.3-3.2c3.1 0 3.9 2.5 3.9 5.8s-.8 5.9-3.9 5.9c-3.2 0-3.9-2.5-3.9-5.9 0-3.3.7-5.8 3.9-5.8zm0 1c-2.4 0-2.8 2.2-2.8 4.8 0 2.7.4 4.9 2.8 4.9s2.8-2.2 2.8-4.9c-.1-2.6-.4-4.8-2.8-4.8zm9.8-1c3.1 0 3.9 2.5 3.9 5.8s-.8 5.9-3.9 5.9c-3.2 0-3.9-2.5-3.9-5.9 0-3.3.8-5.8 3.9-5.8zm0 1c-2.4 0-2.8 2.2-2.8 4.8 0 2.7.4 4.9 2.8 4.9s2.8-2.2 2.8-4.9c0-2.6-.4-4.8-2.8-4.8zm15.2 1.8c2.4 0 4.2 1.7 4.2 4.5s-1.8 4.5-4.2 4.5c-1.7 0-2.9-.9-3.5-2v1.9H634v-11.8h1.1v5c.6-1.2 1.8-2.1 3.5-2.1zm-.2 1c-1.8 0-3.2 1.3-3.2 3.5s1.5 3.5 3.2 3.5c1.8 0 3.2-1.3 3.2-3.5s-1.4-3.5-3.2-3.5zm10.2 8c-2.5 0-4.3-1.7-4.3-4.5s1.9-4.5 4.4-4.5 4.4 1.7 4.4 4.5c-.1 2.8-2 4.5-4.5 4.5zm0-1c1.6 0 3.2-1.1 3.2-3.5s-1.6-3.5-3.2-3.5c-1.7 0-3.2 1.1-3.2 3.5s1.6 3.5 3.2 3.5z"/><use xlink:href="#Y" x="389.1"/><use xlink:href="#Y" x="394.8"/><use xlink:href="#W" x="435.3"/><use xlink:href="#b" x="340.1"/><use xlink:href="#g"/><use xlink:href="#f" x="102.3"/><use xlink:href="#X" x="447.8"/><use xlink:href="#d" x="221.8"/><use xlink:href="#a" x="404.7"/><path d="M733.5 688.5h1.1v4.6c.6-1.1 1.7-1.6 3-1.6 1.9 0 3.5 1.2 3.5 3.8v5.1H740v-5c0-1.9-1.1-2.9-2.7-2.9s-2.8 1-2.8 3.2v4.8h-1.1v-12z"/><use xlink:href="#e" x="163.5"/><path d="M761.4 700.4h-1.1v-1.5c-.5 1.1-1.7 1.7-3 1.7-2 0-3.6-1.2-3.6-3.8v-5.1h1.1v5c0 1.9 1.1 2.9 2.7 2.9s2.8-1 2.8-3.2v-4.8h1.1v8.8z"/><use xlink:href="#g" x="83.9"/><use xlink:href="#b" x="442.1"/><path d="M782.1 688.5h1.1v4.6c.6-1.1 1.7-1.6 3-1.6 1.9 0 3.5 1.2 3.5 3.8v5.1h-1.1v-5c0-1.9-1.1-2.9-2.7-2.9s-2.8 1-2.8 3.2v4.8H782v-12zm14 12c-2.5 0-4.3-1.7-4.3-4.5s1.9-4.5 4.4-4.5 4.4 1.7 4.4 4.5c-.1 2.8-2.1 4.5-4.5 4.5zm0-1c1.6 0 3.2-1.1 3.2-3.5s-1.6-3.5-3.2-3.5c-1.7 0-3.2 1.1-3.2 3.5-.1 2.4 1.5 3.5 3.2 3.5z"/><use xlink:href="#W" x="571.3"/><use xlink:href="#Z" x="520.8"/></g><path d="M0 653.7h858.4v2.1H0z"/><g class="X c"><path d="M175.4 727.8c3.1-2.7 6.4-5.1 6.4-7.7 0-1.4-.6-2.3-2.1-2.3-1.4 0-2.2 1-2.3 2.5h-2c.1-2.8 1.9-4.2 4.2-4.2 2.7 0 4.2 1.6 4.2 4 0 3.2-3.2 5.6-5.3 7.5h5.7v1.7h-8.8v-1.5z"/><use xlink:href="#h"/><path d="M202.1 716.1c3.7 0 4.7 2.9 4.7 6.6 0 3.8-1 6.7-4.7 6.7s-4.7-2.9-4.7-6.7c.1-3.7 1.1-6.6 4.7-6.6zm0 1.9c-2.4 0-2.7 2.3-2.7 4.8 0 2.6.3 4.8 2.7 4.8s2.7-2.3 2.7-4.8-.3-4.8-2.7-4.8zm11.2 1.4c1.6 0 2.8.8 3.4 1.6v-1.4h2.1v10.1c0 2.7-1.7 4.7-4.8 4.7-2.6 0-4.6-1.3-4.9-3.5h2c.3 1 1.4 1.7 2.8 1.7 1.6 0 2.8-1 2.8-3v-1.7c-.6.8-1.8 1.7-3.4 1.7-2.6 0-4.7-2.1-4.7-5.2 0-3 2.1-5 4.7-5zm.4 1.7c-1.5 0-3 1.2-3 3.3s1.5 3.4 3 3.4 3-1.2 3-3.3c0-2.2-1.5-3.4-3-3.4z"/><use xlink:href="#i"/><path d="M237.9 721.2h-1.2v-1.7h1.2v-.7c0-2.3 1.2-3.3 3.8-3.3v1.7c-1.3 0-1.7.4-1.7 1.6v.7h1.8v1.7H240v8.2h-2.1v-8.2zm14.6-1.8c2.4 0 4 1.2 4.6 3.3h-2.2c-.3-1-1.1-1.6-2.4-1.6-1.7 0-2.8 1.2-2.8 3.4s1.1 3.4 2.8 3.4c1.2 0 2-.5 2.4-1.6h2.2c-.6 1.9-2.1 3.3-4.6 3.3-2.8 0-4.9-2-4.9-5.1s2-5.1 4.9-5.1zm10.6 0c1.7 0 2.8.8 3.4 1.6v-1.4h2.1v9.9h-2.1V728c-.6.8-1.8 1.6-3.5 1.6-2.6 0-4.6-2.1-4.6-5.2 0-3 2.1-5 4.7-5zm.4 1.7c-1.5 0-3 1.2-3 3.3s1.5 3.4 3 3.4 3-1.2 3-3.3c0-2.2-1.4-3.4-3-3.4z"/><use xlink:href="#j"/><path d="M283.7 719.4c2.6 0 4.7 2 4.7 5.1s-2.1 5.2-4.7 5.2c-1.6 0-2.8-.7-3.5-1.6v1.4h-2.1v-13.3h2.1v4.9c.7-1 2-1.7 3.5-1.7zm-.4 1.7c-1.5 0-3 1.2-3 3.3s1.5 3.3 3 3.3 3-1.2 3-3.4-1.5-3.2-3-3.2zm11.4 8.5c-2.8 0-5-2-5-5.1s2.2-5.1 5.1-5.1c2.8 0 5.1 2 5.1 5.1s-2.3 5.1-5.2 5.1zm0-1.8c1.5 0 3-1.1 3-3.3s-1.5-3.3-3-3.3-2.9 1.1-2.9 3.3 1.4 3.3 2.9 3.3z"/><use xlink:href="#k"/><path d="M322.3 719.4c1.3 0 2.7.6 3.4 1.5v-4.8h2.1v13.3h-2.1v-1.5c-.6.9-1.8 1.7-3.4 1.7-2.6 0-4.7-2.1-4.7-5.2 0-3 2-5 4.7-5zm.4 1.7c-1.5 0-3 1.2-3 3.3s1.5 3.4 3 3.4 3-1.2 3-3.3c0-2.2-1.5-3.4-3-3.4z"/><use xlink:href="#l"/><path d="M339.5 729.6c-2.8 0-5-2-5-5.1s2.2-5.1 5.1-5.1 5.1 2 5.1 5.1-2.3 5.1-5.2 5.1zm0-1.8c1.5 0 3-1.1 3-3.3s-1.5-3.3-3-3.3-2.9 1.1-2.9 3.3 1.4 3.3 2.9 3.3z"/><use xlink:href="#m"/><use xlink:href="#l" x="25.2"/><path d="M364.4 719.4c1.3 0 2.7.6 3.4 1.5v-4.8h2.1v13.3h-2.1v-1.5c-.6.9-1.8 1.7-3.4 1.7-2.6 0-4.7-2.1-4.7-5.2 0-3 2.1-5 4.7-5zm.5 1.7c-1.5 0-3 1.2-3 3.3s1.5 3.4 3 3.4 3-1.2 3-3.3c0-2.2-1.5-3.4-3-3.4zm12 8.5c-2.8 0-5-2-5-5.1s2-5.1 5-5.1c2.8 0 4.8 2 4.8 4.9 0 .3 0 .7-.1 1H374c.1 1.6 1.3 2.6 2.8 2.6 1.3 0 2-.6 2.3-1.4h2.2c-.4 1.7-2 3.1-4.4 3.1zm-2.8-6h5.5c0-1.5-1.2-2.5-2.8-2.5-1.4 0-2.5.9-2.7 2.5z"/></g><g class="X c"><path d="M530.6 718.2h-1.7v-1.9h3.7v13.1h-2.1v-11.2zm11.9 1.2c-.3-1.1-.9-1.7-2.2-1.7-1.9 0-2.8 1.3-2.9 4.7.6-1.1 1.9-1.7 3.3-1.7 2.4 0 4 1.6 4 4.3 0 2.5-1.5 4.4-4.3 4.4-3.8 0-4.8-2.7-4.8-6.9 0-4.1 1.4-6.6 4.6-6.6 2.6 0 3.8 1.6 4.1 3.4h-1.8zm-4.8 5.6c0 1.6 1 2.7 2.7 2.7 1.5 0 2.4-1 2.4-2.6s-.8-2.7-2.5-2.7c-1.3.1-2.6.9-2.6 2.6z"/><use xlink:href="#h" x="361.1"/><path d="M558.8 716.1h2.1v7.7l3.6-4.3h2.8l-4.6 5 4.6 5h-2.8l-3.7-4.3v4.3h-2.1v-13.4zm14 3.3c1.6 0 2.8.8 3.4 1.6v-1.4h2.1v10.1c0 2.7-1.7 4.7-4.8 4.7-2.6 0-4.6-1.3-4.9-3.5h2c.3 1 1.4 1.7 2.8 1.7 1.6 0 2.8-1 2.8-3v-1.7c-.6.8-1.8 1.7-3.4 1.7-2.6 0-4.7-2.1-4.7-5.2 0-3 2.1-5 4.7-5zm.4 1.7c-1.5 0-3 1.2-3 3.3s1.5 3.4 3 3.4 3-1.2 3-3.3c0-2.2-1.4-3.4-3-3.4z"/><use xlink:href="#i" x="359.5"/><path d="M597.4 721.2h-1.2v-1.7h1.2v-.7c0-2.3 1.2-3.3 3.8-3.3v1.7c-1.3 0-1.7.4-1.7 1.6v.7h1.8v1.7h-1.8v8.2h-2.1v-8.2zm14.6-1.8c2.4 0 4 1.2 4.6 3.3h-2.2c-.3-1-1.1-1.6-2.4-1.6-1.7 0-2.8 1.2-2.8 3.4s1.1 3.4 2.8 3.4c1.2 0 2-.5 2.4-1.6h2.2c-.6 1.9-2.1 3.3-4.6 3.3-2.8 0-4.9-2-4.9-5.1s2.1-5.1 4.9-5.1zm10.6 0c1.7 0 2.8.8 3.4 1.6v-1.4h2.1v9.9H626V728c-.6.8-1.8 1.6-3.5 1.6-2.6 0-4.6-2.1-4.6-5.2 0-3 2.1-5 4.7-5zm.5 1.7c-1.5 0-3 1.2-3 3.3s1.5 3.4 3 3.4 3-1.2 3-3.3c0-2.2-1.5-3.4-3-3.4z"/><use xlink:href="#j" x="359.6"/><path d="M643.3 719.4c2.6 0 4.7 2 4.7 5.1s-2.1 5.2-4.7 5.2c-1.6 0-2.8-.7-3.5-1.6v1.4h-2.1v-13.3h2.1v4.9c.6-1 1.9-1.7 3.5-1.7zm-.5 1.7c-1.5 0-3 1.2-3 3.3s1.5 3.3 3 3.3 3-1.2 3-3.4-1.4-3.2-3-3.2z"/><use xlink:href="#i" x="423.8"/><use xlink:href="#k" x="359.6"/><path d="M681.8 719.4c1.3 0 2.7.6 3.4 1.5v-4.8h2.1v13.3h-2.1v-1.5c-.6.9-1.8 1.7-3.4 1.7-2.6 0-4.7-2.1-4.7-5.2 0-3 2.1-5 4.7-5zm.4 1.7c-1.5 0-3 1.2-3 3.3s1.5 3.4 3 3.4 3-1.2 3-3.3c0-2.2-1.4-3.4-3-3.4zm7.5-4.2c0-.7.6-1.3 1.3-1.3s1.3.6 1.3 1.3-.6 1.3-1.3 1.3-1.3-.6-1.3-1.3zm.3 2.6h2.1v9.9H690v-9.9z"/><use xlink:href="#i" x="468.6"/><use xlink:href="#m" x="359.5"/><use xlink:href="#l" x="384.7"/><path d="M724 719.4c1.3 0 2.7.6 3.4 1.5v-4.8h2.1v13.3h-2.1v-1.5c-.6.9-1.8 1.7-3.4 1.7-2.6 0-4.7-2.1-4.7-5.2 0-3 2.1-5 4.7-5zm.4 1.7c-1.5 0-3 1.2-3 3.3s1.5 3.4 3 3.4 3-1.2 3-3.3c0-2.2-1.5-3.4-3-3.4zm12 8.5c-2.8 0-5-2-5-5.1s2-5.1 5-5.1c2.8 0 4.8 2 4.8 4.9 0 .3 0 .7-.1 1h-7.6c.1 1.6 1.3 2.6 2.8 2.6 1.3 0 2-.6 2.3-1.4h2.2c-.4 1.7-1.9 3.1-4.4 3.1zm-2.8-6h5.5c0-1.5-1.2-2.5-2.8-2.5-1.3 0-2.5.9-2.7 2.5z"/></g><path d="M554.1 253.4l2.7-6.1 6.6-.9h4l6.5.7 2.8 6.4c8.3 1.5 16.1 4.9 22.8 9.9h0c1.7.5 3.2 1.3 4.8 2.1-7.5-6.8-16.7-11.4-26.6-13.3l-2.8-6.4-7.3-.8h-4.2l-7.5 1.1-2.7 6.2c-10.7 2-20.5 7.2-28.2 14.9 1-.4 2-.7 3-.9 7.3-6.7 16.4-11.1 26.1-12.9z" class="S"/><path d="M620.5 306v-14.6a7.27 7.27 0 0 0-5.8-7.1c-4.8-15.4-19.5-27.4-38-30.9l-2.8-6.4-6.5-.7h-4l-6.6.9-2.7 6.1c-18.5 3.5-33.2 15.5-38 30.9a7.27 7.27 0 0 0-5.8 7.1V306c0 2.8 1.6 5.3 4.1 6.5v77.7c-2.5 1.2-4.1 3.7-4.1 6.5v14.5a7.17 7.17 0 0 0 7.2 7.2h95.8a7.17 7.17 0 0 0 7.2-7.2v-14.6c0-2.8-1.6-5.3-4.1-6.5l-.1-77.6c2.6-1.2 4.2-3.7 4.2-6.5zm-25.6 34.5c.1-1.2.6-2.3 1.3-3.2a3.47 3.47 0 0 1 1.9-1.2l11-4.5v40.6l-10.9-4.4c-.9-.5-1.6-1.2-2.2-2-.5-.8-.9-1.6-1.1-2.5v-22.8z" class="T"/><path d="M613.3 419.8h-95.8c-4.8 0-8.6-3.9-8.6-8.6v-14.5c0-3 1.6-5.8 4.1-7.3v-76c-2.5-1.6-4.1-4.4-4.1-7.3v-14.5c0-3.8 2.5-7.1 6.1-8.2 5.2-15.4 19.7-27.2 38.2-31l2.7-6.2 7.5-1.1h4.2l7.3.8 2.8 6.4c18.5 3.7 33 15.5 38.2 31 3.6 1.1 6.1 4.5 6.1 8.2V306c0 3-1.6 5.8-4.2 7.4l.1 75.9c2.5 1.6 4.1 4.4 4.1 7.3v14.5c-.1 4.9-4 8.7-8.7 8.7zm-55.5-171.2l-2.7 6.1-.7.1c-18.1 3.4-32.3 14.9-37 29.9l-.2.8-.8.2c-2.7.6-4.7 3-4.7 5.7V306c0 2.2 1.3 4.3 3.3 5.3l.8.4V391l-.8.4c-2 1-3.3 3-3.3 5.3v14.5c0 3.2 2.6 5.8 5.8 5.8h95.8c3.2 0 5.8-2.6 5.8-5.8v-14.5c0-2.2-1.3-4.3-3.3-5.3l-.8-.4v-.9l-.1-78.5.8-.4c2.1-1 3.4-3 3.4-5.3v-14.5c0-2.8-2-5.2-4.7-5.7l-.8-.2-.2-.8c-4.7-15-18.9-26.5-37-29.9l-.7-.1-2.7-6.3-5.6-.6h-3.9l-5.7.8zm52.7 125.6l-13-5.2c-1.1-.6-2-1.4-2.7-2.5-.6-.9-1-1.9-1.3-3v-23.3c.2-1.5.7-2.8 1.7-4 .6-.8 1.5-1.3 2.5-1.6l12.8-5.2v44.8zm-11.8-7.7l9 3.6v-36.4l-9.2 3.8c-.5.1-.9.4-1.2.8-.5.7-.9 1.5-1 2.4v22.6c.2.7.5 1.4.8 2 .4.4 1 .9 1.6 1.2z" class="S"/><path d="M558.3 266.6c9-1.9 13-5.2 22.8-5.7 4.8-.1 9.7.4 14.4 1.4-5.8-3.7-12.3-6.2-19.1-7.5l-.7-.1-2.7-6.3-5.6-.6h-3.9l-5.7.8-2.7 6.1-.7.1c-8.8 1.6-17.1 5.4-24 11 6.1-.2 14.1 3.8 27.9.8z" class="T"/><path d="M573.9 247.1l-6.5-.7h-4l-6.6.9-2.7 6.1c-9.7 1.8-18.8 6.2-26.1 12.7.8-.2 1.6-.3 2.4-.3h0c6.9-5.6 15.2-9.4 24-11l.7-.1 2.7-6.1 5.7-.8h3.9l5.6.6 2.8 6.3.7.1c6.8 1.3 13.3 3.8 19.1 7.5 1.3.3 2.6.6 3.9 1.1-6.7-5-14.5-8.4-22.8-9.9l-2.8-6.4z" class="S"/><path d="M517.4 284.8l-.2.8-.8.2c-2.7.6-4.7 3-4.7 5.7V306c0 2.2 1.3 4.3 3.3 5.3l.8.4V391l-.8.4c-2 1-3.3 3-3.3 5.2v14.5c0 3.2 2.6 5.8 5.8 5.8h95.8c3.2 0 5.8-2.6 5.8-5.8v-14.5c0-2.2-1.3-4.3-3.3-5.3l-.8-.3v-.9l-.1-78.5.8-.4c2.1-1 3.4-3 3.4-5.3v-14.5c0-2.8-2-5.2-4.7-5.7l-.8-.2-.2-.8c-2.8-9.1-9.2-17-17.8-22.5-4.8 1.1-9.7 1.7-14.7 1.9-10.7.5-16.2-1.4-24.5-1.8-8.8-.4-17.6.8-26 3.4-6.1 5.1-10.6 11.6-13 19.1zm76.1 55.5c.2-1.5.7-2.8 1.7-4 .6-.8 1.5-1.3 2.5-1.6l12.8-5.2v44.7l-13-5.2c-1.1-.6-2-1.4-2.7-2.5-.6-.9-1-1.9-1.3-3v-23.2z" class="Y"/><g class="S"><path d="M613.7 314.8c.9 0 1.7-.1 2.6-.2v-1.9H514.4v1.7c1.2.2 2.4.4 3.6.4h95.7z"/><use xlink:href="#D" x="-120.3" y="-180.9"/><use xlink:href="#E" x="-120.4" y="-181"/><use xlink:href="#F" x="-120.4" y="-181"/></g><use xlink:href="#J" x="-3.4" y="-181" class="W"/><g class="V"><use xlink:href="#T" x="-111.5"/><use xlink:href="#n"/><use xlink:href="#n" x="-2.7"/><use xlink:href="#S" x="-122.4"/><use xlink:href="#T" x="-122.4"/><use xlink:href="#T" x="-108.8"/><path d="M574.8 246.8c.5-.1.8-.5.8-1v-6c.1-.5-.3-.9-.8-1-.4 0-.8.4-.8 1v6c-.1.5.3.9.8 1zm-2.8 0c.5-.1.8-.5.8-1v-6c.1-.5-.3-.9-.8-1-.4 0-.8.4-.8 1v6c0 .5.4.9.8 1z"/></g><g class="T"><path d="M527.4 405.3a3.8 3.8 0 1 1 0-7.6 3.8 3.8 0 1 1 0 7.6h0zm0-6.2c-1.3 0-2.4 1.1-2.4 2.4s1.1 2.4 2.4 2.4 2.4-1.1 2.4-2.4h0c0-1.4-1.1-2.4-2.4-2.4h0z" class="U"/><path d="M609 407.8a3.8 3.8 0 1 1 3.8-3.8c.1 2-1.6 3.8-3.8 3.8zm0-6.3c-1.3 0-2.4 1.1-2.4 2.4s1.1 2.4 2.4 2.4 2.4-1.1 2.4-2.4h0c.1-1.3-1-2.4-2.4-2.4zm-81.6-97.8a3.8 3.8 0 1 1 0-7.6 3.8 3.8 0 1 1 0 7.6h0zm0-6.3c-1.3 0-2.4 1.1-2.4 2.4s1.1 2.4 2.4 2.4 2.4-1.1 2.4-2.4h0c0-1.3-1.1-2.4-2.4-2.4 0 0 0 .1 0 0h0z"/><path d="M575.5 362.8a3.8 3.8 0 1 1 0-7.6 3.8 3.8 0 1 1 0 7.6zm0-6.3c-1.3 0-2.4 1.1-2.4 2.4s1.1 2.4 2.4 2.4 2.4-1.1 2.4-2.4h0c0-1.3-1-2.4-2.4-2.4h0z" class="U"/><path d="M550.7 380.5a3.8 3.8 0 1 1 3.8-3.8c.1 2.1-1.7 3.8-3.8 3.8zm0-6.3c-1.3 0-2.4 1.1-2.5 2.4 0 1.3 1.1 2.4 2.4 2.4s2.4-1.1 2.5-2.4h0c.1-1.3-1-2.4-2.4-2.4h0zm-19.5-30.4c-.5 0-1.1-.1-1.6-.2-1.6-.4-2.9-1.4-3.7-2.9-1.7-2.9-.7-6.7 2.2-8.3 2.9-1.7 6.7-.7 8.3 2.2 1.7 2.9.7 6.7-2.2 8.3a5.29 5.29 0 0 1-3 .9h0zm0-10.8c-.8 0-1.6.2-2.3.6-2.2 1.4-2.9 4.3-1.5 6.5 1.3 2.1 4 2.9 6.2 1.7 2.3-1.3 3-4.2 1.7-6.4-.9-1.5-2.4-2.4-4.1-2.4h0zm70.8-28c-.5 0-1.1-.1-1.6-.2-1.6-.4-2.9-1.4-3.7-2.9-1.6-3-.6-6.7 2.4-8.3 2.9-1.6 6.5-.6 8.2 2.2h0c1.7 2.9.7 6.7-2.3 8.4-.9.5-1.9.8-3 .8zm0-10.8c-.8 0-1.6.2-2.3.6-2.2 1.3-3 4.2-1.7 6.4 1.4 2.2 4.3 2.9 6.5 1.5 2.1-1.3 2.9-4 1.7-6.2-1-1.4-2.5-2.3-4.2-2.3h0zm-20.5 37.4c-.5 0-1.1-.1-1.6-.2-3.3-.9-5.2-4.2-4.3-7.5.4-1.6 1.4-2.9 2.8-3.7 2.9-1.7 6.7-.7 8.4 2.2s.7 6.7-2.2 8.4c-.9.5-2 .8-3.1.8zm0-10.8c-2.6 0-4.7 2.1-4.7 4.7s2.1 4.7 4.7 4.7 4.7-2.1 4.7-4.7c0-.8-.2-1.6-.6-2.4h0c-.8-1.4-2.4-2.3-4.1-2.3z"/><path d="M564.2 296.6a3.8 3.8 0 1 1 3.8-3.8c.1 2.1-1.6 3.8-3.8 3.8zm0-6.3c-1.3 0-2.4 1.1-2.4 2.4s1.1 2.4 2.4 2.4 2.4-1.1 2.4-2.4h0c.1-1.3-1-2.4-2.4-2.4zm2.4 115.1a2.22 2.22 0 0 1-2.2-2.2 2.22 2.22 0 0 1 2.2-2.2c.6 0 1.1.2 1.5.6h0c.9.8.9 2.2 0 3.1h0c-.4.5-.9.7-1.5.7zm0-3c-.2 0-.4.1-.6.2-.3.3-.3.8 0 1.1s.8.3 1.1 0 .3-.8 0-1.1h0c-.1-.1-.3-.2-.5-.2h0z" class="U"/><path d="M583.1 273.8a2.22 2.22 0 0 1-2.2-2.2 2.22 2.22 0 0 1 2.2-2.2c.6 0 1.2.2 1.6.6h0c.9.9.9 2.2 0 3.1-.5.5-1 .7-1.6.7zm0-3c-.2 0-.4.1-.6.2-.3.3-.3.8 0 1.1s.8.3 1.1 0 .3-.8 0-1.1h0c-.1-.1-.3-.2-.5-.2h0zm-31.2 73.7c-.6 0-1.1-.2-1.5-.6-.9-.9-.9-2.2 0-3.1s2.2-.9 3.1 0h0c.9.8.9 2.2 0 3.1h0c-.5.3-1.1.6-1.6.6zm0-3c-.2 0-.4.1-.6.2-.3.3-.3.8 0 1.1s.8.3 1.1 0 .3-.8 0-1.1c-.1-.2-.3-.2-.5-.2h0z"/></g><use xlink:href="#J" x="-3.4" y="-181" class="W"/><g class="V"><use xlink:href="#O" x="-120.4" y="-181"/><use xlink:href="#R" x="-134.2" y="-181"/><use xlink:href="#O" x="-125.8" y="-181"/><use xlink:href="#O" x="-128.5" y="-181"/><use xlink:href="#O" x="-131.2" y="-181"/><path d="M567.8 247.3c.5-.1.8-.5.8-1v-6c.1-.4-.1-.8-.6-1s-.8.1-1 .6v6.4c-.1.5.3.9.8 1zm5.4 0c.5-.1.8-.5.8-1v-6c.1-.4-.1-.8-.5-1-.4-.1-.8.1-1 .5v6.4c-.1.6.3 1 .7 1.1z"/><use xlink:href="#V" x="-114.2"/></g><use xlink:href="#N" x="-3.4" y="-181.1" class="X Z a"/><use xlink:href="#O" x="-109.2" y="-181" class="V"/><path d="M531 228.2c-.9-.9-.9-2.2 0-3.1h0c.9-.8 2.3-.8 3.1.1.8.8.8 2.1 0 3-.4.4-1 .6-1.5.6-.6 0-1.2-.2-1.6-.6zm1-2.1c-.3.3-.3.8 0 1.1s.8.3 1.1 0 .3-.8 0-1.1h0c-.2-.1-.4-.2-.6-.2-.1-.1-.4 0-.5.2z" class="T U"/><path d="M553 71.8l2.7-6.1 6.6-.9h4l6.5.7 2.8 6.4c8.3 1.5 16.1 4.9 22.8 9.9h0c1.7.5 3.3 1.3 4.8 2.1-7.5-6.8-16.7-11.4-26.6-13.3l-2.8-6.4-7.3-.8h-4.2l-7.5 1.1-2.7 6.2c-10.7 2-20.5 7.2-28.2 14.9 1-.4 2-.7 3-.9 7.3-6.8 16.4-11.2 26.1-12.9z" class="S"/><path d="M619.4 124.3v-14.5a7.27 7.27 0 0 0-5.8-7.1c-4.8-15.4-19.5-27.4-38-30.9l-2.8-6.4-6.5-.7h-4l-6.6.9-2.7 6.1c-18.5 3.5-33.2 15.5-38 30.9a7.27 7.27 0 0 0-5.8 7.1v14.5c0 2.8 1.6 5.3 4.1 6.5v77.7c-2.5 1.2-4.1 3.7-4.1 6.5v14.5a7.17 7.17 0 0 0 7.2 7.2h95.8a7.17 7.17 0 0 0 7.2-7.2v-14.5c0-2.8-1.6-5.3-4.1-6.5l-.1-77.6c2.6-1.2 4.2-3.7 4.2-6.5zm-25.7 34.5c.1-1.2.6-2.3 1.3-3.2a3.47 3.47 0 0 1 1.9-1.2l11-4.5v40.6l-10.9-4.4c-.9-.5-1.6-1.2-2.2-2-.5-.8-.9-1.6-1.1-2.5v-22.8z" class="T"/><path d="M612.1 238.1h-95.8c-4.8 0-8.6-3.9-8.6-8.6V215c0-3 1.6-5.8 4.1-7.3v-76c-2.5-1.6-4.1-4.4-4.1-7.3v-14.5c0-3.8 2.5-7.1 6.1-8.2 5.2-15.5 19.7-27.2 38.2-31l2.7-6.2 7.5-1.1h4.2l7.3.8 2.8 6.4c18.5 3.7 33 15.5 38.2 31 3.6 1.1 6.1 4.5 6.1 8.2v14.5c0 3-1.6 5.8-4.2 7.4l.1 75.9c2.5 1.6 4.1 4.4 4.1 7.3v14.5c-.1 4.9-3.9 8.7-8.7 8.7zM556.6 66.9l-2.7 6.1-.7.1c-18.1 3.4-32.3 14.9-37 29.9l-.2.8-.8.2c-2.7.6-4.7 2.9-4.7 5.7v14.5c0 2.2 1.3 4.3 3.3 5.3l.8.4v79.4l-.8.4c-2 1-3.3 3-3.3 5.3v14.5c0 3.2 2.6 5.8 5.8 5.8h95.8c3.2 0 5.8-2.6 5.8-5.8V215c0-2.2-1.3-4.3-3.3-5.3l-.8-.4v-.9l-.1-78.5.8-.4c2.1-1 3.4-3 3.4-5.3v-14.5c0-2.8-1.9-5.2-4.7-5.7l-.8-.2-.2-.8c-4.7-15-18.9-26.5-37-29.9l-.7-.1-2.7-6.3-5.6-.6h-3.9l-5.7.8zm52.7 125.7l-13-5.2c-1.1-.6-2-1.4-2.7-2.5-.6-.9-1-1.9-1.3-3v-23.3c.2-1.5.7-2.9 1.7-4 .7-.8 1.5-1.3 2.5-1.6l12.8-5.2v44.8zm-11.8-7.7l9 3.6V152l-9.2 3.8c-.5.1-.9.4-1.2.8-.5.7-.9 1.5-1 2.4v22.6c.2.7.5 1.3.8 1.9.5.5 1 1 1.6 1.4z" class="S"/><path d="M557.2 84.9c9-1.9 13-5.2 22.8-5.7 4.8-.1 9.7.3 14.4 1.4-5.8-3.7-12.3-6.2-19.1-7.5l-.7-.1-2.7-6.3-5.6-.6h-3.9l-5.7.8L554 73l-.7.1c-8.8 1.6-17.1 5.4-24 11 6-.2 14 3.8 27.9.8z" class="T"/><path d="M572.8 65.4l-6.5-.7h-4l-6.6.9-2.7 6.1c-9.7 1.8-18.8 6.2-26.2 12.7.8-.2 1.6-.3 2.4-.3h0c6.9-5.6 15.2-9.4 24-11l.7-.1 2.7-6.1 5.7-.8h3.9l5.6.6 2.8 6.3.7.1c6.8 1.3 13.3 3.8 19.1 7.5 1.3.3 2.6.7 3.9 1.1-6.7-5-14.5-8.4-22.8-9.9l-2.7-6.4z" class="S"/><path d="M516.2 103.1l-.2.8-.8.2c-2.7.6-4.7 2.9-4.7 5.7v14.5c0 2.2 1.3 4.3 3.3 5.3l.8.4v79.4l-.8.4c-2 1-3.3 3-3.3 5.3v14.5c0 3.2 2.6 5.8 5.8 5.8h95.8c3.2 0 5.8-2.6 5.8-5.8v-14.5c0-2.2-1.3-4.3-3.3-5.3l-.8-.4v-.9l-.1-78.5.8-.4c2.1-1 3.4-3 3.4-5.3v-14.5c0-2.8-2-5.2-4.7-5.7l-.8-.2-.2-.8c-2.9-8.6-8.4-16-15.9-21.2a60.06 60.06 0 0 1-11.9 1.8c-7.5.2-9.7-1.4-17.2-1.8-7.1-.4-8.1.8-19.6 1.8-6.2.5-12.3.7-18.5.5-5.9 4.9-10.4 11.4-12.9 18.9zm76.1 55.5c.2-1.5.7-2.9 1.7-4 .7-.8 1.5-1.3 2.5-1.6l12.8-5.2v44.7l-12.9-5.2c-1.1-.6-2-1.4-2.7-2.5-.6-.9-1-1.9-1.3-3v-.3l-.1-22.9z" class="Y"/><g class="S"><path d="M612.6 133.1c.9 0 1.7-.1 2.6-.2V131h-102v1.7c1.2.2 2.4.4 3.6.4h95.8zm.7-29.9h1.8c-.5-.2-1-.4-1.5-.5l-.1-.2H515c0 .1-.1.2-.1.2-.4.1-.8.2-1.2.4l3.9.2 95.7-.1z"/><use xlink:href="#E" x="-121.5" y="-362.7"/><path d="M516.4 235.3h-4.2c1.2.9 2.7 1.4 4.2 1.4h95.8c1.5 0 3-.5 4.3-1.4H516.4z"/></g><use xlink:href="#J" x="-4.6" y="-362.7" class="W"/><g class="V"><use xlink:href="#o"/><use xlink:href="#U" x="-123.6" y="-181.7"/><use xlink:href="#U" x="-126.3" y="-181.7"/><use xlink:href="#U" x="-129" y="-181.7"/><use xlink:href="#U" x="-131.7" y="-181.7"/><use xlink:href="#o" x="2.7"/><use xlink:href="#p"/><use xlink:href="#p" x="-2.7"/></g><g class="T"><path d="M527.6 122.9a3.8 3.8 0 0 1 0-7.6 3.8 3.8 0 0 1 0 7.6h0zm0-6.2c-1.3 0-2.4 1.1-2.4 2.4s1.1 2.4 2.4 2.4 2.4-1.1 2.4-2.4-1-2.4-2.4-2.4h0zM514 218.8a3.8 3.8 0 0 1 7.6 0 3.8 3.8 0 0 1-7.6 0h0zm1.4 0c0 1.3 1.1 2.4 2.4 2.4s2.4-1.1 2.4-2.4-1.1-2.4-2.4-2.4h0c-1.3 0-2.4 1.1-2.4 2.4h0z"/><use xlink:href="#q" class="U"/><path d="M580.8 144a3.8 3.8 0 1 1 3.8 3.8h0a3.8 3.8 0 0 1-3.8-3.8zm1.4 0c0 1.3 1.1 2.4 2.4 2.4s2.4-1.1 2.4-2.4-1.1-2.4-2.4-2.4h0c-1.3 0-2.4 1-2.4 2.4h0zm-25.7 26.2a3.8 3.8 0 0 1 7.6 0 3.8 3.8 0 0 1-7.6 0h0zm1.4 0c0 1.3 1.1 2.4 2.4 2.4s2.4-1.1 2.4-2.4-1.1-2.4-2.4-2.4h0c-1.3 0-2.4 1-2.4 2.4h0z"/><use xlink:href="#r"/><path d="M525.2 173.1c-2.9-1.7-3.9-5.4-2.2-8.3s5.4-3.9 8.3-2.2 3.9 5.4 2.2 8.3c-.8 1.4-2.1 2.4-3.7 2.8-.5.1-1.1.2-1.6.2-1.1 0-2.1-.3-3-.8zm-1-7.7c-1.3 2.3-.5 5.1 1.7 6.4 2.3 1.3 5.1.5 6.5-1.7 1.3-2.3.5-5.1-1.7-6.5-2.3-1.2-5.2-.5-6.5 1.8h0z"/><path d="M572.7 119.7c-1.4-.8-2.4-2.1-2.9-3.7-.9-3.3 1.1-6.6 4.3-7.5s6.6 1.1 7.5 4.3c.9 3.3-1.1 6.6-4.3 7.5-.5.1-1.1.2-1.6.2-1.1 0-2.1-.3-3-.8zm-1-7.7c-1.3 2.3-.5 5.1 1.7 6.4 2.3 1.3 5.1.5 6.4-1.7 1.3-2.3.5-5.1-1.7-6.4h0c-.7-.4-1.5-.6-2.3-.6-1.7 0-3.3.8-4.1 2.3h0zm-20.9 89.1c-2.9-1.7-3.9-5.4-2.2-8.3h0c1.7-2.9 5.4-3.9 8.3-2.2s3.9 5.4 2.2 8.3c-1.1 1.9-3.1 3.1-5.3 3-1.1 0-2.1-.3-3-.8zm-1-7.7c-1.3 2.3-.5 5.1 1.7 6.4 2.3 1.2 5.2.4 6.4-1.9 1.2-2.2.4-4.9-1.7-6.2-2.2-1.3-5.1-.5-6.4 1.7h0zm49.9 36.8c-3-1.6-4-5.3-2.4-8.3s5.3-4 8.3-2.4c.1 0 .1.1.2.1 2.9 1.7 3.9 5.4 2.2 8.3h0c-.8 1.4-2.1 2.4-3.7 2.8-.5.1-1.1.2-1.6.2-1 .1-2-.2-3-.7zm1.9-9.8c-1.2.3-2.2 1.1-2.9 2.2h0c-1.3 2.3-.5 5.1 1.7 6.4 2.3 1.3 5.1.5 6.4-1.7 1.3-2.3.5-5.1-1.7-6.4-.7-.4-1.5-.6-2.3-.6-.4-.1-.8-.1-1.2.1z" class="U"/><path d="M603.7 124.3a3.8 3.8 0 1 1 3.8 3.8c-2.1.1-3.8-1.6-3.8-3.8zm1.4 0c0 1.3 1.1 2.4 2.4 2.4s2.4-1.1 2.4-2.4-1.1-2.4-2.4-2.4-2.4 1.1-2.4 2.4h0zm-21.2 63c-.9-.9-.9-2.2 0-3.1h0c.9-.9 2.2-.9 3.1 0s.9 2.2 0 3.1c-.4.4-1 .6-1.5.6-.6.1-1.2-.1-1.6-.6zm1-2.1c-.3.3-.3.8 0 1.1h0c.3.3.8.3 1.1 0s.3-.8 0-1.1h0c-.1-.1-.3-.2-.6-.2-.2 0-.4.1-.5.2h0zm21.4-41.1c-.9-.8-.9-2.2 0-3.1h0c.9-.9 2.2-.9 3.1 0s.9 2.2 0 3.1c-.8.9-2.2.9-3.1 0zm1-2.1c-.3.3-.3.8 0 1.1h0c.3.3.8.3 1.1 0s.3-.8 0-1.1h0c-.2-.3-.7-.3-1.1 0zm-57.5-49.5c-.9-.8-.9-2.2 0-3.1h0c.8-.9 2.2-.9 3.1-.1s.9 2.2.1 3.1l-.1.1c-.4.4-1 .6-1.5.6-.6 0-1.2-.2-1.6-.6zm1-2.1c-.3.3-.3.8 0 1.1s.8.3 1.1 0 .3-.8 0-1.1c-.2-.1-.4-.2-.6-.2-.1 0-.3 0-.5.2h0z"/></g><path d="M666.1 71.8l2.7-6.1 6.6-1h4l6.5.7 2.8 6.4c8.3 1.5 16.1 4.9 22.8 9.9h0c1.7.5 3.2 1.2 4.8 2.1-7.5-6.8-16.7-11.4-26.6-13.3l-2.8-6.4-7.3-.8h-4.2l-7.5 1.1-2.7 6.2c-10.7 2-20.5 7.2-28.2 14.9 1-.4 2-.7 3-.9 7.3-6.6 16.3-11 26.1-12.8z" class="S"/><path d="M732.5 124.3v-14.5a7.27 7.27 0 0 0-5.8-7.1c-4.8-15.4-19.5-27.4-38-30.9l-2.8-6.4-6.5-.7h-4l-6.6 1-2.7 6.1c-18.5 3.5-33.2 15.5-38 30.9a7.27 7.27 0 0 0-5.8 7.1v14.5c0 2.8 1.6 5.3 4.1 6.5v77.7c-2.5 1.2-4.1 3.7-4.1 6.5v14.5a7.17 7.17 0 0 0 7.2 7.2h95.8a7.17 7.17 0 0 0 7.2-7.2V215c0-2.8-1.6-5.3-4.1-6.5l-.1-77.6c2.6-1.2 4.2-3.8 4.2-6.6zm-25.7 34.6c.1-1.2.6-2.3 1.3-3.2a3.47 3.47 0 0 1 1.9-1.2l11-4.5v40.6l-10.9-4.4c-.9-.5-1.6-1.1-2.2-2-.5-.8-.9-1.6-1.1-2.5v-22.8z" class="T"/><path d="M725.3 238.2h-95.8c-4.8 0-8.6-3.9-8.6-8.6V215c0-3 1.6-5.8 4.1-7.3v-76c-2.5-1.6-4.1-4.3-4.1-7.3v-14.5c0-3.8 2.5-7.1 6.1-8.2 5.2-15.4 19.7-27.2 38.2-31l2.7-6.2 7.5-1.1h4.2l7.3.8 2.8 6.4c18.5 3.7 33 15.5 38.2 30.9 3.6 1.1 6.1 4.5 6.1 8.2v14.5c0 3-1.6 5.8-4.2 7.4l.1 75.9c2.5 1.6 4.1 4.4 4.1 7.3v14.5c-.1 5-4 8.9-8.7 8.9zM669.8 67l-2.7 6.1-.7.1c-18.1 3.4-32.3 14.9-37 29.9l-.2.8-.8.2c-2.7.6-4.7 3-4.7 5.7v14.5c0 2.2 1.3 4.3 3.4 5.2l.8.4v79.4l-.8.4c-2 1-3.3 3-3.3 5.3v14.5c0 3.2 2.6 5.8 5.8 5.8h95.8c3.2 0 5.8-2.6 5.8-5.8V215c0-2.2-1.3-4.3-3.3-5.3l-.8-.4v-.9L727 130l.8-.4c2.1-1 3.4-3 3.4-5.3v-14.5c0-2.8-2-5.2-4.7-5.7l-.8-.2-.2-.8c-4.7-15-18.9-26.5-37-29.9l-.7-.1-2.8-6.3-5.6-.6h-3.9l-5.7.8zm52.6 125.6l-13-5.2c-1.1-.6-2-1.4-2.7-2.5-.6-.9-1-1.9-1.3-3v-23.3c.2-1.5.7-2.8 1.7-3.9.6-.8 1.5-1.3 2.5-1.6l12.8-5.2v44.7zm-11.7-7.6l9 3.6v-36.5l-9.2 3.8c-.5.1-.9.4-1.2.8-.5.7-.9 1.5-1 2.4v22.6c.2.7.5 1.3.8 1.9.4.5.9 1 1.6 1.4z" class="S"/><path d="M670.3 85c9-1.9 13-5.2 22.8-5.7 4.8-.1 9.7.3 14.4 1.4-5.8-3.7-12.3-6.2-19.1-7.5l-.7-.1-2.8-6.3-5.6-.6h-3.9l-5.7.8-2.7 6.1-.7.1c-8.8 1.6-17.1 5.4-24 11 6.1-.2 14.2 3.8 28 .8z" class="T"/><path d="M685.9 65.5l-6.5-.7h-4l-6.6 1-2.7 6.1c-9.7 1.8-18.8 6.2-26.2 12.7.8-.2 1.6-.3 2.4-.3h0c6.9-5.6 15.2-9.4 24-11l.7-.1 2.6-6.2 5.7-.8h3.9l5.6.6 2.8 6.3.7.1c6.8 1.2 13.3 3.8 19.1 7.5 1.3.3 2.6.7 3.9 1.1-6.7-5-14.5-8.4-22.8-9.9-.7-2.2-1.7-4.3-2.6-6.4z" class="S"/><path d="M629.4 103.1l-.2.8-.8.2c-2.7.6-4.7 3-4.7 5.7v14.5c0 2.2 1.3 4.3 3.3 5.3l.8.4v79.4l-.8.4c-2 1-3.3 3-3.3 5.3v14.5c0 3.2 2.6 5.8 5.8 5.8h95.8c3.2 0 5.8-2.6 5.8-5.8V215c0-2.2-1.3-4.3-3.3-5.3l-.8-.4v-.9l-.1-78.4.8-.4c2.1-1 3.4-3 3.4-5.3v-14.5c0-2.8-2-5.2-4.7-5.7l-.8-.2-.2-.8c-2.9-8.6-8.4-16-15.9-21.1-2.9.5-7 1.1-11.9 1.7-5.3.6-9.4 1.2-13.9 1.3-5.5.2-11-.1-16.5-.8-8.3-.8-16.6-.8-24.8.2-6.1 4.8-10.6 11.3-13 18.7zm76.1 55.6c.2-1.5.7-2.9 1.7-4 .7-.8 1.5-1.3 2.5-1.6l12.8-5.2v44.7l-13-5.2c-1.1-.6-2-1.4-2.7-2.5-.6-.9-1-1.9-1.3-3v-23.2z" class="Y"/><g class="S"><path d="M725.7 133.2c.9 0 1.7-.1 2.6-.2v-1.9H626.4v1.7c1.2.2 2.4.4 3.6.4h95.7zm.8-30h1.8c-.5-.2-1-.4-1.5-.5 0-.1 0-.2-.1-.3h-98.5l-.1.3c-.4.1-.8.2-1.2.4l3.9.2 95.7-.1z"/><use xlink:href="#E" x="-8.4" y="-362.6"/><use xlink:href="#F" x="-8.4" y="-362.6"/></g><use xlink:href="#J" x="108.6" y="-362.6" class="W"/><g class="V"><use xlink:href="#R" x="-18" y="-363.1"/><use xlink:href="#R" x="-20.7" y="-363.1"/><use xlink:href="#R" x="-23.4" y="-363.1"/><use xlink:href="#O" x="-15" y="-363.1"/><use xlink:href="#P" x="-6.9" y="-363.1"/><use xlink:href="#O" x="-4.1" y="-363.1"/><use xlink:href="#V" x="2" y="-182.1"/><use xlink:href="#V" x="-0.7" y="-182.1"/></g><g class="T"><use xlink:href="#G" x="41.1" y="-462"/><path d="M652.8 201.9a3.8 3.8 0 1 1 0-7.6 3.8 3.8 0 0 1 3.8 3.8h0a3.8 3.8 0 0 1-3.8 3.8zm0-6.3c-1.3 0-2.4 1.1-2.4 2.4s1.1 2.4 2.4 2.4 2.4-1.1 2.4-2.4h0c0-1.3-1.1-2.4-2.4-2.4h0z"/><path d="M646.5 98.6a3.8 3.8 0 0 1 0-7.6 3.8 3.8 0 1 1 0 7.6h0zm0-6.3c-1.3 0-2.4 1.1-2.4 2.5s1.1 2.4 2.5 2.4c1.3 0 2.4-1.1 2.4-2.4 0-1.4-1.1-2.5-2.5-2.5h0z" class="U"/><path d="M687.2 201.9a3.8 3.8 0 0 1 7.6 0 3.8 3.8 0 0 1-7.6 0h0zm1.4 0c0 1.3 1.1 2.4 2.4 2.4s2.4-1.1 2.4-2.4-1.1-2.4-2.4-2.4c-1.4-.1-2.4 1-2.4 2.4h0zm5.4-57.8a3.8 3.8 0 0 1 7.6 0 3.8 3.8 0 0 1-7.6 0h0zm1.4 0c0 1.3 1.1 2.4 2.4 2.4s2.4-1.1 2.4-2.4-1.1-2.4-2.4-2.4h0c-1.3-.1-2.4 1-2.4 2.4h0zm14.8-25.8a3.8 3.8 0 1 1 3.8 3.8h0a3.8 3.8 0 0 1-3.8-3.8zm1.4 0c0 1.3 1.1 2.4 2.4 2.4s2.4-1.1 2.4-2.4-1.1-2.4-2.4-2.4h0c-1.3 0-2.4 1.1-2.4 2.4h0z"/><use xlink:href="#q" x="117.2" y="84.8"/><use xlink:href="#s" class="U"/><path d="M639.6 170.1c-2.9-1.7-3.9-5.4-2.2-8.3s5.5-3.9 8.4-2.2 3.9 5.5 2.2 8.4c-.8 1.4-2.1 2.4-3.7 2.8-.5.1-1.1.2-1.6.2-1.1-.1-2.1-.4-3.1-.9zm-1-7.7c-1.3 2.3-.5 5.1 1.7 6.4 2.3 1.3 5.1.5 6.4-1.7 1.3-2.3.5-5.1-1.7-6.4-.7-.4-1.5-.6-2.4-.6-1.6 0-3.1.9-4 2.3h0z"/><path d="M630 118.9c-2.9-1.7-3.9-5.4-2.2-8.4 1.7-2.9 5.4-3.9 8.4-2.2 2.9 1.7 3.9 5.4 2.2 8.4-.8 1.4-2.1 2.4-3.7 2.9-.5.1-1.1.2-1.6.2-1.1-.1-2.2-.4-3.1-.9zm-1-7.7c-1.3 2.3-.5 5.1 1.7 6.5 2.3 1.3 5.1.5 6.5-1.7 1.3-2.3.5-5.1-1.7-6.5h0c-.7-.4-1.5-.6-2.3-.6-1.8 0-3.4.9-4.2 2.3z" class="U"/><path d="M670.8 150.1c-1.4-.8-2.4-2.1-2.8-3.7s-.2-3.2.6-4.6h0c1.7-2.9 5.5-3.9 8.4-2.2s3.9 5.5 2.2 8.4c-.8 1.4-2.1 2.4-3.6 2.8-.5.1-1.1.2-1.6.2-1.2-.1-2.2-.4-3.2-.9zm-1-7.7c-.6 1.1-.8 2.4-.5 3.6s1.1 2.2 2.2 2.9c2.3 1.3 5.1.5 6.4-1.7 1.2-2.3.3-5.2-2-6.4-2.1-1.1-4.8-.4-6.1 1.6h0z"/><path d="M712.9 230.3c-2.9-1.7-3.9-5.4-2.2-8.4.8-1.4 2.1-2.4 3.7-2.8 3.3-.9 6.6 1.1 7.5 4.3s-1.1 6.6-4.3 7.5c-.5.1-1.1.2-1.6.2-1.2 0-2.2-.3-3.1-.8zm1.8-9.9c-1.2.3-2.2 1.1-2.9 2.2h0c-1.4 2.2-.8 5.1 1.4 6.5s5.1.8 6.5-1.4c.1-.1.1-.2.2-.4 1.3-2.3.5-5.1-1.7-6.4-.7-.4-1.5-.6-2.3-.6-.4 0-.8 0-1.2.1h0z" class="U"/><path d="M679.2 111.2c-.9-.8-.9-2.2 0-3.1h0c.9-.9 2.2-.9 3.1 0s.9 2.2 0 3.1-2.3.9-3.1 0zm1-2.1c-.3.3-.3.8 0 1.1h0c.3.3.8.3 1.1 0s.3-.8 0-1.1h0c-.1-.1-.3-.2-.6-.2-.2 0-.4.1-.5.2h0zm17.7 107.4c-.9-.9-.9-2.2 0-3.1h0c.9-.9 2.2-.9 3.1 0s.9 2.2 0 3.1c-.4.4-1 .6-1.5.6-.7.1-1.2-.2-1.6-.6zm1-2.1c-.3.3-.3.8 0 1.1h0c.3.3.8.3 1.1 0s.3-.8 0-1.1h0c-.3-.3-.8-.3-1.1 0h0zm-32-40.4c-.9-.9-.9-2.2 0-3.1h0c.8-.9 2.2-.9 3.1-.1s.9 2.2.1 3.1l-.1.1c-.4.4-1 .6-1.5.6-.6 0-1.2-.2-1.6-.6zm1-2.1c-.3.3-.3.8 0 1.1h0c.3.3.8.3 1.1 0s.3-.8 0-1.1h0c-.3-.3-.8-.3-1.1 0z"/></g><use xlink:href="#J" x="-4.6" y="-362.7" class="W"/><g class="V"><use xlink:href="#L" x="0.9" y="-362.7"/><use xlink:href="#Q" x="-132.4" y="-362.7"/><use xlink:href="#t"/><use xlink:href="#t" x="-2.7"/><use xlink:href="#V" x="-131.7" y="-181.7"/><path d="M566.6 65.6c.4 0 .8-.4.8-1v-6c.1-.4-.1-.8-.5-1-.4-.1-.8.1-1 .5v6.4c-.1.6.2 1.1.7 1.1z"/><use xlink:href="#Q" x="-121.5" y="-362.7"/><path d="M569.4 65.6c.4 0 .8-.4.8-1v-6c.1-.4-.1-.8-.5-1-.4-.1-.8.1-1 .5v6.4c-.2.6.2 1.1.7 1.1z"/></g><use xlink:href="#N" x="-4.6" y="-362.7" class="X Z a"/><use xlink:href="#V" x="-109.7" y="-181.7" class="V"/><use xlink:href="#J" x="108.6" y="-362.6" class="W"/><g class="V"><use xlink:href="#u"/><use xlink:href="#u" x="-2.7"/><use xlink:href="#u" x="-5.4"/><use xlink:href="#u" x="-8.1"/><use xlink:href="#u" x="-10.8"/><path d="M679.7 65.8c.4 0 .8-.4.8-1v-6c.1-.4-.1-.8-.5-1-.4-.1-.8.1-1 .5v6.4c-.1.5.3 1 .7 1.1z"/><use xlink:href="#v"/><use xlink:href="#v" x="-2.7"/></g><use xlink:href="#N" x="108.6" y="-362.6" class="X Z a"/><use xlink:href="#u" x="11.2" class="V"/><path d="M620.5-57.5V-72a7.27 7.27 0 0 0-5.8-7.1c-4.8-15.4-19.5-27.4-38-30.9l-2.8-6.4-6.5-.7h-4l-6.6 1-2.7 6.1c-18.5 3.5-33.2 15.5-38 30.9-3.4.6-5.9 3.6-5.9 7v14.5c0 2.8 1.6 5.3 4.1 6.5v77.6c-2.5 1.2-4.1 3.7-4.1 6.5v14.5a7.17 7.17 0 0 0 7.2 7.2h95.8a7.17 7.17 0 0 0 7.2-7.2V33.2c0-2.8-1.6-5.3-4.1-6.5l-.1-77.6c2.6-1.2 4.3-3.8 4.3-6.6zM594.8-23c.1-1.2.6-2.3 1.3-3.2.5-.6 1.1-1 1.8-1.2l11-4.5V8.7L598 4.3c-.9-.5-1.6-1.2-2.2-2-.5-.8-.9-1.6-1.1-2.5V-23h.1z" class="T"/><path d="M613.2 56.3h-95.8c-4.8 0-8.6-3.9-8.6-8.6V33.2c0-3 1.6-5.8 4.1-7.3v-76c-2.5-1.6-4.1-4.4-4.1-7.3V-72c0-3.8 2.5-7.1 6.1-8.2 5.2-15.4 19.7-27.2 38.2-30.9l2.7-6.2 7.5-1.1h4.2l7.3.8 2.8 6.4c18.5 3.7 33 15.5 38.2 31 3.6 1.1 6.1 4.4 6.1 8.2v14.5c0 3-1.6 5.8-4.2 7.4l.1 75.9c2.5 1.6 4.1 4.4 4.1 7.3v14.5c-.1 4.9-3.9 8.7-8.7 8.7zm-55.5-171.2l-2.7 6.1-.7.1c-18.1 3.4-32.3 14.9-37 29.9l-.2.8-.8.2c-2.7.6-4.6 3-4.6 5.8v14.5c0 2.2 1.3 4.3 3.3 5.3l.8.4v79.4l-.8.4c-2 1-3.3 3-3.3 5.2v14.5c0 3.2 2.6 5.8 5.8 5.8h95.8c3.2 0 5.8-2.6 5.8-5.8V33.2c0-2.2-1.3-4.3-3.3-5.2l-.8-.4v-.9l-.1-78.5.8-.4c2.1-1 3.4-3 3.4-5.3V-72c0-2.8-2-5.2-4.7-5.7l-.8-.2-.2-.8c-4.7-15-18.9-26.5-37-29.9l-.7-.1-2.8-6.3-5.6-.6h-3.9l-5.7.7zm52.7 125.7l-13-5.2c-1.1-.6-2-1.4-2.7-2.5-.6-.9-1-1.9-1.3-3v-23.3c.2-1.5.7-2.8 1.7-4 .7-.8 1.5-1.3 2.5-1.6l12.8-5.2v44.8zm-11.8-7.7l9 3.6v-36.5l-9.3 3.8c-.5.1-.9.4-1.2.8-.5.7-.9 1.5-1 2.4V-.3c.2.7.5 1.3.8 1.9.5.6 1.1 1.1 1.7 1.5z" class="S"/><path d="M517.3-78.7l-.2.8-.8.2c-2.7.6-4.7 3-4.7 5.8v14.5c0 2.2 1.3 4.3 3.3 5.3l.8.4v79.4l-.8.4c-2 1-3.3 3-3.3 5.2v14.5c0 3.2 2.6 5.8 5.8 5.8h95.8c3.2 0 5.8-2.6 5.8-5.8V33.2c0-2.2-1.3-4.3-3.3-5.2l-.8-.4v-.9l-.1-78.5.8-.4c2.1-1 3.4-3 3.4-5.3V-72c0-2.8-2-5.2-4.7-5.7l-.8-.2-.2-.8c-1.5-4.6-3.8-8.8-6.8-12.6-2.6-3.3-5.7-6.2-9.1-8.6-3.6 1.5-7.4 2.6-11.2 3.2-5.8.8-8.6.1-14.6-.2-13.5-.7-16 2.4-28.3 1.5-4.4-.3-8.8-1.1-13.1-2.2-5.9 4.9-10.4 11.5-12.9 18.9zm76.1 55.5c.2-1.5.7-2.8 1.7-4 .6-.8 1.5-1.3 2.5-1.6l12.8-5.2v44.7l-12.9-5.2c-1.1-.6-2-1.4-2.7-2.5-.6-.9-1-1.9-1.3-3v-.3l-.1-22.9z" class="Y"/><use xlink:href="#E" x="-120.4" y="-544.5" class="S"/><g class="T"><use xlink:href="#r" x="-49.3" y="-187.9"/><use xlink:href="#s" x="-99" y="-164.3"/><path d="M605.2 50.9c-2.9-1.7-3.9-5.4-2.2-8.3h0c1.7-2.9 5.5-3.8 8.4-2.1 2.8 1.7 3.8 5.3 2.2 8.2-.8 1.4-2.1 2.4-3.7 2.8-.5.1-1.1.2-1.6.2-1.2.1-2.2-.2-3.1-.8zm-1-7.6c-1.1 2.3-.2 5.2 2.2 6.3 2.1 1 4.6.3 6-1.6 1.3-2.3.5-5.1-1.7-6.4-.7-.4-1.5-.6-2.3-.6-1.9-.1-3.4.8-4.2 2.3h0zM533.4 12c-2.9-1.7-3.9-5.4-2.2-8.3h0c1.7-2.9 5.5-3.9 8.4-2.2s3.9 5.5 2.2 8.4c-.8 1.4-2.1 2.4-3.6 2.8-.5.1-1.1.2-1.6.2-1.3 0-2.3-.3-3.2-.9zm-1-7.6c-.7 1.1-.8 2.4-.5 3.6.7 2.5 3.3 4 5.8 3.3s4-3.3 3.3-5.8c-.3-1.2-1.1-2.2-2.2-2.8-.7-.4-1.5-.7-2.3-.7-1.8 0-3.3.9-4.1 2.4h0zM554 50.9c-2.9-1.7-3.9-5.4-2.2-8.4 1.7-2.9 5.4-3.9 8.4-2.2s3.9 5.4 2.2 8.4c-.8 1.4-2.1 2.4-3.7 2.9-.5.1-1.1.2-1.6.2-1.1 0-2.2-.3-3.1-.9zm1.8-9.8c-1.2.3-2.2 1.1-2.8 2.2h0c-1.5 2.1-1.1 5.1 1 6.6s5.1 1.1 6.6-1c.2-.3.4-.6.5-.9 1.3-2.3.5-5.1-1.7-6.4-.7-.4-1.6-.6-2.4-.6-.4-.1-.8 0-1.2.1h0zM585 5.6c-.9-.8-.9-2.2 0-3.1h0c.9-.9 2.2-.9 3.1 0s.9 2.2 0 3.1a2.3 2.3 0 0 1-3.1 0zm1-2.1c-.3.3-.3.8 0 1.1h0c.3.3.8.3 1.1 0s.3-.8 0-1.1c-.1-.1-.4-.2-.6-.2-.1-.1-.3 0-.5.2zm13 31.2c-.9-.9-.9-2.2 0-3.1h0c.9-.9 2.2-.9 3.1 0s.9 2.2 0 3.1c-.4.4-1 .6-1.5.6-.6.1-1.2-.1-1.6-.6zm1-2.1c-.3.3-.3.8 0 1.1h0c.3.3.8.3 1.1 0s.3-.8 0-1.1h0c-.3-.3-.8-.3-1.1 0zm133.6-90V-72c0-3.4-2.5-6.3-5.8-7-4.8-15.4-19.5-27.4-38-30.9l-2.8-6.4-6.5-.8h-4l-6.6 1-2.7 6.1c-18.5 3.5-33.2 15.5-38 30.9a7.35 7.35 0 0 0-5.9 7v14.5c0 2.8 1.6 5.3 4.1 6.5v77.7c-2.5 1.2-4.1 3.7-4.1 6.5v14.5a7.17 7.17 0 0 0 7.2 7.2h95.8a7.17 7.17 0 0 0 7.2-7.2V33.2c0-2.8-1.6-5.3-4.1-6.5l-.1-77.6c2.6-1.1 4.3-3.7 4.3-6.5zM708-22.9c.1-1.2.6-2.3 1.3-3.2a3.47 3.47 0 0 1 1.9-1.2l11-4.5V8.8l-11-4.4c-.9-.5-1.6-1.2-2.2-2-.5-.8-.8-1.6-1-2.5v-22.8z"/></g><path d="M726.3 56.4h-95.7c-4.8 0-8.6-3.9-8.6-8.6V33.2c0-3 1.6-5.8 4.1-7.3v-76c-2.5-1.6-4.1-4.4-4.1-7.3V-72c0-3.8 2.5-7.1 6.1-8.2 5.2-15.4 19.7-27.2 38.2-30.9l2.7-6.2 7.5-1.1h4.2l7.3.8 2.8 6.4c18.5 3.7 33 15.5 38.1 31 3.6 1.1 6 4.4 6.1 8.2v14.5c0 3-1.6 5.8-4.2 7.4l.1 75.9c2.6 1.6 4.1 4.4 4.1 7.4v14.5a8.71 8.71 0 0 1-8.7 8.7zm-55.5-171.2l-2.7 6.1-.7.1c-18.1 3.4-32.3 14.9-37 29.9l-.2.8-.8.2c-2.7.6-4.6 2.9-4.6 5.7v14.5c0 2.2 1.3 4.3 3.3 5.3l.8.4v79.4l-.8.4c-2 1-3.3 3-3.3 5.3v14.6c0 3.2 2.6 5.8 5.8 5.8h95.7c3.2 0 5.8-2.6 5.8-5.8V33.2c0-2.2-1.3-4.3-3.3-5.2l-.8-.4v-.9l-.1-78.5.8-.4c2.1-1 3.4-3 3.4-5.3V-72c0-2.8-2-5.2-4.7-5.7l-.8-.2-.2-.8c-4.7-15-18.9-26.5-37-29.9l-.7-.1-2.7-6.3-5.6-.6h-3.9l-5.7.8zm52.7 125.7l-13-5.2c-1.1-.6-2-1.4-2.7-2.5-.6-.9-1-1.9-1.3-3v-23.3c.2-1.5.7-2.9 1.7-4 .7-.8 1.5-1.3 2.5-1.6l12.8-5.2v44.8zm-11.7-7.7l9 3.6v-36.5l-9.2 3.8c-.5.1-.9.4-1.2.8-.5.7-.9 1.5-1 2.4V-.1c.2.7.5 1.3.8 1.9.4.5.9 1 1.6 1.4z" class="S"/><path d="M630.5-78.6l-.2.8-.8.2c-2.7.6-4.6 2.9-4.7 5.7v14.5c0 2.2 1.3 4.3 3.3 5.3l.8.4v79.4l-.8.4c-2 1-3.3 3-3.3 5.3V48c0 3.2 2.6 5.8 5.8 5.8h95.7c3.2 0 5.8-2.6 5.8-5.8V33.2c0-2.2-1.3-4.3-3.3-5.2l-.8-.4v-.9l-.1-78.5.8-.4c2.1-1 3.4-3 3.4-5.3V-72c0-2.8-2-5.2-4.7-5.7l-.8-.2-.2-.8c-1.5-4.6-3.8-8.8-6.8-12.6-2.2-2.7-4.7-5.2-7.4-7.3-4.3 1-8.6 1.5-13 1.5-5.4 0-8.1-.6-13.4-1.2-6.2-.7-8.8 0-17.6.6-8.3.5-16.6.5-24.8.2-6 4.9-10.5 11.4-12.9 18.9zm76.1 55.5c.2-1.5.7-2.9 1.7-4 .7-.8 1.5-1.3 2.5-1.6l12.8-5.2v44.8l-12.9-5.2c-1.1-.6-2-1.4-2.7-2.5-.6-.9-1-1.9-1.3-3v-.3l-.1-23z" class="Y"/><use xlink:href="#E" x="-7.3" y="-544.4" class="S"/><g class="T"><path d="M628.2 37.1a3.8 3.8 0 1 1 3.8 3.8h0c-2 0-3.7-1.7-3.8-3.8zm1.4 0c0 1.3 1.1 2.4 2.4 2.4s2.4-1.1 2.4-2.4-1.1-2.4-2.4-2.4-2.4 1.1-2.4 2.4h0zm49 6.1a3.8 3.8 0 0 1 7.6 0 3.8 3.8 0 0 1-7.6 0zm1.4 0c0 1.3 1.1 2.4 2.4 2.4s2.4-1.1 2.4-2.4-1.1-2.4-2.4-2.4h0c-1.3 0-2.4 1.1-2.4 2.4h0zm36.2-19.1c-1.4-.8-2.4-2.1-2.8-3.7s-.2-3.2.6-4.6c1.6-3 5.3-4 8.3-2.4s4 5.3 2.4 8.3c0 .1-.1.1-.1.2-.8 1.4-2.1 2.4-3.7 2.9a7.03 7.03 0 0 1-4.7-.7h0zm-1-7.7c-1.3 2.3-.5 5.1 1.7 6.4s5.1.5 6.4-1.7h0c1.3-2.3.5-5.1-1.7-6.4s-5-.5-6.4 1.7zm-76.4-2.3c-2.9-1.7-3.9-5.4-2.2-8.3h0c1.7-2.9 5.5-3.9 8.4-2.2s3.9 5.5 2.2 8.4c-.8 1.4-2.1 2.4-3.7 2.8-.5.1-1.1.2-1.6.2-1.1-.1-2.1-.4-3.1-.9zm-1-7.6c-1.3 2.3-.5 5.1 1.7 6.4s5.1.5 6.4-1.7c1.3-2.3.5-5.1-1.7-6.4-.7-.4-1.5-.6-2.3-.6-1.7-.1-3.2.8-4.1 2.3h0zm76.2 42c-1.4-.8-2.4-2.1-2.8-3.7-.9-3.3 1.1-6.6 4.3-7.5 3.3-.9 6.6 1.1 7.5 4.3.9 3.3-1.1 6.6-4.3 7.5-.5.1-1.1.2-1.6.2-1.1 0-2.2-.3-3.1-.8zm1.8-9.8c-1.2.3-2.2 1.1-2.9 2.2h0c-1.3 2.3-.5 5.1 1.7 6.4s5.1.5 6.4-1.7c1.3-2.3.5-5.1-1.7-6.4-.7-.4-1.5-.6-2.4-.6-.3-.1-.7 0-1.1.1h0zM672.3 17c-.9-.9-.9-2.2 0-3.1h0c.9-.9 2.2-.9 3.1 0s.9 2.2 0 3.1c-.4.4-1 .6-1.5.6-.6 0-1.2-.2-1.6-.6zm1-2.1c-.3.3-.3.8 0 1.1h0c.3.3.8.3 1.1 0s.3-.8 0-1.1h0c-.3-.3-.8-.3-1.1 0z"/><path d="M645.3 43.5c-.9-.9-.9-2.2 0-3.1h0c.9-.9 2.2-.9 3.1 0s.9 2.2 0 3.1c-.4.4-1 .7-1.6.6-.6 0-1.1-.2-1.5-.6zm1-2.1c-.3.3-.3.8 0 1.1s.8.3 1.1 0 .3-.8 0-1.1h0c-.2-.1-.4-.2-.6-.2-.2-.1-.4 0-.5.2h0z" class="U"/></g></svg>