<svg xmlns="http://www.w3.org/2000/svg" xmlns:xlink="http://www.w3.org/1999/xlink" viewBox="0 0 858.38 776.68"><defs><style>.cls-1{fill:none;}.cls-2{fill:#e8e8e9;}.cls-3{fill:#1d1d1b;}.cls-4{fill:#aecdcf;}.cls-5,.cls-9{fill:#fff;}.cls-5{stroke:#000;stroke-miterlimit:10;}.cls-6{fill:#d0d6ff;}.cls-7{clip-path:url(#clip-path);}.cls-8{fill:#a6c6ff;}.cls-10{opacity:0.66;}.cls-11{fill:#e00028;}.cls-12{fill:#b7042b;}.cls-13{fill:#3d4444;}.cls-14{fill:#313838;}.cls-15{fill:#9c9b9b;}.cls-16{fill:#aa0b35;opacity:0.72;}.cls-17{font-size:16px;font-family:Poppins-Regular, Poppins;}.cls-18{font-size:37px;}.cls-18,.cls-20{font-family:Poppins-Medium, Poppins;font-weight:500;}.cls-19{font-family:Poppins-SemiBold, Poppins;font-weight:600;}.cls-20{font-size:18px;}</style><clipPath id="clip-path"><path class="cls-1" d="M296.58,579.29a44.59,44.59,0,0,1-.74-7.51,294.86,294.86,0,0,1,.94-36c0-.31.05-.61.08-.92a17.55,17.55,0,0,0,0-6.11,18.58,18.58,0,0,0-2.66-6.64c-3.92-6.53-8.64-12.94-10.41-15.32l.06-4.39H276l.06,4.39c-1.78,2.38-6.49,8.79-10.42,15.32a18.74,18.74,0,0,0-2.65,6.64,17.31,17.31,0,0,0,0,6.11c0,.31.05.61.08.92a292.85,292.85,0,0,1,.93,36,43.54,43.54,0,0,1-.74,7.51c-.51,2.6-1.06,4-1,6.58,0,1.49.19,1.1.47,4.41.3,3.47.18,4.32.71,6.11.43,1.42.82,2.72,2,3.4,1.46.85,3.41.3,5.65-.33s2.24-1,3.17-.92c2.38.26,2.66,3.12,4.58,3.25h2.22c1.93-.13,2.2-3,4.59-3.25.93-.1,1,.32,3.16.92s4.2,1.18,5.66.33c1.16-.68,1.56-2,2-3.4.54-1.79.42-2.64.71-6.11.28-3.31.46-2.92.47-4.41C297.65,583.25,297.1,581.89,296.58,579.29Z"></path></clipPath></defs><g id="Vrstva_13"><g id="shady"><rect x="303.78" y="651.18" width="8" height="2.24"></rect><rect x="243.87" y="651.18" width="8" height="2.24"></rect><path class="cls-2" d="M302.16,619a2.48,2.48,0,0,0-2.63-2.29H256a2.48,2.48,0,0,0-2.63,2.29l-3.27,13.79a2.48,2.48,0,0,0,2.63,2.29H302.8a2.48,2.48,0,0,0,2.63-2.29Z"></path><rect class="cls-3" x="273.79" y="603.04" width="7.9" height="4.89"></rect><path class="cls-4" d="M311.72,611.59a3.66,3.66,0,0,0-3.66-3.66H247.42a3.66,3.66,0,0,0-3.66,3.66l-6.87,35.93a3.66,3.66,0,0,0,3.66,3.66h74.38a3.66,3.66,0,0,0,3.66-3.66Z"></path><path class="cls-5" d="M301.53,619.09a2.4,2.4,0,0,0-2.56-2.18H256.51a2.39,2.39,0,0,0-2.56,2.18q-1.6,6.58-3.19,13.17a2.4,2.4,0,0,0,2.56,2.19h48.83a2.4,2.4,0,0,0,2.57-2.19Q303.11,625.67,301.53,619.09Z"></path><path d="M264,627.63c.77-.68,1.38-1.24,1.82-1.67a7.76,7.76,0,0,0,1.11-1.37,2.59,2.59,0,0,0,.44-1.41,1.69,1.69,0,0,0-.34-1.13,1.28,1.28,0,0,0-1.07-.39,1.4,1.4,0,0,0-1.1.48,1.89,1.89,0,0,0-.41,1.22l-1.32,0a2.74,2.74,0,0,1,2.82-2.9,2.69,2.69,0,0,1,2,.68,2.58,2.58,0,0,1,.74,1.93,3.58,3.58,0,0,1-.44,1.69,6.94,6.94,0,0,1-1,1.45c-.41.43-.92.93-1.54,1.49l-.54.49,3.8,0v1.16l-5.83,0v-1Z"></path><path d="M270.86,621.6a2.62,2.62,0,0,1,2.42-1.21,2.56,2.56,0,0,1,2.42,1.17,6.52,6.52,0,0,1,.7,3.31,6.64,6.64,0,0,1-.7,3.34,3,3,0,0,1-4.84,0,6.6,6.6,0,0,1-.7-3.33A6.53,6.53,0,0,1,270.86,621.6Zm4.07,1.6a2.19,2.19,0,0,0-.51-1.12,1.41,1.41,0,0,0-1.14-.42,1.45,1.45,0,0,0-1.14.44,2.19,2.19,0,0,0-.51,1.12,9.76,9.76,0,0,0-.13,1.67,10.35,10.35,0,0,0,.12,1.72,2.19,2.19,0,0,0,.51,1.12,1.77,1.77,0,0,0,2.3,0,2.19,2.19,0,0,0,.51-1.13,10.35,10.35,0,0,0,.12-1.72A9.67,9.67,0,0,0,274.93,623.2Z"></path><path d="M278.55,621.56a2.57,2.57,0,0,1,2.42-1.18,2.59,2.59,0,0,1,2.42,1.21,8.2,8.2,0,0,1,0,6.63,2.57,2.57,0,0,1-2.42,1.2,2.6,2.6,0,0,1-2.42-1.21,6.75,6.75,0,0,1-.7-3.34A6.62,6.62,0,0,1,278.55,621.56Zm4.07,1.65a2.23,2.23,0,0,0-.51-1.12,1.43,1.43,0,0,0-1.14-.44,1.45,1.45,0,0,0-1.14.43,2.33,2.33,0,0,0-.51,1.11,10,10,0,0,0-.12,1.68,10.35,10.35,0,0,0,.12,1.72,2.19,2.19,0,0,0,.51,1.13,1.52,1.52,0,0,0,1.14.43,1.46,1.46,0,0,0,1.15-.43,2.12,2.12,0,0,0,.51-1.12,10.26,10.26,0,0,0,.12-1.72A8.91,8.91,0,0,0,282.62,623.21Z"></path><path d="M289.75,623a2.61,2.61,0,0,1,.93.79v-1l1.38,0v6.72a3.46,3.46,0,0,1-.38,1.62,2.78,2.78,0,0,1-1.11,1.12,3.55,3.55,0,0,1-1.74.41,3.7,3.7,0,0,1-2.23-.64,2.35,2.35,0,0,1-1-1.73H287a1.46,1.46,0,0,0,.66.84,2.29,2.29,0,0,0,1.22.33,1.82,1.82,0,0,0,1.34-.51,2,2,0,0,0,.51-1.46v-1.11a2.81,2.81,0,0,1-.94.78,2.86,2.86,0,0,1-1.35.31,2.91,2.91,0,0,1-1.58-.45,3.18,3.18,0,0,1-1.13-1.25,3.92,3.92,0,0,1-.41-1.81,3.8,3.8,0,0,1,.41-1.78,3,3,0,0,1,1.13-1.19,2.87,2.87,0,0,1,1.58-.4A3,3,0,0,1,289.75,623Zm.65,1.94a2.09,2.09,0,0,0-.74-.79,2,2,0,0,0-2,0,1.94,1.94,0,0,0-.74.76,2.46,2.46,0,0,0-.28,1.19,2.6,2.6,0,0,0,.28,1.21,2,2,0,0,0,.75.8,1.82,1.82,0,0,0,1,.28,1.86,1.86,0,0,0,1-.25,2,2,0,0,0,.74-.77,2.69,2.69,0,0,0,0-2.39Z"></path><path class="cls-6" d="M279.94,602.52h-1.11a3.65,3.65,0,0,1-2.61-1.75c-.59-.76-1.11-1.41-2.05-1.51a1.47,1.47,0,0,0-.9.21,16.49,16.49,0,0,1-2,.7c-2.31.64-4.49,1.25-6.22.25-1.42-.83-1.87-2.35-2.31-3.82a15,15,0,0,1-.57-3.83c0-.65-.09-1.43-.17-2.43-.14-1.67-.26-2.37-.34-2.87a8.2,8.2,0,0,1-.13-1.6,18.19,18.19,0,0,1,.64-4.84c.13-.57.27-1.18.41-1.89a43.76,43.76,0,0,0,.72-7.39,293.06,293.06,0,0,0-.93-36l-.08-.88a18.49,18.49,0,0,1,0-6.34,19.13,19.13,0,0,1,2.75-6.89c3.59-6,7.94-12,10.3-15.18l-.06-4.88h9.28l-.06,4.88c2.37,3.18,6.71,9.21,10.31,15.18a19.31,19.31,0,0,1,2.75,6.89,18.24,18.24,0,0,1,0,6.34l-.08.88a295,295,0,0,0-.93,36,43.76,43.76,0,0,0,.73,7.4h0c.14.71.28,1.32.41,1.89a18.61,18.61,0,0,1,.64,4.84,8.91,8.91,0,0,1-.14,1.6c-.08.5-.19,1.2-.33,2.87-.09,1-.14,1.79-.18,2.44a15,15,0,0,1-.56,3.82c-.44,1.47-.89,3-2.32,3.82-1.72,1-3.91.39-6.21-.25a15.26,15.26,0,0,1-2-.7,1.47,1.47,0,0,0-.9-.21c-.94.1-1.46.75-2.06,1.51a3.66,3.66,0,0,1-2.56,1.75ZM274,597.79l.33,0a4.48,4.48,0,0,1,3.05,2.05c.57.72.94,1.16,1.51,1.2h2.17c.52,0,.9-.48,1.47-1.2a4.45,4.45,0,0,1,3-2.05,2.87,2.87,0,0,1,1.63.32,13.15,13.15,0,0,0,1.81.63c2.09.59,3.9,1.1,5.09.4.92-.54,1.26-1.67,1.65-3a13.16,13.16,0,0,0,.51-3.5c0-.66.09-1.45.18-2.47.14-1.72.26-2.47.34-3a6.54,6.54,0,0,0,.12-1.38,16.84,16.84,0,0,0-.6-4.5c-.13-.59-.28-1.21-.42-1.93h0a45.22,45.22,0,0,1-.75-7.63,296,296,0,0,1,.93-36.13l.09-1a16.48,16.48,0,0,0,0-5.86,17.85,17.85,0,0,0-2.56-6.4c-3.64-6.05-8.06-12.16-10.37-15.26l-.15-.2.05-3.9h-6.33l.05,3.9-.15.2c-2.31,3.1-6.73,9.21-10.37,15.26a17.67,17.67,0,0,0-2.56,6.4,16.48,16.48,0,0,0,0,5.86v.06l.08.91a294,294,0,0,1,.94,36.13,46.32,46.32,0,0,1-.75,7.63c-.15.72-.29,1.34-.42,1.93a17.24,17.24,0,0,0-.61,4.5,8.22,8.22,0,0,0,.12,1.38c.08.5.2,1.25.35,3,.09,1,.14,1.81.18,2.47a13.68,13.68,0,0,0,.5,3.5c.39,1.31.73,2.44,1.66,3,1.19.7,3,.19,5.09-.4a13.15,13.15,0,0,0,1.81-.63A3,3,0,0,1,274,597.79Z"></path><path class="cls-6" d="M279.94,602.52h-1.11a3.65,3.65,0,0,1-2.61-1.75c-.59-.76-1.11-1.41-2.05-1.51a1.47,1.47,0,0,0-.9.21,16.49,16.49,0,0,1-2,.7c-2.31.64-4.49,1.25-6.22.25-1.42-.83-1.87-2.35-2.31-3.82a15,15,0,0,1-.57-3.83c0-.65-.09-1.43-.17-2.43-.14-1.67-.26-2.37-.34-2.87a8.2,8.2,0,0,1-.13-1.6,18.19,18.19,0,0,1,.64-4.84c.13-.57.27-1.18.41-1.89a43.76,43.76,0,0,0,.72-7.39,293.06,293.06,0,0,0-.93-36l-.08-.88a18.49,18.49,0,0,1,0-6.34,19.13,19.13,0,0,1,2.75-6.89c3.59-6,7.94-12,10.3-15.18l-.06-4.88h9.28l-.06,4.88c2.37,3.18,6.71,9.21,10.31,15.18a19.31,19.31,0,0,1,2.75,6.89,18.24,18.24,0,0,1,0,6.34l-.08.88a295,295,0,0,0-.93,36,43.76,43.76,0,0,0,.73,7.4h0c.14.71.28,1.32.41,1.89a18.61,18.61,0,0,1,.64,4.84,8.91,8.91,0,0,1-.14,1.6c-.08.5-.19,1.2-.33,2.87-.09,1-.14,1.79-.18,2.44a15,15,0,0,1-.56,3.82c-.44,1.47-.89,3-2.32,3.82-1.72,1-3.91.39-6.21-.25a15.26,15.26,0,0,1-2-.7,1.47,1.47,0,0,0-.9-.21c-.94.1-1.46.75-2.06,1.51a3.66,3.66,0,0,1-2.56,1.75ZM274,597.79l.33,0a4.48,4.48,0,0,1,3.05,2.05c.57.72.94,1.16,1.51,1.2h2.17c.52,0,.9-.48,1.47-1.2a4.45,4.45,0,0,1,3-2.05,2.87,2.87,0,0,1,1.63.32,13.15,13.15,0,0,0,1.81.63c2.09.59,3.9,1.1,5.09.4.92-.54,1.26-1.67,1.65-3a13.16,13.16,0,0,0,.51-3.5c0-.66.09-1.45.18-2.47.14-1.72.26-2.47.34-3a6.54,6.54,0,0,0,.12-1.38,16.84,16.84,0,0,0-.6-4.5c-.13-.59-.28-1.21-.42-1.93h0a45.22,45.22,0,0,1-.75-7.63,296,296,0,0,1,.93-36.13l.09-1a16.48,16.48,0,0,0,0-5.86,17.85,17.85,0,0,0-2.56-6.4c-3.64-6.05-8.06-12.16-10.37-15.26l-.15-.2.05-3.9h-6.33l.05,3.9-.15.2c-2.31,3.1-6.73,9.21-10.37,15.26a17.67,17.67,0,0,0-2.56,6.4,16.48,16.48,0,0,0,0,5.86v.06l.08.91a294,294,0,0,1,.94,36.13,46.32,46.32,0,0,1-.75,7.63c-.15.72-.29,1.34-.42,1.93a17.24,17.24,0,0,0-.61,4.5,8.22,8.22,0,0,0,.12,1.38c.08.5.2,1.25.35,3,.09,1,.14,1.81.18,2.47a13.68,13.68,0,0,0,.5,3.5c.39,1.31.73,2.44,1.66,3,1.19.7,3,.19,5.09-.4a13.15,13.15,0,0,0,1.81-.63A3,3,0,0,1,274,597.79Z"></path><g class="cls-7"><path class="cls-8" d="M273.5,506.72c2.12-.24,4.78-.32,4.78-.32,1.14,0,2.24-.08,3.65,0a41.41,41.41,0,0,1,4.46.5c10.55,1.84,16.37,32.4,16.37,32.4,5.11,26.86,9.55,50.15-3.8,61.67-7.41,6.38-17,6.3-17.86,6.28-11.85-.27-19.92-9-21.82-11.08C233.85,568.6,268,507.34,273.5,506.72Z"></path></g><path class="cls-9" d="M271.47,559.13h-.19a2.36,2.36,0,1,1,.19,0Zm0-4.06a1.61,1.61,0,1,0,.13,0Z"></path><g class="cls-10"><path class="cls-9" d="M267.41,534.22h-.13a1.64,1.64,0,0,1-1.53-1.78,1.65,1.65,0,0,1,1.79-1.53h0a1.66,1.66,0,0,1-.13,3.32Zm0-2.82a1.16,1.16,0,0,0-1.16,1.07,1.16,1.16,0,0,0,1.07,1.24,1.16,1.16,0,0,0,.18-2.31Z"></path></g><path class="cls-9" d="M269.8,528.49h-.19a2.37,2.37,0,1,1,.19,0Zm0-4.06a1.61,1.61,0,1,0,.13,0Z"></path><path class="cls-9" d="M282.77,517.26h-.18a2.35,2.35,0,1,1,.18,0Zm0-4.06a1.73,1.73,0,1,0,.13,0Z"></path><g class="cls-10"><path class="cls-9" d="M286.76,560.33h-.14a1.81,1.81,0,0,1-1.66-1.94,1.76,1.76,0,0,1,.63-1.22,1.74,1.74,0,0,1,1.31-.43h0a1.81,1.81,0,0,1,1.22.62,1.75,1.75,0,0,1,.43,1.31A1.8,1.8,0,0,1,286.76,560.33Zm0-2.87a1.06,1.06,0,0,0-.69.26,1,1,0,0,0-.37.73,1.11,1.11,0,0,0,.25.78,1.07,1.07,0,0,0,1.88-.61,1,1,0,0,0-.25-.78,1.06,1.06,0,0,0-.73-.37h-.09Z"></path></g><g class="cls-10"><path class="cls-9" d="M290.37,525.14h-.15a1.79,1.79,0,0,1-1.22-.62,1.75,1.75,0,0,1-.43-1.31,1.81,1.81,0,0,1,.62-1.23,1.86,1.86,0,0,1,1.31-.43,1.81,1.81,0,0,1,1.66,1.94,1.81,1.81,0,0,1-1.79,1.66Zm0-2.87a1.08,1.08,0,0,0-.69.25,1.06,1.06,0,0,0-.37.73,1,1,0,0,0,.25.78,1.11,1.11,0,0,0,.73.38,1.06,1.06,0,0,0,.78-.26,1,1,0,0,0,.37-.73,1.11,1.11,0,0,0-.25-.78,1.06,1.06,0,0,0-.73-.37Z"></path></g><path class="cls-9" d="M269.07,586.86h-.31a4,4,0,0,1-3.67-4.29,4,4,0,0,1,4.29-3.67h0a4,4,0,0,1,2.72,1.39,3.94,3.94,0,0,1,.95,2.9A4,4,0,0,1,269.07,586.86Zm0-7.25a3.28,3.28,0,1,0,.25,0h-.25Z"></path><path class="cls-9" d="M285.33,578.88H285a4,4,0,0,1,.62-8,4,4,0,0,1,2.28,7A3.91,3.91,0,0,1,285.33,578.88Zm0-7.25a3.28,3.28,0,1,0,.26,0h-.26Z"></path><path class="cls-9" d="M285.17,540.63h-.29a3.63,3.63,0,0,1,.57-7.24h0a3.63,3.63,0,0,1,3.33,3.9A3.63,3.63,0,0,1,285.17,540.63Zm0-6.53a3,3,0,1,0,.23,0h-.23Z"></path><g class="cls-10"><path class="cls-9" d="M277,593.34h-.18a2.5,2.5,0,1,1,.18,0Zm0-4.06a1.73,1.73,0,1,0,.13,0Z"></path></g><path class="cls-9" d="M292.61,593.34h-.19a2.4,2.4,0,0,1,.37-4.78h0a2.38,2.38,0,0,1,2.2,2.58A2.38,2.38,0,0,1,292.61,593.34Zm0-4.06a1.67,1.67,0,0,0-1.66,1.54,1.63,1.63,0,0,0,.39,1.21,1.67,1.67,0,0,0,2.93-.95,1.68,1.68,0,0,0-.4-1.21,1.63,1.63,0,0,0-1.13-.58h-.13Z"></path><path class="cls-6" d="M279.94,602.52h-1.11a3.65,3.65,0,0,1-2.61-1.75c-.59-.76-1.11-1.41-2.05-1.51a1.47,1.47,0,0,0-.9.21,16.49,16.49,0,0,1-2,.7c-2.31.64-4.49,1.25-6.22.25-1.42-.83-1.87-2.35-2.31-3.82a15,15,0,0,1-.57-3.83c0-.65-.09-1.43-.17-2.43-.14-1.67-.26-2.37-.34-2.87a8.2,8.2,0,0,1-.13-1.6,18.19,18.19,0,0,1,.64-4.84c.13-.57.27-1.18.41-1.89a43.76,43.76,0,0,0,.72-7.39,293.06,293.06,0,0,0-.93-36l-.08-.88a18.49,18.49,0,0,1,0-6.34,19.13,19.13,0,0,1,2.75-6.89c3.59-6,7.94-12,10.3-15.18l-.06-4.88h9.28l-.06,4.88c2.37,3.18,6.71,9.21,10.31,15.18a19.31,19.31,0,0,1,2.75,6.89,18.24,18.24,0,0,1,0,6.34l-.08.88a295,295,0,0,0-.93,36,43.76,43.76,0,0,0,.73,7.4h0c.14.71.28,1.32.41,1.89a18.61,18.61,0,0,1,.64,4.84,8.91,8.91,0,0,1-.14,1.6c-.08.5-.19,1.2-.33,2.87-.09,1-.14,1.79-.18,2.44a15,15,0,0,1-.56,3.82c-.44,1.47-.89,3-2.32,3.82-1.72,1-3.91.39-6.21-.25a15.26,15.26,0,0,1-2-.7,1.47,1.47,0,0,0-.9-.21c-.94.1-1.46.75-2.06,1.51a3.66,3.66,0,0,1-2.56,1.75ZM274,597.79l.33,0a4.48,4.48,0,0,1,3.05,2.05c.57.72.94,1.16,1.51,1.2h2.17c.52,0,.9-.48,1.47-1.2a4.45,4.45,0,0,1,3-2.05,2.87,2.87,0,0,1,1.63.32,13.15,13.15,0,0,0,1.81.63c2.09.59,3.9,1.1,5.09.4.92-.54,1.26-1.67,1.65-3a13.16,13.16,0,0,0,.51-3.5c0-.66.09-1.45.18-2.47.14-1.72.26-2.47.34-3a6.54,6.54,0,0,0,.12-1.38,16.84,16.84,0,0,0-.6-4.5c-.13-.59-.28-1.21-.42-1.93h0a45.22,45.22,0,0,1-.75-7.63,296,296,0,0,1,.93-36.13l.09-1a16.48,16.48,0,0,0,0-5.86,17.85,17.85,0,0,0-2.56-6.4c-3.64-6.05-8.06-12.16-10.37-15.26l-.15-.2.05-3.9h-6.33l.05,3.9-.15.2c-2.31,3.1-6.73,9.21-10.37,15.26a17.67,17.67,0,0,0-2.56,6.4,16.48,16.48,0,0,0,0,5.86v.06l.08.91a294,294,0,0,1,.94,36.13,46.32,46.32,0,0,1-.75,7.63c-.15.72-.29,1.34-.42,1.93a17.24,17.24,0,0,0-.61,4.5,8.22,8.22,0,0,0,.12,1.38c.08.5.2,1.25.35,3,.09,1,.14,1.81.18,2.47a13.68,13.68,0,0,0,.5,3.5c.39,1.31.73,2.44,1.66,3,1.19.7,3,.19,5.09-.4a13.15,13.15,0,0,0,1.81-.63A3,3,0,0,1,274,597.79Z"></path><rect class="cls-11" x="274.59" y="498.94" width="10.7" height="5.8" rx="2" transform="translate(559.89 1003.68) rotate(-180)"></rect><path class="cls-12" d="M282.06,503.4a.39.39,0,0,0,.4-.38v-2.36a.4.4,0,0,0-.79,0V503A.39.39,0,0,0,282.06,503.4Z"></path><path class="cls-12" d="M280.65,503.4A.38.38,0,0,0,281,503v-2.36a.39.39,0,0,0-.78,0V503A.38.38,0,0,0,280.65,503.4Z"></path><path class="cls-12" d="M279.24,503.4a.39.39,0,0,0,.39-.38v-2.36a.4.4,0,0,0-.79,0V503A.39.39,0,0,0,279.24,503.4Z"></path><path class="cls-12" d="M277.82,503.4a.38.38,0,0,0,.39-.38v-2.36a.39.39,0,0,0-.39-.39.4.4,0,0,0-.39.39V503A.39.39,0,0,0,277.82,503.4Z"></path><path class="cls-12" d="M276.41,503.4a.39.39,0,0,0,.39-.38v-2.36a.4.4,0,0,0-.39-.39.39.39,0,0,0-.39.39V503A.38.38,0,0,0,276.41,503.4Z"></path><path class="cls-12" d="M283.48,503.4a.38.38,0,0,0,.39-.38v-2.36a.39.39,0,1,0-.78,0V503A.38.38,0,0,0,283.48,503.4Z"></path><path class="cls-13" d="M246.37,595.32A8.5,8.5,0,0,0,254.8,603h45.53a8.49,8.49,0,0,0,8.43-7.7h-62.3Z"></path><path class="cls-14" d="M246.38,595.36a9,9,0,0,0,.14.93h62.09a6.94,6.94,0,0,0,.15-.93Z"></path><path class="cls-15" d="M309,592.87H246.46l-.13,0a1.21,1.21,0,0,0,0,2.42l.09,0H309a1.24,1.24,0,1,0,0-2.47Z"></path><path class="cls-13" d="M254.8,603h45.53a8.49,8.49,0,0,0,8.28-6.75H246.52A8.49,8.49,0,0,0,254.8,603Z"></path><path class="cls-13" d="M308.76,595.34h-62.3l-.09,0s0,0,0,0h62.38Z"></path><path class="cls-1" d="M716.58,518.25a6.19,6.19,0,0,0-1.35,3.21v22.83a8.08,8.08,0,0,0,1.08,2.54,5.62,5.62,0,0,0,2.17,2l10.93,4.36V512.58l-11,4.48A3.6,3.6,0,0,0,716.58,518.25Z"></path><path class="cls-6" d="M674.47,434.43l2.7-6.12,6.57-.95h4l6.5.71,2.77,6.36a54.71,54.71,0,0,1,22.79,9.92h0a25.9,25.9,0,0,1,4.76,2.12A54.83,54.83,0,0,0,698,433.2l-2.81-6.43-7.29-.8h-4.2L676.2,427l-2.71,6.17a54.22,54.22,0,0,0-28.2,14.86,21.29,21.29,0,0,1,3-.91A53.8,53.8,0,0,1,674.47,434.43Z"></path><path class="cls-9" d="M740.88,486.93V472.4a7.26,7.26,0,0,0-5.79-7.09c-4.8-15.36-19.5-27.36-38-30.88l-2.77-6.36-6.5-.71h-4l-6.57.95-2.7,6.12c-18.53,3.52-33.24,15.52-38,30.88a7.26,7.26,0,0,0-5.78,7.09v14.53a7.26,7.26,0,0,0,4.1,6.52V571.1a7.24,7.24,0,0,0-4.1,6.51v14.53a7.25,7.25,0,0,0,7.24,7.24h95.75a7.25,7.25,0,0,0,7.24-7.24V577.61a7.22,7.22,0,0,0-4.11-6.51c0-19.37,0-54.18-.1-77.6A7.25,7.25,0,0,0,740.88,486.93Zm-25.65,34.53a6.19,6.19,0,0,1,1.35-3.21,3.6,3.6,0,0,1,1.87-1.19l11-4.48v40.59l-10.93-4.36a5.62,5.62,0,0,1-2.17-2,8.08,8.08,0,0,1-1.08-2.54Z"></path><path class="cls-6" d="M733.64,600.78H637.89a8.66,8.66,0,0,1-8.64-8.64V577.61a8.69,8.69,0,0,1,4.1-7.33v-76a8.71,8.71,0,0,1-4.1-7.34V472.41a8.68,8.68,0,0,1,6.09-8.26c5.16-15.44,19.67-27.21,38.15-30.95L676.2,427l7.54-1.08h4.19l7.3.8L698,433.2c18.48,3.74,33,15.51,38.14,30.95a8.67,8.67,0,0,1,6.09,8.26v14.52a8.66,8.66,0,0,1-4.21,7.41c.08,23.22.1,57.12.11,75.94a8.67,8.67,0,0,1,4.1,7.33v14.53A8.65,8.65,0,0,1,733.64,600.78Zm-55.51-171.2-2.67,6.09-.73.13c-18.1,3.44-32.27,14.91-37,29.93l-.24.79-.81.16a5.87,5.87,0,0,0-4.66,5.73v14.52a5.88,5.88,0,0,0,3.31,5.26l.79.38V572l-.79.39a5.87,5.87,0,0,0-3.31,5.25v14.53a5.85,5.85,0,0,0,5.84,5.84h95.75a5.85,5.85,0,0,0,5.84-5.84V577.61a5.87,5.87,0,0,0-3.31-5.25l-.79-.39v-.87c0-18.86,0-54-.11-77.6v-.89l.81-.38a5.86,5.86,0,0,0,3.4-5.3V472.41a5.86,5.86,0,0,0-4.67-5.73l-.8-.16-.25-.79c-4.69-15-18.86-26.49-37-29.93l-.72-.13-2.75-6.3-5.61-.62h-3.87Zm52.68,125.65-12.95-5.17a7.16,7.16,0,0,1-2.72-2.46,9.72,9.72,0,0,1-1.27-3l0-.33,0-23a7.52,7.52,0,0,1,1.68-3.95,5.08,5.08,0,0,1,2.47-1.6l12.81-5.23Zm-11.76-7.7,9,3.58V514.66l-9.22,3.75a2.24,2.24,0,0,0-1.16.76,4.73,4.73,0,0,0-1,2.38v22.57a7,7,0,0,0,.84,1.94A4.36,4.36,0,0,0,719.05,547.53Z"></path><path class="cls-9" d="M678.71,447.55c9-1.94,13-5.19,22.82-5.7a58.46,58.46,0,0,1,14.39,1.43,54.27,54.27,0,0,0-19.13-7.48l-.72-.13-2.75-6.3-5.61-.62h-3.87l-5.71.83-2.67,6.09-.73.13a52.9,52.9,0,0,0-24,11C656.82,446.59,664.83,450.56,678.71,447.55Z"></path><path class="cls-6" d="M694.28,428.07l-6.5-.71h-4l-6.57.95-2.7,6.12a53.8,53.8,0,0,0-26.17,12.72,15.57,15.57,0,0,1,2.37-.31h.05a52.9,52.9,0,0,1,24-11l.73-.13,2.67-6.09,5.71-.83h3.87l5.61.62,2.75,6.3.72.13a54.27,54.27,0,0,1,19.13,7.48c1.29.29,2.61.65,3.92,1.07a54.71,54.71,0,0,0-22.79-9.92Z"></path><path class="cls-8" d="M637.76,465.73l-.24.79-.81.16a5.85,5.85,0,0,0-4.66,5.72v14.53a5.88,5.88,0,0,0,3.31,5.26l.79.38V572l-.79.38a5.87,5.87,0,0,0-3.31,5.25v14.53a5.85,5.85,0,0,0,5.84,5.84h95.75a5.85,5.85,0,0,0,5.84-5.84V577.61a5.86,5.86,0,0,0-3.32-5.25l-.78-.39v-.87c0-18.86,0-54-.11-77.6v-.89l.81-.38a5.87,5.87,0,0,0,3.4-5.3V472.4a5.86,5.86,0,0,0-4.67-5.72l-.8-.16-.25-.79A41.27,41.27,0,0,0,719,445.38a133,133,0,0,1-15.37.57c-10.73-.22-13.38-1.59-21.11-.64-6.55.8-7.23,2.07-13.36,2.8a50.4,50.4,0,0,1-18.41-1.27c-.28.24-.69.58-1.16,1a43.73,43.73,0,0,0-6.95,7.9A40,40,0,0,0,637.76,465.73Zm76.09,55.55a7.52,7.52,0,0,1,1.68-3.95,5.08,5.08,0,0,1,2.47-1.6l12.81-5.23v44.73l-12.95-5.17a7,7,0,0,1-2.72-2.46,9.72,9.72,0,0,1-1.27-3l0-.33Z"></path><path class="cls-9" d="M673.13,547.17a6.2,6.2,0,0,1-1.59-.21,6,6,0,0,1-3.71-2.85A6.11,6.11,0,1,1,678.41,538h0a6.12,6.12,0,0,1-2.23,8.35A6.12,6.12,0,0,1,673.13,547.17Zm0-10.83a4.79,4.79,0,0,0-2.35.63,4.72,4.72,0,0,0,1.14,8.64,4.67,4.67,0,0,0,3.58-.47,4.72,4.72,0,0,0-2.37-8.8Z"></path><path class="cls-6" d="M734.08,495.8a17.51,17.51,0,0,0,2.59-.19v-1.89H634.75v1.72a17.77,17.77,0,0,0,3.58.36Z"></path><path class="cls-6" d="M734.83,465.84c.61,0,1.2,0,1.76,0a6.78,6.78,0,0,0-1.5-.5c0-.08-.05-.16-.08-.25H636.52l-.09.25a7.06,7.06,0,0,0-1.21.37c1.12.1,2.44.16,3.86.16Z"></path><path class="cls-6" d="M637.89,570.17c-1.13,0-2.19,0-3.14.1V571h102v-.68c-.95-.06-2-.1-3.13-.1Z"></path><path class="cls-6" d="M637.89,598h-4.26a7.18,7.18,0,0,0,4.26,1.4h95.75a7.12,7.12,0,0,0,4.25-1.4h-100Z"></path><path class="cls-9" d="M681.51,584.32a3.83,3.83,0,1,1,3.83-3.83A3.84,3.84,0,0,1,681.51,584.32Zm0-6.26a2.43,2.43,0,1,0,2.43,2.43A2.43,2.43,0,0,0,681.51,578.06Z"></path><path class="cls-9" d="M647.72,559.06a3.83,3.83,0,1,1,3.83-3.83A3.84,3.84,0,0,1,647.72,559.06Zm0-6.26a2.43,2.43,0,1,0,2.44,2.43A2.43,2.43,0,0,0,647.72,552.8Z"></path><path class="cls-9" d="M718.36,460.23a3.83,3.83,0,1,1,3.83-3.83A3.84,3.84,0,0,1,718.36,460.23Zm0-6.27a2.44,2.44,0,1,0,2.44,2.44A2.43,2.43,0,0,0,718.36,454Z"></path><path class="cls-9" d="M712.79,565.43a3.83,3.83,0,1,1,3.83-3.83A3.84,3.84,0,0,1,712.79,565.43Zm0-6.26a2.43,2.43,0,1,0,2.43,2.43A2.43,2.43,0,0,0,712.79,559.17Z"></path><path class="cls-9" d="M660.79,491.52a3.83,3.83,0,1,1,3.83-3.83A3.84,3.84,0,0,1,660.79,491.52Zm0-6.26a2.43,2.43,0,1,0,2.43,2.43A2.44,2.44,0,0,0,660.79,485.26Z"></path><g class="cls-10"><path class="cls-9" d="M653.84,518.72a6.2,6.2,0,0,1-1.59-.21,6,6,0,0,1-3.71-2.85,6.11,6.11,0,0,1,10.58-6.11,6.12,6.12,0,0,1-2.23,8.35A6.12,6.12,0,0,1,653.84,518.72Zm0-10.83a4.71,4.71,0,0,0-4.07,7.07,4.71,4.71,0,0,0,6.44,1.73,4.72,4.72,0,0,0-2.37-8.8Z"></path></g><g class="cls-10"><path class="cls-9" d="M721.54,589.84a7.34,7.34,0,1,1,3.65-1A7.33,7.33,0,0,1,721.54,589.84Zm0-13a5.65,5.65,0,1,0,2.84,10.54A5.58,5.58,0,0,0,727,584a5.64,5.64,0,0,0-5.47-7.11Z"></path></g><g class="cls-10"><path class="cls-9" d="M709,484.61a6.2,6.2,0,0,1-1.59-.21,6.11,6.11,0,1,1,6.87-9h0a6,6,0,0,1,.61,4.64,6.1,6.1,0,0,1-5.89,4.53Zm0-10.83a4.71,4.71,0,0,0-4.07,7.07,4.71,4.71,0,1,0,4.07-7.07Z"></path></g><path class="cls-9" d="M645.3,596.44a6.2,6.2,0,0,1-1.59-.21,6.1,6.1,0,1,1,1.59.21Zm0-10.83a4.72,4.72,0,1,0,4.56,5.93,4.65,4.65,0,0,0-.47-3.57h0a4.7,4.7,0,0,0-4.09-2.36Z"></path><g class="cls-10"><path class="cls-9" d="M645.29,478.47a3.83,3.83,0,1,1,3.83-3.83A3.84,3.84,0,0,1,645.29,478.47Zm0-6.26a2.43,2.43,0,1,0,2.43,2.43A2.43,2.43,0,0,0,645.29,472.21Z"></path></g><path class="cls-9" d="M722.32,503.28a2.18,2.18,0,0,1-1.55-.64,2.19,2.19,0,1,1,3.1-3.1h0a2.19,2.19,0,0,1-1.55,3.74Zm0-3a.77.77,0,0,0-.56.24.79.79,0,0,0,0,1.12.81.81,0,0,0,1.12,0,.79.79,0,0,0,0-1.12A.77.77,0,0,0,722.32,500.29Z"></path><g class="cls-10"><path class="cls-9" d="M667,460.77a2.19,2.19,0,1,1,1.55-3.73h0a2.19,2.19,0,0,1-1.55,3.73Zm0-3a.82.82,0,0,0-.56.23.8.8,0,0,0,0,1.13.79.79,0,0,0,1.12,0,.8.8,0,0,0,0-1.13A.79.79,0,0,0,667,457.79Z"></path></g><g class="cls-10"><path class="cls-9" d="M700.66,529.54a2.18,2.18,0,0,1-1.55-.64,2.19,2.19,0,0,1,3.1-3.1h0a2.2,2.2,0,0,1,0,3.1A2.18,2.18,0,0,1,700.66,529.54Zm0-3a.82.82,0,0,0-.56.23.8.8,0,1,0,.56-.23Z"></path></g><path class="cls-1" d="M599.6,518.28a6.19,6.19,0,0,0-1.35,3.21v22.83a7.85,7.85,0,0,0,1.08,2.54,5.55,5.55,0,0,0,2.17,2l10.93,4.36V512.61l-11,4.48A3.6,3.6,0,0,0,599.6,518.28Z"></path><path class="cls-6" d="M557.49,434.46l2.7-6.12,6.57-.95h4l6.5.71,2.77,6.36a54.71,54.71,0,0,1,22.79,9.92h0a26.59,26.59,0,0,1,4.76,2.12,54.91,54.91,0,0,0-26.57-13.27l-2.81-6.43L571,426h-4.19l-7.54,1.08-2.71,6.16a54.23,54.23,0,0,0-28.2,14.87,19,19,0,0,1,3-.91A53.9,53.9,0,0,1,557.49,434.46Z"></path><path class="cls-9" d="M623.89,487V472.44a7.23,7.23,0,0,0-5.78-7.09c-4.8-15.37-19.5-27.37-38-30.89l-2.77-6.36-6.5-.71h-4l-6.57.95-2.7,6.12C539,438,524.25,450,519.45,465.35a7.24,7.24,0,0,0-5.78,7.09V487a7.24,7.24,0,0,0,4.1,6.51v77.65a7.24,7.24,0,0,0-4.1,6.51v14.53a7.25,7.25,0,0,0,7.24,7.24h95.75a7.24,7.24,0,0,0,7.23-7.24V577.64a7.24,7.24,0,0,0-4.1-6.51c0-19.37,0-54.18-.11-77.6A7.23,7.23,0,0,0,623.89,487Zm-25.64,34.52a6.19,6.19,0,0,1,1.35-3.21,3.6,3.6,0,0,1,1.87-1.19l11-4.48V553.2l-10.93-4.36a5.55,5.55,0,0,1-2.17-2,7.85,7.85,0,0,1-1.08-2.54Z"></path><path class="cls-6" d="M616.66,600.81H520.91a8.66,8.66,0,0,1-8.64-8.64V577.64a8.69,8.69,0,0,1,4.1-7.33v-76a8.69,8.69,0,0,1-4.1-7.33V472.44a8.67,8.67,0,0,1,6.09-8.25c5.16-15.45,19.67-27.22,38.15-31l2.71-6.16,7.54-1.08H571l7.3.8,2.81,6.43c18.48,3.74,33,15.51,38.14,31a8.66,8.66,0,0,1,6.09,8.25V487a8.66,8.66,0,0,1-4.21,7.4c.08,23.23.1,57.12.11,75.94a8.67,8.67,0,0,1,4.1,7.33v14.53A8.65,8.65,0,0,1,616.66,600.81Zm-55.51-171.2-2.68,6.09-.72.14c-18.1,3.43-32.27,14.9-37,29.92l-.24.79-.81.16a5.87,5.87,0,0,0-4.66,5.73V487a5.86,5.86,0,0,0,3.31,5.25l.78.38V572l-.78.38a5.86,5.86,0,0,0-3.31,5.25v14.53a5.86,5.86,0,0,0,5.84,5.85h95.75a5.86,5.86,0,0,0,5.84-5.85V577.64a5.86,5.86,0,0,0-3.32-5.25l-.78-.38v-.88c0-18.86,0-54-.11-77.59v-.9l.81-.38a5.86,5.86,0,0,0,3.4-5.29V472.44a5.87,5.87,0,0,0-4.67-5.73l-.81-.16-.24-.79c-4.7-15-18.86-26.49-37-29.92l-.73-.14-2.74-6.3-5.62-.62h-3.86Zm52.67,125.65-12.94-5.17a7,7,0,0,1-2.72-2.46,9.72,9.72,0,0,1-1.27-3l0-.33v-23a7.69,7.69,0,0,1,1.68-3.95,5.15,5.15,0,0,1,2.48-1.6l12.8-5.23Zm-11.75-7.69,9,3.57V514.69l-9.22,3.75a2.34,2.34,0,0,0-1.16.76,4.73,4.73,0,0,0-1,2.38v22.57a6.55,6.55,0,0,0,.84,1.94A4.33,4.33,0,0,0,602.07,547.57Z"></path><path class="cls-9" d="M561.73,447.59c9-1.95,13-5.2,22.81-5.71a58.49,58.49,0,0,1,14.4,1.43,54.54,54.54,0,0,0-19.13-7.48l-.72-.13-2.75-6.3-5.61-.62h-3.87l-5.71.83-2.67,6.09-.73.13a52.9,52.9,0,0,0-24,11C539.84,446.62,547.85,450.59,561.73,447.59Z"></path><path class="cls-6" d="M577.3,428.1l-6.5-.71h-4l-6.57.95-2.7,6.12a53.9,53.9,0,0,0-26.17,12.73,15.46,15.46,0,0,1,2.37-.32h0a52.9,52.9,0,0,1,24-11l.73-.13,2.67-6.09,5.71-.83h3.87l5.61.62,2.75,6.3.72.13a54.54,54.54,0,0,1,19.13,7.48c1.29.29,2.61.65,3.92,1.07a54.71,54.71,0,0,0-22.79-9.92Z"></path><path class="cls-8" d="M520.78,465.76l-.24.79-.81.16a5.87,5.87,0,0,0-4.66,5.73V487a5.86,5.86,0,0,0,3.31,5.25l.78.38V572l-.78.38a5.86,5.86,0,0,0-3.31,5.25v14.53a5.86,5.86,0,0,0,5.84,5.85h95.75a5.86,5.86,0,0,0,5.84-5.85V577.64a5.86,5.86,0,0,0-3.32-5.25l-.78-.38v-.88c0-18.86,0-54-.11-77.59v-.9l.81-.38a5.86,5.86,0,0,0,3.4-5.29V472.44a5.87,5.87,0,0,0-4.67-5.73l-.81-.16-.24-.79c-2.86-9.13-9.22-16.95-17.84-22.45a81.15,81.15,0,0,1-14.26,2.48c-14.34,1.18-16.67-3.46-27.83-1.28-3.33.65-7.74,1.95-14.21,1.45a38.44,38.44,0,0,1-6.39-1,40.94,40.94,0,0,0-15.47,20.84Zm76.08,55.55a7.72,7.72,0,0,1,1.68-3.95,5.14,5.14,0,0,1,2.48-1.6l12.8-5.23v44.73l-12.94-5.17a7,7,0,0,1-2.72-2.46,9.72,9.72,0,0,1-1.27-3l0-.33Z"></path><path class="cls-6" d="M617.1,495.83a17.51,17.51,0,0,0,2.59-.19v-1.89H517.77v1.72a17.08,17.08,0,0,0,3.58.36Z"></path><path class="cls-6" d="M617.85,465.87c.61,0,1.2,0,1.76,0a6.28,6.28,0,0,0-1.5-.49c0-.09-.06-.17-.08-.26H519.54l-.09.26a6.34,6.34,0,0,0-1.22.36c1.13.1,2.45.16,3.87.16Z"></path><path class="cls-6" d="M520.91,570.2c-1.13,0-2.19,0-3.14.11V571h102v-.67c-.95-.07-2-.11-3.13-.11Z"></path><path class="cls-6" d="M520.91,598h-4.26a7.24,7.24,0,0,0,4.26,1.39h95.75a7.18,7.18,0,0,0,4.25-1.39h-100Z"></path><path class="cls-9" d="M530.74,586.34a3.83,3.83,0,1,1,3.83-3.83A3.84,3.84,0,0,1,530.74,586.34Zm0-6.26a2.43,2.43,0,1,0,2.43,2.43A2.43,2.43,0,0,0,530.74,580.08Z"></path><path class="cls-9" d="M612.43,588.77a3.83,3.83,0,1,1,3.83-3.83A3.84,3.84,0,0,1,612.43,588.77Zm0-6.26a2.43,2.43,0,1,0,2.43,2.43A2.43,2.43,0,0,0,612.43,582.51Z"></path><path class="cls-9" d="M529.61,529.76a3.83,3.83,0,1,1,3.83-3.83A3.84,3.84,0,0,1,529.61,529.76Zm0-6.26a2.44,2.44,0,1,0,2.43,2.43A2.43,2.43,0,0,0,529.61,523.5Z"></path><path class="cls-9" d="M595.81,565.46a3.83,3.83,0,1,1,3.83-3.83A3.84,3.84,0,0,1,595.81,565.46Zm0-6.26a2.43,2.43,0,1,0,2.43,2.43A2.43,2.43,0,0,0,595.81,559.2Z"></path><g class="cls-10"><path class="cls-9" d="M591.45,513.31a6.15,6.15,0,0,1-1.59-.21,6,6,0,0,1-3.71-2.85,6.11,6.11,0,1,1,5.3,3.06Zm0-10.83a4.71,4.71,0,0,0-4.07,7.07,4.62,4.62,0,0,0,2.86,2.2,4.71,4.71,0,1,0,1.21-9.27Z"></path></g><path class="cls-9" d="M574.69,544.42a6.28,6.28,0,0,1-1.6-.21,6.11,6.11,0,1,1,6.88-9h0a6.12,6.12,0,0,1,.61,4.64,6.12,6.12,0,0,1-5.89,4.53Zm0-10.82a4.66,4.66,0,0,0-2.35.63,4.72,4.72,0,0,0-1.73,6.44,4.72,4.72,0,0,0,8.17-4.72A4.71,4.71,0,0,0,574.67,533.6Z"></path><g class="cls-10"><path class="cls-9" d="M558.27,597.17a6.2,6.2,0,0,1-1.59-.21,6.1,6.1,0,1,1,1.59.21Zm0-10.83a4.71,4.71,0,1,0,4.57,5.94,4.76,4.76,0,0,0-.47-3.58h0a4.72,4.72,0,0,0-4.1-2.36Z"></path></g><path class="cls-9" d="M528.31,478.5a3.83,3.83,0,1,1,3.83-3.83A3.84,3.84,0,0,1,528.31,478.5Zm0-6.26a2.43,2.43,0,1,0,2.43,2.43A2.43,2.43,0,0,0,528.31,472.24Z"></path><g class="cls-10"><path class="cls-9" d="M545.65,553.42a2.13,2.13,0,0,1-1.54-.64,2.18,2.18,0,1,1,3.09-3.09h0a2.17,2.17,0,0,1,0,3.09A2.14,2.14,0,0,1,545.65,553.42Zm0-3a.82.82,0,0,0-.56.23.8.8,0,0,0,0,1.13.8.8,0,1,0,.56-1.36Z"></path></g><path class="cls-9" d="M568.57,486.64A2.14,2.14,0,0,1,567,486a2.18,2.18,0,0,1,3.09-3.09h0a2.19,2.19,0,0,1-1.55,3.73Zm0-3a.79.79,0,0,0-.56.23.8.8,0,1,0,1.12,0A.82.82,0,0,0,568.57,483.66Z"></path><g class="cls-10"><path class="cls-9" d="M591.44,456.4a2.19,2.19,0,0,1-1.55-3.74,2.18,2.18,0,0,1,3.1,0h0a2.19,2.19,0,0,1-1.55,3.74Zm0-3a.77.77,0,0,0-.56.24.79.79,0,1,0,1.12,0A.77.77,0,0,0,591.44,453.41Z"></path></g><rect class="cls-11" x="555.47" y="417.29" width="26.3" height="12.83" rx="2" transform="translate(1137.25 847.41) rotate(-180)"></rect><path class="cls-12" d="M568.42,428.34a.89.89,0,0,0,.75-1v-6c0-.55-.33-1-.75-1a.9.9,0,0,0-.75,1v6A.89.89,0,0,0,568.42,428.34Z"></path><path class="cls-12" d="M565.71,428.34a.89.89,0,0,0,.75-1v-6c0-.55-.33-1-.75-1a.9.9,0,0,0-.75,1v6A.89.89,0,0,0,565.71,428.34Z"></path><path class="cls-12" d="M563,428.34a.89.89,0,0,0,.75-1v-6a.78.78,0,1,0-1.5,0v6A.89.89,0,0,0,563,428.34Z"></path><path class="cls-12" d="M560.29,428.34a.89.89,0,0,0,.75-1v-6a.78.78,0,1,0-1.5,0v6A.89.89,0,0,0,560.29,428.34Z"></path><path class="cls-12" d="M557.58,428.34a.89.89,0,0,0,.75-1v-6a.9.9,0,0,0-.75-1c-.42,0-.75.44-.75,1v6A.89.89,0,0,0,557.58,428.34Z"></path><path class="cls-12" d="M571.13,428.34a.89.89,0,0,0,.75-1v-6c0-.55-.33-1-.75-1a.9.9,0,0,0-.75,1v6A.89.89,0,0,0,571.13,428.34Z"></path><path class="cls-12" d="M576.61,428.34a.89.89,0,0,0,.75-1v-6a.9.9,0,0,0-.75-1c-.42,0-.75.44-.75,1v6A.89.89,0,0,0,576.61,428.34Z"></path><path class="cls-12" d="M573.9,428.34a.89.89,0,0,0,.75-1v-6a.9.9,0,0,0-.75-1c-.42,0-.75.44-.75,1v6A.89.89,0,0,0,573.9,428.34Z"></path><path class="cls-16" d="M579.77,417.29h-22.3a2,2,0,0,0-2,2v2.48h26.3v-2.48A2,2,0,0,0,579.77,417.29Z"></path><path class="cls-12" d="M579.57,428.34a.89.89,0,0,0,.75-1v-6c0-.55-.33-1-.75-1a.9.9,0,0,0-.75,1v6A.89.89,0,0,0,579.57,428.34Z"></path><rect class="cls-11" x="672.45" y="417.26" width="26.3" height="12.83" rx="2" transform="translate(1371.21 847.34) rotate(-180)"></rect><rect class="cls-11" x="672.45" y="417.26" width="26.3" height="12.83" rx="2" transform="translate(1371.21 847.34) rotate(-180)"></rect><path class="cls-12" d="M685.4,428.31c.42,0,.75-.44.75-1v-6a.78.78,0,1,0-1.5,0v6A.9.9,0,0,0,685.4,428.31Z"></path><path class="cls-12" d="M682.69,428.31c.42,0,.75-.44.75-1v-6a.78.78,0,1,0-1.5,0v6A.9.9,0,0,0,682.69,428.31Z"></path><path class="cls-12" d="M680,428.31c.42,0,.75-.44.75-1v-6a.78.78,0,1,0-1.5,0v6A.9.9,0,0,0,680,428.31Z"></path><path class="cls-12" d="M677.27,428.31c.42,0,.75-.44.75-1v-6a.78.78,0,1,0-1.5,0v6A.9.9,0,0,0,677.27,428.31Z"></path><path class="cls-12" d="M674.56,428.31a.9.9,0,0,0,.75-1v-6a.78.78,0,1,0-1.5,0v6A.9.9,0,0,0,674.56,428.31Z"></path><path class="cls-12" d="M688.11,428.31c.42,0,.75-.44.75-1v-6a.78.78,0,1,0-1.5,0v6A.9.9,0,0,0,688.11,428.31Z"></path><path class="cls-12" d="M693.59,428.31a.9.9,0,0,0,.75-1v-6a.78.78,0,1,0-1.5,0v6C692.84,427.87,693.17,428.31,693.59,428.31Z"></path><path class="cls-12" d="M690.88,428.31a.9.9,0,0,0,.75-1v-6a.78.78,0,1,0-1.5,0v6C690.13,427.87,690.46,428.31,690.88,428.31Z"></path><path class="cls-16" d="M696.75,417.26h-22.3a2,2,0,0,0-2,2v2.47h26.3v-2.47A2,2,0,0,0,696.75,417.26Z"></path><path class="cls-12" d="M696.55,428.31c.42,0,.75-.44.75-1v-6a.78.78,0,1,0-1.5,0v6A.9.9,0,0,0,696.55,428.31Z"></path><path class="cls-1" d="M713.2,337.23a6.25,6.25,0,0,0-1.35,3.21v22.84a8.4,8.4,0,0,0,1.08,2.53,5.53,5.53,0,0,0,2.17,2L726,372.16v-40.6l-11,4.48A3.67,3.67,0,0,0,713.2,337.23Z"></path><path class="cls-6" d="M671.1,253.42c.89-2,1.79-4.09,2.69-6.13l6.57-.95h4l6.5.71c.92,2.13,1.85,4.25,2.77,6.37a54.81,54.81,0,0,1,22.8,9.92h0a25,25,0,0,1,4.76,2.12,54.74,54.74,0,0,0-26.57-13.27l-2.8-6.43-7.3-.81h-4.2L672.82,246l-2.71,6.17a54.18,54.18,0,0,0-28.2,14.86,21,21,0,0,1,3-.91A53.71,53.71,0,0,1,671.1,253.42Z"></path><path class="cls-9" d="M737.5,305.92V291.39a7.26,7.26,0,0,0-5.79-7.09c-4.8-15.37-19.5-27.36-38-30.88-.92-2.12-1.85-4.24-2.77-6.37l-6.5-.71h-4l-6.57.95c-.9,2-1.8,4.09-2.69,6.13-18.54,3.52-33.24,15.51-38.05,30.88a7.26,7.26,0,0,0-5.78,7.09v14.53a7.23,7.23,0,0,0,4.1,6.51v77.66a7.23,7.23,0,0,0-4.1,6.51v14.53a7.25,7.25,0,0,0,7.24,7.24h95.75a7.25,7.25,0,0,0,7.24-7.24V396.6a7.25,7.25,0,0,0-4.11-6.52c0-19.37,0-54.18-.1-77.59A7.25,7.25,0,0,0,737.5,305.92Zm-25.65,34.52a6.25,6.25,0,0,1,1.35-3.21,3.67,3.67,0,0,1,1.87-1.19l11-4.48v40.6l-10.93-4.37a5.53,5.53,0,0,1-2.17-2,8.4,8.4,0,0,1-1.08-2.53Z"></path><path class="cls-6" d="M730.26,419.76H634.51a8.64,8.64,0,0,1-8.63-8.63V396.6a8.7,8.7,0,0,1,4.1-7.34v-76a8.7,8.7,0,0,1-4.1-7.34V291.39a8.67,8.67,0,0,1,6.08-8.25c5.16-15.44,19.67-27.22,38.15-30.95l2.71-6.17,7.54-1.07h4.2l7.3.8,2.8,6.44c18.48,3.74,33,15.51,38.15,30.95a8.67,8.67,0,0,1,6.08,8.25v14.53a8.66,8.66,0,0,1-4.2,7.4c.07,23.23.09,57.13.1,75.94a8.68,8.68,0,0,1,4.1,7.34v14.53A8.64,8.64,0,0,1,730.26,419.76Zm-55.5-171.2-2.68,6.09-.72.14c-18.11,3.44-32.28,14.9-37,29.93l-.25.78-.81.17a5.85,5.85,0,0,0-4.66,5.72v14.53a5.89,5.89,0,0,0,3.31,5.26l.79.38V391l-.79.38a5.89,5.89,0,0,0-3.31,5.26v14.53a5.85,5.85,0,0,0,5.84,5.84h95.75a5.85,5.85,0,0,0,5.84-5.84V396.6a5.88,5.88,0,0,0-3.31-5.26L732,391v-.87c0-18.86,0-54-.11-77.6v-.9l.81-.37a5.87,5.87,0,0,0,3.4-5.3V291.39a5.85,5.85,0,0,0-4.67-5.72l-.8-.17-.25-.78c-4.69-15-18.86-26.49-37-29.93l-.72-.14-2.75-6.3-5.61-.61h-3.87Zm52.67,125.66-12.95-5.17a7,7,0,0,1-2.71-2.47,9.4,9.4,0,0,1-1.28-3l0-.32v-23a7.55,7.55,0,0,1,1.68-4,5.1,5.1,0,0,1,2.47-1.59l12.81-5.23Zm-11.76-7.7,9,3.58V333.64l-9.22,3.76a2.27,2.27,0,0,0-1.16.75,4.76,4.76,0,0,0-1,2.39V363.1a6.45,6.45,0,0,0,.85,1.94A4.23,4.23,0,0,0,715.67,366.52Z"></path><path class="cls-9" d="M675.33,266.54c9-1.94,13-5.19,22.82-5.7a58.11,58.11,0,0,1,14.39,1.42,54.45,54.45,0,0,0-19.13-7.47l-.72-.14-2.75-6.3-5.61-.61h-3.86l-5.71.82-2.68,6.09-.72.14a52.79,52.79,0,0,0-24,11C653.44,265.58,661.45,269.54,675.33,266.54Z"></path><path class="cls-6" d="M690.9,247.05l-6.5-.71h-4l-6.57.95c-.9,2-1.8,4.09-2.69,6.13a53.71,53.71,0,0,0-26.17,12.72,14.29,14.29,0,0,1,2.36-.31h.05a52.79,52.79,0,0,1,24-11l.72-.14,2.68-6.09,5.71-.82h3.86l5.61.61,2.75,6.3.72.14a54.45,54.45,0,0,1,19.13,7.47c1.29.3,2.61.65,3.93,1.08a54.81,54.81,0,0,0-22.8-9.92C692.75,251.3,691.82,249.18,690.9,247.05Z"></path><path class="cls-8" d="M634.39,284.72l-.25.78-.81.17a5.85,5.85,0,0,0-4.66,5.72v14.53a5.89,5.89,0,0,0,3.31,5.26l.79.38V391l-.79.38a5.89,5.89,0,0,0-3.31,5.26v14.53a5.85,5.85,0,0,0,5.84,5.84h95.75a5.85,5.85,0,0,0,5.84-5.84V396.6a5.89,5.89,0,0,0-3.31-5.26L732,391v-.87c0-18.86,0-54-.11-77.6v-.89l.81-.38a5.87,5.87,0,0,0,3.4-5.3V291.39a5.85,5.85,0,0,0-4.67-5.72l-.8-.17-.25-.78a41.34,41.34,0,0,0-14.78-20.35,135.52,135.52,0,0,1-15.38.57c-10.73-.22-13.38-1.59-21.11-.65-6.55.81-7.23,2.08-13.36,2.81a50.42,50.42,0,0,1-18.41-1.27c-.28.23-.68.58-1.16,1a43.89,43.89,0,0,0-6.95,7.89A40,40,0,0,0,634.39,284.72Zm76.08,55.55a7.58,7.58,0,0,1,1.68-4,5,5,0,0,1,2.48-1.59l12.8-5.23v44.72l-12.95-5.16a7.09,7.09,0,0,1-2.71-2.47,9.3,9.3,0,0,1-1.28-3l0-.32Z"></path><path class="cls-9" d="M669.75,366.16a6.12,6.12,0,0,1-5.3-3.06A6.11,6.11,0,0,1,675,357h0a6.1,6.1,0,0,1-2.24,8.34A6,6,0,0,1,669.75,366.16Zm0-10.83a4.66,4.66,0,0,0-2.35.63,4.72,4.72,0,1,0,2.35-.63Z"></path><path class="cls-6" d="M730.71,314.78a19.27,19.27,0,0,0,2.59-.18c0-.64,0-1.27,0-1.9H631.37v1.72a17.11,17.11,0,0,0,3.59.36Z"></path><path class="cls-6" d="M731.46,284.83c.61,0,1.19,0,1.76,0a7.62,7.62,0,0,0-1.51-.49,1.83,1.83,0,0,0-.08-.25H633.14l-.09.25a7.06,7.06,0,0,0-1.21.37c1.12.1,2.44.16,3.87.16Z"></path><path class="cls-6" d="M634.51,389.16c-1.13,0-2.19,0-3.14.1v.67h102v-.67c-.95-.06-2-.1-3.13-.1Z"></path><path class="cls-6" d="M634.51,417h-4.26a7.24,7.24,0,0,0,4.26,1.4h95.75a7.19,7.19,0,0,0,4.25-1.4h-100Z"></path><rect class="cls-11" x="669.08" y="236.24" width="26.3" height="12.83" rx="2" transform="translate(1364.45 485.32) rotate(-180)"></rect><path class="cls-12" d="M683.56,246.77c.41,0,.74-.44.74-1v-6c0-.55-.33-1-.74-1a.9.9,0,0,0-.76,1v6A.89.89,0,0,0,683.56,246.77Z"></path><path class="cls-12" d="M680.84,246.77a.89.89,0,0,0,.75-1v-6c0-.55-.33-1-.75-1a.9.9,0,0,0-.75,1v6A.89.89,0,0,0,680.84,246.77Z"></path><path class="cls-12" d="M678.13,246.77a.89.89,0,0,0,.75-1v-6c0-.55-.33-1-.75-1a.9.9,0,0,0-.75,1v6A.89.89,0,0,0,678.13,246.77Z"></path><path class="cls-12" d="M675.42,246.77a.89.89,0,0,0,.75-1v-6c0-.55-.33-1-.75-1a.9.9,0,0,0-.75,1v6A.89.89,0,0,0,675.42,246.77Z"></path><path class="cls-12" d="M672.71,246.77a.89.89,0,0,0,.75-1v-6c0-.55-.33-1-.75-1a.9.9,0,0,0-.75,1v6A.89.89,0,0,0,672.71,246.77Z"></path><path class="cls-12" d="M686.27,246.77a.89.89,0,0,0,.75-1v-6a.9.9,0,0,0-.75-1c-.42,0-.75.44-.75,1v6A.89.89,0,0,0,686.27,246.77Z"></path><path class="cls-12" d="M691.74,246.77a.89.89,0,0,0,.75-1v-6c0-.55-.33-1-.75-1a.9.9,0,0,0-.75,1v6A.89.89,0,0,0,691.74,246.77Z"></path><path class="cls-12" d="M689,246.77a.89.89,0,0,0,.75-1v-6a.9.9,0,0,0-.75-1c-.42,0-.75.44-.75,1v6A.89.89,0,0,0,689,246.77Z"></path><path class="cls-9" d="M678.13,403.31a3.83,3.83,0,1,1,3.83-3.83A3.84,3.84,0,0,1,678.13,403.31Zm0-6.27a2.44,2.44,0,1,0,2.44,2.44A2.44,2.44,0,0,0,678.13,397Z"></path><g class="cls-10"><path class="cls-9" d="M644.34,378a3.83,3.83,0,1,1,3.83-3.83A3.82,3.82,0,0,1,644.34,378Zm0-6.26a2.44,2.44,0,1,0,2.44,2.43A2.43,2.43,0,0,0,644.34,371.78Z"></path></g><path class="cls-9" d="M715,279.21a3.83,3.83,0,1,1,3.82-3.83A3.83,3.83,0,0,1,715,279.21Zm0-6.26a2.44,2.44,0,1,0,2.43,2.43A2.43,2.43,0,0,0,715,273Z"></path><path class="cls-9" d="M709.41,384.41a3.83,3.83,0,1,1,3.83-3.83A3.83,3.83,0,0,1,709.41,384.41Zm0-6.26a2.44,2.44,0,1,0,2.44,2.43A2.43,2.43,0,0,0,709.41,378.15Z"></path><path class="cls-9" d="M657.41,310.51a3.83,3.83,0,1,1,3.83-3.83A3.84,3.84,0,0,1,657.41,310.51Zm0-6.26a2.43,2.43,0,1,0,2.43,2.43A2.43,2.43,0,0,0,657.41,304.25Z"></path><g class="cls-10"><path class="cls-9" d="M650.46,337.71a6.12,6.12,0,0,1-5.3-3.06,6.11,6.11,0,1,1,5.3,3.06Zm0-10.83a4.66,4.66,0,0,0-2.35.63,4.72,4.72,0,1,0,2.35-.63Z"></path></g><g class="cls-10"><path class="cls-9" d="M718.16,408.82a7.31,7.31,0,1,1,3.65-1A7.31,7.31,0,0,1,718.16,408.82Zm0-13a5.66,5.66,0,0,0-4.89,8.48,5.66,5.66,0,0,0,7.72,2.07,5.68,5.68,0,0,0,2.64-3.43,5.6,5.6,0,0,0-.57-4.29A5.67,5.67,0,0,0,718.14,395.84Z"></path></g><path class="cls-9" d="M705.59,303.6a5.81,5.81,0,0,1-1.59-.22,6.11,6.11,0,1,1,6.87-8.95h0a6.12,6.12,0,0,1-5.28,9.17Zm0-10.83a4.65,4.65,0,0,0-2.34.63,4.72,4.72,0,1,0,2.34-.63Z"></path><path class="cls-9" d="M641.92,415.42a6.2,6.2,0,0,1-1.59-.21,6.1,6.1,0,1,1,1.59.21Zm0-10.83a4.72,4.72,0,0,0-2.35.64,4.71,4.71,0,0,0,4.72,8.16A4.7,4.7,0,0,0,646,407h0a4.61,4.61,0,0,0-2.86-2.19A4.68,4.68,0,0,0,641.9,404.59Z"></path><g class="cls-10"><path class="cls-9" d="M641.91,297.45a3.83,3.83,0,1,1,3.83-3.83A3.83,3.83,0,0,1,641.91,297.45Zm0-6.26a2.44,2.44,0,1,0,2.43,2.43A2.43,2.43,0,0,0,641.91,291.19Z"></path></g><g class="cls-10"><path class="cls-9" d="M695.87,329.07a2.18,2.18,0,0,1-1.55-.64,2.19,2.19,0,0,1,3.1-3.1h0a2.19,2.19,0,0,1-1.55,3.74Zm0-3a.76.76,0,0,0-.56.23.79.79,0,0,0,0,1.12.81.81,0,0,0,1.12,0,.79.79,0,0,0,0-1.12A.76.76,0,0,0,695.87,326.09Z"></path></g><path class="cls-9" d="M663.63,279.76a2.14,2.14,0,0,1-1.54-.64,2.19,2.19,0,0,1,3.09-3.1h0a2.18,2.18,0,0,1,0,3.1A2.15,2.15,0,0,1,663.63,279.76Zm0-3a.82.82,0,0,0-.56.23.79.79,0,0,0,0,1.12A.8.8,0,0,0,664.2,277,.83.83,0,0,0,663.63,276.78Z"></path><path class="cls-9" d="M697.28,348.53a2.19,2.19,0,1,1,1.55-3.74h0a2.19,2.19,0,0,1-1.55,3.74Zm0-3a.78.78,0,0,0-.56.23.79.79,0,0,0,0,1.12.8.8,0,0,0,1.13,0,.79.79,0,0,0-.57-1.35Z"></path><rect class="cls-11" x="669.08" y="236.24" width="26.3" height="12.83" rx="2" transform="translate(1364.45 485.32) rotate(-180)"></rect><path class="cls-12" d="M682,247.3c.41,0,.74-.44.74-1v-6c0-.54-.33-1-.74-1a.89.89,0,0,0-.76,1v6A.9.9,0,0,0,682,247.3Z"></path><path class="cls-12" d="M679.31,247.3c.42,0,.75-.44.75-1v-6a.78.78,0,1,0-1.5,0v6A.9.9,0,0,0,679.31,247.3Z"></path><path class="cls-12" d="M676.6,247.3c.42,0,.75-.44.75-1v-6a.78.78,0,1,0-1.5,0v6A.9.9,0,0,0,676.6,247.3Z"></path><path class="cls-12" d="M673.89,247.3c.42,0,.75-.44.75-1v-6a.78.78,0,1,0-1.5,0v6A.9.9,0,0,0,673.89,247.3Z"></path><path class="cls-12" d="M671.18,247.3c.42,0,.75-.44.75-1v-6a.78.78,0,1,0-1.5,0v6A.9.9,0,0,0,671.18,247.3Z"></path><path class="cls-12" d="M684.74,247.3a.9.9,0,0,0,.75-1v-6a.78.78,0,1,0-1.5,0v6C684,246.86,684.32,247.3,684.74,247.3Z"></path><path class="cls-12" d="M690.21,247.3c.42,0,.75-.44.75-1v-6a.78.78,0,1,0-1.5,0v6A.9.9,0,0,0,690.21,247.3Z"></path><path class="cls-12" d="M687.5,247.3a.9.9,0,0,0,.75-1v-6a.78.78,0,1,0-1.5,0v6A.9.9,0,0,0,687.5,247.3Z"></path><path class="cls-16" d="M693.38,236.24h-22.3a2,2,0,0,0-2,2v2.48h26.3v-2.48A2,2,0,0,0,693.38,236.24Z"></path><path class="cls-12" d="M693.17,247.3c.42,0,.75-.44.75-1v-6a.78.78,0,1,0-1.5,0v6A.9.9,0,0,0,693.17,247.3Z"></path><path class="cls-6" d="M517.47,53.53h-4.25a7.12,7.12,0,0,0,4.25,1.4h95.75a7.12,7.12,0,0,0,4.25-1.4h-100Z"></path><path class="cls-6" d="M630.6,53.62h-4.25A7.21,7.21,0,0,0,630.6,55h95.75a7.24,7.24,0,0,0,4.26-1.4h-100Z"></path><rect class="cls-3" x="623.32" y="603.21" width="7.9" height="4.89"></rect><rect x="653.31" y="651.35" width="8" height="2.24"></rect><rect x="593.4" y="651.35" width="8" height="2.24"></rect><path class="cls-2" d="M651.69,619.13a2.48,2.48,0,0,0-2.63-2.29H605.48a2.48,2.48,0,0,0-2.63,2.29l-3.27,13.79a2.48,2.48,0,0,0,2.63,2.29h50.12a2.48,2.48,0,0,0,2.63-2.29Z"></path><path class="cls-4" d="M661.25,611.76a3.66,3.66,0,0,0-3.66-3.66H597a3.66,3.66,0,0,0-3.66,3.66l-6.87,35.93a3.66,3.66,0,0,0,3.66,3.66h74.38a3.66,3.66,0,0,0,3.66-3.66Z"></path><path class="cls-5" d="M651.06,619.26a2.39,2.39,0,0,0-2.56-2.18H606a2.39,2.39,0,0,0-2.56,2.18q-1.59,6.59-3.19,13.17a2.4,2.4,0,0,0,2.57,2.19h48.83a2.4,2.4,0,0,0,2.56-2.19Q652.66,625.85,651.06,619.26Z"></path><path d="M610.62,622.17v-1.25l2.5-.07v8.8h-1.38v-7.52Z"></path><path d="M619.23,621.94a1.52,1.52,0,0,0-1-.26,1.58,1.58,0,0,0-1.41.76,4.85,4.85,0,0,0-.49,2.44,2.07,2.07,0,0,1,.91-.84,3,3,0,0,1,1.29-.31,2.76,2.76,0,0,1,1.4.33,2.36,2.36,0,0,1,.95,1,3.38,3.38,0,0,1,.34,1.58,3.44,3.44,0,0,1-.33,1.53,2.45,2.45,0,0,1-1,1.06,3.16,3.16,0,0,1-1.56.39,3,3,0,0,1-1.93-.55,2.87,2.87,0,0,1-1-1.55,9.32,9.32,0,0,1-.28-2.5c0-3,1-4.47,3.1-4.5a2.61,2.61,0,0,1,1.89.63,2.58,2.58,0,0,1,.81,1.62h-1.26A1.51,1.51,0,0,0,619.23,621.94ZM617,625.36a1.63,1.63,0,0,0-.51,1.29A1.82,1.82,0,0,0,617,628a1.75,1.75,0,0,0,1.32.48,1.55,1.55,0,0,0,1.2-.48,1.81,1.81,0,0,0,.43-1.27,1.94,1.94,0,0,0-.42-1.32,1.57,1.57,0,0,0-1.26-.49A1.88,1.88,0,0,0,617,625.36Z"></path><path d="M623.41,621.71a2.57,2.57,0,0,1,2.42-1.2,2.53,2.53,0,0,1,2.41,1.19A6.55,6.55,0,0,1,629,625a6.67,6.67,0,0,1-.71,3.35,3,3,0,0,1-4.83,0,8.27,8.27,0,0,1,0-6.66Zm4.07,1.63a2.41,2.41,0,0,0-.51-1.13,1.48,1.48,0,0,0-1.14-.43,1.43,1.43,0,0,0-1.14.44,2.19,2.19,0,0,0-.51,1.12,9,9,0,0,0-.13,1.68,10.48,10.48,0,0,0,.12,1.73,2.16,2.16,0,0,0,.51,1.12,1.74,1.74,0,0,0,2.29,0,2.19,2.19,0,0,0,.51-1.13,10.39,10.39,0,0,0,.12-1.73A9.79,9.79,0,0,0,627.48,623.34Z"></path><path d="M633.19,626.25l3,3.37h-1.85l-2.44-2.9v2.89h-1.37v-9.06H632v5.26l2.4-2.92,1.89,0Z"></path><path d="M641.25,623.2a2.58,2.58,0,0,1,.93.78v-1l1.38,0v6.73a3.46,3.46,0,0,1-.38,1.62,2.78,2.78,0,0,1-1.11,1.12,3.53,3.53,0,0,1-1.74.41,3.7,3.7,0,0,1-2.23-.64,2.35,2.35,0,0,1-1-1.73h1.36a1.47,1.47,0,0,0,.67.85,2.25,2.25,0,0,0,1.21.32,1.76,1.76,0,0,0,1.34-.5,2,2,0,0,0,.51-1.47v-1.1a2.71,2.71,0,0,1-.94.78,2.86,2.86,0,0,1-1.35.31,3,3,0,0,1-1.58-.45,3.26,3.26,0,0,1-1.13-1.25,4,4,0,0,1-.41-1.81,3.77,3.77,0,0,1,.41-1.78,2.93,2.93,0,0,1,2.71-1.6A3,3,0,0,1,641.25,623.2Zm.65,1.94a2,2,0,0,0-.74-.79,1.89,1.89,0,0,0-1-.28,1.91,1.91,0,0,0-1,.24,1.88,1.88,0,0,0-.73.75,2.38,2.38,0,0,0-.29,1.19,2.5,2.5,0,0,0,.29,1.22,1.92,1.92,0,0,0,.74.8,1.82,1.82,0,0,0,1,.28,1.86,1.86,0,0,0,1-.25,2,2,0,0,0,.74-.77,2.69,2.69,0,0,0,0-2.39Z"></path><path class="cls-13" d="M502.75,595.36c1.57,4.53,16.59,8.12,34.75,8.12H725.21c18.13,0,33.13-3.58,34.75-8.11H502.75Z"></path><path class="cls-14" d="M502.77,595.4a3.32,3.32,0,0,0,.6,1h256a3.32,3.32,0,0,0,.6-1Z"></path><path class="cls-15" d="M760.05,592.78H503.1a2,2,0,0,0-.53,0c-.71.14-1.34.72-1.27,1.36a1.62,1.62,0,0,0,1.43,1.19,1.57,1.57,0,0,0,.37,0H760.05c1.11.08,2.06-.54,2.07-1.29S761.17,592.7,760.05,592.78Z"></path><path class="cls-13" d="M760,595.37H502.75l0,0H759.94Z"></path><path class="cls-13" d="M537.5,603.48H725.21c16.77,0,30.84-3.07,34.13-7.1h-256C506.66,600.41,520.73,603.48,537.5,603.48Z"></path><text class="cls-17" transform="translate(212.22 693.37)">1.5l bottled water </text><text class="cls-17" transform="translate(457.45 693.37)">yearly average of 800 bottles for a household </text><text class="cls-18" transform="translate(101.8 216.13)">Lets put it into <tspan class="cls-19"><tspan x="0" y="44">perspective</tspan></tspan></text><rect y="653.69" width="858.38" height="2.14"></rect><text class="cls-20" transform="translate(174.71 722.44)">200g of carbon dioxide</text><text class="cls-20" transform="translate(520.17 722.44)">160kg of carbon dioxide</text><path class="cls-1" d="M596.22,337.26a6.24,6.24,0,0,0-1.35,3.22v22.83a8.33,8.33,0,0,0,1.08,2.54,5.62,5.62,0,0,0,2.17,2l10.93,4.36V331.6l-11,4.48A3.63,3.63,0,0,0,596.22,337.26Z"></path><path class="cls-6" d="M554.11,253.45l2.7-6.13,6.57-.95h4l6.5.72,2.77,6.36a54.81,54.81,0,0,1,22.8,9.92h0a25.61,25.61,0,0,1,4.76,2.12,54.83,54.83,0,0,0-26.57-13.27l-2.8-6.43-7.3-.8h-4.2l-7.54,1.07-2.71,6.17a54.18,54.18,0,0,0-28.2,14.86,21,21,0,0,1,3-.91A53.72,53.72,0,0,1,554.11,253.45Z"></path><path class="cls-9" d="M620.52,306V291.42a7.26,7.26,0,0,0-5.79-7.09c-4.8-15.36-19.5-27.36-38-30.88l-2.77-6.36-6.5-.72h-4l-6.57.95-2.7,6.13c-18.53,3.52-33.23,15.52-38,30.88a7.26,7.26,0,0,0-5.78,7.09V306a7.23,7.23,0,0,0,4.1,6.51v77.66a7.23,7.23,0,0,0-4.1,6.51v14.53a7.25,7.25,0,0,0,7.24,7.24h95.75a7.25,7.25,0,0,0,7.24-7.24V396.63a7.22,7.22,0,0,0-4.11-6.51c0-19.37,0-54.19-.1-77.6A7.25,7.25,0,0,0,620.52,306Zm-25.65,34.53a6.24,6.24,0,0,1,1.35-3.22,3.63,3.63,0,0,1,1.87-1.18l11-4.48v40.59l-10.93-4.36a5.62,5.62,0,0,1-2.17-2,8.33,8.33,0,0,1-1.08-2.54Z"></path><path class="cls-6" d="M613.28,419.8H517.53a8.66,8.66,0,0,1-8.64-8.64V396.63a8.69,8.69,0,0,1,4.1-7.33v-76a8.72,8.72,0,0,1-4.1-7.34V291.42a8.68,8.68,0,0,1,6.09-8.25c5.16-15.44,19.67-27.21,38.15-31l2.71-6.17,7.54-1.07h4.2l7.3.8,2.8,6.43c18.48,3.74,33,15.51,38.15,31a8.67,8.67,0,0,1,6.08,8.25V306a8.65,8.65,0,0,1-4.2,7.4c.07,23.23.09,57.13.1,75.94a8.7,8.7,0,0,1,4.1,7.34v14.53A8.65,8.65,0,0,1,613.28,419.8ZM557.77,248.6l-2.67,6.08-.73.14c-18.1,3.44-32.27,14.9-37,29.93l-.25.78-.81.17a5.85,5.85,0,0,0-4.66,5.72V306a5.89,5.89,0,0,0,3.31,5.26l.79.38V391l-.79.38a5.89,5.89,0,0,0-3.31,5.26v14.53a5.85,5.85,0,0,0,5.84,5.84h95.75a5.85,5.85,0,0,0,5.84-5.84V396.63a5.89,5.89,0,0,0-3.31-5.26L615,391v-.87c0-18.86,0-54-.11-77.6v-.89l.81-.38a5.87,5.87,0,0,0,3.4-5.3V291.42a5.85,5.85,0,0,0-4.67-5.72l-.8-.17-.25-.78c-4.69-15-18.86-26.49-37-29.93l-.72-.14L573,248.39l-5.61-.62h-3.87Zm52.68,125.65-13-5.17a7,7,0,0,1-2.71-2.47,9.35,9.35,0,0,1-1.28-3l0-.33,0-23a7.52,7.52,0,0,1,1.68-3.95,5.12,5.12,0,0,1,2.47-1.6l12.81-5.23Zm-11.76-7.7,9,3.58V333.68l-9.22,3.75a2.27,2.27,0,0,0-1.16.75,4.76,4.76,0,0,0-1,2.39v22.56a6.63,6.63,0,0,0,.85,1.95A4.27,4.27,0,0,0,598.69,366.55Z"></path><path class="cls-9" d="M558.35,266.57c9-1.94,13-5.19,22.82-5.7a58.69,58.69,0,0,1,14.39,1.42,54.45,54.45,0,0,0-19.13-7.47l-.72-.14L573,248.39l-5.61-.62h-3.87l-5.7.83-2.68,6.08-.72.14a52.89,52.89,0,0,0-24,11C536.46,265.61,544.47,269.58,558.35,266.57Z"></path><path class="cls-6" d="M573.92,247.09l-6.5-.72h-4l-6.57.95-2.7,6.13A53.72,53.72,0,0,0,528,266.17a14.29,14.29,0,0,1,2.36-.31h.05a52.89,52.89,0,0,1,24-11l.72-.14,2.68-6.08,5.7-.83h3.87l5.61.62,2.75,6.29.72.14a54.45,54.45,0,0,1,19.13,7.47c1.29.3,2.61.65,3.93,1.08a54.81,54.81,0,0,0-22.8-9.92Z"></path><path class="cls-8" d="M517.41,284.75l-.25.78-.81.17a5.85,5.85,0,0,0-4.66,5.72V306a5.89,5.89,0,0,0,3.31,5.26l.79.38V391l-.79.39a5.87,5.87,0,0,0-3.31,5.25v14.53a5.85,5.85,0,0,0,5.84,5.84h95.75a5.85,5.85,0,0,0,5.84-5.84V396.63a5.89,5.89,0,0,0-3.31-5.26L615,391v-.87c0-18.86,0-54-.11-77.6v-.89l.81-.38a5.87,5.87,0,0,0,3.4-5.3V291.42a5.85,5.85,0,0,0-4.67-5.72l-.8-.17-.25-.78c-2.85-9.14-9.22-17-17.84-22.46a83.9,83.9,0,0,1-14.67,1.92c-10.68.45-16.2-1.35-24.51-1.79a74.43,74.43,0,0,0-26,3.44A40.31,40.31,0,0,0,517.41,284.75Zm76.08,55.55a7.52,7.52,0,0,1,1.68-3.95,5,5,0,0,1,2.48-1.6l12.8-5.23v44.73l-13-5.17a7,7,0,0,1-2.72-2.47,9.56,9.56,0,0,1-1.27-3l0-.33Z"></path><path class="cls-6" d="M613.72,314.81a17.56,17.56,0,0,0,2.59-.18v-1.89H514.39v1.72a17.84,17.84,0,0,0,3.59.35Z"></path><path class="cls-6" d="M614.47,284.86c.61,0,1.2,0,1.76,0a7.32,7.32,0,0,0-1.5-.49,2.41,2.41,0,0,0-.08-.25H516.16l-.09.25a7.06,7.06,0,0,0-1.21.37c1.12.1,2.44.16,3.87.16Z"></path><path class="cls-6" d="M517.53,389.19c-1.13,0-2.19,0-3.14.1V390h102v-.68c-.95-.06-2-.1-3.13-.1Z"></path><path class="cls-6" d="M517.53,417h-4.26a7.18,7.18,0,0,0,4.26,1.4h95.75a7.12,7.12,0,0,0,4.25-1.4h-100Z"></path><rect class="cls-11" x="552.1" y="236.27" width="26.3" height="12.83" rx="2" transform="translate(1130.49 485.38) rotate(-180)"></rect><path class="cls-12" d="M566.57,246.8a.89.89,0,0,0,.75-1v-6c0-.55-.33-1-.75-1a.9.9,0,0,0-.75,1v6A.89.89,0,0,0,566.57,246.8Z"></path><path class="cls-12" d="M563.86,246.8a.89.89,0,0,0,.75-1v-6c0-.55-.33-1-.75-1a.9.9,0,0,0-.75,1v6A.89.89,0,0,0,563.86,246.8Z"></path><path class="cls-12" d="M561.15,246.8a.89.89,0,0,0,.75-1v-6c0-.55-.33-1-.75-1a.9.9,0,0,0-.75,1v6A.89.89,0,0,0,561.15,246.8Z"></path><path class="cls-12" d="M558.44,246.8a.89.89,0,0,0,.75-1v-6c0-.55-.33-1-.75-1a.9.9,0,0,0-.75,1v6A.89.89,0,0,0,558.44,246.8Z"></path><path class="cls-12" d="M555.73,246.8a.89.89,0,0,0,.75-1v-6c0-.55-.33-1-.75-1a.9.9,0,0,0-.75,1v6A.89.89,0,0,0,555.73,246.8Z"></path><path class="cls-12" d="M569.28,246.8a.89.89,0,0,0,.75-1v-6c0-.55-.33-1-.75-1a.9.9,0,0,0-.75,1v6A.89.89,0,0,0,569.28,246.8Z"></path><path class="cls-12" d="M574.76,246.8a.89.89,0,0,0,.75-1v-6a.9.9,0,0,0-.75-1c-.42,0-.75.44-.75,1v6A.89.89,0,0,0,574.76,246.8Z"></path><path class="cls-12" d="M572.05,246.8a.89.89,0,0,0,.75-1v-6a.9.9,0,0,0-.75-1c-.42,0-.75.44-.75,1v6A.89.89,0,0,0,572.05,246.8Z"></path><g class="cls-10"><path class="cls-9" d="M527.36,405.32a3.83,3.83,0,1,1,3.83-3.83A3.83,3.83,0,0,1,527.36,405.32Zm0-6.26a2.44,2.44,0,1,0,2.44,2.43A2.43,2.43,0,0,0,527.36,399.06Z"></path></g><path class="cls-9" d="M609.05,407.76a3.83,3.83,0,1,1,3.83-3.83A3.84,3.84,0,0,1,609.05,407.76Zm0-6.26a2.43,2.43,0,1,0,2.43,2.43A2.43,2.43,0,0,0,609.05,401.5Z"></path><path class="cls-9" d="M527.36,303.71a3.83,3.83,0,1,1,3.83-3.83A3.83,3.83,0,0,1,527.36,303.71Zm0-6.26a2.44,2.44,0,1,0,2.44,2.43A2.43,2.43,0,0,0,527.36,297.45Z"></path><g class="cls-10"><path class="cls-9" d="M575.51,362.8a3.83,3.83,0,1,1,3.83-3.83A3.84,3.84,0,0,1,575.51,362.8Zm0-6.26a2.43,2.43,0,1,0,2.43,2.43A2.43,2.43,0,0,0,575.51,356.54Z"></path></g><path class="cls-9" d="M550.73,380.48a3.83,3.83,0,1,1,3.83-3.83A3.84,3.84,0,0,1,550.73,380.48Zm0-6.27a2.44,2.44,0,1,0,2.43,2.44A2.45,2.45,0,0,0,550.73,374.21Z"></path><path class="cls-9" d="M531.2,343.82a6.15,6.15,0,0,1-1.59-.21,6.05,6.05,0,0,1-3.71-2.85,6.11,6.11,0,1,1,5.3,3.06Zm0-10.83a4.66,4.66,0,0,0-2.35.63,4.72,4.72,0,0,0,4.72,8.17,4.72,4.72,0,0,0,1.72-6.44A4.72,4.72,0,0,0,531.18,333Z"></path><path class="cls-9" d="M602,305a6.15,6.15,0,0,1-1.59-.21,6,6,0,0,1-3.71-2.85,6.11,6.11,0,0,1,10.58-6.11h0A6.12,6.12,0,0,1,602,305Zm0-10.83a4.67,4.67,0,0,0-2.35.64,4.73,4.73,0,0,0-1.73,6.44,4.72,4.72,0,0,0,8.17-4.72A4.72,4.72,0,0,0,602,294.16Z"></path><path class="cls-9" d="M581.55,331.6a6.15,6.15,0,0,1-1.59-.21,6.12,6.12,0,0,1-1.48-11.2,6.12,6.12,0,1,1,3.07,11.41Zm0-10.83a4.72,4.72,0,1,0,4.09,2.36h0a4.7,4.7,0,0,0-4.09-2.36Z"></path><g class="cls-10"><path class="cls-9" d="M564.25,296.6a3.83,3.83,0,1,1,3.83-3.83A3.84,3.84,0,0,1,564.25,296.6Zm0-6.26a2.43,2.43,0,1,0,2.43,2.43A2.43,2.43,0,0,0,564.25,290.34Z"></path></g><g class="cls-10"><path class="cls-9" d="M566.57,405.39a2.19,2.19,0,1,1,1.55-3.74h0a2.17,2.17,0,0,1,0,3.09A2.15,2.15,0,0,1,566.57,405.39Zm0-3a.82.82,0,0,0-.56.23.8.8,0,1,0,1.12,0A.79.79,0,0,0,566.57,402.4Z"></path></g><path class="cls-9" d="M583.07,273.79a2.19,2.19,0,1,1,1.55-3.73h0a2.19,2.19,0,0,1,0,3.09A2.14,2.14,0,0,1,583.07,273.79Zm0-3a.82.82,0,0,0-.56.23.8.8,0,1,0,1.12,0A.79.79,0,0,0,583.07,270.81Z"></path><path class="cls-9" d="M551.86,344.45a2.14,2.14,0,0,1-1.54-.64,2.18,2.18,0,1,1,3.09-3.09h0a2.17,2.17,0,0,1,0,3.09A2.15,2.15,0,0,1,551.86,344.45Zm0-3a.82.82,0,0,0-.56.23.8.8,0,0,0,0,1.13.82.82,0,0,0,1.13,0,.8.8,0,0,0,0-1.13A.83.83,0,0,0,551.86,341.47Z"></path><rect class="cls-11" x="552.1" y="236.24" width="26.3" height="12.83" rx="2" transform="translate(1130.49 485.32) rotate(-180)"></rect><path class="cls-12" d="M565,247.3c.42,0,.75-.44.75-1v-6a.78.78,0,1,0-1.5,0v6A.9.9,0,0,0,565,247.3Z"></path><path class="cls-12" d="M562.33,247.3c.42,0,.75-.44.75-1v-6a.78.78,0,1,0-1.5,0v6A.9.9,0,0,0,562.33,247.3Z"></path><path class="cls-12" d="M559.62,247.3c.42,0,.75-.44.75-1v-6a.78.78,0,1,0-1.5,0v6A.9.9,0,0,0,559.62,247.3Z"></path><path class="cls-12" d="M556.91,247.3c.42,0,.75-.44.75-1v-6a.78.78,0,1,0-1.5,0v6A.9.9,0,0,0,556.91,247.3Z"></path><path class="cls-12" d="M554.2,247.3c.42,0,.75-.44.75-1v-6a.78.78,0,1,0-1.5,0v6A.9.9,0,0,0,554.2,247.3Z"></path><path class="cls-12" d="M567.75,247.3a.9.9,0,0,0,.76-1v-6a.78.78,0,1,0-1.51,0v6A.9.9,0,0,0,567.75,247.3Z"></path><path class="cls-12" d="M573.23,247.3a.9.9,0,0,0,.75-1v-6a.78.78,0,1,0-1.5,0v6A.9.9,0,0,0,573.23,247.3Z"></path><path class="cls-12" d="M570.52,247.3a.9.9,0,0,0,.75-1v-6a.78.78,0,1,0-1.5,0v6C569.77,246.86,570.1,247.3,570.52,247.3Z"></path><path class="cls-16" d="M576.39,236.24H554.1a2,2,0,0,0-2,2v2.48h26.29v-2.48A2,2,0,0,0,576.39,236.24Z"></path><path class="cls-12" d="M576.19,247.3c.42,0,.75-.44.75-1v-6a.78.78,0,1,0-1.5,0v6A.9.9,0,0,0,576.19,247.3Z"></path><g class="cls-10"><path class="cls-9" d="M531,228.17a2.19,2.19,0,0,1,0-3.09h0a2.19,2.19,0,0,1,3.1,3.09,2.18,2.18,0,0,1-1.55.65A2.15,2.15,0,0,1,531,228.17Zm1-2.11a.8.8,0,1,0,1.12,0,.82.82,0,0,0-.56-.23A.79.79,0,0,0,532,226.06Z"></path></g><path class="cls-6" d="M553,71.76q1.35-3.06,2.69-6.13l6.58-.95h4l6.49.72,2.78,6.36a54.82,54.82,0,0,1,22.79,9.92h0a25.34,25.34,0,0,1,4.77,2.12,54.73,54.73,0,0,0-26.58-13.27l-2.8-6.43-7.3-.81h-4.19l-7.54,1.07L552,70.53a54.15,54.15,0,0,0-28.2,14.86,20.9,20.9,0,0,1,3-.91A53.8,53.8,0,0,1,553,71.76Z"></path><path class="cls-9" d="M619.36,124.26V109.73a7.26,7.26,0,0,0-5.78-7.09c-4.8-15.37-19.5-27.36-38-30.88l-2.78-6.36-6.49-.72h-4l-6.58.95q-1.33,3.08-2.69,6.13c-18.54,3.52-33.24,15.51-38,30.88a7.25,7.25,0,0,0-5.78,7.09v14.53a7.22,7.22,0,0,0,4.1,6.51v77.66a7.22,7.22,0,0,0-4.1,6.51v14.53a7.24,7.24,0,0,0,7.23,7.24h95.75a7.25,7.25,0,0,0,7.24-7.24V214.94a7.23,7.23,0,0,0-4.1-6.51c0-19.37,0-54.19-.11-77.6A7.25,7.25,0,0,0,619.36,124.26Zm-25.64,34.52a6.3,6.3,0,0,1,1.34-3.21,3.78,3.78,0,0,1,1.87-1.19l11-4.47V190.5L597,186.14a5.66,5.66,0,0,1-2.16-2,7.82,7.82,0,0,1-1.08-2.53Z"></path><path class="cls-6" d="M612.12,238.1H516.37a8.64,8.64,0,0,1-8.63-8.63V214.94a8.7,8.7,0,0,1,4.1-7.34v-76a8.7,8.7,0,0,1-4.1-7.34V109.73a8.67,8.67,0,0,1,6.09-8.25C519,86,533.49,74.27,552,70.53l2.71-6.17,7.54-1.07h4.19l7.3.81,2.8,6.43c18.49,3.74,33,15.51,38.15,31a8.68,8.68,0,0,1,6.09,8.25v14.53a8.67,8.67,0,0,1-4.21,7.4c.07,23.23.1,57.13.1,75.94a8.71,8.71,0,0,1,4.11,7.34v14.53A8.65,8.65,0,0,1,612.12,238.1ZM556.62,66.9,553.94,73l-.72.14c-18.11,3.44-32.27,14.9-37,29.93l-.24.78-.81.17a5.86,5.86,0,0,0-4.67,5.72v14.53a5.89,5.89,0,0,0,3.31,5.26l.79.38v79.4l-.79.38a5.89,5.89,0,0,0-3.31,5.26v14.53a5.85,5.85,0,0,0,5.84,5.84h95.75a5.86,5.86,0,0,0,5.85-5.84V214.94a5.9,5.9,0,0,0-3.32-5.26l-.79-.38v-.87c0-18.86,0-54-.1-77.6v-.89l.82-.38a5.88,5.88,0,0,0,3.4-5.3V109.73A5.86,5.86,0,0,0,613.3,104l-.81-.17-.24-.78c-4.7-15-18.86-26.49-37-29.93l-.73-.14-2.74-6.29-5.62-.62h-3.86Zm52.67,125.66-12.95-5.17a7.16,7.16,0,0,1-2.71-2.47,9.07,9.07,0,0,1-1.27-3l0-.32v-23a7.52,7.52,0,0,1,1.68-4,5.15,5.15,0,0,1,2.48-1.6l12.8-5.23Zm-11.75-7.7,9,3.58V152l-9.23,3.76a2.27,2.27,0,0,0-1.16.75,5,5,0,0,0-1,2.39v22.56a6.45,6.45,0,0,0,.85,1.94A4.17,4.17,0,0,0,597.54,184.86Z"></path><path class="cls-9" d="M557.2,84.88c9-1.94,13-5.19,22.81-5.7a58.2,58.2,0,0,1,14.4,1.42,54.53,54.53,0,0,0-19.13-7.47l-.73-.14-2.74-6.29-5.62-.62h-3.86l-5.71.82L553.94,73l-.72.14a52.84,52.84,0,0,0-24,11C535.3,83.92,543.31,87.88,557.2,84.88Z"></path><path class="cls-6" d="M572.76,65.4l-6.49-.72h-4l-6.58.95q-1.33,3.08-2.69,6.13a53.8,53.8,0,0,0-26.17,12.72,14.27,14.27,0,0,1,2.37-.31h0a52.84,52.84,0,0,1,24-11l.72-.14,2.68-6.09,5.71-.82h3.86l5.62.62L574.55,73l.73.14a54.53,54.53,0,0,1,19.13,7.47c1.29.3,2.6.65,3.92,1.08a54.82,54.82,0,0,0-22.79-9.92Z"></path><path class="cls-8" d="M516.25,103.06l-.24.78-.81.17a5.85,5.85,0,0,0-4.67,5.72v14.53a5.89,5.89,0,0,0,3.31,5.26l.79.38v79.4l-.79.38a5.89,5.89,0,0,0-3.31,5.26v14.53a5.85,5.85,0,0,0,5.84,5.84h95.75a5.86,5.86,0,0,0,5.85-5.84V214.94a5.9,5.9,0,0,0-3.32-5.26l-.79-.38v-.87c0-18.86,0-54-.1-77.6v-.89l.81-.38a5.87,5.87,0,0,0,3.41-5.3V109.73A5.86,5.86,0,0,0,613.3,104l-.81-.17-.24-.78a41.75,41.75,0,0,0-15.88-21.18,51.19,51.19,0,0,1-11.9,1.75c-7.48.22-9.74-1.37-17.17-1.8-7.06-.41-8.1.85-19.6,1.8a174.46,174.46,0,0,1-18.5.54A40.46,40.46,0,0,0,516.25,103.06Zm76.08,55.55a7.58,7.58,0,0,1,1.68-4,5.06,5.06,0,0,1,2.48-1.59l12.8-5.23v44.73l-12.94-5.17a7,7,0,0,1-2.72-2.47,9.29,9.29,0,0,1-1.27-3l0-.32Z"></path><path class="cls-6" d="M612.57,133.12a17.75,17.75,0,0,0,2.59-.18c0-.64,0-1.27,0-1.89H513.24v1.72a17.73,17.73,0,0,0,3.58.35Z"></path><path class="cls-6" d="M613.32,103.17c.61,0,1.19,0,1.76,0a7.74,7.74,0,0,0-1.5-.49l-.09-.25H515c0,.08-.06.17-.08.25a7.17,7.17,0,0,0-1.22.37c1.12.1,2.44.16,3.87.16Z"></path><path class="cls-6" d="M516.37,207.5c-1.12,0-2.18,0-3.13.1v.68h102v-.68c-1-.06-2-.1-3.14-.1Z"></path><path class="cls-6" d="M516.37,235.31h-4.25a7.15,7.15,0,0,0,4.25,1.4h95.75a7.18,7.18,0,0,0,4.26-1.4h-100Z"></path><rect class="cls-11" x="550.94" y="54.58" width="26.3" height="12.83" rx="2" transform="translate(1128.18 122) rotate(-180)"></rect><path class="cls-12" d="M565.42,65.11a.89.89,0,0,0,.75-1v-6a.78.78,0,1,0-1.5,0v6A.89.89,0,0,0,565.42,65.11Z"></path><path class="cls-12" d="M562.71,65.11a.89.89,0,0,0,.75-1v-6a.9.9,0,0,0-.75-1c-.42,0-.75.44-.75,1v6A.89.89,0,0,0,562.71,65.11Z"></path><path class="cls-12" d="M560,65.11a.89.89,0,0,0,.75-1v-6a.9.9,0,0,0-.75-1c-.42,0-.75.44-.75,1v6A.89.89,0,0,0,560,65.11Z"></path><path class="cls-12" d="M557.29,65.11a.89.89,0,0,0,.75-1v-6a.9.9,0,0,0-.75-1c-.42,0-.75.44-.75,1v6A.89.89,0,0,0,557.29,65.11Z"></path><path class="cls-12" d="M554.58,65.11a.89.89,0,0,0,.75-1v-6a.9.9,0,0,0-.75-1c-.42,0-.75.44-.75,1v6A.89.89,0,0,0,554.58,65.11Z"></path><path class="cls-12" d="M568.13,65.11a.89.89,0,0,0,.75-1v-6a.78.78,0,1,0-1.5,0v6A.89.89,0,0,0,568.13,65.11Z"></path><path class="cls-12" d="M573.6,65.11a.89.89,0,0,0,.75-1v-6c0-.55-.33-1-.75-1a.9.9,0,0,0-.75,1v6A.89.89,0,0,0,573.6,65.11Z"></path><path class="cls-12" d="M570.89,65.11a.89.89,0,0,0,.75-1v-6c0-.55-.33-1-.75-1a.9.9,0,0,0-.75,1v6A.89.89,0,0,0,570.89,65.11Z"></path><path class="cls-9" d="M527.6,122.94a3.83,3.83,0,1,1,3.83-3.83A3.83,3.83,0,0,1,527.6,122.94Zm0-6.26a2.43,2.43,0,1,0,2.44,2.43A2.43,2.43,0,0,0,527.6,116.68Z"></path><path class="cls-9" d="M514,218.8a3.83,3.83,0,1,1,3.83,3.83A3.83,3.83,0,0,1,514,218.8Zm1.39,0a2.44,2.44,0,1,0,2.44-2.43A2.43,2.43,0,0,0,515.41,218.8Z"></path><g class="cls-10"><path class="cls-9" d="M538,140.17a3.83,3.83,0,1,1,3.83,3.83A3.84,3.84,0,0,1,538,140.17Zm1.4,0a2.43,2.43,0,1,0,2.43-2.43A2.43,2.43,0,0,0,539.42,140.17Z"></path></g><path class="cls-9" d="M580.83,144a3.83,3.83,0,1,1,3.82,3.83A3.83,3.83,0,0,1,580.83,144Zm1.39,0a2.44,2.44,0,1,0,2.43-2.44A2.43,2.43,0,0,0,582.22,144Z"></path><path class="cls-9" d="M556.52,170.19a3.83,3.83,0,1,1,3.83,3.83A3.83,3.83,0,0,1,556.52,170.19Zm1.39,0a2.44,2.44,0,1,0,2.44-2.43A2.43,2.43,0,0,0,557.91,170.19Z"></path><path class="cls-9" d="M564.38,224.91a3.83,3.83,0,1,1,3.83,3.83A3.84,3.84,0,0,1,564.38,224.91Zm1.4,0a2.44,2.44,0,1,0,2.43-2.43A2.43,2.43,0,0,0,565.78,224.91Z"></path><path class="cls-9" d="M525.16,173.05a6.1,6.1,0,1,1,4.63.61,6.15,6.15,0,0,1-1.59.21A6.08,6.08,0,0,1,525.16,173.05Zm-1-7.65a4.72,4.72,0,0,0,1.72,6.44,4.72,4.72,0,1,0-1.72-6.44Z"></path><g class="cls-10"><path class="cls-9" d="M572.65,119.69A6.14,6.14,0,0,1,569.8,116a6.11,6.11,0,1,1,7.49,4.32,6.2,6.2,0,0,1-1.59.21A6.12,6.12,0,0,1,572.65,119.69Zm-1-7.65a4.72,4.72,0,1,0,6.44-1.73,4.65,4.65,0,0,0-2.34-.63A4.74,4.74,0,0,0,571.62,112Z"></path></g><g class="cls-10"><path class="cls-9" d="M550.77,201.05a6.1,6.1,0,0,1-2.24-8.34h0a6.11,6.11,0,1,1,5.28,9.17A6,6,0,0,1,550.77,201.05Zm-1-7.64a4.73,4.73,0,0,0,1.72,6.44,4.72,4.72,0,0,0,4.72-8.17,4.72,4.72,0,0,0-6.44,1.73Z"></path></g><g class="cls-10"><path class="cls-9" d="M599.74,230.2a6.11,6.11,0,1,1,6.11-10.58,6.1,6.1,0,0,1,2.23,8.35,6,6,0,0,1-3.71,2.84,6.15,6.15,0,0,1-1.59.21A6,6,0,0,1,599.74,230.2Zm1.83-9.84a4.67,4.67,0,0,0-2.86,2.19h0a4.7,4.7,0,1,0,4.09-2.36A4.74,4.74,0,0,0,601.57,220.36Z"></path></g><path class="cls-9" d="M603.68,124.34a3.83,3.83,0,1,1,3.83,3.83A3.84,3.84,0,0,1,603.68,124.34Zm1.4,0a2.43,2.43,0,1,0,2.43-2.44A2.43,2.43,0,0,0,605.08,124.34Z"></path><path class="cls-9" d="M583.9,187.34a2.2,2.2,0,0,1,0-3.1h0a2.19,2.19,0,1,1,1.55,3.74A2.18,2.18,0,0,1,583.9,187.34Zm1-2.11a.79.79,0,0,0,0,1.12.81.81,0,0,0,1.12,0,.79.79,0,0,0,0-1.12.78.78,0,0,0-.56-.23A.75.75,0,0,0,584.89,185.23Z"></path><path class="cls-9" d="M606.35,144.15a2.18,2.18,0,0,1,0-3.1h0a2.19,2.19,0,1,1,0,3.1Zm1-2.11a.79.79,0,0,0,0,1.12.82.82,0,0,0,1.13,0,.79.79,0,0,0,0-1.12.81.81,0,0,0-1.13,0Z"></path><path class="cls-9" d="M549.84,92.5a2.18,2.18,0,0,1,0-3.1h0a2.19,2.19,0,1,1,3.09,3.1,2.14,2.14,0,0,1-1.54.64A2.16,2.16,0,0,1,549.84,92.5Zm1-2.11a.79.79,0,1,0,1.12,0,.82.82,0,0,0-.56-.23A.79.79,0,0,0,550.83,90.39Z"></path><path class="cls-6" d="M666.09,71.85l2.7-6.13,6.57-1h4l6.5.71c.92,2.12,1.85,4.24,2.77,6.37a54.46,54.46,0,0,1,22.79,9.92h0a25.86,25.86,0,0,1,4.76,2.11,54.81,54.81,0,0,0-26.57-13.26l-2.8-6.44-7.3-.8h-4.2l-7.54,1.08-2.71,6.17a54.15,54.15,0,0,0-28.2,14.86,18.75,18.75,0,0,1,3-.91A53.72,53.72,0,0,1,666.09,71.85Z"></path><path class="cls-9" d="M732.5,124.35V109.82a7.25,7.25,0,0,0-5.79-7.09c-4.8-15.37-19.5-27.37-38-30.88-.92-2.13-1.85-4.25-2.77-6.37l-6.5-.71h-4l-6.57,1-2.7,6.13c-18.53,3.51-33.23,15.51-38,30.88a7.25,7.25,0,0,0-5.78,7.09v14.53a7.24,7.24,0,0,0,4.1,6.51v77.65a7.26,7.26,0,0,0-4.1,6.52v14.53a7.24,7.24,0,0,0,7.24,7.23h95.75a7.24,7.24,0,0,0,7.24-7.23V215a7.24,7.24,0,0,0-4.11-6.52c0-19.37,0-54.18-.1-77.6A7.24,7.24,0,0,0,732.5,124.35Zm-25.65,34.52a6.19,6.19,0,0,1,1.35-3.21,3.67,3.67,0,0,1,1.87-1.19L721,150v40.59l-10.93-4.36a5.53,5.53,0,0,1-2.17-2,8.33,8.33,0,0,1-1.08-2.54Z"></path><path class="cls-6" d="M725.26,238.19H629.51a8.65,8.65,0,0,1-8.64-8.63V215a8.7,8.7,0,0,1,4.1-7.34v-76a8.69,8.69,0,0,1-4.1-7.33V109.82a8.67,8.67,0,0,1,6.09-8.25c5.16-15.44,19.67-27.22,38.15-30.95l2.71-6.17,7.54-1.08h4.2l7.3.8,2.8,6.44c18.48,3.73,33,15.51,38.15,30.95a8.66,8.66,0,0,1,6.08,8.25v14.53a8.65,8.65,0,0,1-4.21,7.4c.08,23.23.1,57.12.11,75.94a8.68,8.68,0,0,1,4.1,7.34v14.53A8.64,8.64,0,0,1,725.26,238.19ZM669.75,67l-2.67,6.09-.73.14c-18.1,3.43-32.27,14.9-37,29.92l-.25.79-.81.16a5.87,5.87,0,0,0-4.66,5.73v14.53A5.87,5.87,0,0,0,627,129.6l.79.39v79.4l-.79.38a5.88,5.88,0,0,0-3.31,5.26v14.53a5.85,5.85,0,0,0,5.84,5.84h95.75a5.85,5.85,0,0,0,5.84-5.84V215a5.88,5.88,0,0,0-3.31-5.26l-.79-.38v-.88c0-18.85,0-54-.11-77.59V130l.81-.37a5.88,5.88,0,0,0,3.4-5.3V109.82a5.85,5.85,0,0,0-4.67-5.72l-.8-.17-.25-.79c-4.69-15-18.86-26.49-37-29.92l-.72-.14-2.75-6.3-5.61-.61h-3.87Zm52.68,125.65-12.95-5.17a7,7,0,0,1-2.72-2.46,9.72,9.72,0,0,1-1.27-3l0-.33,0-23a7.55,7.55,0,0,1,1.68-3.95,5.12,5.12,0,0,1,2.47-1.6l12.81-5.23ZM710.67,185l9,3.57V152.07l-9.22,3.76a2.27,2.27,0,0,0-1.16.75,4.76,4.76,0,0,0-1,2.38v22.57a6.7,6.7,0,0,0,.84,1.94A4.32,4.32,0,0,0,710.67,185Z"></path><path class="cls-9" d="M670.33,85c9-1.94,13-5.2,22.82-5.7a58.14,58.14,0,0,1,14.39,1.42,54.26,54.26,0,0,0-19.13-7.47l-.72-.14-2.75-6.3-5.61-.61h-3.87l-5.71.82-2.67,6.09-.73.14a52.8,52.8,0,0,0-24,11C648.44,84,656.45,88,670.33,85Z"></path><path class="cls-6" d="M685.9,65.48l-6.5-.71h-4l-6.57,1-2.7,6.13a53.72,53.72,0,0,0-26.16,12.72,14.16,14.16,0,0,1,2.36-.31h.05a52.8,52.8,0,0,1,24-11l.73-.14L669.75,67l5.71-.82h3.87l5.61.61,2.75,6.3.72.14a54.26,54.26,0,0,1,19.13,7.47c1.29.3,2.61.65,3.92,1.08a54.46,54.46,0,0,0-22.79-9.92C687.75,69.72,686.82,67.6,685.9,65.48Z"></path><path class="cls-8" d="M629.39,103.14l-.25.79-.81.17a5.85,5.85,0,0,0-4.66,5.72v14.53A5.87,5.87,0,0,0,627,129.6l.79.38v79.41l-.79.38a5.88,5.88,0,0,0-3.31,5.26v14.53a5.85,5.85,0,0,0,5.84,5.84h95.75a5.85,5.85,0,0,0,5.84-5.84V215a5.88,5.88,0,0,0-3.31-5.26l-.79-.38v-.88c0-18.86,0-54-.11-77.59V130l.81-.37a5.88,5.88,0,0,0,3.4-5.3V109.82a5.85,5.85,0,0,0-4.67-5.72l-.8-.17-.25-.79A41.73,41.73,0,0,0,709.51,82c-2.91.46-7,1.07-11.94,1.66-5.27.64-9.43,1.15-13.88,1.33a96.43,96.43,0,0,1-16.51-.85,115.25,115.25,0,0,0-24.84.15A40.29,40.29,0,0,0,629.39,103.14Zm76.08,55.56a7.55,7.55,0,0,1,1.68-4,5.15,5.15,0,0,1,2.47-1.6l12.81-5.23v44.73l-12.95-5.17a7,7,0,0,1-2.72-2.46,9.62,9.62,0,0,1-1.27-3l0-.33Z"></path><path class="cls-6" d="M725.7,133.21a19,19,0,0,0,2.59-.18v-1.9H626.37v1.72a17.11,17.11,0,0,0,3.59.36Z"></path><path class="cls-6" d="M726.45,103.25c.61,0,1.2,0,1.76,0a6.28,6.28,0,0,0-1.5-.49,2.58,2.58,0,0,0-.08-.26H628.14l-.09.26a7,7,0,0,0-1.21.36c1.12.1,2.44.16,3.87.16Z"></path><path class="cls-6" d="M629.51,207.58c-1.13,0-2.19,0-3.14.11v.67h102v-.67c-.95-.07-2-.11-3.13-.11Z"></path><path class="cls-6" d="M629.51,235.4h-4.26a7.24,7.24,0,0,0,4.26,1.39h95.75a7.18,7.18,0,0,0,4.25-1.39h-100Z"></path><rect class="cls-11" x="664.08" y="54.67" width="26.3" height="12.83" rx="2" transform="translate(1354.45 122.17) rotate(-180)"></rect><path class="cls-12" d="M678.55,65.2c.42,0,.75-.44.75-1v-6a.78.78,0,1,0-1.5,0v6A.9.9,0,0,0,678.55,65.2Z"></path><path class="cls-12" d="M675.84,65.2c.42,0,.75-.44.75-1v-6a.78.78,0,1,0-1.5,0v6A.9.9,0,0,0,675.84,65.2Z"></path><path class="cls-12" d="M673.13,65.2c.42,0,.75-.44.75-1v-6a.78.78,0,1,0-1.5,0v6A.9.9,0,0,0,673.13,65.2Z"></path><path class="cls-12" d="M670.42,65.2c.42,0,.75-.44.75-1v-6a.78.78,0,1,0-1.5,0v6A.9.9,0,0,0,670.42,65.2Z"></path><path class="cls-12" d="M667.71,65.2a.9.9,0,0,0,.75-1v-6a.78.78,0,1,0-1.5,0v6A.9.9,0,0,0,667.71,65.2Z"></path><path class="cls-12" d="M681.26,65.2c.42,0,.75-.44.75-1v-6a.78.78,0,1,0-1.5,0v6A.9.9,0,0,0,681.26,65.2Z"></path><path class="cls-12" d="M686.74,65.2a.9.9,0,0,0,.75-1v-6a.78.78,0,1,0-1.5,0v6C686,64.76,686.32,65.2,686.74,65.2Z"></path><path class="cls-12" d="M684,65.2a.9.9,0,0,0,.75-1v-6a.78.78,0,1,0-1.5,0v6C683.28,64.76,683.61,65.2,684,65.2Z"></path><path class="cls-9" d="M653.53,126.77a3.83,3.83,0,1,1,3.83-3.83A3.84,3.84,0,0,1,653.53,126.77Zm0-6.26a2.43,2.43,0,1,0,2.43,2.43A2.43,2.43,0,0,0,653.53,120.51Z"></path><path class="cls-9" d="M652.78,201.88a3.83,3.83,0,1,1,3.82-3.83A3.83,3.83,0,0,1,652.78,201.88Zm0-6.26a2.43,2.43,0,1,0,2.43,2.43A2.43,2.43,0,0,0,652.78,195.62Z"></path><g class="cls-10"><path class="cls-9" d="M646.51,98.61a3.83,3.83,0,1,1,3.83-3.83A3.83,3.83,0,0,1,646.51,98.61Zm0-6.26A2.43,2.43,0,1,0,649,94.78,2.43,2.43,0,0,0,646.51,92.35Z"></path></g><path class="cls-9" d="M687.16,201.88A3.83,3.83,0,1,1,691,205.7,3.83,3.83,0,0,1,687.16,201.88Zm1.4,0a2.43,2.43,0,1,0,2.43-2.44A2.43,2.43,0,0,0,688.56,201.88Z"></path><path class="cls-9" d="M694,144.08a3.83,3.83,0,1,1,3.83,3.83A3.83,3.83,0,0,1,694,144.08Zm1.4,0a2.43,2.43,0,1,0,2.43-2.43A2.43,2.43,0,0,0,695.36,144.08Z"></path><path class="cls-9" d="M710.21,118.32a3.83,3.83,0,1,1,3.82,3.83A3.83,3.83,0,0,1,710.21,118.32Zm1.39,0a2.44,2.44,0,1,0,2.43-2.44A2.43,2.43,0,0,0,711.6,118.32Z"></path><path class="cls-9" d="M655.18,225a3.83,3.83,0,1,1,3.83,3.83A3.84,3.84,0,0,1,655.18,225Zm1.4,0a2.44,2.44,0,1,0,2.43-2.44A2.43,2.43,0,0,0,656.58,225Z"></path><g class="cls-10"><path class="cls-9" d="M672,181.17a3.83,3.83,0,1,1,3.83,3.83A3.84,3.84,0,0,1,672,181.17Zm1.4,0a2.43,2.43,0,1,0,2.43-2.44A2.43,2.43,0,0,0,673.41,181.17Z"></path></g><path class="cls-9" d="M639.63,170.08a6.11,6.11,0,0,1-2.23-8.34,6.11,6.11,0,1,1,6.87,9,6.2,6.2,0,0,1-1.59.21A6,6,0,0,1,639.63,170.08Zm-1-7.64a4.72,4.72,0,1,0,4.09-2.36A4.7,4.7,0,0,0,638.61,162.44Z"></path><g class="cls-10"><path class="cls-9" d="M630,118.89a6.12,6.12,0,1,1,4.64.61,6.2,6.2,0,0,1-1.59.21A6,6,0,0,1,630,118.89Zm-1-7.65a4.72,4.72,0,1,0,6.44-1.72,4.65,4.65,0,0,0-2.34-.63A4.73,4.73,0,0,0,629,111.24Z"></path></g><path class="cls-9" d="M670.83,150.08a6,6,0,0,1-2.85-3.71,6.12,6.12,0,0,1,.61-4.64h0a6.11,6.11,0,1,1,6.88,9,6.28,6.28,0,0,1-1.6.21A6.11,6.11,0,0,1,670.83,150.08Zm-1-7.65a4.67,4.67,0,0,0-.47,3.58,4.72,4.72,0,0,0,2.2,2.86,4.72,4.72,0,0,0,6.44-1.73,4.72,4.72,0,0,0-8.17-4.71Z"></path><g class="cls-10"><path class="cls-9" d="M712.87,230.29a6.12,6.12,0,0,1,1.48-11.2,6.11,6.11,0,0,1,3.16,11.81,6.2,6.2,0,0,1-1.59.21A6.12,6.12,0,0,1,712.87,230.29Zm1.84-9.85a4.71,4.71,0,0,0-2.87,2.2h0a4.72,4.72,0,1,0,8.17,4.71,4.72,4.72,0,0,0-1.73-6.44,4.76,4.76,0,0,0-2.35-.63A4.65,4.65,0,0,0,714.71,220.44Z"></path></g><path class="cls-9" d="M679.15,111.23a2.18,2.18,0,0,1,0-3.1h0a2.19,2.19,0,1,1,0,3.1Zm1-2.11a.79.79,0,0,0,0,1.12.81.81,0,0,0,1.12,0,.79.79,0,0,0,0-1.12.78.78,0,0,0-.56-.23A.75.75,0,0,0,680.14,109.12Z"></path><path class="cls-9" d="M697.88,216.52a2.2,2.2,0,0,1,0-3.1h0a2.19,2.19,0,1,1,1.55,3.74A2.18,2.18,0,0,1,697.88,216.52Zm1-2.11a.79.79,0,0,0,0,1.12.81.81,0,0,0,1.12,0,.79.79,0,0,0,0-1.12.77.77,0,0,0-1.12,0Z"></path><path class="cls-9" d="M666.91,174a2.2,2.2,0,0,1,0-3.1h0A2.19,2.19,0,1,1,670,174a2.18,2.18,0,0,1-1.55.64A2.21,2.21,0,0,1,666.91,174Zm1-2.11a.79.79,0,0,0,0,1.12.81.81,0,0,0,1.12,0,.79.79,0,0,0,0-1.12.8.8,0,0,0-1.12,0Z"></path><rect class="cls-11" x="550.94" y="54.58" width="26.3" height="12.83" rx="2" transform="translate(1128.18 122) rotate(-180)"></rect><path class="cls-12" d="M563.89,65.64a.9.9,0,0,0,.75-1v-6a.78.78,0,1,0-1.5,0v6A.9.9,0,0,0,563.89,65.64Z"></path><path class="cls-12" d="M561.18,65.64a.9.9,0,0,0,.75-1v-6a.78.78,0,1,0-1.5,0v6C560.43,65.2,560.76,65.64,561.18,65.64Z"></path><path class="cls-12" d="M558.47,65.64a.9.9,0,0,0,.75-1v-6a.78.78,0,1,0-1.5,0v6C557.72,65.2,558.05,65.64,558.47,65.64Z"></path><path class="cls-12" d="M555.76,65.64a.9.9,0,0,0,.75-1v-6a.78.78,0,1,0-1.5,0v6C555,65.2,555.34,65.64,555.76,65.64Z"></path><path class="cls-12" d="M553.05,65.64a.9.9,0,0,0,.75-1v-6a.78.78,0,1,0-1.5,0v6C552.3,65.2,552.63,65.64,553.05,65.64Z"></path><path class="cls-12" d="M566.6,65.64c.42,0,.75-.44.75-1v-6a.78.78,0,1,0-1.5,0v6A.9.9,0,0,0,566.6,65.64Z"></path><path class="cls-12" d="M572.08,65.64a.9.9,0,0,0,.75-1v-6a.78.78,0,1,0-1.5,0v6C571.33,65.2,571.66,65.64,572.08,65.64Z"></path><path class="cls-12" d="M569.36,65.64c.42,0,.75-.44.75-1v-6a.78.78,0,1,0-1.5,0v6A.9.9,0,0,0,569.36,65.64Z"></path><path class="cls-16" d="M575.24,54.58h-22.3a2,2,0,0,0-2,2v2.48h26.3V56.58A2,2,0,0,0,575.24,54.58Z"></path><path class="cls-12" d="M575,65.64a.9.9,0,0,0,.75-1v-6a.78.78,0,1,0-1.5,0v6C574.29,65.2,574.62,65.64,575,65.64Z"></path><rect class="cls-11" x="664.08" y="54.7" width="26.3" height="12.83" rx="2" transform="translate(1354.45 122.24) rotate(-180)"></rect><path class="cls-12" d="M677,65.76c.42,0,.75-.44.75-1v-6a.78.78,0,1,0-1.5,0v6A.9.9,0,0,0,677,65.76Z"></path><path class="cls-12" d="M674.31,65.76c.42,0,.75-.44.75-1v-6a.78.78,0,1,0-1.5,0v6A.9.9,0,0,0,674.31,65.76Z"></path><path class="cls-12" d="M671.6,65.76c.42,0,.75-.44.75-1v-6a.78.78,0,1,0-1.5,0v6A.9.9,0,0,0,671.6,65.76Z"></path><path class="cls-12" d="M668.89,65.76c.42,0,.75-.44.75-1v-6a.78.78,0,1,0-1.5,0v6A.9.9,0,0,0,668.89,65.76Z"></path><path class="cls-12" d="M666.18,65.76c.42,0,.75-.44.75-1v-6a.78.78,0,1,0-1.5,0v6A.9.9,0,0,0,666.18,65.76Z"></path><path class="cls-12" d="M679.73,65.76c.42,0,.75-.44.75-1v-6a.78.78,0,1,0-1.5,0v6A.9.9,0,0,0,679.73,65.76Z"></path><path class="cls-12" d="M685.21,65.76a.9.9,0,0,0,.75-1v-6a.78.78,0,1,0-1.5,0v6C684.46,65.32,684.79,65.76,685.21,65.76Z"></path><path class="cls-12" d="M682.5,65.76a.9.9,0,0,0,.75-1v-6a.78.78,0,1,0-1.5,0v6C681.75,65.32,682.08,65.76,682.5,65.76Z"></path><path class="cls-16" d="M688.37,54.7H666.08a2,2,0,0,0-2,2v2.48h26.29V56.7A2,2,0,0,0,688.37,54.7Z"></path><path class="cls-12" d="M688.17,65.76c.42,0,.75-.44.75-1v-6a.78.78,0,1,0-1.5,0v6A.9.9,0,0,0,688.17,65.76Z"></path><path class="cls-9" d="M620.46-57.52V-72a7.26,7.26,0,0,0-5.78-7.09c-4.81-15.36-19.51-27.36-38-30.88l-2.77-6.36-6.5-.71h-4l-6.58,1q-1.35,3.06-2.69,6.12c-18.54,3.52-33.24,15.52-38,30.88A7.26,7.26,0,0,0,510.23-72v14.53a7.26,7.26,0,0,0,4.1,6.52V26.65a7.24,7.24,0,0,0-4.1,6.51V47.69a7.25,7.25,0,0,0,7.24,7.24h95.75a7.25,7.25,0,0,0,7.24-7.24V33.16a7.22,7.22,0,0,0-4.11-6.51c0-19.37,0-54.19-.1-77.6A7.25,7.25,0,0,0,620.46-57.52ZM594.81-23a6.28,6.28,0,0,1,1.35-3.21A3.6,3.6,0,0,1,598-27.39l11-4.48V8.72L598.06,4.36a5.62,5.62,0,0,1-2.17-2,8.33,8.33,0,0,1-1.08-2.54Z"></path><path class="cls-6" d="M613.22,56.33H517.47a8.65,8.65,0,0,1-8.63-8.64V33.16a8.67,8.67,0,0,1,4.1-7.33v-76a8.69,8.69,0,0,1-4.1-7.34V-72a8.67,8.67,0,0,1,6.08-8.25c5.16-15.44,19.67-27.21,38.15-30.95l2.71-6.16,7.55-1.08h4.19l7.3.8,2.8,6.43c18.48,3.74,33,15.51,38.15,31A8.67,8.67,0,0,1,621.85-72v14.53a8.68,8.68,0,0,1-4.2,7.41c.07,23.22.09,57.12.1,75.93a8.7,8.7,0,0,1,4.1,7.34V47.69A8.65,8.65,0,0,1,613.22,56.33Zm-55.5-171.2L555-108.78l-.72.13c-18.11,3.44-32.28,14.91-37,29.93l-.25.78-.8.17A5.85,5.85,0,0,0,511.63-72v14.53a5.88,5.88,0,0,0,3.31,5.26l.79.38v79.4l-.79.39a5.87,5.87,0,0,0-3.31,5.25V47.69a5.85,5.85,0,0,0,5.84,5.84h95.75a5.85,5.85,0,0,0,5.84-5.84V33.16a5.87,5.87,0,0,0-3.31-5.25l-.79-.39v-.87c0-18.86,0-54-.11-77.6v-.89l.81-.38a5.84,5.84,0,0,0,3.4-5.3V-72a5.85,5.85,0,0,0-4.67-5.72l-.8-.16-.25-.79c-4.69-15-18.86-26.49-37-29.93l-.72-.13-2.75-6.3-5.61-.62h-3.86ZM610.39,10.78,597.44,5.61a7.07,7.07,0,0,1-2.71-2.46,9.26,9.26,0,0,1-1.27-3l0-.33v-23a7.52,7.52,0,0,1,1.68-3.95,5.11,5.11,0,0,1,2.48-1.6l12.8-5.23Zm-11.76-7.7,9,3.58V-29.79L598.37-26a2.24,2.24,0,0,0-1.16.76,4.7,4.7,0,0,0-1,2.38V-.33a6.68,6.68,0,0,0,.85,1.94A4.27,4.27,0,0,0,598.63,3.08Z"></path><path class="cls-8" d="M517.35-78.72l-.25.79-.81.16A5.85,5.85,0,0,0,511.63-72v14.53a5.89,5.89,0,0,0,3.31,5.26l.79.38V27.53l-.79.38a5.87,5.87,0,0,0-3.31,5.25V47.69a5.85,5.85,0,0,0,5.84,5.84h95.75a5.85,5.85,0,0,0,5.84-5.84V33.16a5.87,5.87,0,0,0-3.31-5.25l-.79-.39v-.87c0-18.86,0-54-.11-77.6v-.89l.81-.38a5.87,5.87,0,0,0,3.4-5.3V-72a5.86,5.86,0,0,0-4.67-5.72l-.8-.16-.25-.79a41.68,41.68,0,0,0-6.76-12.59,41.59,41.59,0,0,0-9.11-8.58,45.24,45.24,0,0,1-11.22,3.21c-5.79.85-8.6.08-14.6-.23-13.49-.68-16,2.41-28.29,1.5a71,71,0,0,1-13.06-2.2A40.39,40.39,0,0,0,517.35-78.72Zm76.08,55.55a7.52,7.52,0,0,1,1.68-3.95,5.05,5.05,0,0,1,2.48-1.6l12.8-5.23V10.78L597.44,5.61a7,7,0,0,1-2.71-2.46,9.26,9.26,0,0,1-1.27-3l0-.33Z"></path><path class="cls-6" d="M517.47,25.72c-1.13,0-2.19,0-3.14.1v.68h102v-.68c-1-.06-2-.1-3.13-.1Z"></path><path class="cls-9" d="M515.11,37a3.83,3.83,0,1,1,3.83,3.83A3.84,3.84,0,0,1,515.11,37Zm1.4,0a2.44,2.44,0,1,0,2.43-2.43A2.43,2.43,0,0,0,516.51,37Z"></path><path class="cls-9" d="M573,16.89a3.83,3.83,0,1,1,3.83,3.83A3.84,3.84,0,0,1,573,16.89Zm1.4,0a2.43,2.43,0,1,0,2.43-2.44A2.43,2.43,0,0,0,574.37,16.89Z"></path><path class="cls-9" d="M605.15,50.94a6.11,6.11,0,0,1-2.24-8.35,6.11,6.11,0,0,1,10.58,6.11,6,6,0,0,1-3.71,2.85,6.15,6.15,0,0,1-1.59.21A6.08,6.08,0,0,1,605.15,50.94Zm-1-7.65A4.71,4.71,0,0,0,612.28,48a4.72,4.72,0,0,0-1.72-6.44,4.66,4.66,0,0,0-2.35-.63A4.71,4.71,0,0,0,604.12,43.29Z"></path><path class="cls-9" d="M533.36,12a6.1,6.1,0,0,1-2.24-8.34h0a6.11,6.11,0,1,1,6.88,9,6.22,6.22,0,0,1-1.6.21A6,6,0,0,1,533.36,12Zm-1-7.64A4.65,4.65,0,0,0,531.86,8a4.71,4.71,0,1,0,6.91-5.3A4.66,4.66,0,0,0,536.42,2,4.72,4.72,0,0,0,532.33,4.39Z"></path><path class="cls-9" d="M554,50.94a6.12,6.12,0,1,1,4.64.61,5.81,5.81,0,0,1-1.59.22A6,6,0,0,1,554,50.94Zm1.84-9.84A4.66,4.66,0,0,0,553,43.29h0A4.72,4.72,0,1,0,561.12,48,4.71,4.71,0,0,0,557,40.94,4.59,4.59,0,0,0,555.82,41.1Z"></path><path class="cls-9" d="M585,5.56a2.18,2.18,0,0,1,0-3.1h0a2.19,2.19,0,1,1,0,3.1Zm1-2.11a.79.79,0,0,0,0,1.12.81.81,0,0,0,1.12,0,.79.79,0,0,0-.56-1.35A.82.82,0,0,0,586,3.45Z"></path><path class="cls-9" d="M599,34.74a2.2,2.2,0,0,1,0-3.1h0a2.19,2.19,0,1,1,1.55,3.74A2.18,2.18,0,0,1,599,34.74Zm1-2.11a.79.79,0,0,0,0,1.12.81.81,0,0,0,1.12,0,.79.79,0,0,0,0-1.12.8.8,0,0,0-1.12,0Z"></path><path class="cls-9" d="M733.59-57.43V-72A7.25,7.25,0,0,0,727.81-79c-4.8-15.37-19.5-27.36-38-30.88-.93-2.12-1.85-4.24-2.78-6.37L680.5-117h-4l-6.58,1c-.89,2-1.79,4.09-2.69,6.13-18.54,3.52-33.24,15.51-38,30.88A7.25,7.25,0,0,0,623.37-72v14.53a7.22,7.22,0,0,0,4.1,6.51V26.74a7.22,7.22,0,0,0-4.1,6.51V47.78A7.24,7.24,0,0,0,630.6,55h95.75a7.25,7.25,0,0,0,7.24-7.24V33.25a7.26,7.26,0,0,0-4.1-6.52c0-19.37,0-54.18-.11-77.59A7.25,7.25,0,0,0,733.59-57.43ZM708-22.91a6.3,6.3,0,0,1,1.34-3.21,3.71,3.71,0,0,1,1.87-1.19l11-4.48V8.81L711.19,4.44a5.53,5.53,0,0,1-2.16-2A7.91,7.91,0,0,1,708-.07Z"></path><path class="cls-6" d="M726.35,56.41H630.61A8.64,8.64,0,0,1,622,47.78V33.25a8.7,8.7,0,0,1,4.1-7.34v-76a8.7,8.7,0,0,1-4.1-7.34V-72a8.67,8.67,0,0,1,6.09-8.25c5.16-15.44,19.66-27.22,38.15-30.95l2.71-6.17,7.54-1.07h4.19l7.3.8,2.81,6.44c18.48,3.74,33,15.51,38.14,31A8.68,8.68,0,0,1,735-72v14.53a8.67,8.67,0,0,1-4.21,7.4c.07,23.23.1,57.13.1,75.94A8.68,8.68,0,0,1,735,33.25V47.78A8.65,8.65,0,0,1,726.35,56.41Zm-55.5-171.2-2.68,6.09-.72.14c-18.11,3.44-32.27,14.9-37,29.93l-.24.78-.81.17A5.86,5.86,0,0,0,624.76-72v14.53a5.89,5.89,0,0,0,3.31,5.26l.79.38v79.4l-.79.38a5.89,5.89,0,0,0-3.31,5.26V47.78a5.85,5.85,0,0,0,5.85,5.84h95.74a5.85,5.85,0,0,0,5.85-5.84V33.25A5.87,5.87,0,0,0,728.88,28l-.79-.38v-.87c0-18.86,0-54-.1-77.6v-.9l.82-.37a5.88,5.88,0,0,0,3.4-5.3V-72a5.86,5.86,0,0,0-4.67-5.72l-.81-.17-.24-.78c-4.7-15-18.86-26.49-37-29.93l-.73-.14L686-115l-5.62-.61h-3.86ZM723.52,10.86,710.57,5.7a7.16,7.16,0,0,1-2.71-2.47,9.38,9.38,0,0,1-1.27-3l0-.32v-23a7.55,7.55,0,0,1,1.68-4,5.13,5.13,0,0,1,2.48-1.59l12.8-5.23ZM711.77,3.17l9,3.58V-29.71l-9.23,3.76a2.27,2.27,0,0,0-1.16.75,5,5,0,0,0-1,2.39V-.25a6.45,6.45,0,0,0,.85,1.94A4.24,4.24,0,0,0,711.77,3.17Z"></path><path class="cls-8" d="M630.48-78.63l-.24.78-.81.17A5.86,5.86,0,0,0,624.76-72v14.53a5.89,5.89,0,0,0,3.31,5.26l.79.38v79.4l-.79.38a5.89,5.89,0,0,0-3.31,5.26V47.78a5.85,5.85,0,0,0,5.85,5.84h95.74a5.86,5.86,0,0,0,5.85-5.84V33.25A5.9,5.9,0,0,0,728.88,28l-.79-.38v-.87c0-18.86,0-54-.1-77.6v-.9l.81-.37a5.87,5.87,0,0,0,3.41-5.3V-72a5.86,5.86,0,0,0-4.67-5.72l-.81-.17-.24-.78a41.32,41.32,0,0,0-6.76-12.59,41.11,41.11,0,0,0-7.43-7.3,56.77,56.77,0,0,1-13,1.53c-5.43,0-8.06-.64-13.42-1.23-6.18-.68-8.75,0-17.56.55a234.75,234.75,0,0,1-24.84.15A40.41,40.41,0,0,0,630.48-78.63Zm76.08,55.55a7.58,7.58,0,0,1,1.68-4,5.06,5.06,0,0,1,2.48-1.59l12.8-5.23V10.86L710.58,5.7a7.11,7.11,0,0,1-2.72-2.47,9.29,9.29,0,0,1-1.27-3l0-.32Z"></path><path class="cls-6" d="M630.6,25.81c-1.12,0-2.18,0-3.13.1v.67h102v-.67c-1-.07-2-.1-3.14-.1Z"></path><path class="cls-9" d="M628.25,37.11a3.83,3.83,0,1,1,3.83,3.82A3.83,3.83,0,0,1,628.25,37.11Zm1.39,0a2.44,2.44,0,1,0,2.44-2.44A2.44,2.44,0,0,0,629.64,37.11Z"></path><path class="cls-9" d="M678.61,43.22a3.83,3.83,0,1,1,3.83,3.83A3.84,3.84,0,0,1,678.61,43.22Zm1.4,0a2.44,2.44,0,1,0,2.43-2.43A2.43,2.43,0,0,0,680,43.22Z"></path><path class="cls-9" d="M716.25,24.08a6.09,6.09,0,0,1-2.84-3.71,6,6,0,0,1,.61-4.64,6.11,6.11,0,1,1,10.58,6.11,6.05,6.05,0,0,1-3.71,2.85,6.1,6.1,0,0,1-4.64-.61Zm-1-7.65a4.71,4.71,0,1,0,8.16,4.71,4.71,4.71,0,1,0-8.16-4.71Z"></path><path class="cls-9" d="M638.84,14.09a6.11,6.11,0,0,1-2.23-8.34h0a6.11,6.11,0,1,1,6.87,9,6.2,6.2,0,0,1-1.59.21A6,6,0,0,1,638.84,14.09Zm-1-7.64a4.72,4.72,0,1,0,6.45-1.73,4.69,4.69,0,0,0-2.35-.63A4.75,4.75,0,0,0,637.81,6.45Z"></path><path class="cls-9" d="M714,48.51a6,6,0,0,1-2.85-3.71,6.11,6.11,0,1,1,7.49,4.32,6.28,6.28,0,0,1-1.6.21A6.11,6.11,0,0,1,714,48.51Zm1.83-9.84a4.67,4.67,0,0,0-2.86,2.19h0A4.7,4.7,0,1,0,717,38.5,4.74,4.74,0,0,0,715.8,38.67Z"></path><path class="cls-9" d="M672.33,17a2.2,2.2,0,0,1,0-3.1h0a2.19,2.19,0,1,1,3.1,3.1,2.18,2.18,0,0,1-1.55.64A2.21,2.21,0,0,1,672.33,17Zm1-2.11a.79.79,0,0,0,0,1.12.81.81,0,0,0,1.12,0,.79.79,0,0,0,0-1.12.8.8,0,0,0-1.12,0Z"></path><g class="cls-10"><path class="cls-9" d="M645.27,43.48a2.19,2.19,0,0,1,0-3.09h0a2.19,2.19,0,1,1,1.55,3.73A2.14,2.14,0,0,1,645.27,43.48Zm1-2.11a.8.8,0,1,0,1.12,0,.82.82,0,0,0-.56-.23A.79.79,0,0,0,646.26,41.37Z"></path></g></g></g></svg>