<svg id="Symbols" xmlns="http://www.w3.org/2000/svg" width="270.022" height="686.444" viewBox="0 0 270.022 686.444">
  <g id="Scene_Home" data-name="Scene/Home" transform="translate(0 0)">
    <g id="Plant" transform="translate(0 0)">
      <g id="Succulents" transform="translate(31.645 0)">
        <path id="Thi-Succs_" data-name="Thi-Succs!" d="M3.927.507C25.428,51.6,61.979,87.1,81.337,140.222c11.479,31.5,16.265,65.759,16.555,100.842.158,19.055-.174,38.124-.263,57.179-.087,18.583-.592,37.046-2.169,55.512-1.585,18.561-3.36,36.9-4.143,55.578-.609,14.552-.888,31.479-5.82,44.753-3.922,10.557-13.892,12.1-16.538-.7-1.47-7.115-1.285-15.063-1.123-22.378.208-9.384.754-18.753,1.032-28.137,1.119-37.652-.332-75.309.427-112.976.741-36.8,5.471-73.564.237-110.12-4.322-30.188-15.3-56.11-27.922-80.962C29.469,74.9,16.255,51.574,8.051,24.377A131.06,131.06,0,0,1,3,.073Q3.573-.193,3.927.507Z" transform="translate(4.303 0)" fill="#c1dee2" fill-rule="evenodd"/>
        <path id="Thi-Succs_2" data-name="Thi-Succs!" d="M2.37,42.5c4.258,3.074,6.637,7.572,9.514,12.009,3.579,5.517,7.786,10.5,11.364,16.018,7.46,11.51,14.015,23.727,20.815,35.7,12.911,22.732,22.714,46.961,27.569,73.26,5.032,27.256,6.39,55.386,8.5,83.048,2.239,29.318,4.494,58.849,4.79,88.281.133,13.186.845,27.183-.738,40.276-.986,8.15-4.664,15.1-12.957,15.031-17.615-.141-25.885-19.651-29.34-35.651-5.086-23.563-6.1-48.589-5.3-72.685.973-29.055,6.015-57.671,8.2-86.614,2.312-30.64,1.006-60.738-9.528-89.586-5.322-14.579-11.5-28.808-17.044-43.29-2.362-6.166-4.3-12.5-7.486-18.241C7.184,53.676,2.779,47.879,0,41Z" transform="translate(0 58.802)" fill="#89c5cc" fill-rule="evenodd"/>
        <path id="Thi-Succs_3" data-name="Thi-Succs!" d="M109.195,17.26,110.816,16c-1.556,6.555-4.366,11.879-6.513,17.87-1.931,5.386-2.91,11.482-4.21,17.369-3.054,13.828-6.583,27.345-9.467,41.291-5.71,27.6-4.63,57.327-.885,87.944,3.537,28.922,9.13,57.8,11.795,86.715,2.209,23.979,3.159,48.708,1.052,71.587-1.432,15.537-6.126,34.091-18.917,32.523-6.021-.738-9.162-7.987-10.428-16.168-2.033-13.14-2.458-26.956-3.251-40.023-1.768-29.167-2.12-58.243-2.47-87.11-.331-27.234-1.241-55.009.579-81.557a249.963,249.963,0,0,1,15.094-70c4.134-11.221,8.073-22.705,12.718-33.4,2.228-5.13,4.949-9.663,7.177-14.789C104.883,24.128,106.308,19.9,109.195,17.26Z" transform="translate(96.091 22.947)" fill="#c1dee2" fill-rule="evenodd"/>
        <path id="Thi-Succs_4" data-name="Thi-Succs!" d="M3.508,76.735c2.329-3.911,7.457,8.986,8.237,10.608q-.5-1.21-1-2.418c4.623,7.688,8.853,15.691,11.483,24.507,2.6,8.726,4.837,17.629,7.279,26.418C34.093,152.339,40,168.361,44.155,185c4.045,16.212,5.064,32.151,4.085,48.92-1.018,17.429-1.64,35.128-.453,52.547.567,8.32,3.27,16.071,5.123,24.079s3.316,16.144,5.51,24.062c.5-1.032.567,2.417.566,2.678a16.63,16.63,0,0,1-.926,5.513c-1.636,4.825-4.7,8.921-9.351,10.253-8.414,2.4-16.226-5.251-18.939-13.332-3.892-11.6-6.037-24.41-7.892-36.6a172.537,172.537,0,0,1-1.6-33.748c1-22.344,5.039-44.395,6.132-66.731,1.191-24.318-3.628-47.167-7.662-70.838-1.943-11.406-3.8-22.7-7.581-33.57A94.349,94.349,0,0,0,5.55,85.886C4.359,83.575,1.951,79.451,3.508,76.735Z" transform="translate(4.303 108.999)" fill="#c1dee2" fill-rule="evenodd"/>
        <path id="Thi-Succs_5" data-name="Thi-Succs!" d="M45.956,111.894c-.965,27.859-2.629,55.507-6.343,83.072-3.791,28.13-8.145,56.165-11.792,84.318-3.551,27.407-7.272,55.269-6.776,83.06.365,20.467-3.029,55.1,19.7,65.2,23.024,10.231,27.963-33.46,29.475-47.881,2.9-27.667,1.959-55.626.553-83.444-1.443-28.553-3.853-56.958-6.84-85.4-3.317-31.6-5.92-63.339-8.009-95.027-1.034-15.674-1.288-31.321-1-47C55.2,53.993,54.634,39.046,49.374,25c-.276.2-.549.4-.825.6" transform="translate(30.118 35.855)" fill="#69a1ac" fill-rule="evenodd"/>
        <path id="Thi-Succs_6" data-name="Thi-Succs!" d="M97.412,105.5c-4.141,6.032-8.315,12-12.225,18.395-7,11.433-13.324,24.147-15.227,40.493-3.983,34.208-.788,71.156-.016,106.413.158,7.2-.753,14.191,2.086,21.049,2.575,6.217,7.388,10.954,11.977,10.93,9.823-.056,8.324-24.111,8.34-34.7.029-18.556-2.051-37.3-1.872-55.841a387.682,387.682,0,0,1,3.959-54.229,312.459,312.459,0,0,1,11.855-50.433c.723-2.2,5.912-19.162,1.01-16.238" transform="translate(97.526 130.512)" fill="#89c5cc" fill-rule="evenodd"/>
        <path id="Thi-Succs_7" data-name="Thi-Succs!" d="M82.717,22C76.259,22,76.3,54.195,76.1,58.33c-.7,14.923-.537,29.85-.98,44.776-.971,32.573-2.165,65.432-7.057,97.628-2.634,17.333-5.688,34.589-8.973,51.789C55.8,269.775,51.376,287,49.209,304.474c-2.081,16.794-.905,33.916-.62,50.792.285,16.979.8,33.991,3.023,50.821.549,4.153,1.192,8.293,1.881,12.422.574,3.442.24,7.709,1.21,10.978,1.556,5.236,8.226,6.95,12.717,6.132,12.153-2.218,19.915-17.478,24.067-28.626,5.3-14.238,8.114-29.68,10.891-44.682a390.546,390.546,0,0,0,5.853-51.559c1.758-35.169-.5-70.375-3.017-105.432-1.4-19.5-3.02-38.907-5.5-58.283-2.467-19.293-5.631-38.5-7.692-57.85-1.5-14.062-2.972-28.142-3.942-42.258C87.851,43.564,87.656,22,82.717,22" transform="translate(68.842 31.552)" fill="#69a1ac" fill-rule="evenodd"/>
        <path id="Thi-Succs_8" data-name="Thi-Succs!" d="M97.579,287.574c-1.053-33.8-14.64-182.273-17.731-223.148C79.075,54.2,71.632,11.6,70.667,0,68.05,3.278,68.273,54.306,68.3,66.031c.03,11.6-1.408,23-2.148,34.54C65.4,112.341,48,264.356,45.74,275.666c-4.493,22.5-7.5,45.59-9.818,68.6-2.259,22.421-5.771,46.079-2.748,68.62a68.887,68.887,0,0,0,3.585,15.063c1.934,5.151,3.26,9.915,4.812,15.3,2.5,8.68,7.018,16.3,13.963,19.885,14.239,7.349,21.884-9.286,25.76-23.77a387.585,387.585,0,0,0,12.026-70.928c2.061-26.876,5.1-53.806,4.26-80.864" transform="translate(45.894 0)" fill="#89c5cc" fill-rule="evenodd"/>
      </g>
      <g id="Planter" transform="translate(0 386.547)">
        <rect id="Vase" width="221.763" height="221.763" rx="2" transform="translate(24.13 0)" fill="#fff"/>
        <rect id="Leg" width="24.13" height="274.618" rx="2" transform="translate(0 25.279)" fill="#c5cfd6"/>
        <rect id="Leg-2" data-name="Leg" width="24.13" height="274.618" rx="2" transform="translate(121.797 25.279)" fill="#c5cfd6"/>
        <rect id="Leg-3" data-name="Leg" width="24.13" height="274.618" rx="2" transform="translate(245.893 25.279)" fill="#c5cfd6"/>
      </g>
    </g>
  </g>
</svg>
