<svg xmlns="http://www.w3.org/2000/svg" viewBox="0 0 340.09 343.01"  xmlns:v="https://vecta.io/nano"><defs><clipPath id="A"><path d="M227.85 223.6a70.49 70.49 0 0 0 11.38-38.6c0-38.19-29.92-69.15-66.83-69.15s-66.83 31-66.83 69.15a70.44 70.44 0 0 0 12.7 40.53 168.16 168.16 0 0 1 9.07 33.59c5.47 32.7 4.74 55.12 4.74 55.12-.2 14.56-1.56 24.72 2.58 27.56 3.42 2.34 10.14-.6 13.36-6.48 1.31-2.39 4.55-9.86-6-58.91-1-4.64-2.16-9.82 0-13.51s8.19.38 20.25.54c5 .06 17.12.22 25.73-6.23 2.69-2 3.57-4.09 7.76-6.89 4.36-2.92 5.68-2.45 10.1-5.45 5.14-3.49 7-6.57 8.33-5.9 1.1.55.79 3 .64 6.21-.31 7.11.67 7.59.74 14.76.1 10.62-1.95 21.91-3.75 31.78-1.66 9.07-2.77 13-.3 17.13 2.15 3.57 6.74 6.84 9.77 5.7 4.55-1.71 2.62-12.22 3.45-33.17 1-26 4.62-25.39 3.88-44.81l-.77-12.97z" fill="none"/></clipPath></defs><path d="M175.4 231.17c-8.39 0-24.72-.12-41.55-9.79-33.75-19.38-38.79-59.81-39.37-65.2 0 0 7 12 14.57 8.56 0 0-18.38-15.53-14.57-47.23l7 10.78s-5.71-22.19 7.6-38S118.56 66 118.56 66s10.78 4 8.24 15.37 14 14 10.78-10.14S131.24 44 131.24 44s12 .63 15.85 10.77 26-18.09.63-39.47c0 0 33 12.22 33 37.57 0 0 5.71-7 3.17-18.38 0 0 20.28 7.92 17.75 31.53s12.86 13.16 9 0c0 0 17.66 15.9 14.49 35.92s10.14 22 10.14 7.69c0 0 15.32 22.65 3.17 44 0 0 9.4 1.09 10.78-10.14a43.56 43.56 0 0 1 1.7 12.6c-.17 10.8-4.48 17.2-9.77 31.31-5.75 15.32-3.26 14.7-6.32 20.1-13.18 23.18-52.74 23.71-59.43 23.67z" fill="#f4573d"/><path d="M178.56 221.44c-10.66 0-37.79.05-55.87-21.34C108 182.76 108.32 162 108.61 156c0 0 12.56 11.06 17 0s-25.13-20-10.35-45.3c0 0 3.7 13.48 5.91 16a53.07 53.07 0 0 1-2.12-14.34 53.64 53.64 0 0 1 5.12-23.21 18.64 18.64 0 0 0 9.35 5.7 15.62 15.62 0 0 0 10.06-.41c13.8-5.63 12.63-24.47-3.2-29.59 0 0 21.43 1.08 22.17 16.28-1.21-4.77-4.28-19.56 3.79-33.26a38.17 38.17 0 0 1 6.66-8.3 42.81 42.81 0 0 0 1.48 15.27c3.08 10.65 8.74 18 14.69 22.35 25.12 18.48 22.91 32.86 22.91 32.86s7.38-10.56-3-28.9c0 0 20 23.21 16.26 45.57s10.34 16.88 11.82 0c0 0 6.66 37.86-7.39 54.53 0 0 8.86-2.05 13.3-13-.25 6.39-1.75 21.39-12.64 34.19-16.08 18.95-40.71 18.98-51.87 19z" fill="#ff9f50"/><path d="M203.8 111.78c5.79 15.1-17.92 18.72-13.25 4.84s3.73-31.71-9.33-41.27-11.36-16.91-11.36-16.91a17.21 17.21 0 0 0-1.86 7.88c.08 6 3.67 9.62 5.75 13.75s3.6 10.72.06 21c-4.67-18.39-18.65-15.45-18.65-15.45 18.65 15.45-1.87 44.86-4.67 31.15S131 102.56 131 102.56s6.21 4.23.81 27.94c-6.53 28.68 28.91 35.72 28.91 35.72 11.8 2.71 22.19 1.57 30.61-1.79 2.92-1.17 17-6.92 21.62-20.69 5.77-17.12-8.25-31.09-9.15-31.96z" fill="#fff16c"/><path d="M233.61 97.89s5.91-8 0-14.37 2.63-14.79 2.63-14.79-1.36 7.19 2.86 11.84 3.44 10.14-5.49 17.32M146.77 41s-8.64-1.9-6.54-9.51a16.05 16.05 0 0 0-2.33-13.31s10.14 1.27 8.87 9.51 0 13.31 0 13.31M99.23 88.49s-5.07-9.82 1.58-16.8 0-15.63 0-15.63 12.36 11.83 7 19.44-8.88 7.6-8.56 13" fill="#f4573d"/><path d="M227.85 223.6a70.49 70.49 0 0 0 11.38-38.6c0-38.19-29.92-69.15-66.83-69.15s-66.83 31-66.83 69.15a70.44 70.44 0 0 0 12.7 40.53c1.1 3.13 2.64 7.1 4.28 12.57 2.34 7.82 2.9 12 4.79 21 3.25 15.6 4.72 16.22 6.59 29.69 1.21 8.68 1.82 13 1.73 14.29-.26 3.59-1 6.81.86 8.62 1.29 1.22 3.71 1.71 5.09.75 2.34-1.65.12-6.4-.57-15.19-.74-9.47 1.41-9.51 1-20.87-.38-9.25-1.42-11.09 0-13.51 2.25-3.84 8.19.38 20.25.54 5 .06 17.12.22 25.73-6.23 2.69-2 3.57-4.09 7.76-6.89 4.36-2.92 5.68-2.45 10.1-5.45 5.14-3.49 7-6.57 8.33-5.9 1.1.55.79 3 .64 6.21a31.37 31.37 0 0 0 .36 6.87 78.45 78.45 0 0 1 .38 7.89c.08 12.07 4.35 19.89 1.69 31.74-1.29 5.77-3.67 10-1.43 12.64 1 1.17 3.11 2.29 4.88 1.72a4.59 4.59 0 0 0 2.53-2.6c2.64-5.49 1.6-15.21 1.5-22.06a108.1 108.1 0 0 1 1.24-16.58c1.39-10.64 3.1-14.23 2.57-28.22-.18-5.18-.57-9.06-.72-12.96z" fill="#cbecfa"/><g fill="#4290b0"><path d="M193.53 135.87s.89.74 0 1-1.26.82-.67 1l1.94.6a2.07 2.07 0 0 1 1.19 1c.15.45-.3.89 0 1.71a4.75 4.75 0 0 1 .45 2c-.08.52 0 .45.67.75s.44.07 1 .45a1.76 1.76 0 0 1 1 1.19c.22.67.15.74.74.82s1 0 1.12-.38.45-1.41.82-1.26a.93.93 0 0 1 .59.59c.15.3-.07.73.45 1.07a1.57 1.57 0 0 0 1.42 0c.37-.1-.23-1.14 0-1.89a4.79 4.79 0 0 0 .12-1.63 4.16 4.16 0 0 0-1.06-1.12c-.7-.52-.4-.52-1.37-1.12s-1.86-.15-2.31-1a4 4 0 0 0-1.15-1.41c-.57-.52-.42-.3-1.23-1s-1-1.71-1.94-1.56c0 0-2.53-2.09-1.79 0M131.26 204s1.49-1.34 2.38-1 2.09 1.49 2.83 1.79a22.09 22.09 0 0 1 2.54 1.19c.44.3 1.34-.29 2.23 0a4.19 4.19 0 0 0 1.38.16 6.8 6.8 0 0 0 .71-.07l-3.58-1.52-2.46-1.59c-.37-.26-.52-1.15-1.12-1.15a5.57 5.57 0 0 1-2.23 0c-.74-.3-2.83-.44-2.68 0s-1.34 2-1 2l1 .21"/><path d="M143.85 206.85l-.52.82s-.6.08-.75.37-.07.53.75.53a5.43 5.43 0 0 1 1.56 0c.89.14.15.59 1.49 0s1.56-.45 2.09-.71l1.34-.64s-.45-1.09-1.27-1.18-.67.16-1.19 0-.88-.6-1.19-.38a1.71 1.71 0 0 1-.75.38c-.45.14-.74-.5-1.12-.44s-.67-.29-.67.37a1.25 1.25 0 0 0 .23.88m-3.85 1.04a10.67 10.67 0 0 0-1.56 0 1.69 1.69 0 0 0 .3 1s.15.44.48.44a2.82 2.82 0 0 0 .78 0 1.73 1.73 0 0 0 .9-.44v-.27a1.15 1.15 0 0 0-.37-.74zm-4-11.69l.66.82.06.52s.54.45.95.3.49.51.71 0-.07-.35 0-.75.45-.55 0-.62-.23-.15-.71-.3-.75.15-.95 0-.72 0-.72 0m18.13-38.33c.08.36.37.82 0 1.19s.22-.52-.38.37-1 1-1 1.72a6 6 0 0 0 .44 1.71c.15.37-.29.67.3.45s1-.82 1.42-1 1.19-.3 1.41 0 .3.67.75.74 1.11.67 1.34 0-.23-.74 0-1.26.57-1 .06-1.19-.66-.08-.73-.75.29-1.14-.08-1.35-.37-1.11-.74-.66.15.82-.38.45-.57-1.27-.8-1.35a1 1 0 0 0-.91 0c-.3.23-.87.34-.74.9M143.33 124a2.05 2.05 0 0 1 1.71-.74 5.15 5.15 0 0 0 1 0 5.29 5.29 0 0 0 1.12-.53c.37-.22 1.27-.29 1.49-.67s.89-.29 1-.59 0 .3.82-.52 2.29-1.57 2.23-1.79.38-.45.6-.37 1-.55 1.12 0 .3.61.89 1.06.67.67 1.19.67 1 .07 1.2.07h1.34l1.86-.14h3.57c.45 0 1 .07 1 .07s.37.74 0 .78-1.49.86-2.39.86a12.83 12.83 0 0 1-1.63-.15l-2.16-.07c-.67 0-.38-.15-1.12-.15a8.14 8.14 0 0 0-1.64.22 2.14 2.14 0 0 0-.88.07c-.39.15-.61.82-.31.67a4.75 4.75 0 0 1 1.41 0c.38 0 .82-.15 1.05 0s.85 0 .85 0a10.34 10.34 0 0 0 1 .53 11.77 11.77 0 0 1 1.26.74h.38l-.38.75c-.15.52.08 1 .45 1s-.15-.22.37-.07.38-.28 1 .08l.67.37s-.23.07.22.37 1 .82.89 1.12a6.47 6.47 0 0 1-.5.74s.13.37.35.45a1.59 1.59 0 0 0 .6 0c-.07.59.37-.08-.07.59s0 .23-.45.67l-.82.82c-.37.38-.67.67-.67.9v.19l.3 1s.52.38-.08.6a6 6 0 0 0-1.41 1l.15 1-.15 1.26.07 1.42v1.34l.3 1.24-.67.85-1.12.44a18.25 18.25 0 0 1-1.75-1.29H158a6.4 6.4 0 0 1-1.86-1.46l-.82-2.69v-.74s.62-.14.46-1a5.72 5.72 0 0 0-.61-1.91 5.52 5.52 0 0 0-1.27-1.11c-.22-.08-.59-.08-.67-.3a2.37 2.37 0 0 0-.45-.6 2.49 2.49 0 0 0 0-.67l-.07-.07s.43-.75.07-1a3.8 3.8 0 0 1-.81-.82 2.09 2.09 0 0 0-.75-.37c-.37-.08-.67.15-.89-.15s-1.49-1-1.57-1.27-.82-.52-.82-.52a2.41 2.41 0 0 0-.67.22 2.83 2.83 0 0 1-1 .38c-.3 0-1-.08-1.27-.08s-1.19.08-1.19.08l-1-.15-1-.3c-.59-.52-.74-.74-.59-1a5.4 5.4 0 0 1 .52-.75zm35.2 6.35c-.2.08-.57.6-1 .67a6 6 0 0 1-1.2 0c-.29 0-.44.08-.74.38s-.52.37 0 .67 1.79.82 2.08 1 .69.67.87.82.77.52 1.07.37.6.44.89 0a1.1 1.1 0 0 1 .82-.41l1-.67a7.29 7.29 0 0 0 0-1.34c-.07-.3.89-.3 0-.82l-1.3-.75a3.64 3.64 0 0 0-1.34-.59 1.65 1.65 0 0 0-.71 0zm-27.76 76.86l-.52 1.39c0 .03-.07.19.26.27a1.8 1.8 0 0 0 1.08 0 2.58 2.58 0 0 1 .67-.27v-.74s-.44-.73-.67-.65l-.22.09zm4.08 0a1.3 1.3 0 0 0-.23.36 3.86 3.86 0 0 0 .23.51c.1.16.42.68.49.52s.65-.16.65-.16l.3-.1a.25.25 0 0 0 .2-.26 3.08 3.08 0 0 0-.2-.66c0-.1-.1-.27-.28-.32s0 0-.34 0-.82.11-.82.11m2.21 2.37a.75.75 0 0 0-.3 0 3.83 3.83 0 0 0-.42.13 1.48 1.48 0 0 0 .15.37c.07.07.12.17.21.2s.26-.1.36 0 .44.22.44.15.3-.45.23-.42-.08-.2-.18-.2a2.27 2.27 0 0 1-.49-.23m.94 1.87a.72.72 0 0 0-.4.34 1.28 1.28 0 0 0 0 .45h.4l.45-.12.12-.28s.15-.05 0-.15l-.37-.24zm.27 1.91l-.34.2a1.92 1.92 0 0 0-.35.39l1.06.1s.23 0 .25-.15.33-.32.25-.44a2.35 2.35 0 0 0-.25-.33h-.25l-.17.2zm-21.52-13.29v.6h2v-.6a1.82 1.82 0 0 0-.3-.89c-.15-.22-.47-.22-.68-.45s-1 0-1 0a2 2 0 0 0 0 .92zm92.38 37.02c-.39-10.25-1.57-15.46 0-25.68 1.88-12.23 5.61-18.07 3.92-19.16-1.93-1.24-10 4.22-15.81 13.27.34.11.78.16 1 1.11a6.29 6.29 0 0 0 .89 2.38c.3.45.3 1 1 1s1 1.49 1.64 0a12.75 12.75 0 0 1 2.09-3.42 7.58 7.58 0 0 1 1.49-.9c.44-.29 1.63-1 1.93-.59a2 2 0 0 1 0 2.23 4.54 4.54 0 0 0-.74 1.94 17.9 17.9 0 0 1-.75 2.53c-.29.6-1.19.75-1.93 2.83s-1 1.49-1 3.43 0 2.53-.89 4-1.49 2.24-2.09 3.28a38.56 38.56 0 0 0-1.63 4l-.9 1.79c2.61 9.83 4 12 4 12a17.71 17.71 0 0 0 7.56 6.17 94.83 94.83 0 0 0 .22-12.21z"/></g><g clip-path="url(#A)" fill="#4290b0"><path d="M133.79 201.69c-.37-.13-.6-1.31-.82-1.54a9.06 9.06 0 0 1-1.41-2c-.38-.82 0-.82-.3-1.63s-.6-.15-1.49-1.12 0 0-.45-.23a7.61 7.61 0 0 1-.82-.44 1.84 1.84 0 0 0-1-.3 1.41 1.41 0 0 0-1.12.37c-.22.15.08 1.12-.52 1.27s0 0-.6.89-1.11-.07-1.34-.22a2.1 2.1 0 0 0-.82-.3c-.37-.07-.37.22-1.19.3s-.82.3-1.56.45-.3.52-.6 1.11a3.11 3.11 0 0 0-.3.9c-.15.46.15.59 0 1s-.07 1.27-.37 1.54.15 3 .15 3c0 1.79 1.39 5 3 6 3.18 2.58 1.39-1 3.58-2.58a11 11 0 0 0 1.63-.15 1.85 1.85 0 0 1 1.94.75 3.74 3.74 0 0 1 .3 1.93c-.15.75.3-.44-.15.75s-.45 1.93.15 2.68a5.66 5.66 0 0 0 2.09 1.79 12 12 0 0 0 1.63.44c.9.15 0-1 .9.15l1.44 2c1 1.79 1.79 4 4 5.16 1 .6 2.19 0 3.38.8 0-2.58 3.77-3.58 5.56-4 .59 0 1 1.19 1.79 1.19s1-1.39 1.78-1.39c1.2-.2 2.59.39 4 0a2.93 2.93 0 0 0-.4-.8c2 1.19 3.77-.39 5.17 1.79.39.6-.4 2 .19 2.78 1 1.19 1.59.6 2.78 1l2.39.8a12.12 12.12 0 0 1 2.58.2c3.18.59 2.18.59 3.58 3.18 2 3.17 2 1.19 4.76 1.58 1 .2 1.79 1.39 2.78 1.59.8.2 1.79-.59 2.78-.59 1.4.2 2.19 1.39 3.78 1.19 0 0 4-.2 2.18 4s-2.78 2.78-3.57 5.17.2 4.37-1.59 5.56-2.58.79-4.17 2.78a36.31 36.31 0 0 1-3.78 4c-1.59 1.59-3.37 5.85-8.14 3.13s-2.78-2.13-4-4.32-1.19-4-3.58-4.37-4.57-2.19-6.75-3.38-4-3-6-4.17-1.59-2.78-2.39-4.77 0-1 0-4 1-3.18-.19-4.37-.6-2.18-1.79-2.18-.6 1.79-2 1.39-2.18-2-3.37-2.2-3.18-2.37-4-3.36a8.33 8.33 0 0 0-4-2.78c-1.59-.4-2.58.19-4-.8s-1.39-1.59-3.78-2a11.24 11.24 0 0 1-5.76-3c-1.19-1.19-1-4.17-3.18-6a27.45 27.45 0 0 0-3.77-2.79c-1-.59-1.79-2.78-2.58-5.36a24.64 24.64 0 0 1-1-6.75c-.2-2.78-1.2-3.18-1.59-5.17s2-1.59 0-4.76.7-3.38-.05-6 1-4.79 1.64-8.55 2.78-6.15 2.18-7.94 4-3.18 4.17-6.36 1.59-2.38 2.38-4.37 2.79-2.18 2.19-3.37a10.94 10.94 0 0 1-.6-3.18 7.79 7.79 0 0 1 .4-4.57c.8-2 13.11-12.51 14.3-12.32s1.45 3.18 1.45 3.18a3.51 3.51 0 0 1 .8 1c-.6.39-1.19 1.19-2 1.39.4 0 1 .59 1.59.59a10 10 0 0 1-.4 2.39c2.78.79 4.37-4.57 6.76-5.17.79-.2 6.35 1.39 7.35 1.79 2.18.79 1.78 1 2.78 2.78.2.6 1.39 3.58 1.39 4 0 .2-1 3.38-1 3.58-.39 1.19.4 3.18-2 2-.2 3-3.38 1-4.37-.39-1-2 .79-1.39 1.39-4.37a11.32 11.32 0 0 0-.2-2.59c-1.59-1.19-1.59.8-2.18 1.4.19-.2-1.39 2-1.2 1.78 0 .2-1.19 0-1.39.2-.2.4-.2 1-.39 1.39-.4.8 1 1.59-.2 2.58-1.19 1.2-2-.39-2.58-.19a12.43 12.43 0 0 0-4.57 4c-4.17 5.16 1.39 6 3 10.33.39 1.39.19 5.16 2 2.58.6-.79 1-3.58 1.59-5 1.19-2.38.8-3.17 1.39-5.76.4-2 1.39-3.77 4-3.37a3.88 3.88 0 0 0 1.2 3.77c3.37-4.37 5-.59 6.95 2.38 1.19 1.79 5.56 5.17 4.17 7.35-1.59-.39-3.77 1.79-5.56 2.39-2.19.79-5 1.19-5.56 4 2.18-.4 4.56-2 6.95-2.38a11.88 11.88 0 0 1-1.59 2c-.4.4-1.79.2-2 .6-1.59 2.58 1.59 1.19 2.78 2.38a10.49 10.49 0 0 0 1-1.59c3.57 2-2.59 6.56-4.37 3.78-1 1.39-3.18 2.38-3.58 4-.2.6 1.19 1.79.8 2.38-.6 1-1.2 0-2 .6-1 1-2 2-3 3.18-.4.59-2.18.59-2.38 1-.4 1 .79 1.59.79 2.38a6.67 6.67 0 0 1 .09 2.07 8 8 0 0 1-1 2.31c-.52.67.15.89-.67 1.56s-1.41 1-1.26 1.64.22.89.07 1.12a2.29 2.29 0 0 1-.67.82 1.7 1.7 0 0 0-.74.74c-.15.3-.15.22 0 .89a6.62 6.62 0 0 0 .66 1.79 7.64 7.64 0 0 0 .68 1.34c.44.6.59.67.67 1.42s.82.3.59 1 .6.7 0 .94a4.61 4.61 0 0 1-2.68 0m47.81-77.55c3.28 1.19 6.49 3 7.12 4.17s2.12 1.49 3.31 3 3.28-1.49 4.47 0 3.87.89 5.06 2.68-1.48 2.08 0 4.17a23.11 23.11 0 0 0 3.58 3.87c1.49 1.49-1.49 2.38 0 3.58s-.3 3.27 1.79 3.87 3.57 3.28 4.47 3.87-2.39.9-2.68 2.39 0 3.57 1.19 4.47.31 2.08 1.64 3.27 1.93.78 3.42 1.29.6-4 1.49-4 0-3.57 0-3.57l-.89-3.28s.2-1.79 1.29-1.79a5.06 5.06 0 0 1 3.77 2.09c.6 1.19 1.79 3 1.79 3a2.9 2.9 0 0 1 0-3c.9-1.79 3.58.3 3.58.3s2.38-.9 2.38-3-4.47-19.67-5.06-21.16-15.2-14.6-16.69-14.9-22 4.18-22 4.18-5.06 0-6 3c0 0-.52 1.5.75 1.27a4.09 4.09 0 0 1 2.23.23"/><path d="M229.61 160.6a14.88 14.88 0 0 1 9.24 5.3 9.66 9.66 0 0 0 .86 1c.45.34 6.11 19.92 6.41 21.12s-1.19 17.13-1.19 17.13l-10.57 16.24c-2.62 5.22-1.89 7.87-4.69 24.05l-.7 3.93a17.6 17.6 0 0 1-7.55-6.17s-1.43-2.15-4-12h0l.89-1.79a37 37 0 0 1 1.64-4c.6-1 1.19-1.79 2.08-3.28s.9-2.08.9-4 .3-1.34 1-3.43 1.64-2.23 1.94-2.83a16.81 16.81 0 0 0 .74-2.53 4.43 4.43 0 0 1 .75-1.94 2 2 0 0 0 0-2.23c-.3-.45-1.49.3-1.94.59a8.21 8.21 0 0 0-1.49.9 12.45 12.45 0 0 0-2.08 3.43c-.6 1.48-.9 0-1.64 0s-.75-.6-1-1.05a6.66 6.66 0 0 1-.89-2.38c-.3-1.34-1-.9-1.34-1.34s-.89-.75-1.26-1.34-.53-1.79-1.12-3.13.74-1.34 1.19-2.68-.15-1.49 0-3.43 0-1.34-.82-2.68-.08-1.94.21-3.73-.58-2.38 0-4.17.16-2.38.9-4 .45-1.34 0-2.68a20.84 20.84 0 0 1-.78-3.72c-.35-1.94.19-3.28 0-4.33s0-3.12 1.64-3.57l1.34-2.24c.15-1.34 1.19-2.08 1.79-3s.74-1.34 1.19-1.93.89.59 1 1.84.9 3.07 1.49 3.18 3.28 3.62 3.28 3.17-1.09-3.27-.89-4.32c.14-.65.86-1.4 3.47-1.96zM126 217.84c1.38 1 2.36.39 3.93.79a8.3 8.3 0 0 1 3.93 2.75c.79 1 2.76 3.15 3.94 3.33s2 1.78 3.34 2.18.79-1.38 2-1.38.59 1 1.76 2.16.2 1.38.2 4.33-.79 2 0 3.93.39 3.54 2.36 4.72 3.74 2.95 5.9 4.13 4.32 2.95 6.68 3.34 2.36 2.16 3.54 4.32-.78 1.58 3.93 4.28 6.49-1.52 8.07-3.1a35.53 35.53 0 0 0 3.73-3.93c1.57-2 2.36-1.57 4.13-2.75s.79-3.15 1.57-5.51 1.77-1 3.54-5.11-2.16-3.93-2.16-3.93c-1.57.2-2.36-1-3.74-1.18-1 0-2 .79-2.75.59-1-.2-1.77-1.38-2.75-1.57-2.75-.4-2.75 1.57-4.72-1.57-1.38-2.56-.39-2.56-3.54-3.15a11.9 11.9 0 0 0-2.55-.2c-.2 0-2.36-.78-2.36-.78-1.18-.4-1.77.19-2.76-1-.59-.78.2-2.16-.19-2.75-1.38-2.16-3.15-.59-5.12-1.77a2.84 2.84 0 0 1 .4.79c-1.38.39-2.75-.2-3.93 0-.79 0-1 1.37-1.77 1.37s-1.22-1.17-1.81-1.17c-1.77.4-5.51 1.38-5.51 3.94-1.18-.79-2.36-.2-3.34-.79-2.16-1.15-2.95-3.34-3.95-5.15l-1.43-2c-.89-1.21 0 0-.88-.15a10.17 10.17 0 0 1-1.62-.44 5.45 5.45 0 0 1-2.07-1.77c-.59-.73-.59-1.47-.15-2.65s0 0 .15-.74a3.84 3.84 0 0 0-.29-1.92 1.84 1.84 0 0 0-1.92-.73 10 10 0 0 1-1.62.14c-2.17 1.58-.4 5.12-3.54 2.56a3.91 3.91 0 0 1-.71-.61 15.15 15.15 0 0 0-4 4.25h0a10.9 10.9 0 0 0 4.32 1.85c2.37.48 2.37 1.07 3.76 2.05z"/></g><path d="M136.3 271.64c.73-.19-1.38-6.23 1.73-9.05a6.42 6.42 0 0 1 6.17-1.21c5.57 2 3.32 12.2 9.77 15.64 2 1.06 5.27 1.72 7.75.43 2.74-1.42 2.82-4.32 6.68-6.67 1.82-1.11 2.92-1.78 3.88-1.51 5.75 1.62 5.19 36.89 3.66 54.5-.25 2.89-1 10.91 2.8 13.14a4.47 4.47 0 0 0 4.1.22c4-2.11 2.33-12.39 1.5-18.75-3.44-26.54-1.15-53.18 5.61-55.14 1.71-.51 3 .75 5.27-.32 3.3-1.58 2.36-5.51 5.5-9 3-3.27 8.57-5.05 11.2-3.23 2.45 1.7 3.53 7.4 3.62 10.77 0 .9 0 2.27.9 3a4.08 4.08 0 0 0 4.53-.22c3.49-2.75-.63-11.23-3.45-23.05-2-8.19-2.68-8.91-3.45-9.26-5.78-2.67-12.95 16-29.08 22.62-23.32 9.61-47.38-12.2-54.29-3.66-4.7 5.9 4.42 21.05 5.6 20.75z" fill="#cbecfa"/></svg>