<?xml version="1.0" encoding="utf-8"?>
<!-- Generator: Adobe Illustrator 25.2.0, SVG Export Plug-In . SVG Version: 6.00 Build 0)  -->
<svg version="1.1" id="Layer_1" xmlns="http://www.w3.org/2000/svg" xmlns:xlink="http://www.w3.org/1999/xlink" x="0px" y="0px"
	 viewBox="0 0 453 361.2" style="enable-background:new 0 0 453 361.2;" xml:space="preserve">
<style type="text/css">
	.st0{clip-path:url(#SVGID_2_);}
	.st1{fill:#F0F3F7;}
	.st2{fill:#F8B133;}
	.st3{fill:#A6C6FF;}
	.st4{opacity:0.23;fill:#FFFFFF;enable-background:new    ;}
	.st5{fill:#D8D8D8;}
	.st6{opacity:0.47;fill:#9ABEF4;enable-background:new    ;}
	.st7{fill:#E00028;}
	.st8{opacity:0.43;}
	.st9{fill:none;}
	.st10{fill:#B7042B;}
	.st11{fill:#E8E8E8;}
	.st12{fill:#C5C5C4;}
	.st13{fill:#FFFFFF;}
	.st14{fill:none;stroke:#448A8A;stroke-width:2;stroke-linecap:round;stroke-linejoin:round;}
	.st15{enable-background:new    ;}
	.st16{fill:#448A8A;}
</style>
<g id="Vrstva_12">
	<g>
		<defs>
			<path id="SVGID_1_" d="M221.4,92.3c0.4,1.1,0.2,2.5,1.4,4c2,2.5,4.8,1.6,6.9,3.5s2,5.4,1.7,8.4c-0.7,9.5-1,14.2-1.7,19.3
				c-0.8,9.1,1.1,18.3,5.5,26.3c1.9,3.4,2.3,2.9,6.7,8.9c4.4,6.3,8.4,12.8,11.8,19.6c4.8,9.6,6.9,22.1,8.9,47.1
				c4,52.1,1.3,81.1,0.1,92c-0.4,3.3-0.7,6-0.9,7.8c-1.4,2.8-3.4,5.4-5.8,7.5c-7.2,6.4-14.4,5.1-42.1,6.1c-9.6,0.4-19.3,0-28.9-1.4
				c-4.7-0.7-10.3-1.9-13.9-6.4c-1.9-2.5-3-5.5-3.2-8.7c-3-30.5-1.7-64.3-1.7-64.3c0.3-6.8,0.7-15.6,1.5-27.6
				c0.1-1.3,0.5-7.9,1.1-14.1c1.6-16.6,4.1-38.9,8.7-62.4c6.7-33.9,12.2-44.7,12.5-52.3c0.3-2.9,1.1-5.7,2.3-8.4
				c1.4-3.2,3.3-6.1,5.7-8.6C215.4,87.6,220.4,89.7,221.4,92.3z"/>
		</defs>
		<clipPath id="SVGID_2_">
			<use xlink:href="#SVGID_1_"  style="overflow:visible;"/>
		</clipPath>
		<g class="st0">
			<path class="st1" d="M221.4,92.3c0.4,1.1,0.2,2.5,1.4,4c2,2.5,4.8,1.6,6.9,3.5s2,5.4,1.7,8.4c-0.7,9.5-1,14.2-1.7,19.3
				c-0.8,9.1,1.1,18.3,5.5,26.3c1.9,3.4,2.3,2.9,6.7,8.9c4.4,6.3,8.4,12.8,11.8,19.6c4.8,9.6,6.9,22.1,8.9,47.1
				c4,52.1,1.3,81.1,0.1,92c-0.4,3.3-0.7,6-0.9,7.8c-1.4,2.8-3.4,5.4-5.8,7.5c-7.2,6.4-14.4,5.1-42.1,6.1c-9.6,0.4-19.3,0-28.9-1.4
				c-4.7-0.7-10.3-1.9-13.9-6.4c-1.9-2.5-3-5.5-3.2-8.7c-3.8-38.7-1.7-64.3-1.7-64.3c2.1-26.3,0.5-20.1,2.6-41.7
				c1.6-16.6,4.1-38.9,8.7-62.4c6.7-33.9,12.2-44.7,12.5-52.3c0.3-2.9,1.1-5.7,2.3-8.4c1.4-3.2,3.3-6.1,5.7-8.6
				C215.4,87.6,220.4,89.7,221.4,92.3z"/>
			<path class="st2" d="M197.2,145.6c11.1,0.4,13.1-1.8,26.6-1.5c2.5,0,5.1,0.2,7.6,0.4h0.1c1,2.2,2.2,4.2,3.8,6.1
				c1.9,2.3,2.3,1.9,6.7,6c0,0,1,1,2.6,2.5c-8.1,0.9-16.2,1.3-24.3,1.3c-2.4,0-10.8,0-30.7-0.9c-5.7-0.3-10.4-0.5-13.6-0.7
				c0.5-1.7,1-3.5,1.6-5.3c0.9-3,1.8-5.9,2.8-8.8l2,0.1C190.6,145.1,193.4,145.5,197.2,145.6z"/>
			<path class="st3" d="M265.3,222.7c2,32.4,2.3,64.8,1,97.2c-0.1,3-0.7,5.9-1.9,8.6c-1.4,3.1-3.5,5.8-6.1,8
				c-7.7,6.1-22,5.7-44.4,6.4c-10.2,0.5-20.3,0-30.4-1.5c-4.9-0.8-10.9-2-14.6-6.7c-2-2.7-3.1-5.9-3.3-9.2c-4-41-1.8-68.1-1.8-68.1
				c1.6-19,1.2-22,1.6-29.2c0,0,0.3-6.8,1.1-14.9c0.9-8.9,3.5-29.9,7.5-57.7c5.2-0.2,10.5-0.1,15.7,0.2c2.2,0.1,5.9,0.6,8.6,0.9
				c5.5,0.6,5.5,0.7,8,0.9c3.7,0.4,7.4,0.4,11.1,0.2c4.2-0.2,5.3-1.1,11.5-1.6c1.6-0.1,4.8-0.4,9-0.4c3.6,0,6.5,0.1,8.4,0.3
				c3.6,5.4,6.8,11,9.8,16.8C263.6,188.1,263.7,200.5,265.3,222.7z"/>
			<path class="st4" d="M204.3,103.4c-1.4-0.4-7,11.1-10,17.8c-5.1,11.4-9.1,23.3-11.9,35.5c-1,4.2-1.8,8.7-2.9,15.5
				c-4.1,26.3-5.6,53.8-4.3,53.9c1.7,0.2,5.2-45.8,16.6-77.1c3.3-9,4.6-13.4,7.2-22.3S205.8,103.8,204.3,103.4z"/>
			<path class="st5" d="M235.7,93.1c-8.4,0.6-17.4,1-27,0.9c-7.7-0.1-15.1-0.4-22-0.9v-6.3h49V93.1z"/>
		</g>
	</g>
	<path class="st6" d="M258.4,321.1c-0.7-0.6-4.7,4.7-10.3,8.8c-9.9,7.2-23.2,6.7-49.4,6.1c-5.2-0.1-9.7-0.4-14.9-2.4
		c-6.9-2.6-11-6.6-11.7-5.8s1.6,4.3,5,6.9c4.2,3.3,8.9,3.6,14.7,4.1c7,0.7,14,0.9,21,0.9c31.3-1.1,35.7-4.2,37.7-5.8
		C256.3,329,259.2,321.8,258.4,321.1z"/>
	<path class="st7" d="M262.2,95.8c-0.6,1.3-1.2,2.5-1.8,3.8c-4.6-3.6-8.6-7.8-11.8-12.6c-3.7-5.1-6.2-10.9-7.5-17
		c-0.5-2.4-0.7-4.8-0.7-7.2l-21.6-0.1L247.6,46c0.7,1.2,1.1,2.6,1.3,4c0.2,1.4,0.2,2.8-0.1,4.2c-0.7,3.6-0.2,8.1,0.3,12.7
		c0.7,6.1,2.7,10.6,5,15.6C256.3,87.2,259,91.7,262.2,95.8z"/>
	<g class="st8">
		<path class="st9" d="M237,54.5c3.6-2.7,7.3-5.1,11.3-7.1c0.3,0.8,0.6,1.7,0.7,2.6c0.2,1.4,0.2,2.8-0.1,4.2
			c-0.7,3.6-0.2,8.1,0.3,12.7c0.7,6.1,2.7,10.6,5,15.6c2.2,4.8,4.9,9.3,8.1,13.4c-0.6,1.3-1.2,2.5-1.8,3.8
			c-4.6-3.6-8.6-7.8-11.8-12.6c-3.7-5.1-6.2-10.9-7.5-17c-0.5-2.4-0.7-4.8-0.7-7.2l-12.8-0.1C230.5,59.7,233.7,57,237,54.5z"/>
		<path class="st9" d="M218.8,62.6l10.6-6.1c-1.4,1.9-2.6,4-3.6,6.1L218.8,62.6z"/>
		<path class="st10" d="M227.6,62.7h-1.9c1-2.2,2.2-4.2,3.6-6.1L247.6,46c0.2,0.4,0.4,0.9,0.6,1.3c-3.9,2.1-7.7,4.5-11.2,7.2
			C233.7,57,230.5,59.7,227.6,62.7z"/>
	</g>
	<path class="st7" d="M264.6,29.2c-0.1,4.3-0.3,8.5-0.4,12.8l-17.6,2.6l-1.2-17.1L264.6,29.2z"/>
	<path class="st10" d="M262.2,33.6c0-0.4-0.5-0.8-1.2-0.8l-7.5-0.5c-0.7,0-1.2,0.2-1.3,0.6s0.5,0.8,1.2,0.8l7.5,0.5
		C261.6,34.3,262.2,34,262.2,33.6z"/>
	<path class="st10" d="M262.2,36c0-0.4-0.5-0.7-1.2-0.7h-7.5c-0.7,0-1.2,0.3-1.2,0.7s0.6,0.7,1.2,0.7h7.5
		C261.7,36.7,262.2,36.4,262.2,36z"/>
	<path class="st10" d="M262.2,38.1c0-0.4-0.6-0.7-1.3-0.6l-7.5,0.7c-0.7,0.1-1.2,0.4-1.1,0.8s0.6,0.7,1.3,0.6l7.5-0.7
		C261.7,38.9,262.3,38.5,262.2,38.1z"/>
	<path class="st10" d="M262.2,40.6c0-0.4-0.6-0.6-1.3-0.6l-7.4,0.9c-0.7,0.1-1.2,0.5-1.1,0.8s0.6,0.6,1.3,0.6l7.4-0.9
		C261.8,41.3,262.2,41,262.2,40.6z"/>
	<path class="st10" d="M252.6,30.1c0.1-0.4,0.6-0.6,1.3-0.6l7.4,0.9c0.7,0.1,1.2,0.5,1.1,0.9s-0.6,0.6-1.3,0.6l-7.4-0.8
		C253.1,30.9,252.6,30.5,252.6,30.1z"/>
	<path class="st11" d="M254.9,27.6c-0.2,5.6-0.4,11.2-0.6,16.8c-14.1,3.7-26,13.3-32.6,26.3l-26.3,0.9c0.5-2,0.3-4.2-0.3-6.2
		c-1.5-4.3-5.5-6.3-7.2-7.1c-8.4-3.8-14.5,0.4-16.4-2.3c-2.4-3.3,3.6-12.4,9.8-17.9c4.9-4.3,10.8-7.2,17.2-8.6
		c9.4-1,19.5-1.8,30.3-2C238,27.1,246.8,27.3,254.9,27.6z"/>
	<path class="st12" d="M221.7,70.7l-26.3,0.9c0.2-1.1,0.3-2.2,0.2-3.3l27.4-0.1C222.6,69,222.1,69.9,221.7,70.7z"/>
	<path class="st7" d="M223.5,92.9h-30.1c-1.1,0-2-0.9-2-2V71c0-1.1,0.9-2,2-2h30.1c1.1,0,2,0.9,2,2v20
		C225.5,92,224.6,92.9,223.5,92.9z"/>
	<path class="st13" d="M189.5,41.3c3.7-2.2,7.7-4.1,11.8-5.5c16.9-5.3,39.2-6,39.2-6.3c0-0.1-5.5,0-6.8,0c-5.6,0.1-9.8,0.4-10.9,0.4
		c-17.4,1-21.6,2-24.8,2.9c-1.2,0.3-2.3,0.7-3.4,1.1c-10.5,4-20.9,12.4-19.4,17.3c0.2,0.8,0.9,1.9,3.1,2.9c0.6-2,1.5-3.8,2.7-5.5
		C182.3,46.6,184.3,44.4,189.5,41.3z"/>
	<path class="st10" d="M220,87.4c0.9,0,1.6-0.7,1.6-1.6v-9.8c-0.1-0.9-0.8-1.5-1.7-1.5c-0.8,0.1-1.4,0.7-1.5,1.5v9.8
		C218.4,86.7,219.1,87.4,220,87.4L220,87.4z"/>
	<path class="st10" d="M214.2,87.4c0.9,0,1.6-0.7,1.6-1.6v-9.8c-0.1-0.9-0.8-1.5-1.7-1.5c-0.8,0.1-1.4,0.7-1.5,1.5v9.8
		C212.6,86.7,213.3,87.4,214.2,87.4L214.2,87.4z"/>
	<path class="st10" d="M208.4,87.4c0.9,0,1.6-0.7,1.6-1.6v-9.8c-0.1-0.9-0.8-1.5-1.7-1.5c-0.8,0.1-1.4,0.7-1.5,1.5v9.8
		C206.8,86.7,207.5,87.4,208.4,87.4L208.4,87.4z"/>
	<path class="st10" d="M202.7,87.4c0.9,0,1.6-0.7,1.6-1.6c0,0,0,0,0,0v-9.8c-0.1-0.9-0.8-1.5-1.7-1.5c-0.8,0.1-1.4,0.7-1.5,1.5v9.8
		C201.1,86.7,201.8,87.4,202.7,87.4z"/>
	<path class="st10" d="M196.9,87.4c0.9,0,1.6-0.7,1.6-1.6c0,0,0,0,0,0v-9.8c-0.1-0.9-0.8-1.5-1.7-1.5c-0.8,0.1-1.4,0.7-1.5,1.5v9.8
		C195.3,86.7,196,87.4,196.9,87.4z"/>
	<line class="st14" x1="244.9" y1="151.7" x2="285.8" y2="151.4"/>
	<line class="st14" x1="109.6" y1="253.4" x2="150.4" y2="253"/>
	<g class="st15">
		<path class="st16" d="M302.1,146.3v1.2h-4v2.4c0.3-0.4,1-0.8,1.8-0.8c2.1,0,2.8,1.6,2.8,2.9c0,1.7-1,3.1-3,3.1c-1.8,0-2.8-1-3-2.4
			h1.3c0.2,0.7,0.8,1.2,1.7,1.2c1.2,0,1.7-0.8,1.7-1.9c0-1.1-0.6-1.8-1.7-1.8c-0.8,0-1.3,0.4-1.6,1.1h-1.3v-5H302.1z"/>
		<path class="st16" d="M304.4,150.2h4.9v1.2h-4.9V150.2z"/>
		<path class="st16" d="M312.1,147.6h-1.1v-1.2h2.5v8.7h-1.4V147.6z"/>
		<path class="st16" d="M318.4,146.2c2.4,0,3.1,1.9,3.1,4.4c0,2.5-0.7,4.5-3.1,4.5s-3.1-1.9-3.1-4.5
			C315.3,148.1,316,146.2,318.4,146.2z M318.4,147.4c-1.6,0-1.8,1.5-1.8,3.2c0,1.7,0.2,3.2,1.8,3.2s1.8-1.5,1.8-3.2
			C320.2,149,320,147.4,318.4,147.4z"/>
		<path class="st16" d="M324.6,146.6c1,0,1.8,0.7,1.8,1.9c0,1.2-0.8,1.9-1.8,1.9s-1.8-0.7-1.8-1.9
			C322.8,147.3,323.6,146.6,324.6,146.6z M323.9,148.5c0,0.7,0.3,1.1,0.8,1.1c0.5,0,0.8-0.3,0.8-1.1c0-0.7-0.3-1-0.8-1
			C324.1,147.4,323.9,147.7,323.9,148.5z M328.8,146.8h1.3l-4.8,8.3H324L328.8,146.8z M329.5,151.5c1,0,1.8,0.7,1.8,1.9
			c0,1.2-0.8,1.9-1.8,1.9c-1,0-1.8-0.7-1.8-1.9C327.7,152.2,328.5,151.5,329.5,151.5z M328.7,153.4c0,0.7,0.3,1,0.8,1s0.8-0.3,0.8-1
			c0-0.7-0.3-1-0.8-1S328.7,152.6,328.7,153.4z"/>
		<path class="st16" d="M338.5,148.4c1.1,0,1.9,0.5,2.3,1.1v-1h1.4v6.6h-1.4v-1c-0.4,0.6-1.2,1.1-2.3,1.1c-1.7,0-3.1-1.4-3.1-3.4
			S336.8,148.4,338.5,148.4z M338.8,149.6c-1,0-2,0.8-2,2.2c0,1.4,1,2.3,2,2.3c1,0,2-0.8,2-2.2C340.8,150.4,339.8,149.6,338.8,149.6
			z"/>
		<path class="st16" d="M346.8,148.4c1.6,0,2.7,0.8,3,2.2h-1.5c-0.2-0.6-0.8-1-1.6-1c-1.1,0-1.8,0.8-1.8,2.3c0,1.5,0.7,2.3,1.8,2.3
			c0.8,0,1.3-0.4,1.6-1h1.5c-0.4,1.3-1.4,2.2-3,2.2c-1.9,0-3.2-1.3-3.2-3.4C343.5,149.7,344.9,148.4,346.8,148.4z"/>
		<path class="st16" d="M351.4,149.6h-0.8v-1.1h0.8v-1.6h1.4v1.6h1.6v1.1h-1.6v3.7c0,0.5,0.2,0.7,0.8,0.7h0.8v1.1h-1.1
			c-1.2,0-1.9-0.5-1.9-1.8V149.6z"/>
		<path class="st16" d="M355.5,146.7c0-0.5,0.4-0.9,0.9-0.9c0.5,0,0.9,0.4,0.9,0.9s-0.4,0.9-0.9,0.9
			C355.8,147.6,355.5,147.2,355.5,146.7z M355.6,148.5h1.4v6.6h-1.4V148.5z"/>
		<path class="st16" d="M359.5,148.5l1.9,5.4l1.9-5.4h1.5l-2.5,6.6h-1.6l-2.5-6.6H359.5z"/>
		<path class="st16" d="M368.6,155.2c-1.9,0-3.3-1.3-3.3-3.4c0-2.1,1.3-3.4,3.3-3.4c1.9,0,3.2,1.3,3.2,3.3c0,0.2,0,0.4,0,0.7h-5
			c0.1,1.1,0.9,1.8,1.9,1.8c0.8,0,1.3-0.4,1.6-0.9h1.5C371.2,154.3,370.2,155.2,368.6,155.2z M366.7,151.2h3.7c0-1-0.8-1.7-1.8-1.7
			C367.6,149.5,366.8,150.2,366.7,151.2z"/>
		<path class="st16" d="M376.1,146.7c0-0.5,0.4-0.9,0.9-0.9c0.5,0,0.9,0.4,0.9,0.9s-0.4,0.9-0.9,0.9
			C376.4,147.6,376.1,147.2,376.1,146.7z M376.2,148.5h1.4v6.6h-1.4V148.5z"/>
		<path class="st16" d="M384.1,151.4c0-1.2-0.7-1.8-1.7-1.8c-1,0-1.7,0.6-1.7,1.8v3.7h-1.4v-6.6h1.4v0.8c0.4-0.5,1.2-0.9,2-0.9
			c1.5,0,2.7,1,2.7,2.8v3.9h-1.4V151.4z"/>
		<path class="st16" d="M389.9,148.4c1.1,0,1.9,0.5,2.3,1.1v-1h1.4v6.7c0,1.8-1.2,3.2-3.2,3.2c-1.8,0-3.1-0.9-3.2-2.3h1.4
			c0.2,0.7,0.9,1.2,1.9,1.2c1.1,0,1.8-0.6,1.8-2v-1.1c-0.4,0.6-1.2,1.1-2.3,1.1c-1.7,0-3.1-1.4-3.1-3.4S388.1,148.4,389.9,148.4z
			 M390.1,149.6c-1,0-2,0.8-2,2.2c0,1.4,1,2.3,2,2.3c1,0,2-0.8,2-2.2C392.1,150.4,391.2,149.6,390.1,149.6z"/>
		<path class="st16" d="M396.7,155.1h-1.4v-6.6h1.4v1c0.4-0.7,1-1.1,2-1.1v1.4h-0.3c-1,0-1.6,0.4-1.6,1.8V155.1z"/>
		<path class="st16" d="M402.8,155.2c-1.9,0-3.3-1.3-3.3-3.4c0-2.1,1.3-3.4,3.3-3.4c1.9,0,3.2,1.3,3.2,3.3c0,0.2,0,0.4,0,0.7h-5
			c0.1,1.1,0.9,1.8,1.9,1.8c0.8,0,1.3-0.4,1.6-0.9h1.5C405.4,154.3,404.4,155.2,402.8,155.2z M400.9,151.2h3.7c0-1-0.8-1.7-1.8-1.7
			C401.8,149.5,401.1,150.2,400.9,151.2z"/>
		<path class="st16" d="M410,148.4c0.9,0,1.8,0.4,2.3,1v-3.2h1.4v8.9h-1.4v-1c-0.4,0.6-1.2,1.1-2.3,1.1c-1.7,0-3.1-1.4-3.1-3.4
			S408.3,148.4,410,148.4z M410.3,149.6c-1,0-2,0.8-2,2.2c0,1.4,1,2.3,2,2.3c1,0,2-0.8,2-2.2C412.3,150.4,411.3,149.6,410.3,149.6z"
			/>
		<path class="st16" d="M415.3,146.7c0-0.5,0.4-0.9,0.9-0.9c0.5,0,0.9,0.4,0.9,0.9s-0.4,0.9-0.9,0.9
			C415.7,147.6,415.3,147.2,415.3,146.7z M415.5,148.5h1.4v6.6h-1.4V148.5z"/>
		<path class="st16" d="M421.5,155.2c-1.9,0-3.3-1.3-3.3-3.4c0-2.1,1.3-3.4,3.3-3.4c1.9,0,3.2,1.3,3.2,3.3c0,0.2,0,0.4,0,0.7h-5
			c0.1,1.1,0.9,1.8,1.9,1.8c0.8,0,1.3-0.4,1.6-0.9h1.5C424.2,154.3,423.1,155.2,421.5,155.2z M419.6,151.2h3.7c0-1-0.8-1.7-1.8-1.7
			C420.5,149.5,419.8,150.2,419.6,151.2z"/>
		<path class="st16" d="M430.7,151.4c0-1.2-0.7-1.8-1.7-1.8c-1,0-1.7,0.6-1.7,1.8v3.7h-1.4v-6.6h1.4v0.8c0.4-0.5,1.2-0.9,2-0.9
			c1.5,0,2.7,1,2.7,2.8v3.9h-1.4V151.4z"/>
		<path class="st16" d="M434.1,149.6h-0.8v-1.1h0.8v-1.6h1.4v1.6h1.6v1.1h-1.6v3.7c0,0.5,0.2,0.7,0.8,0.7h0.8v1.1H436
			c-1.2,0-1.9-0.5-1.9-1.8V149.6z"/>
		<path class="st16" d="M440.7,155.2c-1.6,0-2.7-0.9-2.8-2.1h1.4c0,0.5,0.6,1,1.3,1c0.8,0,1.2-0.3,1.2-0.8c0-1.3-3.8-0.6-3.8-3
			c0-1.1,1-1.9,2.5-1.9c1.5,0,2.5,0.8,2.6,2.1h-1.4c0-0.6-0.5-1-1.2-1c-0.7,0-1.1,0.3-1.1,0.7c0,1.3,3.7,0.6,3.8,3
			C443.2,154.4,442.3,155.2,440.7,155.2z"/>
	</g>
	<g class="st15">
		<path class="st16" d="M9.1,255.9c0.2,0.8,0.7,1.2,1.6,1.2c1.1,0,1.6-0.7,1.6-3c-0.4,0.6-1.2,0.9-1.9,0.9c-1.5,0-2.8-0.9-2.8-2.8
			c0-1.7,1.1-2.9,2.9-2.9c2.3,0,3,1.5,3,4.4c0,3-0.6,4.5-2.9,4.5c-1.8,0-2.7-1.1-2.8-2.4H9.1z M12.2,252.3c0-1.1-0.6-1.8-1.6-1.8
			c-1,0-1.6,0.7-1.6,1.7c0,0.9,0.5,1.7,1.7,1.7C11.6,253.9,12.2,253.2,12.2,252.3z"/>
		<path class="st16" d="M20.7,249.6v1.2h-4v2.4c0.3-0.4,1-0.8,1.8-0.8c2.1,0,2.8,1.6,2.8,2.9c0,1.7-1,3.1-3,3.1c-1.8,0-2.8-1-3-2.4
			h1.3c0.2,0.7,0.8,1.2,1.7,1.2c1.2,0,1.7-0.8,1.7-1.9c0-1.1-0.6-1.8-1.7-1.8c-0.8,0-1.3,0.4-1.6,1.1h-1.3v-5H20.7z"/>
		<path class="st16" d="M26.2,253.4h4.9v1.2h-4.9V253.4z"/>
		<path class="st16" d="M37.7,255.9c0.2,0.8,0.7,1.2,1.6,1.2c1.1,0,1.6-0.7,1.6-3c-0.4,0.6-1.2,0.9-1.9,0.9c-1.5,0-2.8-0.9-2.8-2.8
			c0-1.7,1.1-2.9,2.9-2.9c2.3,0,3,1.5,3,4.4c0,3-0.6,4.5-2.9,4.5c-1.8,0-2.7-1.1-2.8-2.4H37.7z M40.8,252.3c0-1.1-0.6-1.8-1.6-1.8
			c-1,0-1.6,0.7-1.6,1.7c0,0.9,0.5,1.7,1.7,1.7C40.2,253.9,40.8,253.2,40.8,252.3z"/>
		<path class="st16" d="M46.7,249.4c2.4,0,3.1,1.9,3.1,4.4c0,2.5-0.7,4.5-3.1,4.5c-2.4,0-3.1-1.9-3.1-4.5
			C43.6,251.3,44.3,249.4,46.7,249.4z M46.7,250.7c-1.6,0-1.8,1.5-1.8,3.2c0,1.7,0.2,3.2,1.8,3.2c1.6,0,1.8-1.5,1.8-3.2
			C48.5,252.2,48.3,250.7,46.7,250.7z"/>
		<path class="st16" d="M52.9,249.8c1,0,1.8,0.7,1.8,1.9c0,1.2-0.8,1.9-1.8,1.9c-1,0-1.8-0.7-1.8-1.9
			C51.1,250.5,51.9,249.8,52.9,249.8z M52.2,251.7c0,0.7,0.3,1.1,0.8,1.1c0.5,0,0.8-0.3,0.8-1.1c0-0.7-0.3-1-0.8-1
			C52.4,250.6,52.2,250.9,52.2,251.7z M57.1,250h1.3l-4.8,8.3h-1.3L57.1,250z M57.8,254.7c1,0,1.8,0.7,1.8,1.9
			c0,1.2-0.8,1.9-1.8,1.9c-1,0-1.8-0.7-1.8-1.9C56,255.4,56.7,254.7,57.8,254.7z M57,256.6c0,0.7,0.3,1,0.8,1s0.8-0.3,0.8-1
			c0-0.7-0.3-1-0.8-1S57,255.8,57,256.6z"/>
		<path class="st16" d="M63.3,251.7h1.4l1.4,5.3l1.4-5.3h1.4l1.3,5.3l1.4-5.3H73l-2.1,6.6h-1.4l-1.3-4.9l-1.3,4.9h-1.4L63.3,251.7z"
			/>
		<path class="st16" d="M76.7,251.6c1.1,0,1.9,0.5,2.3,1.1v-1h1.4v6.6H79v-1c-0.4,0.6-1.2,1.1-2.3,1.1c-1.7,0-3.1-1.4-3.1-3.4
			S75,251.6,76.7,251.6z M77,252.8c-1,0-2,0.8-2,2.2c0,1.4,1,2.3,2,2.3c1,0,2-0.8,2-2.2C79,253.6,78,252.8,77,252.8z"/>
		<path class="st16" d="M82.4,252.8h-0.8v-1.1h0.8v-1.6h1.4v1.6h1.6v1.1h-1.6v3.7c0,0.5,0.2,0.7,0.8,0.7h0.8v1.1h-1.1
			c-1.2,0-1.9-0.5-1.9-1.8V252.8z"/>
		<path class="st16" d="M89.5,258.4c-1.9,0-3.3-1.3-3.3-3.4c0-2.1,1.3-3.4,3.3-3.4c1.9,0,3.2,1.3,3.2,3.3c0,0.2,0,0.4,0,0.7h-5
			c0.1,1.1,0.9,1.8,1.9,1.8c0.8,0,1.3-0.4,1.6-0.9h1.5C92.1,257.5,91.1,258.4,89.5,258.4z M87.6,254.4h3.7c0-1-0.8-1.7-1.8-1.7
			C88.5,252.8,87.7,253.4,87.6,254.4z"/>
		<path class="st16" d="M95.4,258.3H94v-6.6h1.4v1c0.4-0.7,1-1.1,2-1.1v1.4H97c-1,0-1.6,0.4-1.6,1.8V258.3z"/>
	</g>
</g>
</svg>
